<svg xmlns="http://www.w3.org/2000/svg" xmlns:xlink="http://www.w3.org/1999/xlink" width="240" zoomAndPan="magnify" viewBox="0 0 180 96.749999" height="129" preserveAspectRatio="xMidYMid meet" version="1.0"><defs><g/></defs><g fill="#000000" fill-opacity="1"><g transform="translate(4.343845, 70.662436)"><g><path d="M 13.765625 -10.90625 L 10.984375 0.21875 L 0 0.21875 L 0 0.140625 L 2.703125 -10.46875 L 11.203125 -44.8125 L 8.5625 -55.515625 L 27.390625 -55.515625 L 38.078125 0.21875 L 27.25 0.21875 L 25.125 -10.90625 Z M 20.140625 -36.609375 L 16.40625 -21.53125 L 23.0625 -21.53125 Z M 20.140625 -36.609375 "/></g></g></g><g fill="#000000" fill-opacity="1"><g transform="translate(41.615582, 72.686694)"><g><path d="M 27.625 -8.015625 C 28.039062 -8.015625 28.25 -7.851562 28.25 -7.53125 L 28.25 -0.5 C 28.25 -0.164062 28.039062 0 27.625 0 L 4.9375 0 C 4.519531 0 4.3125 -0.164062 4.3125 -0.5 L 4.3125 -42.671875 C 4.3125 -43.003906 4.519531 -43.171875 4.9375 -43.171875 L 12.03125 -43.171875 C 12.394531 -43.171875 12.578125 -43.003906 12.578125 -42.671875 L 12.578125 -8.015625 Z M 27.625 -8.015625 "/></g></g></g><g fill="#000000" fill-opacity="1"><g transform="translate(68.051623, 72.686694)"><g><path d="M 27.625 -8.015625 C 28.039062 -8.015625 28.25 -7.851562 28.25 -7.53125 L 28.25 -0.5 C 28.25 -0.164062 28.039062 0 27.625 0 L 4.9375 0 C 4.519531 0 4.3125 -0.164062 4.3125 -0.5 L 4.3125 -42.671875 C 4.3125 -43.003906 4.519531 -43.171875 4.9375 -43.171875 L 12.03125 -43.171875 C 12.394531 -43.171875 12.578125 -43.003906 12.578125 -42.671875 L 12.578125 -8.015625 Z M 27.625 -8.015625 "/></g></g></g><g fill="#000000" fill-opacity="1"><g transform="translate(94.329288, 72.686694)"><g><path d="M 12.640625 -35.34375 L 12.640625 -25.59375 L 29.609375 -25.59375 C 29.972656 -25.59375 30.15625 -25.425781 30.15625 -25.09375 L 30.15625 -18.25 C 30.15625 -17.925781 29.972656 -17.765625 29.609375 -17.765625 L 12.640625 -17.765625 L 12.640625 -8.015625 L 33.125 -8.015625 C 33.53125 -8.015625 33.734375 -7.851562 33.734375 -7.53125 L 33.734375 -0.5 C 33.734375 -0.164062 33.53125 0 33.125 0 L 5 0 C 4.582031 0 4.375 -0.164062 4.375 -0.5 L 4.375 -42.671875 C 4.375 -43.003906 4.582031 -43.171875 5 -43.171875 L 32.5625 -43.171875 C 32.96875 -43.171875 33.171875 -43.003906 33.171875 -42.671875 L 33.171875 -35.828125 C 33.171875 -35.503906 32.96875 -35.34375 32.5625 -35.34375 Z M 12.640625 -35.34375 "/></g></g></g><g fill="#000000" fill-opacity="1"><g transform="translate(125.777701, 72.495142)"><g><path d="M 44.4375 -0.53125 C 44.4375 -0.175781 44.210938 0 43.765625 0 L 36.03125 0 C 35.988281 0 35.898438 -0.0195312 35.765625 -0.0625 C 35.628906 -0.113281 35.535156 -0.160156 35.484375 -0.203125 L 13.84375 -31.1875 L 13.84375 -0.53125 C 13.84375 -0.175781 13.617188 0 13.171875 0 L 5.4375 0 C 5.039062 0 4.84375 -0.175781 4.84375 -0.53125 L 4.84375 -46.515625 C 4.84375 -46.867188 5.039062 -47.046875 5.4375 -47.046875 L 13.234375 -47.046875 C 13.328125 -47.046875 13.429688 -47.035156 13.546875 -47.015625 C 13.660156 -46.992188 13.738281 -46.9375 13.78125 -46.84375 L 35.484375 -15.859375 L 35.484375 -46.515625 C 35.484375 -46.867188 35.707031 -47.046875 36.15625 -47.046875 L 43.765625 -47.046875 C 44.210938 -47.046875 44.4375 -46.867188 44.4375 -46.515625 Z M 44.4375 -0.53125 "/></g></g></g></svg>