<svg xmlns="http://www.w3.org/2000/svg" xmlns:xlink="http://www.w3.org/1999/xlink" width="60" zoomAndPan="magnify" viewBox="0 0 45 44.999999" height="60" preserveAspectRatio="xMidYMid meet" version="1.0"><defs><clipPath id="50f2db4e32"><path d="M 3.363281 4.5 L 16.863281 4.5 L 16.863281 18 L 3.363281 18 Z M 3.363281 4.5 " clip-rule="nonzero"/></clipPath><clipPath id="142307eb29"><path d="M 10.113281 4.5 C 6.386719 4.5 3.363281 7.523438 3.363281 11.25 C 3.363281 14.976562 6.386719 18 10.113281 18 C 13.839844 18 16.863281 14.976562 16.863281 11.25 C 16.863281 7.523438 13.839844 4.5 10.113281 4.5 Z M 10.113281 4.5 " clip-rule="nonzero"/></clipPath></defs><path fill="#000000" d="M 39.34375 0.0859375 L 5.644531 0.0859375 C 2.546875 0.0859375 0 2.628906 0 5.714844 L 0 39.257812 C 0 42.34375 2.546875 44.910156 5.644531 44.910156 L 22.410156 44.910156 L 22.410156 29.441406 L 16.875 29.441406 L 16.875 22.585938 L 22.410156 22.585938 L 22.410156 16.894531 C 22.410156 12.261719 26.265625 8.613281 30.917969 8.613281 L 36.648438 8.613281 L 36.648438 15.554688 L 33.726562 15.554688 C 32.175781 15.554688 30.9375 15.351562 30.9375 16.894531 L 30.9375 22.585938 L 37.941406 22.585938 L 35.132812 29.441406 L 30.9375 29.441406 L 30.9375 44.910156 L 39.34375 44.910156 C 42.441406 44.910156 45 42.34375 45 39.257812 L 45 5.714844 C 45 2.628906 42.441406 0.0859375 39.34375 0.0859375 Z M 39.34375 0.0859375 " fill-opacity="1" fill-rule="nonzero"/><g clip-path="url(#50f2db4e32)"><g clip-path="url(#142307eb29)"><path fill="#000000" d="M 3.363281 4.5 L 16.863281 4.5 L 16.863281 18 L 3.363281 18 Z M 3.363281 4.5 " fill-opacity="1" fill-rule="nonzero"/></g></g></svg>