<svg xmlns="http://www.w3.org/2000/svg" xmlns:xlink="http://www.w3.org/1999/xlink" width="64" zoomAndPan="magnify" viewBox="0 0 48 48" height="64" preserveAspectRatio="xMidYMid meet" version="1.0"><defs><g/><clipPath id="ff4a7f18c1"><path d="M 18 7 L 30 7 L 30 13.621094 L 18 13.621094 Z M 18 7 " clip-rule="nonzero"/></clipPath><clipPath id="a27c30b2be"><path d="M 18 6 L 31 6 L 31 13.621094 L 18 13.621094 Z M 18 6 " clip-rule="nonzero"/></clipPath><clipPath id="ec8cefec64"><path d="M 14.007812 9 L 17 9 L 17 10 L 14.007812 10 Z M 14.007812 9 " clip-rule="nonzero"/></clipPath><clipPath id="d9a66191ac"><path d="M 21 3.335938 L 22 3.335938 L 22 6 L 21 6 Z M 21 3.335938 " clip-rule="nonzero"/></clipPath><clipPath id="c83affb844"><path d="M 26 3.335938 L 28 3.335938 L 28 6 L 26 6 Z M 26 3.335938 " clip-rule="nonzero"/></clipPath><clipPath id="d9cbffb9fb"><path d="M 32 8 L 33.84375 8 L 33.84375 9 L 32 9 Z M 32 8 " clip-rule="nonzero"/></clipPath><clipPath id="5906cd2687"><path d="M 32 10 L 33.84375 10 L 33.84375 11 L 32 11 Z M 32 10 " clip-rule="nonzero"/></clipPath></defs><g fill="#000000" fill-opacity="1"><g transform="translate(15.496769, 43.7048)"><g><path d="M 0.53125 0 L 3.46875 -30.359375 L 13.75 -30.359375 L 16.640625 0 L 10.890625 0 L 10.46875 -4.90625 L 6.78125 -4.90625 L 6.4375 0 Z M 7.25 -9.75 L 10 -9.75 L 8.65625 -25.203125 L 8.375 -25.203125 Z M 7.25 -9.75 "/></g></g></g><g clip-path="url(#ff4a7f18c1)"><path fill="#fccb1e" d="M 28.964844 13.222656 C 25.996094 12.796875 22.058594 12.734375 19.121094 13.328125 C 19.105469 11.640625 18.742188 9.972656 18.382812 8.320312 C 19.539062 9.351562 20.832031 10.226562 22.21875 10.925781 C 23.25 9.792969 24.121094 8.363281 24.683594 7.144531 C 25.246094 8.363281 26.117188 9.863281 26.824219 10.902344 C 27.949219 9.914062 28.851562 8.914062 29.820312 8.054688 C 29.1875 10.019531 28.964844 11.675781 28.941406 13.265625 " fill-opacity="1" fill-rule="nonzero"/></g><g clip-path="url(#a27c30b2be)"><path fill="#100f0d" d="M 29.035156 12.964844 C 26.648438 12.652344 24.238281 12.53125 21.835938 12.707031 C 21.046875 12.765625 19.777344 13.234375 19.355469 12.488281 C 19.417969 12.59375 19.125 10.628906 19.140625 10.742188 C 19.007812 9.90625 18.824219 9.078125 18.644531 8.25 C 18.496094 8.335938 18.34375 8.421875 18.191406 8.507812 C 19.40625 9.542969 20.664062 10.402344 22.082031 11.15625 C 22.179688 11.207031 22.332031 11.207031 22.410156 11.113281 C 22.828125 10.621094 23.050781 10.375 23.425781 9.847656 C 23.539062 9.683594 24.453125 7.953125 24.609375 7.902344 C 24.792969 7.84375 26.371094 10.707031 26.589844 11.035156 C 26.6875 11.183594 26.882812 11.207031 27.015625 11.089844 C 28.035156 10.164062 28.996094 9.175781 30.011719 8.242188 C 29.859375 8.15625 29.710938 8.070312 29.558594 7.984375 C 29.035156 9.734375 28.730469 11.445312 28.671875 13.265625 C 28.660156 13.609375 29.199219 13.609375 29.210938 13.265625 C 29.269531 11.5 29.574219 9.820312 30.078125 8.125 C 30.15625 7.863281 29.820312 7.691406 29.628906 7.867188 C 29.085938 8.363281 27.636719 10.277344 26.933594 10.21875 C 26.164062 10.152344 25.230469 7.664062 24.914062 7.011719 C 24.832031 6.839844 24.535156 6.839844 24.449219 7.011719 C 23.949219 8.03125 23.398438 9.464844 22.3125 9.957031 C 21.433594 10.355469 21.460938 10.246094 20.675781 9.730469 C 19.9375 9.246094 19.246094 8.707031 18.574219 8.132812 C 18.371094 7.960938 18.066406 8.128906 18.125 8.390625 C 18.476562 10.03125 18.78125 11.652344 18.851562 13.328125 C 18.859375 13.511719 19.015625 13.617188 19.191406 13.585938 C 22.386719 13 25.679688 13.054688 28.890625 13.476562 C 29.230469 13.523438 29.378906 13.011719 29.035156 12.964844 " fill-opacity="1" fill-rule="nonzero"/></g><path fill="#faf783" d="M 24.59375 7.421875 C 24.914062 7.472656 25.269531 7.355469 25.453125 7.09375 C 25.636719 6.832031 25.605469 6.429688 25.355469 6.230469 C 25.238281 6.136719 25.085938 6.089844 24.9375 6.078125 C 24.4375 6.042969 23.941406 6.429688 23.863281 6.914062 C 23.851562 6.992188 23.851562 7.074219 23.882812 7.148438 C 23.929688 7.253906 24.039062 7.316406 24.144531 7.363281 C 24.371094 7.464844 24.617188 7.515625 24.863281 7.523438 " fill-opacity="1" fill-rule="nonzero"/><path fill="#100f0d" d="M 24.59375 7.621094 C 25.132812 7.683594 25.714844 7.367188 25.765625 6.796875 C 25.820312 6.238281 25.355469 5.847656 24.804688 5.878906 C 24.261719 5.914062 23.761719 6.332031 23.667969 6.863281 C 23.550781 7.523438 24.351562 7.695312 24.863281 7.722656 C 25.125 7.734375 25.125 7.335938 24.863281 7.324219 C 24.585938 7.308594 23.960938 7.242188 24.089844 6.84375 C 24.183594 6.546875 24.476562 6.316406 24.789062 6.28125 C 25.125 6.246094 25.441406 6.464844 25.355469 6.824219 C 25.273438 7.160156 24.902344 7.257812 24.59375 7.222656 C 24.335938 7.195312 24.339844 7.589844 24.59375 7.621094 " fill-opacity="1" fill-rule="nonzero"/><path fill="#faf783" d="M 29.625 8.015625 C 29.746094 8.09375 29.878906 8.160156 30.019531 8.207031 C 30.28125 8.292969 30.585938 8.3125 30.828125 8.175781 C 31.066406 8.035156 31.195312 7.703125 31.046875 7.472656 C 30.992188 7.398438 30.917969 7.339844 30.84375 7.285156 C 30.636719 7.140625 30.398438 7.011719 30.140625 7.027344 C 30.023438 7.035156 29.90625 7.074219 29.796875 7.121094 C 29.671875 7.175781 29.542969 7.253906 29.484375 7.375 C 29.40625 7.527344 29.457031 7.722656 29.570312 7.855469 C 29.683594 7.988281 29.847656 8.070312 30.011719 8.128906 " fill-opacity="1" fill-rule="nonzero"/><path fill="#100f0d" d="M 29.523438 8.1875 C 29.976562 8.460938 30.675781 8.652344 31.101562 8.210938 C 31.523438 7.769531 31.238281 7.273438 30.785156 7.011719 C 30.347656 6.757812 29.707031 6.761719 29.367188 7.1875 C 28.976562 7.679688 29.519531 8.148438 29.957031 8.320312 C 30.199219 8.417969 30.304688 8.035156 30.066406 7.9375 C 29.726562 7.804688 29.457031 7.457031 29.933594 7.277344 C 30.199219 7.179688 30.433594 7.253906 30.660156 7.40625 C 30.949219 7.59375 30.984375 7.941406 30.605469 8.050781 C 30.300781 8.140625 29.976562 7.996094 29.726562 7.84375 C 29.503906 7.710938 29.300781 8.054688 29.523438 8.1875 " fill-opacity="1" fill-rule="nonzero"/><path fill="#faf783" d="M 18.449219 8.429688 C 18.730469 8.269531 18.925781 7.96875 18.949219 7.648438 C 18.953125 7.578125 18.953125 7.503906 18.917969 7.4375 C 18.894531 7.382812 18.847656 7.339844 18.796875 7.308594 C 18.597656 7.171875 18.328125 7.175781 18.097656 7.257812 C 17.933594 7.3125 17.777344 7.402344 17.648438 7.519531 C 17.546875 7.613281 17.457031 7.726562 17.414062 7.863281 C 17.375 7.996094 17.390625 8.148438 17.480469 8.257812 C 17.566406 8.367188 17.710938 8.414062 17.851562 8.429688 C 18.167969 8.464844 18.5 8.335938 18.707031 8.101562 " fill-opacity="1" fill-rule="nonzero"/><path fill="#100f0d" d="M 18.550781 8.601562 C 18.925781 8.367188 19.339844 7.789062 19.09375 7.335938 C 18.820312 6.828125 18.054688 6.988281 17.667969 7.25 C 17.292969 7.511719 16.964844 8.082031 17.394531 8.457031 C 17.820312 8.824219 18.507812 8.59375 18.851562 8.242188 C 19.03125 8.054688 18.746094 7.773438 18.5625 7.960938 C 18.378906 8.148438 18.097656 8.292969 17.824219 8.226562 C 17.351562 8.113281 17.738281 7.671875 17.960938 7.539062 C 18.152344 7.425781 18.691406 7.25 18.746094 7.613281 C 18.785156 7.867188 18.542969 8.136719 18.347656 8.257812 C 18.125 8.394531 18.328125 8.738281 18.550781 8.601562 " fill-opacity="1" fill-rule="nonzero"/><g clip-path="url(#ec8cefec64)"><path fill="#100f0d" d="M 16.179688 9.378906 C 15.578125 9.265625 14.972656 9.15625 14.371094 9.046875 C 14.117188 9 14.007812 9.382812 14.261719 9.429688 C 14.867188 9.542969 15.46875 9.652344 16.070312 9.761719 C 16.328125 9.808594 16.4375 9.421875 16.179688 9.378906 " fill-opacity="1" fill-rule="nonzero"/></g><path fill="#100f0d" d="M 17.136719 6.21875 C 16.828125 5.8125 16.4375 5.519531 15.957031 5.324219 C 15.71875 5.226562 15.613281 5.613281 15.851562 5.710938 C 16.222656 5.859375 16.546875 6.105469 16.785156 6.421875 C 16.941406 6.621094 17.292969 6.425781 17.136719 6.21875 " fill-opacity="1" fill-rule="nonzero"/><g clip-path="url(#d9a66191ac)"><path fill="#100f0d" d="M 21.652344 5.265625 C 21.605469 4.785156 21.546875 4.304688 21.472656 3.828125 C 21.433594 3.574219 21.042969 3.679688 21.082031 3.933594 C 21.148438 4.375 21.203125 4.820312 21.246094 5.265625 C 21.269531 5.519531 21.675781 5.519531 21.652344 5.265625 " fill-opacity="1" fill-rule="nonzero"/></g><g clip-path="url(#c83affb844)"><path fill="#100f0d" d="M 26.851562 4.980469 C 26.886719 4.542969 26.964844 4.117188 27.078125 3.691406 C 27.144531 3.445312 26.753906 3.339844 26.6875 3.585938 C 26.566406 4.042969 26.484375 4.507812 26.445312 4.980469 C 26.425781 5.234375 26.832031 5.234375 26.851562 4.980469 " fill-opacity="1" fill-rule="nonzero"/></g><path fill="#100f0d" d="M 30.730469 5.476562 C 31.113281 5.289062 31.5 5.101562 31.886719 4.914062 C 32.121094 4.796875 31.914062 4.457031 31.679688 4.570312 C 31.296875 4.757812 30.910156 4.945312 30.523438 5.132812 C 30.292969 5.246094 30.496094 5.589844 30.730469 5.476562 " fill-opacity="1" fill-rule="nonzero"/><g clip-path="url(#d9cbffb9fb)"><path fill="#100f0d" d="M 32.5 8.433594 C 32.863281 8.433594 33.222656 8.433594 33.582031 8.433594 C 33.84375 8.433594 33.84375 8.035156 33.582031 8.035156 C 33.222656 8.035156 32.863281 8.035156 32.5 8.035156 C 32.242188 8.035156 32.238281 8.433594 32.5 8.433594 " fill-opacity="1" fill-rule="nonzero"/></g><g clip-path="url(#5906cd2687)"><path fill="#100f0d" d="M 32.265625 10.941406 C 32.53125 10.90625 32.796875 10.867188 33.058594 10.832031 C 33.316406 10.792969 33.207031 10.410156 32.953125 10.445312 C 32.6875 10.484375 32.421875 10.519531 32.160156 10.558594 C 31.902344 10.59375 32.011719 10.976562 32.265625 10.941406 " fill-opacity="1" fill-rule="nonzero"/></g></svg>