<?xml version="1.0" standalone="no"?>
<!DOCTYPE svg PUBLIC "-//W3C//DTD SVG 20010904//EN"
 "http://www.w3.org/TR/2001/REC-SVG-20010904/DTD/svg10.dtd">
<svg version="1.0" xmlns="http://www.w3.org/2000/svg"
 width="60.000000pt" height="60.000000pt" viewBox="0 0 60.000000 60.000000"
 preserveAspectRatio="xMidYMid meet">

<g transform="translate(0.000000,60.000000) scale(0.100000,-0.100000)"
fill="#000000" stroke="none">
<path d="M116 585 c-54 -19 -92 -59 -105 -110 -6 -24 -11 -106 -11 -182 1
-181 18 -230 95 -271 39 -22 339 -24 397 -4 45 16 84 59 98 110 13 48 13 296
-1 345 -15 56 -61 103 -113 116 -64 16 -312 13 -360 -4z m372 -53 c50 -28 57
-54 57 -222 0 -246 -4 -250 -244 -250 -177 0 -203 6 -228 54 -19 37 -29 201
-18 300 8 78 32 113 85 126 52 13 320 7 348 -8z"/>
<path d="M435 480 c-15 -16 -15 -22 -5 -35 17 -21 47 -19 59 4 8 14 6 22 -8
35 -22 20 -24 20 -46 -4z"/>
<path d="M222 430 c-100 -61 -95 -211 8 -262 102 -52 220 19 220 131 0 117
-129 191 -228 131z m155 -65 c53 -61 5 -165 -77 -165 -90 0 -133 124 -62 181
38 29 107 22 139 -16z"/>
</g>
</svg>
