<?xml version="1.0" standalone="no"?>
<!DOCTYPE svg PUBLIC "-//W3C//DTD SVG 20010904//EN"
 "http://www.w3.org/TR/2001/REC-SVG-20010904/DTD/svg10.dtd">
<svg version="1.0" xmlns="http://www.w3.org/2000/svg"
 width="60.000000pt" height="58.000000pt" viewBox="0 0 60.000000 58.000000"
 preserveAspectRatio="xMidYMid meet">

<g transform="translate(0.000000,58.000000) scale(0.100000,-0.100000)"
fill="#000000" stroke="none">
<path d="M26 549 c-50 -39 -20 -109 47 -109 42 0 67 26 67 68 0 57 -64 80
-114 41z"/>
<path d="M400 383 c-8 -3 -25 -15 -37 -26 l-23 -20 0 21 c0 20 -5 22 -65 22
l-65 0 0 -190 0 -190 65 0 65 0 0 128 c0 144 8 162 68 162 52 0 62 -26 62
-167 l0 -123 65 0 65 0 0 128 c0 148 -9 188 -50 227 -23 22 -40 29 -82 31 -29
2 -60 1 -68 -3z"/>
<path d="M10 190 l0 -190 65 0 65 0 0 190 0 190 -65 0 -65 0 0 -190z"/>
</g>
</svg>
