<svg xmlns="http://www.w3.org/2000/svg" xmlns:xlink="http://www.w3.org/1999/xlink" width="240" zoomAndPan="magnify" viewBox="0 0 180 96.749999" height="129" preserveAspectRatio="xMidYMid meet" version="1.0"><defs><g/><clipPath id="085b723ae3"><path d="M 5 34 L 20 34 L 20 42.832031 L 5 42.832031 Z M 5 34 " clip-rule="nonzero"/></clipPath><clipPath id="a9cfc6bfa0"><path d="M 0.230469 37 L 4 37 L 4 38 L 0.230469 38 Z M 0.230469 37 " clip-rule="nonzero"/></clipPath><clipPath id="94abfe48a7"><path d="M 22 35 L 24.613281 35 L 24.613281 37 L 22 37 Z M 22 35 " clip-rule="nonzero"/></clipPath></defs><g fill="#000000" fill-opacity="1"><g transform="translate(2.60067, 77.704875)"><g><path d="M 0.625 0 L 4.078125 -35.765625 L 16.203125 -35.765625 L 19.609375 0 L 12.828125 0 L 12.328125 -5.78125 L 8 -5.78125 L 7.578125 0 Z M 8.53125 -11.5 L 11.78125 -11.5 L 10.203125 -29.6875 L 9.875 -29.6875 Z M 8.53125 -11.5 "/></g></g></g><g fill="#000000" fill-opacity="1"><g transform="translate(22.790534, 77.704875)"><g><path d="M 1.578125 0 L 1.578125 -35.765625 L 8.75 -35.765625 L 8.75 -6.078125 L 16.109375 -6.078125 L 16.109375 0 Z M 1.578125 0 "/></g></g></g><g fill="#000000" fill-opacity="1"><g transform="translate(39.317086, 77.704875)"><g><path d="M 1.578125 0 L 1.578125 -35.765625 L 8.75 -35.765625 L 8.75 -6.078125 L 16.109375 -6.078125 L 16.109375 0 Z M 1.578125 0 "/></g></g></g><g fill="#000000" fill-opacity="1"><g transform="translate(55.843638, 77.704875)"><g><path d="M 1.578125 0 L 1.578125 -35.765625 L 15.90625 -35.765625 L 15.90625 -28.859375 L 8.875 -28.859375 L 8.875 -21.90625 L 15.609375 -21.90625 L 15.609375 -15.15625 L 8.875 -15.15625 L 8.875 -6.953125 L 16.359375 -6.953125 L 16.359375 0 Z M 1.578125 0 "/></g></g></g><g fill="#000000" fill-opacity="1"><g transform="translate(72.994617, 77.704875)"><g><path d="M 1.578125 0 L 1.578125 -35.765625 L 8.953125 -35.765625 L 12.25 -18.65625 L 12.25 -35.765625 L 19.15625 -35.765625 L 19.15625 0 L 12.15625 0 L 8.578125 -17.90625 L 8.578125 0 Z M 1.578125 0 "/></g></g></g><g clip-path="url(#085b723ae3)"><path fill="#fccb1e" d="M 18.613281 42.332031 C 14.964844 41.796875 10.125 41.71875 6.515625 42.46875 C 6.496094 40.339844 6.050781 38.242188 5.609375 36.160156 C 7.027344 37.453125 8.617188 38.5625 10.324219 39.441406 C 11.589844 38.011719 12.660156 36.210938 13.351562 34.679688 C 14.042969 36.210938 15.117188 38.101562 15.980469 39.410156 C 17.363281 38.167969 18.472656 36.90625 19.664062 35.824219 C 18.890625 38.296875 18.613281 40.382812 18.585938 42.390625 " fill-opacity="1" fill-rule="nonzero"/><path fill="#100f0d" d="M 18.699219 42.011719 C 15.769531 41.613281 12.808594 41.464844 9.855469 41.683594 C 8.882812 41.757812 7.324219 42.347656 6.804688 41.40625 C 6.878906 41.542969 6.519531 39.066406 6.542969 39.207031 C 6.375 38.15625 6.148438 37.113281 5.929688 36.070312 C 5.746094 36.179688 5.5625 36.289062 5.375 36.394531 C 6.867188 37.699219 8.414062 38.78125 10.15625 39.730469 C 10.273438 39.792969 10.460938 39.792969 10.558594 39.675781 C 11.070312 39.058594 11.34375 38.742188 11.804688 38.082031 C 11.949219 37.875 13.070312 35.695312 13.261719 35.632812 C 13.488281 35.558594 15.429688 39.164062 15.695312 39.578125 C 15.8125 39.765625 16.054688 39.796875 16.214844 39.648438 C 17.472656 38.480469 18.652344 37.234375 19.898438 36.058594 C 19.714844 35.949219 19.527344 35.84375 19.34375 35.734375 C 18.699219 37.941406 18.324219 40.09375 18.253906 42.390625 C 18.238281 42.820312 18.902344 42.820312 18.917969 42.390625 C 18.988281 40.164062 19.363281 38.046875 19.984375 35.910156 C 20.082031 35.582031 19.664062 35.363281 19.429688 35.585938 C 18.761719 36.214844 16.980469 38.621094 16.117188 38.546875 C 15.167969 38.464844 14.027344 35.332031 13.636719 34.511719 C 13.535156 34.292969 13.167969 34.292969 13.0625 34.511719 C 12.449219 35.792969 11.773438 37.601562 10.4375 38.21875 C 9.355469 38.71875 9.390625 38.582031 8.425781 37.933594 C 7.519531 37.320312 6.667969 36.644531 5.84375 35.921875 C 5.59375 35.703125 5.21875 35.914062 5.289062 36.25 C 5.722656 38.3125 6.097656 40.351562 6.183594 42.46875 C 6.191406 42.699219 6.386719 42.832031 6.605469 42.789062 C 10.53125 42.054688 14.578125 42.121094 18.523438 42.65625 C 18.941406 42.710938 19.121094 42.066406 18.699219 42.011719 " fill-opacity="1" fill-rule="nonzero"/></g><path fill="#faf783" d="M 13.242188 35.027344 C 13.636719 35.09375 14.074219 34.941406 14.296875 34.613281 C 14.523438 34.28125 14.484375 33.777344 14.175781 33.523438 C 14.035156 33.40625 13.847656 33.347656 13.664062 33.335938 C 13.046875 33.289062 12.4375 33.773438 12.34375 34.386719 C 12.328125 34.488281 12.328125 34.589844 12.367188 34.679688 C 12.425781 34.8125 12.558594 34.894531 12.691406 34.953125 C 12.96875 35.078125 13.269531 35.144531 13.574219 35.152344 " fill-opacity="1" fill-rule="nonzero"/><path fill="#100f0d" d="M 13.242188 35.277344 C 13.90625 35.355469 14.617188 34.957031 14.683594 34.238281 C 14.75 33.535156 14.179688 33.042969 13.5 33.085938 C 12.832031 33.125 12.222656 33.65625 12.105469 34.320312 C 11.960938 35.152344 12.941406 35.371094 13.574219 35.402344 C 13.894531 35.417969 13.894531 34.917969 13.574219 34.902344 C 13.230469 34.882812 12.464844 34.796875 12.621094 34.296875 C 12.738281 33.921875 13.09375 33.632812 13.480469 33.589844 C 13.894531 33.542969 14.28125 33.820312 14.175781 34.273438 C 14.078125 34.695312 13.621094 34.820312 13.242188 34.777344 C 12.925781 34.738281 12.925781 35.238281 13.242188 35.277344 " fill-opacity="1" fill-rule="nonzero"/><path fill="#faf783" d="M 19.425781 35.773438 C 19.574219 35.875 19.738281 35.953125 19.910156 36.011719 C 20.234375 36.125 20.609375 36.148438 20.902344 35.972656 C 21.195312 35.800781 21.355469 35.378906 21.171875 35.09375 C 21.109375 34.996094 21.015625 34.921875 20.921875 34.855469 C 20.667969 34.671875 20.375 34.507812 20.0625 34.527344 C 19.914062 34.535156 19.769531 34.585938 19.636719 34.648438 C 19.480469 34.71875 19.328125 34.8125 19.25 34.964844 C 19.15625 35.160156 19.21875 35.40625 19.359375 35.574219 C 19.496094 35.738281 19.699219 35.839844 19.898438 35.917969 " fill-opacity="1" fill-rule="nonzero"/><path fill="#100f0d" d="M 19.300781 35.992188 C 19.859375 36.335938 20.71875 36.574219 21.238281 36.019531 C 21.761719 35.460938 21.410156 34.835938 20.851562 34.507812 C 20.3125 34.191406 19.527344 34.191406 19.109375 34.730469 C 18.628906 35.351562 19.296875 35.941406 19.832031 36.160156 C 20.128906 36.28125 20.257812 35.796875 19.964844 35.675781 C 19.550781 35.507812 19.222656 35.070312 19.804688 34.84375 C 20.132812 34.71875 20.417969 34.8125 20.699219 35.003906 C 21.050781 35.242188 21.097656 35.683594 20.628906 35.820312 C 20.257812 35.929688 19.859375 35.75 19.550781 35.558594 C 19.277344 35.386719 19.027344 35.820312 19.300781 35.992188 " fill-opacity="1" fill-rule="nonzero"/><path fill="#faf783" d="M 5.6875 36.296875 C 6.035156 36.09375 6.273438 35.714844 6.304688 35.3125 C 6.3125 35.222656 6.308594 35.128906 6.269531 35.046875 C 6.234375 34.980469 6.179688 34.925781 6.121094 34.882812 C 5.875 34.707031 5.539062 34.71875 5.257812 34.816406 C 5.054688 34.886719 4.863281 35.003906 4.707031 35.148438 C 4.578125 35.269531 4.46875 35.414062 4.421875 35.578125 C 4.371094 35.746094 4.390625 35.941406 4.5 36.078125 C 4.605469 36.214844 4.785156 36.277344 4.957031 36.296875 C 5.347656 36.339844 5.75 36.179688 6.007812 35.878906 " fill-opacity="1" fill-rule="nonzero"/><path fill="#100f0d" d="M 5.816406 36.511719 C 6.277344 36.214844 6.78125 35.492188 6.484375 34.917969 C 6.144531 34.277344 5.207031 34.476562 4.730469 34.8125 C 4.269531 35.136719 3.867188 35.859375 4.394531 36.328125 C 4.914062 36.792969 5.761719 36.5 6.183594 36.058594 C 6.40625 35.824219 6.054688 35.46875 5.832031 35.703125 C 5.605469 35.941406 5.257812 36.121094 4.917969 36.039062 C 4.34375 35.894531 4.816406 35.339844 5.089844 35.171875 C 5.328125 35.03125 5.988281 34.808594 6.054688 35.265625 C 6.105469 35.585938 5.804688 35.925781 5.5625 36.078125 C 5.292969 36.253906 5.542969 36.6875 5.816406 36.511719 " fill-opacity="1" fill-rule="nonzero"/><g clip-path="url(#a9cfc6bfa0)"><path fill="#100f0d" d="M 2.902344 37.488281 C 2.160156 37.351562 1.417969 37.210938 0.679688 37.074219 C 0.363281 37.015625 0.230469 37.5 0.546875 37.558594 C 1.285156 37.695312 2.027344 37.832031 2.769531 37.972656 C 3.082031 38.03125 3.214844 37.546875 2.902344 37.488281 " fill-opacity="1" fill-rule="nonzero"/></g><path fill="#100f0d" d="M 4.074219 33.511719 C 3.695312 33 3.21875 32.628906 2.628906 32.386719 C 2.332031 32.261719 2.203125 32.746094 2.496094 32.867188 C 2.953125 33.054688 3.351562 33.367188 3.644531 33.765625 C 3.835938 34.019531 4.269531 33.769531 4.074219 33.511719 " fill-opacity="1" fill-rule="nonzero"/><path fill="#100f0d" d="M 9.625 32.308594 C 9.570312 31.703125 9.496094 31.097656 9.40625 30.496094 C 9.355469 30.179688 8.875 30.3125 8.925781 30.628906 C 9.007812 31.1875 9.074219 31.746094 9.125 32.308594 C 9.15625 32.628906 9.652344 32.628906 9.625 32.308594 " fill-opacity="1" fill-rule="nonzero"/><path fill="#100f0d" d="M 16.015625 31.949219 C 16.0625 31.398438 16.15625 30.859375 16.296875 30.328125 C 16.378906 30.015625 15.898438 29.882812 15.816406 30.195312 C 15.664062 30.769531 15.566406 31.355469 15.519531 31.949219 C 15.492188 32.269531 15.992188 32.269531 16.015625 31.949219 " fill-opacity="1" fill-rule="nonzero"/><path fill="#100f0d" d="M 20.785156 32.574219 C 21.257812 32.335938 21.730469 32.101562 22.203125 31.863281 C 22.492188 31.722656 22.238281 31.289062 21.953125 31.433594 C 21.480469 31.667969 21.003906 31.90625 20.53125 32.140625 C 20.246094 32.285156 20.496094 32.71875 20.785156 32.574219 " fill-opacity="1" fill-rule="nonzero"/><g clip-path="url(#94abfe48a7)"><path fill="#100f0d" d="M 22.960938 36.300781 C 23.402344 36.300781 23.847656 36.300781 24.289062 36.300781 C 24.609375 36.300781 24.613281 35.800781 24.289062 35.800781 C 23.847656 35.800781 23.402344 35.800781 22.960938 35.800781 C 22.640625 35.800781 22.640625 36.300781 22.960938 36.300781 " fill-opacity="1" fill-rule="nonzero"/></g><path fill="#100f0d" d="M 22.671875 39.460938 C 22.996094 39.414062 23.320312 39.367188 23.648438 39.320312 C 23.960938 39.273438 23.828125 38.792969 23.515625 38.835938 C 23.1875 38.882812 22.863281 38.929688 22.539062 38.976562 C 22.222656 39.023438 22.359375 39.503906 22.671875 39.460938 " fill-opacity="1" fill-rule="nonzero"/></svg>