<svg xmlns="http://www.w3.org/2000/svg" xmlns:xlink="http://www.w3.org/1999/xlink" width="240" zoomAndPan="magnify" viewBox="0 0 180 96.749999" height="129" preserveAspectRatio="xMidYMid meet" version="1.0"><defs><g/><clipPath id="fd5beb2381"><path d="M 5 26 L 20 26 L 20 34.605469 L 5 34.605469 Z M 5 26 " clip-rule="nonzero"/></clipPath><clipPath id="621899db37"><path d="M 0.230469 28 L 4 28 L 4 30 L 0.230469 30 Z M 0.230469 28 " clip-rule="nonzero"/></clipPath><clipPath id="30ddc987ae"><path d="M 15 21.652344 L 17 21.652344 L 17 24 L 15 24 Z M 15 21.652344 " clip-rule="nonzero"/></clipPath><clipPath id="ca86aca51a"><path d="M 22 27 L 24.613281 27 L 24.613281 29 L 22 29 Z M 22 27 " clip-rule="nonzero"/></clipPath></defs><g fill="#000000" fill-opacity="1"><g transform="translate(2.60067, 69.476139)"><g><path d="M 0.625 0 L 4.078125 -35.765625 L 16.203125 -35.765625 L 19.609375 0 L 12.828125 0 L 12.328125 -5.78125 L 8 -5.78125 L 7.578125 0 Z M 8.53125 -11.5 L 11.78125 -11.5 L 10.203125 -29.6875 L 9.875 -29.6875 Z M 8.53125 -11.5 "/></g></g></g><g fill="#000000" fill-opacity="1"><g transform="translate(22.790534, 69.476139)"><g><path d="M 1.578125 0 L 1.578125 -35.765625 L 8.75 -35.765625 L 8.75 -6.078125 L 16.109375 -6.078125 L 16.109375 0 Z M 1.578125 0 "/></g></g></g><g fill="#000000" fill-opacity="1"><g transform="translate(39.317086, 69.476139)"><g><path d="M 1.578125 0 L 1.578125 -35.765625 L 8.75 -35.765625 L 8.75 -6.078125 L 16.109375 -6.078125 L 16.109375 0 Z M 1.578125 0 "/></g></g></g><g fill="#000000" fill-opacity="1"><g transform="translate(55.843638, 69.476139)"><g><path d="M 1.578125 0 L 1.578125 -35.765625 L 15.90625 -35.765625 L 15.90625 -28.859375 L 8.875 -28.859375 L 8.875 -21.90625 L 15.609375 -21.90625 L 15.609375 -15.15625 L 8.875 -15.15625 L 8.875 -6.953125 L 16.359375 -6.953125 L 16.359375 0 Z M 1.578125 0 "/></g></g></g><g fill="#000000" fill-opacity="1"><g transform="translate(72.994617, 69.476139)"><g><path d="M 1.578125 0 L 1.578125 -35.765625 L 8.953125 -35.765625 L 12.25 -18.65625 L 12.25 -35.765625 L 19.15625 -35.765625 L 19.15625 0 L 12.15625 0 L 8.578125 -17.90625 L 8.578125 0 Z M 1.578125 0 "/></g></g></g><g clip-path="url(#fd5beb2381)"><path fill="#fccb1e" d="M 18.613281 34.105469 C 14.964844 33.566406 10.125 33.488281 6.515625 34.238281 C 6.496094 32.109375 6.050781 30.011719 5.609375 27.929688 C 7.027344 29.226562 8.617188 30.332031 10.324219 31.210938 C 11.589844 29.785156 12.660156 27.980469 13.351562 26.449219 C 14.042969 27.980469 15.117188 29.875 15.980469 31.183594 C 17.363281 29.9375 18.472656 28.675781 19.664062 27.59375 C 18.890625 30.070312 18.613281 32.15625 18.585938 34.160156 " fill-opacity="1" fill-rule="nonzero"/><path fill="#100f0d" d="M 18.699219 33.78125 C 15.769531 33.386719 12.808594 33.234375 9.855469 33.457031 C 8.882812 33.527344 7.324219 34.121094 6.804688 33.179688 C 6.878906 33.3125 6.519531 30.839844 6.542969 30.980469 C 6.375 29.925781 6.148438 28.882812 5.929688 27.84375 C 5.746094 27.949219 5.5625 28.058594 5.375 28.167969 C 6.867188 29.46875 8.414062 30.554688 10.15625 31.5 C 10.273438 31.566406 10.460938 31.5625 10.558594 31.449219 C 11.070312 30.828125 11.34375 30.515625 11.804688 29.851562 C 11.949219 29.644531 13.070312 27.464844 13.261719 27.402344 C 13.488281 27.332031 15.429688 30.933594 15.695312 31.351562 C 15.8125 31.535156 16.054688 31.566406 16.214844 31.417969 C 17.472656 30.25 18.652344 29.003906 19.898438 27.832031 C 19.714844 27.722656 19.527344 27.613281 19.34375 27.503906 C 18.699219 29.710938 18.324219 31.867188 18.253906 34.160156 C 18.238281 34.589844 18.902344 34.589844 18.917969 34.160156 C 18.988281 31.933594 19.363281 29.816406 19.984375 27.683594 C 20.082031 27.351562 19.664062 27.136719 19.429688 27.359375 C 18.761719 27.984375 16.980469 30.390625 16.117188 30.320312 C 15.167969 30.238281 14.027344 27.101562 13.636719 26.28125 C 13.535156 26.0625 13.167969 26.0625 13.0625 26.28125 C 12.449219 27.5625 11.773438 29.371094 10.4375 29.988281 C 9.355469 30.492188 9.390625 30.355469 8.425781 29.703125 C 7.519531 29.09375 6.667969 28.414062 5.84375 27.695312 C 5.59375 27.472656 5.21875 27.6875 5.289062 28.019531 C 5.722656 30.085938 6.097656 32.125 6.183594 34.238281 C 6.191406 34.46875 6.386719 34.601562 6.605469 34.5625 C 10.53125 33.824219 14.578125 33.894531 18.523438 34.425781 C 18.941406 34.480469 19.121094 33.839844 18.699219 33.78125 " fill-opacity="1" fill-rule="nonzero"/></g><path fill="#faf783" d="M 13.242188 26.796875 C 13.636719 26.863281 14.074219 26.714844 14.296875 26.382812 C 14.523438 26.054688 14.484375 25.550781 14.175781 25.296875 C 14.035156 25.179688 13.847656 25.121094 13.664062 25.105469 C 13.046875 25.058594 12.4375 25.546875 12.34375 26.160156 C 12.328125 26.257812 12.328125 26.363281 12.367188 26.453125 C 12.425781 26.585938 12.558594 26.667969 12.691406 26.726562 C 12.96875 26.847656 13.269531 26.917969 13.574219 26.921875 " fill-opacity="1" fill-rule="nonzero"/><path fill="#100f0d" d="M 13.242188 27.046875 C 13.90625 27.125 14.617188 26.726562 14.683594 26.011719 C 14.75 25.308594 14.179688 24.816406 13.5 24.855469 C 12.832031 24.894531 12.222656 25.425781 12.105469 26.09375 C 11.960938 26.925781 12.941406 27.140625 13.574219 27.175781 C 13.894531 27.191406 13.894531 26.6875 13.574219 26.671875 C 13.230469 26.65625 12.464844 26.570312 12.621094 26.066406 C 12.738281 25.691406 13.09375 25.40625 13.480469 25.363281 C 13.894531 25.3125 14.28125 25.589844 14.175781 26.042969 C 14.078125 26.464844 13.621094 26.589844 13.242188 26.546875 C 12.925781 26.507812 12.925781 27.011719 13.242188 27.046875 " fill-opacity="1" fill-rule="nonzero"/><path fill="#faf783" d="M 19.425781 27.546875 C 19.574219 27.644531 19.738281 27.726562 19.910156 27.785156 C 20.234375 27.894531 20.609375 27.917969 20.902344 27.746094 C 21.195312 27.570312 21.355469 27.152344 21.171875 26.863281 C 21.109375 26.765625 21.015625 26.695312 20.921875 26.628906 C 20.667969 26.441406 20.375 26.28125 20.0625 26.296875 C 19.914062 26.308594 19.769531 26.355469 19.636719 26.417969 C 19.480469 26.488281 19.328125 26.585938 19.25 26.738281 C 19.15625 26.933594 19.21875 27.175781 19.359375 27.34375 C 19.496094 27.511719 19.699219 27.613281 19.898438 27.691406 " fill-opacity="1" fill-rule="nonzero"/><path fill="#100f0d" d="M 19.300781 27.761719 C 19.859375 28.109375 20.71875 28.347656 21.238281 27.789062 C 21.761719 27.234375 21.410156 26.609375 20.851562 26.277344 C 20.3125 25.960938 19.527344 25.964844 19.109375 26.5 C 18.628906 27.121094 19.296875 27.710938 19.832031 27.929688 C 20.128906 28.054688 20.257812 27.570312 19.964844 27.449219 C 19.550781 27.277344 19.222656 26.839844 19.804688 26.617188 C 20.132812 26.492188 20.417969 26.585938 20.699219 26.777344 C 21.050781 27.015625 21.097656 27.453125 20.628906 27.589844 C 20.257812 27.703125 19.859375 27.519531 19.550781 27.328125 C 19.277344 27.160156 19.027344 27.59375 19.300781 27.761719 " fill-opacity="1" fill-rule="nonzero"/><path fill="#faf783" d="M 5.6875 28.066406 C 6.035156 27.867188 6.273438 27.484375 6.304688 27.085938 C 6.3125 26.992188 6.308594 26.898438 6.269531 26.816406 C 6.234375 26.75 6.179688 26.695312 6.121094 26.652344 C 5.875 26.480469 5.539062 26.488281 5.257812 26.589844 C 5.054688 26.660156 4.863281 26.773438 4.707031 26.921875 C 4.578125 27.039062 4.46875 27.183594 4.421875 27.351562 C 4.371094 27.519531 4.390625 27.710938 4.5 27.847656 C 4.605469 27.984375 4.785156 28.050781 4.957031 28.066406 C 5.347656 28.109375 5.75 27.949219 6.007812 27.652344 " fill-opacity="1" fill-rule="nonzero"/><path fill="#100f0d" d="M 5.816406 28.28125 C 6.277344 27.988281 6.78125 27.261719 6.484375 26.691406 C 6.144531 26.046875 5.207031 26.25 4.730469 26.582031 C 4.269531 26.910156 3.867188 27.628906 4.394531 28.101562 C 4.914062 28.5625 5.761719 28.269531 6.183594 27.828125 C 6.40625 27.597656 6.054688 27.242188 5.832031 27.476562 C 5.605469 27.710938 5.257812 27.894531 4.917969 27.808594 C 4.34375 27.664062 4.816406 27.113281 5.089844 26.945312 C 5.328125 26.800781 5.988281 26.582031 6.054688 27.039062 C 6.105469 27.359375 5.804688 27.695312 5.5625 27.851562 C 5.292969 28.023438 5.542969 28.457031 5.816406 28.28125 " fill-opacity="1" fill-rule="nonzero"/><g clip-path="url(#621899db37)"><path fill="#100f0d" d="M 2.902344 29.261719 C 2.160156 29.121094 1.417969 28.984375 0.679688 28.847656 C 0.363281 28.785156 0.230469 29.269531 0.546875 29.328125 C 1.285156 29.46875 2.027344 29.605469 2.769531 29.742188 C 3.082031 29.800781 3.214844 29.320312 2.902344 29.261719 " fill-opacity="1" fill-rule="nonzero"/></g><path fill="#100f0d" d="M 4.074219 25.28125 C 3.695312 24.769531 3.21875 24.398438 2.628906 24.15625 C 2.332031 24.035156 2.203125 24.519531 2.496094 24.640625 C 2.953125 24.828125 3.351562 25.140625 3.644531 25.535156 C 3.835938 25.789062 4.269531 25.542969 4.074219 25.28125 " fill-opacity="1" fill-rule="nonzero"/><path fill="#100f0d" d="M 9.625 24.078125 C 9.570312 23.472656 9.496094 22.871094 9.40625 22.269531 C 9.355469 21.949219 8.875 22.085938 8.925781 22.402344 C 9.007812 22.960938 9.074219 23.519531 9.125 24.078125 C 9.15625 24.398438 9.652344 24.402344 9.625 24.078125 " fill-opacity="1" fill-rule="nonzero"/><g clip-path="url(#30ddc987ae)"><path fill="#100f0d" d="M 16.015625 23.722656 C 16.0625 23.171875 16.15625 22.632812 16.296875 22.097656 C 16.378906 21.785156 15.898438 21.652344 15.816406 21.964844 C 15.664062 22.542969 15.566406 23.125 15.519531 23.722656 C 15.492188 24.042969 15.992188 24.039062 16.015625 23.722656 " fill-opacity="1" fill-rule="nonzero"/></g><path fill="#100f0d" d="M 20.785156 24.34375 C 21.257812 24.109375 21.730469 23.871094 22.203125 23.636719 C 22.492188 23.492188 22.238281 23.058594 21.953125 23.203125 C 21.480469 23.441406 21.003906 23.675781 20.53125 23.914062 C 20.246094 24.054688 20.496094 24.488281 20.785156 24.34375 " fill-opacity="1" fill-rule="nonzero"/><g clip-path="url(#ca86aca51a)"><path fill="#100f0d" d="M 22.960938 28.074219 C 23.402344 28.074219 23.847656 28.074219 24.289062 28.074219 C 24.609375 28.074219 24.613281 27.570312 24.289062 27.570312 C 23.847656 27.570312 23.402344 27.570312 22.960938 27.570312 C 22.640625 27.570312 22.640625 28.074219 22.960938 28.074219 " fill-opacity="1" fill-rule="nonzero"/></g><path fill="#100f0d" d="M 22.671875 31.230469 C 22.996094 31.183594 23.320312 31.136719 23.648438 31.089844 C 23.960938 31.046875 23.828125 30.5625 23.515625 30.609375 C 23.1875 30.65625 22.863281 30.703125 22.539062 30.75 C 22.222656 30.792969 22.359375 31.277344 22.671875 31.230469 " fill-opacity="1" fill-rule="nonzero"/></svg>