<svg xmlns="http://www.w3.org/2000/svg" xmlns:xlink="http://www.w3.org/1999/xlink" width="112" zoomAndPan="magnify" viewBox="0 0 84 81.749997" height="109" preserveAspectRatio="xMidYMid meet" version="1.0"><defs><g/><clipPath id="1843a17eb7"><path d="M 45.121094 30.03125 L 49.4375 30.03125 L 49.4375 34.347656 L 45.121094 34.347656 Z M 45.121094 30.03125 " clip-rule="nonzero"/></clipPath><clipPath id="cdcd9bcfa8"><path d="M 47.277344 30.03125 C 46.085938 30.03125 45.121094 30.996094 45.121094 32.191406 C 45.121094 33.382812 46.085938 34.347656 47.277344 34.347656 C 48.46875 34.347656 49.4375 33.382812 49.4375 32.191406 C 49.4375 30.996094 48.46875 30.03125 47.277344 30.03125 Z M 47.277344 30.03125 " clip-rule="nonzero"/></clipPath><clipPath id="9fb771a7e7"><path d="M 1 25.75 L 43 25.75 L 43 65 L 1 65 Z M 1 25.75 " clip-rule="nonzero"/></clipPath><clipPath id="a714fd4632"><path d="M 0.128906 59 L 45.539062 59 L 45.539062 65 L 0.128906 65 Z M 0.128906 59 " clip-rule="nonzero"/></clipPath><clipPath id="5aadbd728c"><path d="M 30.960938 37.898438 L 68.816406 37.898438 L 68.816406 47.386719 L 30.960938 47.386719 Z M 30.960938 37.898438 " clip-rule="nonzero"/></clipPath><clipPath id="e986c32819"><path d="M 79 49 L 83.871094 49 L 83.871094 55 L 79 55 Z M 79 49 " clip-rule="nonzero"/></clipPath></defs><g clip-path="url(#1843a17eb7)"><g clip-path="url(#cdcd9bcfa8)"><path fill="#f1a830" d="M 45.121094 30.03125 L 49.4375 30.03125 L 49.4375 34.347656 L 45.121094 34.347656 Z M 45.121094 30.03125 " fill-opacity="1" fill-rule="nonzero"/></g></g><g clip-path="url(#9fb771a7e7)"><path fill="#0c2043" d="M 38.734375 56.546875 C 37.996094 56.378906 35.515625 55.734375 32.765625 55.324219 C 32.574219 53.847656 32.609375 53.738281 31.796875 52.9375 C 32.28125 53.277344 32.222656 55.625 32.050781 56.875 C 32.039062 55.820312 31.714844 55.3125 31.519531 55.09375 C 30.296875 54.742188 28.820312 54.65625 26.808594 54.777344 C 27.558594 53.59375 27.707031 52.601562 27.246094 51.800781 C 28.226562 51.714844 30.089844 52.007812 32.816406 52.671875 C 33.238281 52.925781 34.160156 53.035156 34.460938 54.429688 C 34.449219 53.835938 34.351562 53.421875 34.0625 52.988281 C 35.125 53.265625 36.3125 53.59375 37.609375 53.96875 C 38.734375 54.792969 39.109375 55.652344 38.734375 56.546875 Z M 36.710938 31.292969 C 37.136719 31.472656 37.414062 32.03125 37.476562 32.722656 L 37.949219 32.722656 C 38.070312 33.085938 38.058594 33.570312 37.949219 34.160156 C 38.140625 33.703125 38.226562 33.207031 38.164062 32.722656 C 38.082031 31.933594 37.707031 31.339844 37.476562 31.292969 Z M 36.242188 33.449219 C 36.375 32.5625 36.132812 31.535156 35.464844 31.292969 C 34.871094 31.242188 34.945312 31.339844 34.75 31.484375 C 34.910156 31.714844 35.03125 31.957031 35.003906 32.25 C 34.933594 31.984375 34.835938 31.65625 34.65625 31.511719 L 33.746094 31.535156 C 33.917969 31.863281 33.566406 32.589844 33.433594 32.867188 C 33.613281 33.097656 33.625 33.375 33.636719 33.605469 C 33.625 33.085938 33.746094 32.867188 34.011719 32.9375 C 34.144531 32.601562 34.304688 32.550781 34.496094 32.816406 C 34.871094 32.769531 35.113281 32.84375 35.210938 33.046875 C 35.296875 33.21875 35.429688 33.328125 35.609375 33.363281 C 35.707031 33.421875 35.792969 33.59375 35.867188 33.882812 C 35.867188 33.703125 35.839844 33.542969 35.78125 33.410156 C 35.925781 33.328125 36.082031 33.339844 36.242188 33.449219 Z M 40.597656 30.6875 C 41.179688 30.808594 41.738281 32.019531 41.796875 33.144531 C 41.953125 32.089844 41.277344 30.652344 40.597656 30.6875 Z M 38.164062 30.929688 C 39.28125 30.808594 39.582031 33.617188 38.636719 34.707031 C 39.4375 33.460938 39.097656 31.171875 38.164062 30.929688 Z M 25.730469 32.816406 C 26.472656 32.453125 27.171875 31.933594 27.875 31.21875 C 28.964844 30.261719 30.066406 29.003906 31.578125 29.839844 C 31.167969 29.378906 30.488281 29.34375 29.886719 29.523438 C 28.699219 29.875 27.4375 30.988281 26.617188 31.316406 C 25.128906 31.875 23.566406 32.164062 21.980469 32.175781 C 21.578125 32.492188 21.167969 32.816406 20.769531 33.179688 C 22.695312 33.59375 24.28125 33.53125 25.730469 32.816406 Z M 25.878906 33.265625 C 25.828125 33.3125 25.757812 33.375 25.671875 33.433594 C 25.585938 33.992188 25.1875 34.234375 24.992188 33.96875 C 25.1875 33.96875 25.394531 33.738281 25.550781 33.398438 C 24.957031 33.664062 24.375 33.847656 23.917969 33.945312 C 23.964844 34.199219 24.121094 34.402344 24.414062 34.574219 C 24.605469 34.683594 24.824219 34.804688 25.066406 34.925781 C 25.40625 35.214844 25.71875 35.578125 26 36.039062 C 26.59375 35.988281 26.53125 35.082031 27.257812 34.269531 C 27.707031 33.824219 27.949219 33.242188 28.007812 32.515625 C 27.886719 32.1875 27.949219 31.898438 28.191406 31.667969 C 27.753906 32.226562 26.835938 32.816406 25.878906 33.265625 Z M 32.453125 31.910156 C 32.425781 31.933594 32.402344 31.957031 32.378906 31.984375 C 31.847656 32.40625 31.265625 32.648438 30.636719 32.734375 C 30.382812 32.660156 30.152344 32.332031 29.933594 31.726562 C 29.886719 31.269531 29.242188 31.085938 28.890625 31.230469 C 29.050781 31.230469 29.183594 31.230469 29.425781 31.339844 C 29.65625 31.425781 29.789062 31.605469 29.8125 31.875 C 30.03125 32.46875 30.273438 32.804688 30.515625 32.867188 C 31.144531 32.792969 31.726562 32.539062 32.257812 32.128906 C 32.355469 32.042969 32.414062 31.96875 32.453125 31.910156 Z M 33.359375 31.449219 L 33.359375 31.4375 L 33.347656 31.4375 L 33.335938 31.425781 L 33.324219 31.425781 L 33.324219 31.414062 C 33.140625 31.269531 32.839844 31.195312 32.414062 31.171875 L 32.355469 31.171875 L 32.34375 31.183594 L 32.246094 31.183594 L 32.234375 31.195312 L 32.183594 31.195312 L 32.183594 31.207031 L 32.136719 31.207031 L 32.136719 31.21875 L 32.113281 31.21875 L 32.097656 31.230469 L 32.074219 31.230469 L 32.074219 31.246094 L 32.0625 31.246094 C 31.964844 31.292969 31.929688 31.367188 31.929688 31.460938 C 31.929688 31.472656 31.929688 31.484375 31.929688 31.5 L 31.214844 31.535156 C 31.070312 31.367188 30.863281 31.269531 30.632812 31.257812 L 30.609375 30.746094 C 31.09375 30.820312 32.160156 30.820312 31.964844 30.046875 C 31.929688 29.875 31.796875 29.707031 31.589844 29.550781 C 30.949219 29.113281 29.933594 29.210938 29.011719 29.730469 L 28.734375 29.441406 C 28.515625 29.574219 28.296875 29.683594 28.078125 29.78125 C 28.296875 29.671875 28.457031 29.539062 28.539062 29.378906 C 28.019531 28.351562 27.632812 27.574219 27.402344 27.054688 C 27.316406 26.644531 27.171875 26.425781 26.976562 26.378906 C 25.285156 25.746094 23.625 25.832031 21.566406 26.835938 C 21.117188 27.210938 21.117188 27.902344 22.691406 28.097656 C 21.191406 28.046875 20.78125 27.46875 21.128906 27.042969 C 20.753906 27.238281 20.585938 27.878906 20.585938 28.097656 C 18.226562 28.75 15.597656 31.863281 19.652344 33.109375 L 19.167969 33.375 C 18.964844 33.179688 18.683594 33.058594 18.335938 32.988281 C 17.789062 33.023438 17.195312 33.339844 16.554688 33.933594 C 16.941406 33.449219 17.402344 33.097656 17.8125 32.964844 C 16.832031 32.988281 16.082031 33.328125 15.574219 33.992188 C 15.972656 34.054688 16.226562 34.1875 16.371094 34.390625 C 15.683594 34.113281 14.847656 34.039062 13.855469 34.175781 C 13.46875 31.269531 11.917969 31.402344 10.925781 33.265625 C 11.46875 32.480469 12.753906 31.570312 13.128906 33.035156 C 12.183594 31.59375 11.046875 33.386719 10.804688 34.015625 L 8.203125 34.222656 C 5.695312 34.246094 3.78125 37.441406 2.460938 43.796875 C 0.996094 47.019531 0.707031 49.632812 1.578125 51.65625 C 1.6875 51.910156 1.808594 52.164062 1.953125 52.394531 C 4.15625 54.730469 7.003906 55.722656 10.476562 55.359375 C 10.828125 56.582031 11.335938 57.550781 12.015625 58.253906 C 12.085938 58.011719 12.183594 57.78125 12.292969 57.5625 C 12.246094 57.855469 12.207031 58.144531 12.183594 58.421875 C 12.765625 58.96875 13.445312 59.332031 14.230469 59.511719 C 14.21875 59.417969 14.207031 59.308594 14.195312 59.210938 C 14.21875 59.320312 14.253906 59.417969 14.289062 59.523438 C 14.703125 59.621094 15.148438 59.671875 15.632812 59.660156 C 15.671875 59.160156 15.683594 58.664062 15.683594 58.167969 C 15.367188 58.433594 15.113281 58.761719 14.894531 59.148438 C 14.144531 58.933594 12.933594 58.664062 12.597656 58.046875 C 13.480469 57.953125 14.75 57.855469 15.5625 57.238281 C 14.183594 57.46875 12.765625 57.128906 11.640625 56.292969 C 12.839844 56.472656 14.0625 56.195312 15.054688 55.507812 C 13.699219 56.015625 12.183594 56.003906 10.828125 55.445312 L 12.402344 55.335938 C 14.085938 55.15625 14.847656 54.464844 14.679688 53.265625 C 15.003906 52.332031 15.78125 51.246094 17.003906 49.996094 L 21.058594 46.65625 C 20.792969 47.695312 20.476562 49.574219 20.125 52.273438 L 21.105469 51.449219 C 21.167969 49.078125 21.480469 47.25 22.027344 45.964844 C 22.535156 45.929688 22.972656 45.566406 23.347656 44.875 C 23.636719 44.902344 24.121094 44.914062 24.785156 44.9375 L 25.925781 45.046875 C 26.214844 45.519531 26.675781 45.90625 27.304688 46.21875 C 27.148438 46.582031 26.6875 46.851562 25.949219 47.007812 C 25.539062 47.539062 25.296875 48.207031 25.246094 49.015625 C 25.148438 50.023438 23.347656 51.800781 19.824219 54.367188 C 22.097656 53.703125 24.035156 52.371094 25.960938 50.675781 C 26.132812 51.609375 25.511719 52.671875 24.121094 53.894531 C 22.933594 55.128906 20.902344 56.171875 18.019531 57.019531 C 17.0625 57.320312 16.335938 57.636719 15.78125 58.085938 C 16.09375 59.390625 16.289062 60.734375 16.335938 62.066406 C 16.433594 62.175781 16.542969 62.273438 16.652344 62.371094 C 16.722656 62.40625 16.796875 62.441406 16.855469 62.480469 C 17.183594 61.425781 17.28125 60.410156 17.148438 59.429688 C 17.71875 60.699219 17.921875 62.042969 17.777344 63.472656 C 17.789062 63.496094 17.800781 63.53125 17.8125 63.554688 C 18.671875 61.460938 19.230469 59.925781 19.484375 58.917969 C 19.289062 60.53125 19.558594 62.042969 19.96875 63.507812 C 20.539062 62.695312 20.753906 61.535156 20.78125 59.984375 C 20.390625 59.996094 20.015625 59.984375 19.628906 59.984375 L 20.78125 59.792969 C 20.792969 59.078125 20.753906 58.277344 20.707031 57.394531 C 21.082031 58.097656 21.3125 58.859375 21.398438 59.695312 L 22.097656 59.585938 C 22.160156 59.246094 22.207031 58.894531 22.234375 58.53125 C 22.257812 58.894531 22.292969 59.234375 22.355469 59.550781 L 23.117188 59.429688 C 23.117188 59.066406 23.105469 58.761719 23.078125 58.496094 C 23.105469 58.8125 23.140625 59.113281 23.175781 59.417969 L 23.625 59.34375 C 23.734375 58.75 23.914062 58.15625 24.167969 57.601562 C 24.167969 58.167969 24.207031 58.714844 24.253906 59.246094 C 25.355469 59.066406 26.457031 58.882812 27.558594 58.703125 C 27.570312 58.363281 27.570312 58.023438 27.558594 57.683594 C 27.644531 58.011719 27.714844 58.339844 27.789062 58.664062 L 29.265625 58.421875 C 28.792969 58.605469 28.320312 58.761719 27.835938 58.917969 C 28.105469 60.25 28.238281 61.605469 28.25 62.976562 C 28.382812 62.9375 28.503906 62.890625 28.636719 62.84375 C 29.046875 61.679688 29.179688 60.554688 29.035156 59.464844 C 29.460938 60.421875 29.679688 61.414062 29.703125 62.453125 C 29.882812 62.382812 30.066406 62.308594 30.246094 62.238281 C 30.804688 60.820312 31.167969 59.730469 31.359375 58.957031 C 31.265625 59.851562 31.480469 60.734375 31.652344 61.632812 C 32.050781 61.449219 32.449219 61.257812 32.875 61.050781 C 33.007812 60.007812 32.921875 58.785156 32.59375 57.429688 C 33.117188 58.433594 33.359375 59.574219 33.308594 60.84375 C 33.441406 60.773438 33.589844 60.699219 33.734375 60.625 C 33.9375 60.007812 34.074219 59.320312 34.109375 58.582031 C 34.167969 59.234375 34.253906 59.804688 34.386719 60.289062 C 34.582031 60.179688 34.785156 60.070312 34.992188 59.960938 C 35.003906 59.390625 34.992188 58.917969 34.957031 58.53125 C 34.992188 59.015625 35.039062 59.476562 35.089844 59.914062 C 35.644531 59.609375 36.226562 59.28125 36.808594 58.957031 C 38.734375 57.890625 39.53125 56.753906 39.230469 55.542969 C 38.964844 54.464844 38.238281 53.691406 37.207031 53.363281 C 36.035156 53 33.710938 52.429688 30.257812 51.691406 C 30.417969 50.710938 30.511719 49.574219 30.523438 48.277344 C 30.488281 48.433594 30.246094 48.109375 29.800781 47.296875 C 30.609375 47.757812 31.277344 47.648438 31.820312 46.945312 C 32.4375 45.480469 32.679688 43.300781 32.535156 40.410156 C 32.328125 39.148438 32.316406 37.953125 32.5 36.777344 L 32.535156 38.265625 C 32.851562 36.777344 35.464844 36.632812 35.28125 35.808594 C 35.476562 35.734375 35.632812 35.554688 35.730469 35.25 C 36.070312 35.289062 36.324219 35.09375 36.519531 34.683594 L 37.714844 34.632812 C 37.945312 34.839844 38.210938 34.984375 38.539062 34.960938 L 41.128906 34.863281 C 42.351562 34.113281 42.535156 31.667969 41.128906 30.6875 C 41.007812 30.601562 40.828125 30.589844 40.695312 30.601562 L 38.332031 30.734375 C 37.957031 30.773438 37.65625 30.90625 37.460938 31.136719 L 35.199219 31.171875 C 34.933594 31.148438 34.8125 31.246094 34.652344 31.414062 L 33.589844 31.4375 C 33.816406 31.847656 33.46875 32.589844 33.332031 32.855469 C 33.710938 33.472656 33.492188 33.917969 33.007812 34.441406 C 33.453125 33.871094 33.5625 33.484375 33.1875 32.855469 C 33.285156 32.648438 33.359375 32.453125 33.429688 32.261719 C 33.578125 31.898438 33.554688 31.632812 33.359375 31.449219 Z M 28.457031 63.339844 C 28.382812 63.324219 28.324219 63.3125 28.25 63.300781 C 28.25 63.472656 28.238281 63.652344 28.238281 63.824219 C 28.3125 63.664062 28.382812 63.496094 28.457031 63.339844 Z M 26.773438 63.59375 C 26.738281 63.59375 26.6875 63.59375 26.652344 63.59375 C 26.640625 63.738281 26.640625 63.882812 26.628906 64.039062 C 26.675781 63.882812 26.726562 63.738281 26.773438 63.59375 Z M 26.652344 63.421875 C 26.714844 63.410156 26.773438 63.398438 26.835938 63.375 C 27.257812 61.957031 27.5 60.480469 27.558594 59.003906 C 27.074219 59.136719 26.605469 59.269531 26.121094 59.378906 C 26.507812 60.6875 26.6875 62.054688 26.652344 63.421875 Z M 26.132812 44.765625 L 24.121094 44.28125 C 23.867188 43.179688 22.898438 42.371094 21.761719 42.332031 C 22.488281 42.539062 23.082031 43.058594 23.382812 43.75 C 22.839844 43.433594 22.171875 43.375 21.578125 43.582031 C 21.421875 43.570312 21.773438 43.617188 22.609375 43.726562 L 21.289062 45.019531 L 21.191406 45.410156 L 15.925781 49.71875 C 15.527344 49.453125 15.308594 49.039062 15.261719 48.496094 C 15.25 48.484375 15.371094 47.089844 15.613281 44.320312 C 15.660156 44.027344 15.988281 43.472656 16.617188 42.648438 C 16.640625 42.550781 16.375 42.792969 15.78125 43.386719 L 15.816406 42.539062 C 16.640625 41.667969 17.644531 40.988281 18.757812 40.542969 C 17.742188 40.808594 16.796875 41.269531 15.960938 41.898438 C 15.878906 40.640625 16.070312 39.367188 16.542969 38.191406 C 18.3125 35.117188 20.332031 33.785156 22.609375 34.199219 C 23.300781 34.355469 24.074219 34.671875 24.945312 35.140625 C 25.5625 35.84375 25.972656 36.351562 26.191406 36.667969 C 25.839844 36.535156 25.464844 36.5 25.03125 36.558594 C 25.816406 36.65625 26.375 36.847656 26.699219 37.117188 C 27.050781 38.011719 27.632812 38.871094 28.480469 39.71875 C 29.121094 40.128906 29.496094 40.503906 29.582031 40.84375 C 29.546875 41.292969 29.628906 41.742188 29.835938 42.140625 C 29.765625 41.863281 29.738281 41.558594 29.765625 41.242188 C 30.007812 41.304688 30.222656 41.4375 30.394531 41.605469 C 30.867188 42.296875 30.746094 43.109375 30.042969 44.027344 C 29.898438 43.605469 29.644531 43.230469 29.292969 42.949219 C 29.582031 43.363281 29.765625 43.847656 29.8125 44.355469 C 29.449219 44.9375 28.78125 45.542969 27.851562 46.183594 C 27.269531 46.074219 26.808594 45.636719 26.472656 44.851562 C 26.773438 44.320312 28.019531 43.605469 28.796875 42.816406 C 28.757812 42.746094 28.710938 42.671875 28.675781 42.601562 C 27.839844 43.339844 26.640625 44.078125 26.132812 44.765625 Z M 28.976562 42.613281 C 29.21875 42.332031 29.375 42.042969 29.414062 41.753906 C 29.292969 41.96875 29.085938 42.199219 28.855469 42.429688 C 28.890625 42.492188 28.941406 42.550781 28.976562 42.613281 Z M 19.402344 31.328125 C 19.617188 30.988281 20.019531 30.277344 20.273438 29.972656 C 20.332031 30.007812 20.210938 30.445312 20.273438 30.492188 C 19.910156 31.183594 20.089844 31.632812 20.804688 31.8125 C 20.476562 32.03125 20.140625 32.332031 19.789062 32.722656 C 16.699219 31.96875 18.007812 29.511719 19.847656 28.714844 C 19.253906 29.027344 18.300781 30.277344 18.238281 30.878906 C 18.515625 30.457031 19.144531 29.464844 20.140625 28.96875 C 19.667969 29.5625 19.023438 30.09375 18.722656 31.339844 C 18.988281 30.929688 19.824219 29.839844 20.152344 29.476562 C 20.054688 29.5625 19.316406 31.148438 19.402344 31.328125 Z M 23.902344 28.675781 C 23.25 28.8125 22.558594 28.871094 21.871094 28.859375 C 22.523438 28.945312 24.039062 29.066406 24.703125 29.066406 C 23.890625 29.234375 22.753906 29.28125 21.957031 29.332031 C 22.464844 29.429688 24.183594 29.488281 25.03125 29.367188 C 24.039062 29.585938 22.851562 29.804688 21.835938 29.777344 C 22.425781 29.925781 24.59375 30.167969 25.222656 30.082031 C 23.976562 30.382812 22.886719 30.335938 21.53125 30.410156 C 23.070312 30.785156 24.085938 30.90625 26.300781 30.394531 C 24.871094 31.183594 22.875 31.5 20.828125 30.757812 C 20.816406 30.09375 20.867188 29.171875 20.949219 27.976562 C 21.59375 28.554688 22.707031 28.738281 23.929688 28.519531 Z M 1.578125 51.65625 C 5.101562 52.382812 5.152344 48.21875 4.644531 45.832031 C 4.027344 42.949219 4.847656 40.289062 6.90625 38.085938 C 7.257812 37.707031 10.441406 34.320312 8.203125 34.222656 C 10.429688 34.246094 8.324219 36.824219 7.667969 37.585938 C 5.597656 40.019531 4.570312 42.273438 5.007812 45.421875 C 5.101562 46.183594 5.273438 46.835938 5.371094 47.492188 C 5.574219 48.90625 5.054688 51.4375 3.648438 52.078125 C 3.636719 52.40625 3.796875 52.695312 4.0625 52.878906 C 3.6875 52.804688 3.382812 52.515625 3.285156 52.140625 C 3.105469 52.199219 2.910156 52.238281 2.71875 52.25 C 2.804688 52.527344 2.996094 52.757812 3.238281 52.902344 C 2.875 52.816406 2.585938 52.550781 2.464844 52.210938 C 2.0625 52.25 1.773438 52.066406 1.578125 51.65625 Z M 26.058594 59.390625 C 25.488281 59.511719 24.898438 59.621094 24.304688 59.71875 C 24.472656 61.050781 24.789062 62.25 25.210938 63.324219 C 25.453125 62.078125 25.902344 60.84375 26.058594 59.390625 Z M 23.566406 59.816406 C 23.457031 59.828125 23.359375 59.839844 23.261719 59.851562 C 23.335938 60.261719 23.433594 60.664062 23.554688 61.039062 C 23.515625 60.625 23.515625 60.214844 23.566406 59.816406 Z M 23.117188 59.863281 C 22.886719 59.886719 22.65625 59.898438 22.425781 59.925781 C 22.558594 60.578125 22.765625 61.097656 23.03125 61.496094 C 23.082031 60.878906 23.105469 60.335938 23.117188 59.863281 Z M 22.027344 59.949219 C 21.820312 59.960938 21.617188 59.972656 21.421875 59.972656 C 21.445312 60.53125 21.421875 61.097656 21.335938 61.703125 C 21.652344 61.183594 21.882812 60.589844 22.027344 59.949219 Z M 20.730469 33.542969 C 19.726562 33.847656 18.699219 34.453125 17.667969 35.382812 C 18.421875 34.402344 19.523438 33.75 20.730469 33.542969 Z M 18.976562 33.570312 C 18.3125 33.796875 17.585938 34.320312 16.796875 35.105469 C 16.796875 34.898438 16.796875 34.816406 16.773438 34.609375 C 17.402344 33.824219 18.25 33.253906 18.976562 33.570312 Z M 35.285156 35.808594 C 35.308594 35.542969 35.320312 35.261719 35.320312 35.007812 C 35.367188 35.25 35.382812 35.503906 35.34375 35.773438 C 35.320312 35.796875 35.296875 35.796875 35.285156 35.808594 Z M 29.871094 36.847656 C 29.800781 36.96875 29.910156 38.785156 29.496094 40.128906 C 29.414062 39.753906 29.582031 39.078125 29.570312 38.339844 C 29.316406 38.714844 29.011719 39.125 28.664062 39.550781 C 28.058594 38.945312 27.546875 38.253906 27.136719 37.515625 C 26.882812 36.957031 26.542969 36.523438 26.132812 36.207031 C 26.472656 35.988281 26.664062 35.761719 26.714844 35.519531 C 26.859375 35.128906 27.027344 34.851562 27.234375 34.683594 C 27.171875 34.804688 26.808594 35.25 26.808594 35.964844 L 26.808594 36.460938 C 26.835938 36.582031 26.929688 36.632812 27.113281 36.621094 Z M 35.769531 35.046875 C 35.972656 34.71875 36 34.402344 35.828125 34.089844 C 35.949219 34.210938 36.011719 34.390625 36 34.585938 C 35.988281 34.765625 35.902344 34.9375 35.769531 35.046875 Z M 12.898438 33.992188 L 11.785156 34.003906 C 12.0625 33.046875 13.007812 32.054688 12.898438 33.992188 Z M 33.84375 35.796875 C 33.589844 35.773438 33.335938 35.894531 33.203125 35.964844 C 33.296875 35.84375 33.527344 35.773438 33.746094 35.734375 C 33.699219 35.359375 33.699219 35.214844 33.757812 34.707031 C 33.796875 35.289062 33.710938 35.25 33.84375 35.796875 Z M 34.59375 35.410156 C 34.65625 34.476562 34.0625 34.003906 34 33.230469 C 34.242188 34.054688 34.765625 34.210938 34.59375 35.410156 Z M 35.246094 34.5 C 34.992188 33.582031 34.570312 33.582031 34.351562 33.023438 C 34.75 33.652344 35.152344 33.449219 35.246094 34.5 Z M 35.246094 34.5 " fill-opacity="1" fill-rule="evenodd"/></g><g clip-path="url(#a714fd4632)"><path fill="#0c2043" d="M -0.527344 62.707031 C -0.515625 62.539062 7.464844 62.359375 7.488281 62.164062 C 7.574219 61.230469 7.765625 60.046875 7.960938 59.269531 C 8.019531 60.808594 8.117188 61.824219 8.261719 62.332031 C 8.601562 61.644531 8.820312 60.878906 8.890625 60.105469 C 8.917969 61.050781 9.097656 61.765625 9.4375 62.273438 L 9.546875 61.824219 C 9.605469 61.484375 9.691406 61.160156 9.777344 60.773438 L 9.789062 60.832031 C 9.871094 60.480469 9.957031 60.117188 10.042969 59.742188 C 10.164062 60.917969 10.273438 61.777344 10.394531 62.332031 C 10.515625 61.777344 10.625 60.90625 10.746094 59.695312 C 10.960938 60.625 11.167969 61.460938 11.351562 62.238281 C 11.6875 61.726562 11.871094 61.015625 11.894531 60.070312 C 11.96875 60.796875 12.160156 61.511719 12.464844 62.175781 C 12.5 61.875 12.535156 61.558594 12.574219 61.207031 L 12.65625 61.59375 C 12.730469 61.027344 12.789062 60.238281 12.828125 59.234375 C 12.960938 59.730469 13.105469 60.324219 13.214844 60.90625 C 13.261719 60.503906 13.324219 60.046875 13.371094 59.523438 C 13.589844 60.445312 13.785156 61.292969 13.976562 62.066406 C 14.304688 61.558594 14.484375 60.832031 14.523438 59.898438 C 14.59375 60.625 14.789062 61.339844 15.089844 61.996094 C 15.125 61.703125 15.164062 61.378906 15.1875 61.039062 L 15.285156 61.414062 C 15.355469 60.84375 15.417969 60.058594 15.453125 59.050781 C 15.683594 59.996094 15.730469 61.632812 16.15625 62.308594 C 16.035156 62.417969 15.828125 62.503906 15.5625 62.574219 C 15.636719 62.925781 15.71875 63.253906 15.792969 63.566406 C 16.132812 63.058594 16.3125 62.34375 16.335938 61.414062 C 16.398438 61.933594 16.507812 62.453125 16.6875 62.964844 C 16.894531 62.164062 16.96875 61.0625 17.136719 60.359375 C 17.160156 60.878906 17.183594 61.339844 17.222656 61.753906 C 17.246094 61.402344 17.257812 61 17.28125 60.566406 C 17.4375 61.195312 17.511719 62.152344 17.667969 62.914062 C 17.875 62.371094 18.019531 61.789062 18.082031 61.207031 C 18.105469 62.140625 18.285156 62.855469 18.613281 63.363281 C 18.808594 62.601562 19.011719 61.753906 19.230469 60.832031 C 19.277344 61.351562 19.328125 61.8125 19.375 62.210938 C 19.496094 61.621094 19.640625 61.039062 19.761719 60.53125 C 19.824219 62.066406 19.921875 63.097656 20.066406 63.605469 C 20.40625 62.902344 20.621094 62.152344 20.695312 61.378906 C 20.730469 62.308594 20.914062 63.035156 21.242188 63.542969 C 21.433594 62.769531 21.628906 61.921875 21.84375 61 C 21.894531 61.5 21.941406 61.933594 21.992188 62.308594 C 22.074219 61.800781 22.171875 61.304688 22.269531 60.917969 C 22.292969 61.582031 22.328125 62.152344 22.367188 62.625 C 22.425781 62.175781 22.488281 61.65625 22.546875 61.039062 C 22.707031 61.691406 22.851562 62.308594 22.996094 62.890625 C 23.09375 62.527344 23.164062 62.140625 23.203125 61.765625 C 23.226562 62.285156 23.285156 62.734375 23.394531 63.121094 C 23.578125 62.671875 23.671875 62.101562 23.699219 61.414062 C 23.746094 61.910156 23.855469 62.382812 24.011719 62.855469 C 24.121094 62.382812 24.230469 61.898438 24.351562 61.390625 C 24.398438 61.863281 24.449219 62.296875 24.496094 62.671875 C 24.558594 62.128906 24.605469 61.4375 24.628906 60.566406 C 24.75 61.039062 24.859375 61.644531 24.957031 62.261719 C 24.992188 61.984375 25.03125 61.679688 25.054688 61.351562 C 25.246094 62.140625 25.417969 62.878906 25.574219 63.542969 C 25.660156 63.554688 25.742188 63.570312 25.839844 63.570312 C 26.058594 63.097656 26.179688 62.480469 26.203125 61.726562 C 26.277344 62.382812 26.433594 63.023438 26.6875 63.628906 L 26.90625 63.640625 C 27.015625 63.070312 27.085938 62.152344 27.136719 60.882812 C 27.269531 61.390625 27.414062 61.96875 27.523438 62.550781 C 27.570312 62.152344 27.632812 61.691406 27.679688 61.171875 C 27.898438 62.089844 28.105469 62.9375 28.285156 63.714844 C 28.46875 63.449219 28.601562 63.121094 28.6875 62.734375 C 28.566406 62.671875 28.46875 62.625 28.394531 62.5625 C 28.820312 61.886719 28.867188 60.238281 29.097656 59.308594 C 29.15625 60.84375 29.253906 61.863281 29.398438 62.382812 C 29.519531 62.117188 29.628906 61.847656 29.726562 61.582031 C 29.738281 61.316406 29.75 61.015625 29.761719 60.710938 C 29.800781 60.84375 29.824219 60.988281 29.847656 61.136719 C 29.933594 60.820312 29.992188 60.480469 30.03125 60.15625 C 30.054688 61.085938 30.234375 61.800781 30.574219 62.308594 C 30.753906 61.546875 30.960938 60.699219 31.179688 59.777344 C 31.226562 60.300781 31.277344 60.757812 31.335938 61.160156 C 31.445312 60.566406 31.589844 59.984375 31.710938 59.476562 C 31.773438 61.015625 31.882812 62.042969 32.027344 62.550781 C 32.113281 62.359375 32.195312 62.164062 32.269531 61.957031 C 32.355469 61.511719 32.4375 61.085938 32.523438 60.746094 C 32.523438 60.855469 32.523438 60.964844 32.535156 61.074219 C 32.582031 60.832031 32.632812 60.578125 32.65625 60.324219 C 32.679688 61.257812 32.863281 61.984375 33.203125 62.492188 C 33.382812 61.714844 33.589844 60.867188 33.808594 59.949219 C 33.914062 61.148438 34.035156 62.03125 34.15625 62.585938 C 34.277344 62.03125 34.386719 61.160156 34.507812 59.984375 C 34.726562 60.90625 34.921875 61.753906 35.113281 62.527344 C 35.125 62.492188 35.152344 62.46875 35.175781 62.429688 C 35.210938 62.054688 35.257812 61.644531 35.308594 61.183594 L 35.453125 61.777344 C 35.574219 61.378906 35.636719 60.90625 35.660156 60.359375 C 35.730469 61.136719 35.949219 61.886719 36.289062 62.585938 C 36.347656 62.359375 36.410156 62.019531 36.457031 61.570312 L 36.457031 61.558594 C 36.519531 61.027344 36.554688 60.347656 36.589844 59.511719 C 36.785156 60.289062 36.980469 61.472656 37.0625 62.40625 C 37.0625 62.429688 37.148438 62.453125 37.28125 62.46875 C 37.328125 61.984375 37.367188 61.402344 37.390625 60.710938 C 37.511719 61.207031 37.65625 61.800781 37.777344 62.382812 C 37.824219 61.984375 37.875 61.523438 37.933594 61.003906 C 38.054688 61.546875 38.175781 62.066406 38.296875 62.550781 C 38.492188 62.5625 38.710938 62.574219 38.929688 62.585938 C 39.011719 62.238281 39.0625 61.835938 39.085938 61.378906 C 39.121094 61.800781 39.207031 62.210938 39.328125 62.613281 L 39.871094 62.636719 C 39.933594 62.105469 39.980469 61.402344 40.015625 60.53125 C 40.1875 61.207031 40.175781 61.957031 40.34375 62.660156 C 42.546875 62.769531 45.066406 62.867188 45.078125 62.964844 C 44.097656 63.785156 35.839844 64.113281 29.933594 64.210938 C 27.027344 65.082031 15.441406 64.5 13.78125 64.367188 C 13.78125 64.34375 13.902344 64.320312 14.097656 64.308594 C 9.507812 64.28125 2.464844 63.519531 1.203125 63.421875 C 1.214844 63.253906 9.363281 63.230469 9.375 63.035156 C 5.199219 63.046875 0.492188 62.792969 -0.527344 62.707031 Z M 39.800781 63.203125 L 39.535156 63.21875 C 39.59375 63.351562 39.65625 63.484375 39.714844 63.605469 C 39.738281 63.496094 39.777344 63.363281 39.800781 63.203125 Z M 38.710938 63.242188 L 38.46875 63.242188 L 38.539062 63.542969 C 38.601562 63.445312 38.648438 63.351562 38.710938 63.242188 Z M 37.195312 63.265625 L 36.871094 63.277344 C 36.929688 63.445312 37.003906 63.617188 37.089844 63.785156 C 37.125 63.640625 37.160156 63.472656 37.195312 63.265625 Z M 36.144531 63.277344 L 35.804688 63.277344 L 35.914062 63.714844 C 36 63.582031 36.070312 63.433594 36.144531 63.277344 Z M 35.054688 63.277344 L 34.859375 63.277344 C 34.882812 63.484375 34.921875 63.664062 34.957031 63.808594 C 34.980469 63.664062 35.019531 63.484375 35.054688 63.277344 Z M 34.121094 63.265625 C 33.988281 63.265625 33.867188 63.265625 33.746094 63.265625 C 33.820312 63.445312 33.902344 63.605469 34 63.75 Z M 33.070312 63.242188 C 32.949219 63.242188 32.828125 63.242188 32.707031 63.230469 C 32.742188 63.472656 32.777344 63.664062 32.828125 63.824219 C 32.910156 63.628906 32.996094 63.433594 33.070312 63.242188 Z M 32.089844 63.203125 C 31.375 63.167969 30.707031 63.121094 30.152344 63.046875 C 30.210938 63.339844 30.285156 63.605469 30.382812 63.808594 C 31.351562 63.75 32.039062 63.703125 32.050781 63.640625 C 32.0625 63.496094 32.074219 63.351562 32.089844 63.203125 Z M 29.460938 63.761719 C 29.523438 63.566406 29.570312 63.300781 29.605469 62.960938 C 29.425781 62.9375 29.242188 62.902344 29.097656 62.855469 C 29.195312 63.167969 29.316406 63.472656 29.460938 63.761719 Z M 18.082031 64.089844 C 17.910156 64.066406 17.753906 64.039062 17.597656 64.003906 C 17.464844 64.050781 17.292969 64.101562 17.113281 64.125 Z M 14.523438 62.78125 C 14.351562 62.804688 14.160156 62.828125 13.964844 62.84375 C 14.074219 63.179688 14.195312 63.496094 14.351562 63.808594 C 14.414062 63.582031 14.472656 63.230469 14.523438 62.78125 Z M 13.542969 62.890625 C 13.359375 62.902344 13.179688 62.914062 12.972656 62.925781 C 13.042969 63.203125 13.105469 63.484375 13.179688 63.75 C 13.335938 63.507812 13.457031 63.21875 13.542969 62.890625 Z M 12.367188 62.960938 C 12.269531 62.960938 12.171875 62.976562 12.0625 62.976562 C 12.113281 63.3125 12.160156 63.605469 12.210938 63.847656 C 12.257812 63.605469 12.320312 63.3125 12.367188 62.960938 Z M 11.445312 63 C 11.277344 63 11.09375 63.011719 10.914062 63.011719 C 11 63.300781 11.121094 63.566406 11.265625 63.785156 C 11.324219 63.53125 11.386719 63.265625 11.445312 63 Z M 10.417969 63.023438 C 10.261719 63.023438 10.101562 63.023438 9.933594 63.023438 C 9.980469 63.375 10.03125 63.652344 10.089844 63.847656 C 10.210938 63.582031 10.332031 63.300781 10.417969 63.023438 Z M 10.417969 63.023438 " fill-opacity="1" fill-rule="evenodd"/></g><g clip-path="url(#5aadbd728c)"><path fill="#0c2043" d="M 30.960938 37.898438 L 68.800781 37.898438 L 68.800781 47.386719 L 30.960938 47.386719 Z M 30.960938 37.898438 " fill-opacity="1" fill-rule="nonzero"/></g><g fill="#0c2043" fill-opacity="1"><g transform="translate(40.642132, 53.463222)"><g><path d="M 2.59375 -4.6875 C 3 -4.6875 3.351562 -4.617188 3.65625 -4.484375 C 3.96875 -4.347656 4.207031 -4.148438 4.375 -3.890625 C 4.539062 -3.640625 4.625 -3.335938 4.625 -2.984375 C 4.625 -2.640625 4.539062 -2.335938 4.375 -2.078125 C 4.207031 -1.828125 3.96875 -1.632812 3.65625 -1.5 C 3.351562 -1.363281 3 -1.296875 2.59375 -1.296875 L 1.640625 -1.296875 L 1.640625 0 L 0.5625 0 L 0.5625 -4.6875 Z M 2.53125 -2.171875 C 2.851562 -2.171875 3.097656 -2.238281 3.265625 -2.375 C 3.441406 -2.519531 3.53125 -2.722656 3.53125 -2.984375 C 3.53125 -3.253906 3.441406 -3.457031 3.265625 -3.59375 C 3.097656 -3.738281 2.851562 -3.8125 2.53125 -3.8125 L 1.640625 -3.8125 L 1.640625 -2.171875 Z M 2.53125 -2.171875 "/></g></g></g><g fill="#0c2043" fill-opacity="1"><g transform="translate(45.237077, 53.463222)"><g><path d="M 2.671875 -3.65625 C 3.117188 -3.65625 3.476562 -3.519531 3.75 -3.25 C 4.03125 -2.988281 4.171875 -2.59375 4.171875 -2.0625 L 4.171875 0 L 3.125 0 L 3.125 -1.90625 C 3.125 -2.1875 3.0625 -2.394531 2.9375 -2.53125 C 2.8125 -2.675781 2.628906 -2.75 2.390625 -2.75 C 2.128906 -2.75 1.921875 -2.664062 1.765625 -2.5 C 1.609375 -2.34375 1.53125 -2.101562 1.53125 -1.78125 L 1.53125 0 L 0.484375 0 L 0.484375 -4.96875 L 1.53125 -4.96875 L 1.53125 -3.234375 C 1.664062 -3.367188 1.832031 -3.472656 2.03125 -3.546875 C 2.226562 -3.617188 2.441406 -3.65625 2.671875 -3.65625 Z M 2.671875 -3.65625 "/></g></g></g><g fill="#0c2043" fill-opacity="1"><g transform="translate(49.557394, 53.463222)"><g><path d="M 2.203125 0.046875 C 1.816406 0.046875 1.472656 -0.03125 1.171875 -0.1875 C 0.867188 -0.34375 0.632812 -0.5625 0.46875 -0.84375 C 0.300781 -1.125 0.21875 -1.441406 0.21875 -1.796875 C 0.21875 -2.160156 0.300781 -2.484375 0.46875 -2.765625 C 0.632812 -3.046875 0.867188 -3.265625 1.171875 -3.421875 C 1.472656 -3.578125 1.816406 -3.65625 2.203125 -3.65625 C 2.578125 -3.65625 2.914062 -3.578125 3.21875 -3.421875 C 3.519531 -3.265625 3.753906 -3.046875 3.921875 -2.765625 C 4.085938 -2.484375 4.171875 -2.160156 4.171875 -1.796875 C 4.171875 -1.441406 4.085938 -1.125 3.921875 -0.84375 C 3.753906 -0.5625 3.519531 -0.34375 3.21875 -0.1875 C 2.914062 -0.03125 2.578125 0.046875 2.203125 0.046875 Z M 2.203125 -0.796875 C 2.460938 -0.796875 2.675781 -0.882812 2.84375 -1.0625 C 3.019531 -1.25 3.109375 -1.492188 3.109375 -1.796875 C 3.109375 -2.109375 3.019531 -2.351562 2.84375 -2.53125 C 2.675781 -2.707031 2.460938 -2.796875 2.203125 -2.796875 C 1.929688 -2.796875 1.707031 -2.707031 1.53125 -2.53125 C 1.363281 -2.351562 1.28125 -2.109375 1.28125 -1.796875 C 1.28125 -1.492188 1.363281 -1.25 1.53125 -1.0625 C 1.707031 -0.882812 1.929688 -0.796875 2.203125 -0.796875 Z M 2.203125 -0.796875 "/></g></g></g><g fill="#0c2043" fill-opacity="1"><g transform="translate(53.636577, 53.463222)"><g><path d="M 2.8125 -0.171875 C 2.707031 -0.0976562 2.578125 -0.0390625 2.421875 0 C 2.273438 0.03125 2.117188 0.046875 1.953125 0.046875 C 1.523438 0.046875 1.191406 -0.0625 0.953125 -0.28125 C 0.722656 -0.5 0.609375 -0.816406 0.609375 -1.234375 L 0.609375 -2.71875 L 0.046875 -2.71875 L 0.046875 -3.53125 L 0.609375 -3.53125 L 0.609375 -4.40625 L 1.65625 -4.40625 L 1.65625 -3.53125 L 2.546875 -3.53125 L 2.546875 -2.71875 L 1.65625 -2.71875 L 1.65625 -1.25 C 1.65625 -1.101562 1.691406 -0.988281 1.765625 -0.90625 C 1.847656 -0.820312 1.960938 -0.78125 2.109375 -0.78125 C 2.273438 -0.78125 2.414062 -0.820312 2.53125 -0.90625 Z M 2.8125 -0.171875 "/></g></g></g><g fill="#0c2043" fill-opacity="1"><g transform="translate(56.242141, 53.463222)"><g><path d="M 2.203125 0.046875 C 1.816406 0.046875 1.472656 -0.03125 1.171875 -0.1875 C 0.867188 -0.34375 0.632812 -0.5625 0.46875 -0.84375 C 0.300781 -1.125 0.21875 -1.441406 0.21875 -1.796875 C 0.21875 -2.160156 0.300781 -2.484375 0.46875 -2.765625 C 0.632812 -3.046875 0.867188 -3.265625 1.171875 -3.421875 C 1.472656 -3.578125 1.816406 -3.65625 2.203125 -3.65625 C 2.578125 -3.65625 2.914062 -3.578125 3.21875 -3.421875 C 3.519531 -3.265625 3.753906 -3.046875 3.921875 -2.765625 C 4.085938 -2.484375 4.171875 -2.160156 4.171875 -1.796875 C 4.171875 -1.441406 4.085938 -1.125 3.921875 -0.84375 C 3.753906 -0.5625 3.519531 -0.34375 3.21875 -0.1875 C 2.914062 -0.03125 2.578125 0.046875 2.203125 0.046875 Z M 2.203125 -0.796875 C 2.460938 -0.796875 2.675781 -0.882812 2.84375 -1.0625 C 3.019531 -1.25 3.109375 -1.492188 3.109375 -1.796875 C 3.109375 -2.109375 3.019531 -2.351562 2.84375 -2.53125 C 2.675781 -2.707031 2.460938 -2.796875 2.203125 -2.796875 C 1.929688 -2.796875 1.707031 -2.707031 1.53125 -2.53125 C 1.363281 -2.351562 1.28125 -2.109375 1.28125 -1.796875 C 1.28125 -1.492188 1.363281 -1.25 1.53125 -1.0625 C 1.707031 -0.882812 1.929688 -0.796875 2.203125 -0.796875 Z M 2.203125 -0.796875 "/></g></g></g><g fill="#0c2043" fill-opacity="1"><g transform="translate(60.321323, 53.463222)"><g><path d="M 4.203125 -3.609375 L 4.203125 -0.609375 C 4.203125 0.0546875 4.03125 0.550781 3.6875 0.875 C 3.34375 1.195312 2.835938 1.359375 2.171875 1.359375 C 1.828125 1.359375 1.5 1.3125 1.1875 1.21875 C 0.875 1.132812 0.613281 1.015625 0.40625 0.859375 L 0.828125 0.109375 C 0.972656 0.234375 1.160156 0.332031 1.390625 0.40625 C 1.628906 0.476562 1.863281 0.515625 2.09375 0.515625 C 2.457031 0.515625 2.722656 0.429688 2.890625 0.265625 C 3.066406 0.109375 3.15625 -0.132812 3.15625 -0.46875 L 3.15625 -0.625 C 2.882812 -0.320312 2.503906 -0.171875 2.015625 -0.171875 C 1.679688 -0.171875 1.378906 -0.242188 1.109375 -0.390625 C 0.835938 -0.535156 0.617188 -0.738281 0.453125 -1 C 0.296875 -1.269531 0.21875 -1.578125 0.21875 -1.921875 C 0.21875 -2.265625 0.296875 -2.566406 0.453125 -2.828125 C 0.617188 -3.085938 0.835938 -3.289062 1.109375 -3.4375 C 1.378906 -3.582031 1.679688 -3.65625 2.015625 -3.65625 C 2.535156 -3.65625 2.929688 -3.484375 3.203125 -3.140625 L 3.203125 -3.609375 Z M 2.21875 -1.03125 C 2.5 -1.03125 2.726562 -1.109375 2.90625 -1.265625 C 3.082031 -1.429688 3.171875 -1.648438 3.171875 -1.921875 C 3.171875 -2.179688 3.082031 -2.390625 2.90625 -2.546875 C 2.726562 -2.710938 2.5 -2.796875 2.21875 -2.796875 C 1.945312 -2.796875 1.722656 -2.710938 1.546875 -2.546875 C 1.367188 -2.390625 1.28125 -2.179688 1.28125 -1.921875 C 1.28125 -1.648438 1.367188 -1.429688 1.546875 -1.265625 C 1.722656 -1.109375 1.945312 -1.03125 2.21875 -1.03125 Z M 2.21875 -1.03125 "/></g></g></g><g fill="#0c2043" fill-opacity="1"><g transform="translate(64.701925, 53.463222)"><g><path d="M 1.484375 -3.125 C 1.609375 -3.300781 1.773438 -3.429688 1.984375 -3.515625 C 2.203125 -3.609375 2.445312 -3.65625 2.71875 -3.65625 L 2.71875 -2.6875 C 2.601562 -2.695312 2.523438 -2.703125 2.484375 -2.703125 C 2.179688 -2.703125 1.945312 -2.617188 1.78125 -2.453125 C 1.613281 -2.285156 1.53125 -2.035156 1.53125 -1.703125 L 1.53125 0 L 0.484375 0 L 0.484375 -3.609375 L 1.484375 -3.609375 Z M 1.484375 -3.125 "/></g></g></g><g fill="#0c2043" fill-opacity="1"><g transform="translate(67.280697, 53.463222)"><g><path d="M 1.9375 -3.65625 C 2.5 -3.65625 2.925781 -3.519531 3.21875 -3.25 C 3.519531 -2.988281 3.671875 -2.59375 3.671875 -2.0625 L 3.671875 0 L 2.6875 0 L 2.6875 -0.453125 C 2.5 -0.117188 2.132812 0.046875 1.59375 0.046875 C 1.320312 0.046875 1.082031 0 0.875 -0.09375 C 0.664062 -0.1875 0.507812 -0.3125 0.40625 -0.46875 C 0.300781 -0.632812 0.25 -0.820312 0.25 -1.03125 C 0.25 -1.375 0.375 -1.640625 0.625 -1.828125 C 0.875 -2.023438 1.265625 -2.125 1.796875 -2.125 L 2.625 -2.125 C 2.625 -2.34375 2.554688 -2.515625 2.421875 -2.640625 C 2.285156 -2.765625 2.078125 -2.828125 1.796875 -2.828125 C 1.609375 -2.828125 1.421875 -2.796875 1.234375 -2.734375 C 1.046875 -2.671875 0.882812 -2.59375 0.75 -2.5 L 0.375 -3.21875 C 0.570312 -3.363281 0.804688 -3.472656 1.078125 -3.546875 C 1.359375 -3.617188 1.644531 -3.65625 1.9375 -3.65625 Z M 1.859375 -0.65625 C 2.035156 -0.65625 2.191406 -0.691406 2.328125 -0.765625 C 2.472656 -0.847656 2.570312 -0.972656 2.625 -1.140625 L 2.625 -1.515625 L 1.90625 -1.515625 C 1.476562 -1.515625 1.265625 -1.367188 1.265625 -1.078125 C 1.265625 -0.953125 1.316406 -0.847656 1.421875 -0.765625 C 1.523438 -0.691406 1.671875 -0.65625 1.859375 -0.65625 Z M 1.859375 -0.65625 "/></g></g></g><g fill="#0c2043" fill-opacity="1"><g transform="translate(71.105344, 53.463222)"><g><path d="M 2.609375 -3.65625 C 2.941406 -3.65625 3.242188 -3.578125 3.515625 -3.421875 C 3.796875 -3.273438 4.015625 -3.0625 4.171875 -2.78125 C 4.328125 -2.5 4.40625 -2.171875 4.40625 -1.796875 C 4.40625 -1.429688 4.328125 -1.109375 4.171875 -0.828125 C 4.015625 -0.546875 3.796875 -0.328125 3.515625 -0.171875 C 3.242188 -0.0234375 2.941406 0.046875 2.609375 0.046875 C 2.148438 0.046875 1.789062 -0.09375 1.53125 -0.375 L 1.53125 1.296875 L 0.484375 1.296875 L 0.484375 -3.609375 L 1.484375 -3.609375 L 1.484375 -3.1875 C 1.742188 -3.5 2.117188 -3.65625 2.609375 -3.65625 Z M 2.4375 -0.796875 C 2.695312 -0.796875 2.914062 -0.882812 3.09375 -1.0625 C 3.269531 -1.25 3.359375 -1.492188 3.359375 -1.796875 C 3.359375 -2.109375 3.269531 -2.351562 3.09375 -2.53125 C 2.914062 -2.707031 2.695312 -2.796875 2.4375 -2.796875 C 2.164062 -2.796875 1.941406 -2.707031 1.765625 -2.53125 C 1.597656 -2.351562 1.515625 -2.109375 1.515625 -1.796875 C 1.515625 -1.492188 1.597656 -1.25 1.765625 -1.0625 C 1.941406 -0.882812 2.164062 -0.796875 2.4375 -0.796875 Z M 2.4375 -0.796875 "/></g></g></g><g fill="#0c2043" fill-opacity="1"><g transform="translate(75.418962, 53.463222)"><g><path d="M 2.671875 -3.65625 C 3.117188 -3.65625 3.476562 -3.519531 3.75 -3.25 C 4.03125 -2.988281 4.171875 -2.59375 4.171875 -2.0625 L 4.171875 0 L 3.125 0 L 3.125 -1.90625 C 3.125 -2.1875 3.0625 -2.394531 2.9375 -2.53125 C 2.8125 -2.675781 2.628906 -2.75 2.390625 -2.75 C 2.128906 -2.75 1.921875 -2.664062 1.765625 -2.5 C 1.609375 -2.34375 1.53125 -2.101562 1.53125 -1.78125 L 1.53125 0 L 0.484375 0 L 0.484375 -4.96875 L 1.53125 -4.96875 L 1.53125 -3.234375 C 1.664062 -3.367188 1.832031 -3.472656 2.03125 -3.546875 C 2.226562 -3.617188 2.441406 -3.65625 2.671875 -3.65625 Z M 2.671875 -3.65625 "/></g></g></g><g clip-path="url(#e986c32819)"><g fill="#0c2043" fill-opacity="1"><g transform="translate(79.739278, 53.463222)"><g><path d="M 4.0625 -3.609375 L 2.4375 0.21875 C 2.269531 0.632812 2.0625 0.925781 1.8125 1.09375 C 1.570312 1.269531 1.28125 1.359375 0.9375 1.359375 C 0.75 1.359375 0.5625 1.328125 0.375 1.265625 C 0.195312 1.210938 0.0507812 1.132812 -0.0625 1.03125 L 0.3125 0.28125 C 0.394531 0.351562 0.488281 0.410156 0.59375 0.453125 C 0.695312 0.492188 0.800781 0.515625 0.90625 0.515625 C 1.050781 0.515625 1.164062 0.476562 1.25 0.40625 C 1.34375 0.332031 1.425781 0.21875 1.5 0.0625 L 1.515625 0.03125 L -0.046875 -3.609375 L 1.03125 -3.609375 L 2.03125 -1.15625 L 3.0625 -3.609375 Z M 4.0625 -3.609375 "/></g></g></g></g><g fill="#ffffff" fill-opacity="1"><g transform="translate(40.642132, 44.812556)"><g><path d="M 4 -2.4375 C 4.269531 -2.351562 4.476562 -2.210938 4.625 -2.015625 C 4.78125 -1.816406 4.859375 -1.570312 4.859375 -1.28125 C 4.859375 -0.863281 4.695312 -0.546875 4.375 -0.328125 C 4.0625 -0.109375 3.597656 0 2.984375 0 L 0.5625 0 L 0.5625 -4.6875 L 2.84375 -4.6875 C 3.414062 -4.6875 3.851562 -4.578125 4.15625 -4.359375 C 4.46875 -4.140625 4.625 -3.84375 4.625 -3.46875 C 4.625 -3.238281 4.566406 -3.035156 4.453125 -2.859375 C 4.347656 -2.679688 4.195312 -2.539062 4 -2.4375 Z M 1.640625 -3.875 L 1.640625 -2.765625 L 2.71875 -2.765625 C 2.976562 -2.765625 3.175781 -2.8125 3.3125 -2.90625 C 3.457031 -3 3.53125 -3.140625 3.53125 -3.328125 C 3.53125 -3.503906 3.457031 -3.640625 3.3125 -3.734375 C 3.175781 -3.828125 2.976562 -3.875 2.71875 -3.875 Z M 2.90625 -0.8125 C 3.1875 -0.8125 3.398438 -0.859375 3.546875 -0.953125 C 3.691406 -1.046875 3.765625 -1.191406 3.765625 -1.390625 C 3.765625 -1.785156 3.476562 -1.984375 2.90625 -1.984375 L 1.640625 -1.984375 L 1.640625 -0.8125 Z M 2.90625 -0.8125 "/></g></g></g><g fill="#ffffff" fill-opacity="1"><g transform="translate(45.458121, 44.812556)"><g><path d="M 2.203125 0.046875 C 1.816406 0.046875 1.472656 -0.03125 1.171875 -0.1875 C 0.867188 -0.34375 0.632812 -0.5625 0.46875 -0.84375 C 0.300781 -1.125 0.21875 -1.441406 0.21875 -1.796875 C 0.21875 -2.160156 0.300781 -2.484375 0.46875 -2.765625 C 0.632812 -3.046875 0.867188 -3.265625 1.171875 -3.421875 C 1.472656 -3.578125 1.816406 -3.65625 2.203125 -3.65625 C 2.578125 -3.65625 2.914062 -3.578125 3.21875 -3.421875 C 3.519531 -3.265625 3.753906 -3.046875 3.921875 -2.765625 C 4.085938 -2.484375 4.171875 -2.160156 4.171875 -1.796875 C 4.171875 -1.441406 4.085938 -1.125 3.921875 -0.84375 C 3.753906 -0.5625 3.519531 -0.34375 3.21875 -0.1875 C 2.914062 -0.03125 2.578125 0.046875 2.203125 0.046875 Z M 2.203125 -0.796875 C 2.460938 -0.796875 2.675781 -0.882812 2.84375 -1.0625 C 3.019531 -1.25 3.109375 -1.492188 3.109375 -1.796875 C 3.109375 -2.109375 3.019531 -2.351562 2.84375 -2.53125 C 2.675781 -2.707031 2.460938 -2.796875 2.203125 -2.796875 C 1.929688 -2.796875 1.707031 -2.707031 1.53125 -2.53125 C 1.363281 -2.351562 1.28125 -2.109375 1.28125 -1.796875 C 1.28125 -1.492188 1.363281 -1.25 1.53125 -1.0625 C 1.707031 -0.882812 1.929688 -0.796875 2.203125 -0.796875 Z M 2.203125 -0.796875 "/></g></g></g><g fill="#ffffff" fill-opacity="1"><g transform="translate(49.537304, 44.812556)"><g><path d="M 1.484375 -3.125 C 1.609375 -3.300781 1.773438 -3.429688 1.984375 -3.515625 C 2.203125 -3.609375 2.445312 -3.65625 2.71875 -3.65625 L 2.71875 -2.6875 C 2.601562 -2.695312 2.523438 -2.703125 2.484375 -2.703125 C 2.179688 -2.703125 1.945312 -2.617188 1.78125 -2.453125 C 1.613281 -2.285156 1.53125 -2.035156 1.53125 -1.703125 L 1.53125 0 L 0.484375 0 L 0.484375 -3.609375 L 1.484375 -3.609375 Z M 1.484375 -3.125 "/></g></g></g><g fill="#ffffff" fill-opacity="1"><g transform="translate(52.116076, 44.812556)"><g><path d="M 2.21875 0.046875 C 1.84375 0.046875 1.5 -0.03125 1.1875 -0.1875 C 0.882812 -0.34375 0.644531 -0.5625 0.46875 -0.84375 C 0.300781 -1.125 0.21875 -1.441406 0.21875 -1.796875 C 0.21875 -2.160156 0.300781 -2.484375 0.46875 -2.765625 C 0.644531 -3.046875 0.882812 -3.265625 1.1875 -3.421875 C 1.5 -3.578125 1.84375 -3.65625 2.21875 -3.65625 C 2.601562 -3.65625 2.9375 -3.578125 3.21875 -3.421875 C 3.5 -3.265625 3.707031 -3.035156 3.84375 -2.734375 L 3.03125 -2.3125 C 2.84375 -2.632812 2.570312 -2.796875 2.21875 -2.796875 C 1.945312 -2.796875 1.722656 -2.707031 1.546875 -2.53125 C 1.367188 -2.351562 1.28125 -2.109375 1.28125 -1.796875 C 1.28125 -1.492188 1.367188 -1.25 1.546875 -1.0625 C 1.722656 -0.882812 1.945312 -0.796875 2.21875 -0.796875 C 2.570312 -0.796875 2.84375 -0.960938 3.03125 -1.296875 L 3.84375 -0.859375 C 3.707031 -0.566406 3.5 -0.34375 3.21875 -0.1875 C 2.9375 -0.03125 2.601562 0.046875 2.21875 0.046875 Z M 2.21875 0.046875 "/></g></g></g><g fill="#ffffff" fill-opacity="1"><g transform="translate(55.76657, 44.812556)"><g><path d="M 4.015625 -1.796875 C 4.015625 -1.773438 4.007812 -1.679688 4 -1.515625 L 1.265625 -1.515625 C 1.316406 -1.285156 1.429688 -1.101562 1.609375 -0.96875 C 1.796875 -0.84375 2.023438 -0.78125 2.296875 -0.78125 C 2.484375 -0.78125 2.648438 -0.804688 2.796875 -0.859375 C 2.941406 -0.921875 3.078125 -1.015625 3.203125 -1.140625 L 3.765625 -0.53125 C 3.421875 -0.144531 2.921875 0.046875 2.265625 0.046875 C 1.859375 0.046875 1.5 -0.03125 1.1875 -0.1875 C 0.875 -0.34375 0.632812 -0.5625 0.46875 -0.84375 C 0.300781 -1.125 0.21875 -1.441406 0.21875 -1.796875 C 0.21875 -2.148438 0.300781 -2.46875 0.46875 -2.75 C 0.632812 -3.039062 0.863281 -3.265625 1.15625 -3.421875 C 1.445312 -3.578125 1.773438 -3.65625 2.140625 -3.65625 C 2.492188 -3.65625 2.8125 -3.578125 3.09375 -3.421875 C 3.382812 -3.273438 3.609375 -3.0625 3.765625 -2.78125 C 3.929688 -2.5 4.015625 -2.171875 4.015625 -1.796875 Z M 2.140625 -2.875 C 1.910156 -2.875 1.710938 -2.804688 1.546875 -2.671875 C 1.390625 -2.535156 1.289062 -2.351562 1.25 -2.125 L 3.03125 -2.125 C 2.988281 -2.34375 2.890625 -2.519531 2.734375 -2.65625 C 2.578125 -2.800781 2.378906 -2.875 2.140625 -2.875 Z M 2.140625 -2.875 "/></g></g></g><g fill="#ffffff" fill-opacity="1"><g transform="translate(59.684994, 44.812556)"><g><path d="M 0.484375 -4.96875 L 1.53125 -4.96875 L 1.53125 0 L 0.484375 0 Z M 0.484375 -4.96875 "/></g></g></g><g fill="#ffffff" fill-opacity="1"><g transform="translate(61.392993, 44.812556)"><g><path d="M 0.484375 -4.96875 L 1.53125 -4.96875 L 1.53125 0 L 0.484375 0 Z M 0.484375 -4.96875 "/></g></g></g><g fill="#ffffff" fill-opacity="1"><g transform="translate(63.100992, 44.812556)"><g><path d="M 4.015625 -1.796875 C 4.015625 -1.773438 4.007812 -1.679688 4 -1.515625 L 1.265625 -1.515625 C 1.316406 -1.285156 1.429688 -1.101562 1.609375 -0.96875 C 1.796875 -0.84375 2.023438 -0.78125 2.296875 -0.78125 C 2.484375 -0.78125 2.648438 -0.804688 2.796875 -0.859375 C 2.941406 -0.921875 3.078125 -1.015625 3.203125 -1.140625 L 3.765625 -0.53125 C 3.421875 -0.144531 2.921875 0.046875 2.265625 0.046875 C 1.859375 0.046875 1.5 -0.03125 1.1875 -0.1875 C 0.875 -0.34375 0.632812 -0.5625 0.46875 -0.84375 C 0.300781 -1.125 0.21875 -1.441406 0.21875 -1.796875 C 0.21875 -2.148438 0.300781 -2.46875 0.46875 -2.75 C 0.632812 -3.039062 0.863281 -3.265625 1.15625 -3.421875 C 1.445312 -3.578125 1.773438 -3.65625 2.140625 -3.65625 C 2.492188 -3.65625 2.8125 -3.578125 3.09375 -3.421875 C 3.382812 -3.273438 3.609375 -3.0625 3.765625 -2.78125 C 3.929688 -2.5 4.015625 -2.171875 4.015625 -1.796875 Z M 2.140625 -2.875 C 1.910156 -2.875 1.710938 -2.804688 1.546875 -2.671875 C 1.390625 -2.535156 1.289062 -2.351562 1.25 -2.125 L 3.03125 -2.125 C 2.988281 -2.34375 2.890625 -2.519531 2.734375 -2.65625 C 2.578125 -2.800781 2.378906 -2.875 2.140625 -2.875 Z M 2.140625 -2.875 "/></g></g></g></svg>