<svg xmlns="http://www.w3.org/2000/svg" xmlns:xlink="http://www.w3.org/1999/xlink" width="240" zoomAndPan="magnify" viewBox="0 0 180 96.749999" height="129" preserveAspectRatio="xMidYMid meet" version="1.0"><defs><g/><clipPath id="bdbf48109e"><path d="M 91 26 L 106 26 L 106 34.371094 L 91 34.371094 Z M 91 26 " clip-rule="nonzero"/></clipPath><clipPath id="7377282216"><path d="M 91 26 L 107 26 L 107 34.371094 L 91 34.371094 Z M 91 26 " clip-rule="nonzero"/></clipPath><clipPath id="9c914d3d66"><path d="M 86.257812 28 L 90 28 L 90 30 L 86.257812 30 Z M 86.257812 28 " clip-rule="nonzero"/></clipPath><clipPath id="cda61dc554"><path d="M 101 21.652344 L 103 21.652344 L 103 24 L 101 24 Z M 101 21.652344 " clip-rule="nonzero"/></clipPath><clipPath id="28030a1c1d"><path d="M 109 27 L 110.945312 27 L 110.945312 28 L 109 28 Z M 109 27 " clip-rule="nonzero"/></clipPath><clipPath id="712b72cc57"><path d="M 108 30 L 110.945312 30 L 110.945312 32 L 108 32 Z M 108 30 " clip-rule="nonzero"/></clipPath></defs><g fill="#ffffff" fill-opacity="1"><g transform="translate(88.628374, 69.476139)"><g><path d="M 0.625 0 L 4.078125 -35.765625 L 16.203125 -35.765625 L 19.609375 0 L 12.828125 0 L 12.328125 -5.78125 L 8 -5.78125 L 7.578125 0 Z M 8.53125 -11.5 L 11.78125 -11.5 L 10.203125 -29.6875 L 9.875 -29.6875 Z M 8.53125 -11.5 "/></g></g></g><g fill="#ffffff" fill-opacity="1"><g transform="translate(108.818238, 69.476139)"><g><path d="M 1.578125 0 L 1.578125 -35.765625 L 8.75 -35.765625 L 8.75 -6.078125 L 16.109375 -6.078125 L 16.109375 0 Z M 1.578125 0 "/></g></g></g><g fill="#ffffff" fill-opacity="1"><g transform="translate(125.34479, 69.476139)"><g><path d="M 1.578125 0 L 1.578125 -35.765625 L 8.75 -35.765625 L 8.75 -6.078125 L 16.109375 -6.078125 L 16.109375 0 Z M 1.578125 0 "/></g></g></g><g fill="#ffffff" fill-opacity="1"><g transform="translate(141.871342, 69.476139)"><g><path d="M 1.578125 0 L 1.578125 -35.765625 L 15.90625 -35.765625 L 15.90625 -28.859375 L 8.875 -28.859375 L 8.875 -21.90625 L 15.609375 -21.90625 L 15.609375 -15.15625 L 8.875 -15.15625 L 8.875 -6.953125 L 16.359375 -6.953125 L 16.359375 0 Z M 1.578125 0 "/></g></g></g><g fill="#ffffff" fill-opacity="1"><g transform="translate(159.022321, 69.476139)"><g><path d="M 1.578125 0 L 1.578125 -35.765625 L 8.953125 -35.765625 L 12.25 -18.65625 L 12.25 -35.765625 L 19.15625 -35.765625 L 19.15625 0 L 12.15625 0 L 8.578125 -17.90625 L 8.578125 0 Z M 1.578125 0 "/></g></g></g><g clip-path="url(#bdbf48109e)"><path fill="#fccb1e" d="M 104.871094 33.878906 C 101.179688 33.351562 96.277344 33.273438 92.621094 34.011719 C 92.601562 31.921875 92.152344 29.859375 91.707031 27.816406 C 93.140625 29.089844 94.75 30.175781 96.476562 31.039062 C 97.761719 29.636719 98.84375 27.867188 99.542969 26.363281 C 100.246094 27.867188 101.332031 29.722656 102.207031 31.007812 C 103.605469 29.789062 104.730469 28.550781 105.933594 27.488281 C 105.152344 29.914062 104.871094 31.964844 104.84375 33.933594 " fill-opacity="1" fill-rule="nonzero"/></g><g clip-path="url(#7377282216)"><path fill="#100f0d" d="M 104.960938 33.5625 C 101.992188 33.171875 98.992188 33.023438 96.003906 33.242188 C 95.019531 33.3125 93.441406 33.894531 92.914062 32.96875 C 92.992188 33.101562 92.625 30.671875 92.648438 30.808594 C 92.480469 29.777344 92.253906 28.753906 92.03125 27.730469 C 91.84375 27.835938 91.65625 27.941406 91.46875 28.046875 C 92.976562 29.328125 94.546875 30.390625 96.308594 31.320312 C 96.429688 31.386719 96.617188 31.382812 96.714844 31.269531 C 97.234375 30.664062 97.511719 30.355469 97.976562 29.703125 C 98.121094 29.5 99.261719 27.359375 99.453125 27.300781 C 99.683594 27.226562 101.648438 30.765625 101.917969 31.175781 C 102.035156 31.355469 102.28125 31.386719 102.445312 31.242188 C 103.71875 30.097656 104.910156 28.871094 106.171875 27.71875 C 105.984375 27.613281 105.796875 27.503906 105.609375 27.398438 C 104.960938 29.566406 104.582031 31.679688 104.507812 33.933594 C 104.492188 34.355469 105.164062 34.355469 105.179688 33.933594 C 105.25 31.746094 105.628906 29.667969 106.257812 27.574219 C 106.355469 27.25 105.9375 27.035156 105.699219 27.253906 C 105.023438 27.871094 103.21875 30.234375 102.347656 30.160156 C 101.382812 30.082031 100.226562 27.003906 99.835938 26.199219 C 99.730469 25.984375 99.359375 25.984375 99.253906 26.199219 C 98.628906 27.457031 97.945312 29.230469 96.59375 29.839844 C 95.5 30.332031 95.53125 30.195312 94.558594 29.558594 C 93.640625 28.957031 92.777344 28.292969 91.945312 27.585938 C 91.6875 27.367188 91.3125 27.578125 91.382812 27.902344 C 91.820312 29.933594 92.199219 31.933594 92.285156 34.011719 C 92.296875 34.238281 92.492188 34.367188 92.710938 34.328125 C 96.6875 33.605469 100.785156 33.671875 104.78125 34.195312 C 105.203125 34.25 105.386719 33.617188 104.960938 33.5625 " fill-opacity="1" fill-rule="nonzero"/></g><path fill="#faf783" d="M 99.433594 26.703125 C 99.832031 26.769531 100.273438 26.621094 100.503906 26.296875 C 100.730469 25.972656 100.691406 25.480469 100.378906 25.230469 C 100.234375 25.113281 100.046875 25.054688 99.859375 25.042969 C 99.234375 24.996094 98.617188 25.476562 98.523438 26.078125 C 98.507812 26.175781 98.507812 26.277344 98.546875 26.367188 C 98.605469 26.496094 98.742188 26.574219 98.875 26.632812 C 99.15625 26.753906 99.460938 26.820312 99.769531 26.828125 " fill-opacity="1" fill-rule="nonzero"/><path fill="#100f0d" d="M 99.433594 26.949219 C 100.105469 27.027344 100.824219 26.636719 100.894531 25.933594 C 100.960938 25.242188 100.382812 24.757812 99.695312 24.796875 C 99.019531 24.835938 98.398438 25.355469 98.28125 26.011719 C 98.132812 26.828125 99.128906 27.042969 99.769531 27.074219 C 100.09375 27.089844 100.09375 26.597656 99.769531 26.582031 C 99.421875 26.566406 98.648438 26.480469 98.804688 25.988281 C 98.925781 25.621094 99.285156 25.335938 99.675781 25.292969 C 100.09375 25.246094 100.488281 25.519531 100.378906 25.964844 C 100.28125 26.378906 99.816406 26.5 99.433594 26.457031 C 99.113281 26.421875 99.113281 26.914062 99.433594 26.949219 " fill-opacity="1" fill-rule="nonzero"/><path fill="#faf783" d="M 105.691406 27.4375 C 105.847656 27.535156 106.011719 27.617188 106.183594 27.671875 C 106.511719 27.78125 106.890625 27.804688 107.191406 27.636719 C 107.488281 27.464844 107.648438 27.050781 107.460938 26.769531 C 107.398438 26.675781 107.304688 26.601562 107.210938 26.535156 C 106.953125 26.355469 106.652344 26.195312 106.335938 26.214844 C 106.1875 26.222656 106.042969 26.273438 105.90625 26.332031 C 105.75 26.402344 105.59375 26.496094 105.519531 26.644531 C 105.421875 26.835938 105.484375 27.078125 105.625 27.242188 C 105.765625 27.40625 105.96875 27.503906 106.171875 27.582031 " fill-opacity="1" fill-rule="nonzero"/><path fill="#100f0d" d="M 105.566406 27.652344 C 106.132812 27.992188 107.003906 28.222656 107.527344 27.679688 C 108.058594 27.132812 107.703125 26.519531 107.136719 26.195312 C 106.59375 25.882812 105.796875 25.886719 105.375 26.414062 C 104.886719 27.023438 105.566406 27.601562 106.105469 27.816406 C 106.40625 27.9375 106.539062 27.460938 106.242188 27.34375 C 105.820312 27.175781 105.488281 26.746094 106.078125 26.527344 C 106.410156 26.402344 106.699219 26.496094 106.984375 26.683594 C 107.339844 26.917969 107.386719 27.347656 106.914062 27.484375 C 106.535156 27.59375 106.132812 27.414062 105.820312 27.226562 C 105.542969 27.058594 105.289062 27.484375 105.566406 27.652344 " fill-opacity="1" fill-rule="nonzero"/><path fill="#faf783" d="M 91.785156 27.949219 C 92.136719 27.753906 92.378906 27.378906 92.410156 26.984375 C 92.414062 26.898438 92.410156 26.804688 92.371094 26.722656 C 92.339844 26.65625 92.285156 26.605469 92.222656 26.5625 C 91.972656 26.394531 91.636719 26.402344 91.347656 26.5 C 91.144531 26.570312 90.953125 26.679688 90.792969 26.824219 C 90.664062 26.941406 90.550781 27.082031 90.5 27.246094 C 90.453125 27.414062 90.472656 27.601562 90.582031 27.738281 C 90.691406 27.871094 90.871094 27.933594 91.046875 27.953125 C 91.4375 27.992188 91.847656 27.835938 92.109375 27.542969 " fill-opacity="1" fill-rule="nonzero"/><path fill="#100f0d" d="M 91.914062 28.164062 C 92.378906 27.871094 92.894531 27.160156 92.589844 26.597656 C 92.25 25.96875 91.296875 26.164062 90.816406 26.492188 C 90.347656 26.816406 89.941406 27.519531 90.476562 27.984375 C 91.003906 28.4375 91.859375 28.152344 92.285156 27.71875 C 92.511719 27.488281 92.15625 27.140625 91.929688 27.371094 C 91.699219 27.601562 91.351562 27.78125 91.007812 27.699219 C 90.421875 27.558594 90.902344 27.011719 91.179688 26.847656 C 91.417969 26.707031 92.085938 26.492188 92.15625 26.941406 C 92.207031 27.253906 91.902344 27.585938 91.660156 27.738281 C 91.386719 27.90625 91.640625 28.332031 91.914062 28.164062 " fill-opacity="1" fill-rule="nonzero"/><g clip-path="url(#9c914d3d66)"><path fill="#100f0d" d="M 88.960938 29.121094 C 88.210938 28.988281 87.460938 28.851562 86.710938 28.714844 C 86.394531 28.65625 86.257812 29.132812 86.578125 29.191406 C 87.328125 29.324219 88.078125 29.460938 88.828125 29.597656 C 89.144531 29.652344 89.28125 29.179688 88.960938 29.121094 " fill-opacity="1" fill-rule="nonzero"/></g><path fill="#100f0d" d="M 90.152344 25.21875 C 89.765625 24.714844 89.28125 24.347656 88.6875 24.109375 C 88.386719 23.992188 88.257812 24.464844 88.554688 24.585938 C 89.015625 24.769531 89.417969 25.074219 89.714844 25.464844 C 89.910156 25.714844 90.347656 25.472656 90.152344 25.21875 " fill-opacity="1" fill-rule="nonzero"/><path fill="#100f0d" d="M 95.769531 24.035156 C 95.714844 23.441406 95.640625 22.847656 95.546875 22.257812 C 95.5 21.945312 95.011719 22.078125 95.0625 22.386719 C 95.148438 22.933594 95.214844 23.484375 95.265625 24.035156 C 95.296875 24.347656 95.800781 24.351562 95.769531 24.035156 " fill-opacity="1" fill-rule="nonzero"/><g clip-path="url(#cda61dc554)"><path fill="#100f0d" d="M 102.242188 23.683594 C 102.289062 23.144531 102.382812 22.613281 102.523438 22.089844 C 102.609375 21.785156 102.121094 21.652344 102.039062 21.960938 C 101.886719 22.527344 101.789062 23.101562 101.738281 23.683594 C 101.710938 24 102.214844 23.996094 102.242188 23.683594 " fill-opacity="1" fill-rule="nonzero"/></g><path fill="#100f0d" d="M 107.070312 24.296875 C 107.546875 24.0625 108.027344 23.832031 108.507812 23.601562 C 108.796875 23.460938 108.542969 23.035156 108.253906 23.175781 C 107.773438 23.40625 107.292969 23.640625 106.8125 23.871094 C 106.523438 24.011719 106.777344 24.4375 107.070312 24.296875 " fill-opacity="1" fill-rule="nonzero"/><g clip-path="url(#28030a1c1d)"><path fill="#100f0d" d="M 109.273438 27.957031 C 109.722656 27.957031 110.171875 27.957031 110.621094 27.957031 C 110.945312 27.957031 110.945312 27.464844 110.621094 27.464844 C 110.171875 27.464844 109.722656 27.464844 109.273438 27.464844 C 108.949219 27.464844 108.949219 27.957031 109.273438 27.957031 " fill-opacity="1" fill-rule="nonzero"/></g><g clip-path="url(#712b72cc57)"><path fill="#100f0d" d="M 108.980469 31.058594 C 109.308594 31.011719 109.640625 30.964844 109.96875 30.921875 C 110.289062 30.875 110.152344 30.402344 109.832031 30.445312 C 109.503906 30.492188 109.175781 30.539062 108.847656 30.582031 C 108.527344 30.628906 108.664062 31.101562 108.980469 31.058594 " fill-opacity="1" fill-rule="nonzero"/></g></svg>