<svg xmlns="http://www.w3.org/2000/svg" xmlns:xlink="http://www.w3.org/1999/xlink" width="112" zoomAndPan="magnify" viewBox="0 0 84 81.749997" height="109" preserveAspectRatio="xMidYMid meet" version="1.0"><defs><g/><clipPath id="67ec936496"><path d="M 26.359375 0 L 57.933594 0 L 57.933594 61.175781 L 26.359375 61.175781 Z M 26.359375 0 " clip-rule="nonzero"/></clipPath><clipPath id="68da095d26"><path d="M 33.050781 30.25 L 34.753906 30.25 L 34.753906 31.324219 L 33.050781 31.324219 Z M 33.050781 30.25 " clip-rule="nonzero"/></clipPath><clipPath id="d93407fc55"><path d="M 33.820312 30.25 L 34.347656 30.25 C 34.476562 30.25 34.601562 30.3125 34.675781 30.417969 C 34.753906 30.527344 34.773438 30.664062 34.734375 30.789062 C 34.625 31.109375 34.328125 31.324219 33.988281 31.324219 L 33.460938 31.324219 C 33.332031 31.324219 33.207031 31.261719 33.132812 31.15625 C 33.054688 31.050781 33.035156 30.914062 33.074219 30.789062 C 33.183594 30.464844 33.480469 30.25 33.820312 30.25 Z M 33.820312 30.25 " clip-rule="nonzero"/></clipPath></defs><g clip-path="url(#67ec936496)"><path fill="#000000" d="M 26.367188 34.773438 L 30.390625 31.886719 C 30.910156 31.515625 31.214844 31.019531 31.3125 30.394531 L 31.445312 29.519531 C 31.527344 28.976562 31.800781 28.558594 32.269531 28.261719 C 33.636719 27.402344 36.578125 25.554688 37.136719 25.230469 C 37.867188 24.800781 37.300781 23.882812 36.335938 23.164062 C 35.367188 22.441406 34.636719 21.6875 35.300781 20.082031 C 35.964844 18.476562 37.46875 15 37.46875 15 C 37.46875 15 37.101562 17.292969 36.902344 18.933594 C 36.703125 20.574219 37.269531 21.589844 38.769531 22.082031 C 40.265625 22.574219 42.035156 22.410156 43.5 21.753906 C 44.96875 21.097656 46.367188 19.722656 46.933594 18.441406 C 47.5 17.164062 47.167969 15.292969 46.035156 14.179688 C 46.035156 14.179688 47.601562 14.769531 48.703125 15.554688 C 49.800781 16.34375 50.136719 17.820312 48.933594 19.523438 L 52.539062 16.441406 C 53.257812 15.828125 53.675781 15.058594 53.789062 14.132812 L 53.976562 12.589844 C 54.011719 12.308594 53.945312 12.050781 53.773438 11.820312 C 53.605469 11.59375 53.375 11.449219 53.09375 11.394531 L 49.257812 10.667969 L 53.113281 9.578125 C 53.644531 9.425781 54.109375 9.164062 54.511719 8.785156 C 54.910156 8.410156 55.199219 7.960938 55.378906 7.445312 L 57.925781 0 L 56.8125 15.332031 C 56.773438 15.902344 56.601562 16.429688 56.308594 16.925781 C 56.011719 17.417969 55.621094 17.816406 55.132812 18.128906 L 46.414062 23.699219 C 46.414062 23.699219 48.726562 24.269531 50.726562 23.4375 C 50.726562 23.4375 48.902344 25.710938 44.234375 25.84375 C 39.570312 25.972656 39.035156 28.464844 39.035156 28.464844 C 39.035156 28.464844 42.503906 26.410156 46.589844 26.761719 C 46.589844 26.761719 45.925781 30.609375 41.300781 30.523438 C 41.300781 30.523438 44.011719 31.964844 45.746094 34.542969 L 44.324219 34.773438 C 44.324219 34.773438 47.167969 36.730469 48.59375 40.753906 L 46.992188 40.535156 C 46.992188 40.535156 48.457031 45.257812 47.390625 48.535156 L 45.925781 47.445312 C 45.925781 47.445312 45.523438 52.515625 42.148438 55.402344 L 41.035156 54.484375 C 41.035156 54.484375 40.011719 58.945312 36.945312 61.175781 C 36.945312 61.175781 37.703125 59.207031 36.859375 57.589844 C 36.011719 55.972656 34.28125 53.257812 34.546875 50.328125 C 34.546875 50.328125 33.523438 51.335938 33.523438 52.296875 C 33.523438 52.296875 31.125 49.367188 32.324219 45.914062 C 32.324219 45.914062 30.902344 46.65625 30.769531 47.488281 C 30.769531 47.488281 29.792969 44.996094 31.96875 41.714844 C 34.148438 38.4375 34.191406 36.597656 32.148438 37.125 C 30.101562 37.648438 27.347656 37.453125 26.367188 34.773438 Z M 26.367188 34.773438 " fill-opacity="1" fill-rule="nonzero"/></g><g clip-path="url(#68da095d26)"><g clip-path="url(#d93407fc55)"><path fill="#ffffff" d="M 32.894531 30.25 L 34.910156 30.25 L 34.910156 31.324219 L 32.894531 31.324219 Z M 32.894531 30.25 " fill-opacity="1" fill-rule="nonzero"/></g></g><g fill="#000000" fill-opacity="1"><g transform="translate(22.30842, 74.060749)"><g><path d="M 2.515625 -7.5625 L 2.515625 0 L 0.671875 0 L 0.671875 -7.5625 Z M 2.515625 -7.5625 "/></g></g></g><g fill="#000000" fill-opacity="1"><g transform="translate(25.489386, 74.060749)"><g><path d="M 0.359375 -3.796875 C 0.359375 -4.546875 0.519531 -5.210938 0.84375 -5.796875 C 1.164062 -6.378906 1.613281 -6.832031 2.1875 -7.15625 C 2.769531 -7.488281 3.425781 -7.65625 4.15625 -7.65625 C 5.0625 -7.65625 5.832031 -7.414062 6.46875 -6.9375 C 7.101562 -6.46875 7.53125 -5.820312 7.75 -5 L 5.71875 -5 C 5.570312 -5.320312 5.359375 -5.5625 5.078125 -5.71875 C 4.804688 -5.882812 4.492188 -5.96875 4.140625 -5.96875 C 3.566406 -5.96875 3.101562 -5.769531 2.75 -5.375 C 2.40625 -4.976562 2.234375 -4.453125 2.234375 -3.796875 C 2.234375 -3.128906 2.40625 -2.597656 2.75 -2.203125 C 3.101562 -1.816406 3.566406 -1.625 4.140625 -1.625 C 4.492188 -1.625 4.804688 -1.703125 5.078125 -1.859375 C 5.359375 -2.023438 5.570312 -2.269531 5.71875 -2.59375 L 7.75 -2.59375 C 7.53125 -1.769531 7.101562 -1.125 6.46875 -0.65625 C 5.832031 -0.1875 5.0625 0.046875 4.15625 0.046875 C 3.425781 0.046875 2.769531 -0.113281 2.1875 -0.4375 C 1.613281 -0.757812 1.164062 -1.210938 0.84375 -1.796875 C 0.519531 -2.378906 0.359375 -3.046875 0.359375 -3.796875 Z M 0.359375 -3.796875 "/></g></g></g><g fill="#000000" fill-opacity="1"><g transform="translate(33.705981, 74.060749)"><g><path d="M 4.25 0.078125 C 3.539062 0.078125 2.890625 -0.0859375 2.296875 -0.421875 C 1.703125 -0.753906 1.226562 -1.21875 0.875 -1.8125 C 0.53125 -2.40625 0.359375 -3.070312 0.359375 -3.8125 C 0.359375 -4.550781 0.53125 -5.210938 0.875 -5.796875 C 1.226562 -6.390625 1.703125 -6.847656 2.296875 -7.171875 C 2.890625 -7.503906 3.539062 -7.671875 4.25 -7.671875 C 4.957031 -7.671875 5.609375 -7.503906 6.203125 -7.171875 C 6.796875 -6.847656 7.265625 -6.390625 7.609375 -5.796875 C 7.953125 -5.210938 8.125 -4.550781 8.125 -3.8125 C 8.125 -3.070312 7.945312 -2.40625 7.59375 -1.8125 C 7.25 -1.21875 6.78125 -0.753906 6.1875 -0.421875 C 5.601562 -0.0859375 4.957031 0.078125 4.25 0.078125 Z M 4.25 -1.609375 C 4.851562 -1.609375 5.335938 -1.804688 5.703125 -2.203125 C 6.066406 -2.609375 6.25 -3.144531 6.25 -3.8125 C 6.25 -4.476562 6.066406 -5.007812 5.703125 -5.40625 C 5.335938 -5.800781 4.851562 -6 4.25 -6 C 3.632812 -6 3.144531 -5.800781 2.78125 -5.40625 C 2.425781 -5.007812 2.25 -4.476562 2.25 -3.8125 C 2.25 -3.132812 2.425781 -2.597656 2.78125 -2.203125 C 3.144531 -1.804688 3.632812 -1.609375 4.25 -1.609375 Z M 4.25 -1.609375 "/></g></g></g><g fill="#000000" fill-opacity="1"><g transform="translate(42.181368, 74.060749)"><g><path d="M 7.4375 0 L 5.59375 0 L 2.515625 -4.671875 L 2.515625 0 L 0.671875 0 L 0.671875 -7.5625 L 2.515625 -7.5625 L 5.59375 -2.875 L 5.59375 -7.5625 L 7.4375 -7.5625 Z M 7.4375 0 "/></g></g></g><g fill="#000000" fill-opacity="1"><g transform="translate(50.290135, 74.060749)"><g><path d="M 2.515625 -7.5625 L 2.515625 0 L 0.671875 0 L 0.671875 -7.5625 Z M 2.515625 -7.5625 "/></g></g></g><g fill="#000000" fill-opacity="1"><g transform="translate(53.4711, 74.060749)"><g><path d="M 0.359375 -3.796875 C 0.359375 -4.546875 0.519531 -5.210938 0.84375 -5.796875 C 1.164062 -6.378906 1.613281 -6.832031 2.1875 -7.15625 C 2.769531 -7.488281 3.425781 -7.65625 4.15625 -7.65625 C 5.0625 -7.65625 5.832031 -7.414062 6.46875 -6.9375 C 7.101562 -6.46875 7.53125 -5.820312 7.75 -5 L 5.71875 -5 C 5.570312 -5.320312 5.359375 -5.5625 5.078125 -5.71875 C 4.804688 -5.882812 4.492188 -5.96875 4.140625 -5.96875 C 3.566406 -5.96875 3.101562 -5.769531 2.75 -5.375 C 2.40625 -4.976562 2.234375 -4.453125 2.234375 -3.796875 C 2.234375 -3.128906 2.40625 -2.597656 2.75 -2.203125 C 3.101562 -1.816406 3.566406 -1.625 4.140625 -1.625 C 4.492188 -1.625 4.804688 -1.703125 5.078125 -1.859375 C 5.359375 -2.023438 5.570312 -2.269531 5.71875 -2.59375 L 7.75 -2.59375 C 7.53125 -1.769531 7.101562 -1.125 6.46875 -0.65625 C 5.832031 -0.1875 5.0625 0.046875 4.15625 0.046875 C 3.425781 0.046875 2.769531 -0.113281 2.1875 -0.4375 C 1.613281 -0.757812 1.164062 -1.210938 0.84375 -1.796875 C 0.519531 -2.378906 0.359375 -3.046875 0.359375 -3.796875 Z M 0.359375 -3.796875 "/></g></g></g><g fill="#000000" fill-opacity="1"><g transform="translate(28.546992, 80.408011)"><g><path d="M 1.9375 -0.609375 L 0.734375 -0.609375 L 0.515625 0 L 0.125 0 L 1.125 -2.75 L 1.546875 -2.75 L 2.546875 0 L 2.15625 0 Z M 1.84375 -0.90625 L 1.34375 -2.3125 L 0.84375 -0.90625 Z M 1.84375 -0.90625 "/></g></g></g><g fill="#000000" fill-opacity="1"><g transform="translate(33.020651, 80.408011)"><g><path d="M 2.15625 -1.953125 C 2.15625 -1.722656 2.078125 -1.53125 1.921875 -1.375 C 1.765625 -1.226562 1.523438 -1.15625 1.203125 -1.15625 L 0.671875 -1.15625 L 0.671875 0 L 0.3125 0 L 0.3125 -2.765625 L 1.203125 -2.765625 C 1.515625 -2.765625 1.75 -2.6875 1.90625 -2.53125 C 2.070312 -2.382812 2.15625 -2.191406 2.15625 -1.953125 Z M 1.203125 -1.453125 C 1.398438 -1.453125 1.546875 -1.492188 1.640625 -1.578125 C 1.734375 -1.671875 1.78125 -1.796875 1.78125 -1.953125 C 1.78125 -2.296875 1.585938 -2.46875 1.203125 -2.46875 L 0.671875 -2.46875 L 0.671875 -1.453125 Z M 1.203125 -1.453125 "/></g></g></g><g fill="#000000" fill-opacity="1"><g transform="translate(37.116905, 80.408011)"><g><path d="M 2.15625 -1.953125 C 2.15625 -1.722656 2.078125 -1.53125 1.921875 -1.375 C 1.765625 -1.226562 1.523438 -1.15625 1.203125 -1.15625 L 0.671875 -1.15625 L 0.671875 0 L 0.3125 0 L 0.3125 -2.765625 L 1.203125 -2.765625 C 1.515625 -2.765625 1.75 -2.6875 1.90625 -2.53125 C 2.070312 -2.382812 2.15625 -2.191406 2.15625 -1.953125 Z M 1.203125 -1.453125 C 1.398438 -1.453125 1.546875 -1.492188 1.640625 -1.578125 C 1.734375 -1.671875 1.78125 -1.796875 1.78125 -1.953125 C 1.78125 -2.296875 1.585938 -2.46875 1.203125 -2.46875 L 0.671875 -2.46875 L 0.671875 -1.453125 Z M 1.203125 -1.453125 "/></g></g></g><g fill="#000000" fill-opacity="1"><g transform="translate(41.213159, 80.408011)"><g><path d="M 1.9375 -0.609375 L 0.734375 -0.609375 L 0.515625 0 L 0.125 0 L 1.125 -2.75 L 1.546875 -2.75 L 2.546875 0 L 2.15625 0 Z M 1.84375 -0.90625 L 1.34375 -2.3125 L 0.84375 -0.90625 Z M 1.84375 -0.90625 "/></g></g></g><g fill="#000000" fill-opacity="1"><g transform="translate(45.686819, 80.408011)"><g><path d="M 1.765625 0 L 1.109375 -1.125 L 0.671875 -1.125 L 0.671875 0 L 0.3125 0 L 0.3125 -2.765625 L 1.203125 -2.765625 C 1.410156 -2.765625 1.582031 -2.726562 1.71875 -2.65625 C 1.863281 -2.582031 1.972656 -2.484375 2.046875 -2.359375 C 2.117188 -2.242188 2.15625 -2.109375 2.15625 -1.953125 C 2.15625 -1.765625 2.097656 -1.597656 1.984375 -1.453125 C 1.878906 -1.304688 1.71875 -1.207031 1.5 -1.15625 L 2.1875 0 Z M 0.671875 -1.421875 L 1.203125 -1.421875 C 1.398438 -1.421875 1.546875 -1.46875 1.640625 -1.5625 C 1.734375 -1.65625 1.78125 -1.785156 1.78125 -1.953125 C 1.78125 -2.117188 1.734375 -2.242188 1.640625 -2.328125 C 1.546875 -2.421875 1.398438 -2.46875 1.203125 -2.46875 L 0.671875 -2.46875 Z M 0.671875 -1.421875 "/></g></g></g><g fill="#000000" fill-opacity="1"><g transform="translate(49.898284, 80.408011)"><g><path d="M 0.671875 -2.46875 L 0.671875 -1.546875 L 1.671875 -1.546875 L 1.671875 -1.25 L 0.671875 -1.25 L 0.671875 -0.296875 L 1.796875 -0.296875 L 1.796875 0 L 0.3125 0 L 0.3125 -2.765625 L 1.796875 -2.765625 L 1.796875 -2.46875 Z M 0.671875 -2.46875 "/></g></g></g><g fill="#000000" fill-opacity="1"><g transform="translate(53.732344, 80.408011)"><g><path d="M 0.671875 -0.296875 L 1.640625 -0.296875 L 1.640625 0 L 0.3125 0 L 0.3125 -2.765625 L 0.671875 -2.765625 Z M 0.671875 -0.296875 "/></g></g></g><g fill="#000000" fill-opacity="1"><g transform="translate(50.261697, 33.54688)"><g><path d="M 0.734375 -1.765625 L 0.734375 -1.328125 L 1.4375 -1.328125 L 1.4375 -0.90625 L 0.734375 -0.90625 L 0.734375 -0.421875 L 1.53125 -0.421875 L 1.53125 0 L 0.1875 0 L 0.1875 -2.1875 L 1.53125 -2.1875 L 1.53125 -1.765625 Z M 0.734375 -1.765625 "/></g></g></g><g fill="#000000" fill-opacity="1"><g transform="translate(52.361, 33.54688)"><g><path d="M 0.984375 0.015625 C 0.828125 0.015625 0.679688 -0.0078125 0.546875 -0.0625 C 0.421875 -0.113281 0.320312 -0.1875 0.25 -0.28125 C 0.175781 -0.382812 0.132812 -0.507812 0.125 -0.65625 L 0.703125 -0.65625 C 0.710938 -0.570312 0.738281 -0.507812 0.78125 -0.46875 C 0.832031 -0.425781 0.894531 -0.40625 0.96875 -0.40625 C 1.050781 -0.40625 1.113281 -0.421875 1.15625 -0.453125 C 1.207031 -0.492188 1.234375 -0.546875 1.234375 -0.609375 C 1.234375 -0.660156 1.210938 -0.703125 1.171875 -0.734375 C 1.140625 -0.773438 1.09375 -0.804688 1.03125 -0.828125 C 0.976562 -0.859375 0.90625 -0.882812 0.8125 -0.90625 C 0.664062 -0.957031 0.546875 -1.003906 0.453125 -1.046875 C 0.367188 -1.085938 0.296875 -1.148438 0.234375 -1.234375 C 0.171875 -1.316406 0.140625 -1.429688 0.140625 -1.578125 C 0.140625 -1.773438 0.210938 -1.929688 0.359375 -2.046875 C 0.503906 -2.160156 0.695312 -2.21875 0.9375 -2.21875 C 1.175781 -2.21875 1.367188 -2.160156 1.515625 -2.046875 C 1.671875 -1.929688 1.753906 -1.769531 1.765625 -1.5625 L 1.1875 -1.5625 C 1.175781 -1.632812 1.144531 -1.691406 1.09375 -1.734375 C 1.050781 -1.773438 0.992188 -1.796875 0.921875 -1.796875 C 0.859375 -1.796875 0.804688 -1.773438 0.765625 -1.734375 C 0.722656 -1.703125 0.703125 -1.65625 0.703125 -1.59375 C 0.703125 -1.519531 0.734375 -1.460938 0.796875 -1.421875 C 0.867188 -1.390625 0.972656 -1.347656 1.109375 -1.296875 C 1.253906 -1.253906 1.367188 -1.207031 1.453125 -1.15625 C 1.546875 -1.113281 1.625 -1.050781 1.6875 -0.96875 C 1.75 -0.882812 1.78125 -0.78125 1.78125 -0.65625 C 1.78125 -0.53125 1.75 -0.414062 1.6875 -0.3125 C 1.625 -0.207031 1.53125 -0.125 1.40625 -0.0625 C 1.289062 -0.0078125 1.148438 0.015625 0.984375 0.015625 Z M 0.984375 0.015625 "/></g></g></g><g fill="#000000" fill-opacity="1"><g transform="translate(50.261697, 37.788027)"><g><path d="M 1.765625 -2.1875 L 1.765625 -1.765625 L 1.1875 -1.765625 L 1.1875 0 L 0.65625 0 L 0.65625 -1.765625 L 0.078125 -1.765625 L 0.078125 -2.1875 Z M 1.765625 -2.1875 "/></g></g></g><g fill="#000000" fill-opacity="1"><g transform="translate(52.516958, 37.788027)"><g><path d="M 1.015625 -2.1875 C 1.242188 -2.1875 1.441406 -2.140625 1.609375 -2.046875 C 1.785156 -1.960938 1.921875 -1.835938 2.015625 -1.671875 C 2.117188 -1.503906 2.171875 -1.3125 2.171875 -1.09375 C 2.171875 -0.882812 2.117188 -0.695312 2.015625 -0.53125 C 1.921875 -0.363281 1.785156 -0.234375 1.609375 -0.140625 C 1.441406 -0.046875 1.242188 0 1.015625 0 L 0.1875 0 L 0.1875 -2.1875 Z M 0.984375 -0.46875 C 1.179688 -0.46875 1.335938 -0.519531 1.453125 -0.625 C 1.566406 -0.738281 1.625 -0.894531 1.625 -1.09375 C 1.625 -1.300781 1.566406 -1.457031 1.453125 -1.5625 C 1.335938 -1.675781 1.179688 -1.734375 0.984375 -1.734375 L 0.734375 -1.734375 L 0.734375 -0.46875 Z M 0.984375 -0.46875 "/></g></g></g><g fill="#000000" fill-opacity="1"><g transform="translate(50.261697, 42.867656)"><g><path d="M 0.15625 -0.234375 C 0.425781 -0.441406 0.632812 -0.613281 0.78125 -0.75 C 0.925781 -0.882812 1.050781 -1.023438 1.15625 -1.171875 C 1.257812 -1.328125 1.3125 -1.476562 1.3125 -1.625 C 1.3125 -1.757812 1.28125 -1.863281 1.21875 -1.9375 C 1.15625 -2.019531 1.050781 -2.0625 0.90625 -2.0625 C 0.757812 -2.0625 0.644531 -2.015625 0.5625 -1.921875 C 0.488281 -1.835938 0.445312 -1.71875 0.4375 -1.5625 L 0.171875 -1.5625 C 0.179688 -1.800781 0.25 -1.984375 0.375 -2.109375 C 0.507812 -2.234375 0.679688 -2.296875 0.890625 -2.296875 C 1.109375 -2.296875 1.28125 -2.234375 1.40625 -2.109375 C 1.53125 -1.992188 1.59375 -1.832031 1.59375 -1.625 C 1.59375 -1.457031 1.539062 -1.289062 1.4375 -1.125 C 1.332031 -0.957031 1.210938 -0.8125 1.078125 -0.6875 C 0.953125 -0.570312 0.789062 -0.429688 0.59375 -0.265625 L 1.65625 -0.265625 L 1.65625 -0.03125 L 0.15625 -0.03125 Z M 0.15625 -0.234375 "/></g></g></g><g fill="#000000" fill-opacity="1"><g transform="translate(52.467052, 42.867656)"><g><path d="M 0.1875 -1.15625 C 0.1875 -1.507812 0.242188 -1.785156 0.359375 -1.984375 C 0.484375 -2.191406 0.691406 -2.296875 0.984375 -2.296875 C 1.273438 -2.296875 1.476562 -2.191406 1.59375 -1.984375 C 1.707031 -1.785156 1.765625 -1.507812 1.765625 -1.15625 C 1.765625 -0.789062 1.707031 -0.503906 1.59375 -0.296875 C 1.476562 -0.0976562 1.273438 0 0.984375 0 C 0.691406 0 0.484375 -0.0976562 0.359375 -0.296875 C 0.242188 -0.503906 0.1875 -0.789062 0.1875 -1.15625 Z M 1.484375 -1.15625 C 1.484375 -1.332031 1.46875 -1.484375 1.4375 -1.609375 C 1.414062 -1.734375 1.367188 -1.832031 1.296875 -1.90625 C 1.222656 -1.988281 1.117188 -2.03125 0.984375 -2.03125 C 0.835938 -2.03125 0.726562 -1.988281 0.65625 -1.90625 C 0.582031 -1.832031 0.53125 -1.734375 0.5 -1.609375 C 0.476562 -1.484375 0.46875 -1.332031 0.46875 -1.15625 C 0.46875 -0.96875 0.476562 -0.804688 0.5 -0.671875 C 0.53125 -0.546875 0.582031 -0.445312 0.65625 -0.375 C 0.726562 -0.300781 0.835938 -0.265625 0.984375 -0.265625 C 1.117188 -0.265625 1.222656 -0.300781 1.296875 -0.375 C 1.367188 -0.445312 1.414062 -0.546875 1.4375 -0.671875 C 1.46875 -0.804688 1.484375 -0.96875 1.484375 -1.15625 Z M 1.484375 -1.15625 "/></g></g></g><g fill="#000000" fill-opacity="1"><g transform="translate(50.261697, 47.108803)"><g><path d="M 0.1875 -1.15625 C 0.1875 -1.507812 0.242188 -1.785156 0.359375 -1.984375 C 0.484375 -2.191406 0.691406 -2.296875 0.984375 -2.296875 C 1.273438 -2.296875 1.476562 -2.191406 1.59375 -1.984375 C 1.707031 -1.785156 1.765625 -1.507812 1.765625 -1.15625 C 1.765625 -0.789062 1.707031 -0.503906 1.59375 -0.296875 C 1.476562 -0.0976562 1.273438 0 0.984375 0 C 0.691406 0 0.484375 -0.0976562 0.359375 -0.296875 C 0.242188 -0.503906 0.1875 -0.789062 0.1875 -1.15625 Z M 1.484375 -1.15625 C 1.484375 -1.332031 1.46875 -1.484375 1.4375 -1.609375 C 1.414062 -1.734375 1.367188 -1.832031 1.296875 -1.90625 C 1.222656 -1.988281 1.117188 -2.03125 0.984375 -2.03125 C 0.835938 -2.03125 0.726562 -1.988281 0.65625 -1.90625 C 0.582031 -1.832031 0.53125 -1.734375 0.5 -1.609375 C 0.476562 -1.484375 0.46875 -1.332031 0.46875 -1.15625 C 0.46875 -0.96875 0.476562 -0.804688 0.5 -0.671875 C 0.53125 -0.546875 0.582031 -0.445312 0.65625 -0.375 C 0.726562 -0.300781 0.835938 -0.265625 0.984375 -0.265625 C 1.117188 -0.265625 1.222656 -0.300781 1.296875 -0.375 C 1.367188 -0.445312 1.414062 -0.546875 1.4375 -0.671875 C 1.46875 -0.804688 1.484375 -0.96875 1.484375 -1.15625 Z M 1.484375 -1.15625 "/></g></g></g><g fill="#000000" fill-opacity="1"><g transform="translate(52.632369, 47.108803)"><g><path d="M 0.5625 -0.609375 C 0.582031 -0.484375 0.628906 -0.390625 0.703125 -0.328125 C 0.773438 -0.265625 0.878906 -0.234375 1.015625 -0.234375 C 1.179688 -0.234375 1.304688 -0.300781 1.390625 -0.4375 C 1.472656 -0.570312 1.515625 -0.800781 1.515625 -1.125 C 1.472656 -1.03125 1.398438 -0.957031 1.296875 -0.90625 C 1.191406 -0.851562 1.078125 -0.828125 0.953125 -0.828125 C 0.816406 -0.828125 0.691406 -0.851562 0.578125 -0.90625 C 0.472656 -0.96875 0.390625 -1.050781 0.328125 -1.15625 C 0.265625 -1.269531 0.234375 -1.40625 0.234375 -1.5625 C 0.234375 -1.78125 0.296875 -1.957031 0.421875 -2.09375 C 0.546875 -2.226562 0.726562 -2.296875 0.96875 -2.296875 C 1.257812 -2.296875 1.460938 -2.203125 1.578125 -2.015625 C 1.703125 -1.828125 1.765625 -1.546875 1.765625 -1.171875 C 1.765625 -0.910156 1.738281 -0.691406 1.6875 -0.515625 C 1.644531 -0.347656 1.566406 -0.21875 1.453125 -0.125 C 1.335938 -0.0390625 1.1875 0 1 0 C 0.78125 0 0.613281 -0.0546875 0.5 -0.171875 C 0.382812 -0.285156 0.316406 -0.429688 0.296875 -0.609375 Z M 1 -1.0625 C 1.132812 -1.0625 1.25 -1.101562 1.34375 -1.1875 C 1.4375 -1.28125 1.484375 -1.398438 1.484375 -1.546875 C 1.484375 -1.703125 1.4375 -1.828125 1.34375 -1.921875 C 1.257812 -2.015625 1.140625 -2.0625 0.984375 -2.0625 C 0.835938 -2.0625 0.71875 -2.015625 0.625 -1.921875 C 0.539062 -1.835938 0.5 -1.71875 0.5 -1.5625 C 0.5 -1.414062 0.539062 -1.296875 0.625 -1.203125 C 0.707031 -1.109375 0.832031 -1.0625 1 -1.0625 Z M 1 -1.0625 "/></g></g></g></svg>