<svg xmlns="http://www.w3.org/2000/svg" xmlns:xlink="http://www.w3.org/1999/xlink" width="240" zoomAndPan="magnify" viewBox="0 0 180 96.749999" height="129" preserveAspectRatio="xMidYMid meet" version="1.0"><defs><g/><clipPath id="4783b5d407"><path d="M 22 10 L 47 10 L 47 23.457031 L 22 23.457031 Z M 22 10 " clip-rule="nonzero"/></clipPath><clipPath id="dc9e99836f"><path d="M 14.617188 14 L 20 14 L 20 16 L 14.617188 16 Z M 14.617188 14 " clip-rule="nonzero"/></clipPath><clipPath id="ab22bb0514"><path d="M 51 12 L 54.417969 12 L 54.417969 14 L 51 14 Z M 51 12 " clip-rule="nonzero"/></clipPath></defs><g fill="#ffffff" fill-opacity="1"><g transform="translate(18.435722, 80.061189)"><g><path d="M 1 0 L 6.578125 -57.65625 L 26.109375 -57.65625 L 31.609375 0 L 20.671875 0 L 19.875 -9.328125 L 12.890625 -9.328125 L 12.21875 0 Z M 13.765625 -18.53125 L 19 -18.53125 L 16.453125 -47.859375 L 15.90625 -47.859375 Z M 13.765625 -18.53125 "/></g></g></g><g fill="#ffffff" fill-opacity="1"><g transform="translate(50.988554, 80.061189)"><g><path d="M 2.546875 0 L 2.546875 -57.65625 L 14.09375 -57.65625 L 14.09375 -9.796875 L 25.984375 -9.796875 L 25.984375 0 Z M 2.546875 0 "/></g></g></g><g fill="#ffffff" fill-opacity="1"><g transform="translate(77.634899, 80.061189)"><g><path d="M 2.546875 0 L 2.546875 -57.65625 L 14.09375 -57.65625 L 14.09375 -9.796875 L 25.984375 -9.796875 L 25.984375 0 Z M 2.546875 0 "/></g></g></g><g fill="#ffffff" fill-opacity="1"><g transform="translate(104.281244, 80.061189)"><g><path d="M 2.546875 0 L 2.546875 -57.65625 L 25.640625 -57.65625 L 25.640625 -46.515625 L 14.296875 -46.515625 L 14.296875 -35.3125 L 25.171875 -35.3125 L 25.171875 -24.4375 L 14.296875 -24.4375 L 14.296875 -11.203125 L 26.375 -11.203125 L 26.375 0 Z M 2.546875 0 "/></g></g></g><g fill="#ffffff" fill-opacity="1"><g transform="translate(131.934376, 80.061189)"><g><path d="M 2.546875 0 L 2.546875 -57.65625 L 14.4375 -57.65625 L 19.734375 -30.078125 L 19.734375 -57.65625 L 30.875 -57.65625 L 30.875 0 L 19.59375 0 L 13.828125 -28.859375 L 13.828125 0 Z M 2.546875 0 "/></g></g></g><path fill="#fccb1e" d="M 44.621094 22.664062 C 38.671875 21.816406 30.769531 21.691406 24.875 22.878906 C 24.84375 19.511719 24.121094 16.1875 23.398438 12.894531 C 25.714844 14.941406 28.308594 16.695312 31.089844 18.085938 C 33.160156 15.824219 34.90625 12.972656 36.035156 10.546875 C 37.164062 12.972656 38.917969 15.96875 40.328125 18.039062 C 42.585938 16.070312 44.398438 14.074219 46.339844 12.359375 C 45.074219 16.277344 44.621094 19.582031 44.578125 22.753906 " fill-opacity="1" fill-rule="nonzero"/><g clip-path="url(#4783b5d407)"><path fill="#100f0d" d="M 44.765625 22.15625 C 39.984375 21.527344 35.148438 21.289062 30.328125 21.640625 C 28.742188 21.753906 26.195312 22.691406 25.347656 21.199219 C 25.46875 21.414062 24.882812 17.496094 24.917969 17.71875 C 24.648438 16.050781 24.277344 14.402344 23.921875 12.753906 C 23.621094 12.921875 23.316406 13.09375 23.015625 13.265625 C 25.449219 15.328125 27.976562 17.042969 30.816406 18.542969 C 31.011719 18.648438 31.320312 18.644531 31.472656 18.460938 C 32.3125 17.480469 32.757812 16.984375 33.507812 15.933594 C 33.742188 15.605469 35.578125 12.15625 35.886719 12.058594 C 36.257812 11.945312 39.425781 17.648438 39.859375 18.304688 C 40.054688 18.597656 40.449219 18.652344 40.710938 18.414062 C 42.765625 16.566406 44.6875 14.59375 46.722656 12.734375 C 46.421875 12.5625 46.121094 12.390625 45.816406 12.21875 C 44.769531 15.710938 44.15625 19.121094 44.035156 22.753906 C 44.015625 23.4375 45.097656 23.433594 45.121094 22.753906 C 45.238281 19.230469 45.847656 15.878906 46.863281 12.5 C 47.019531 11.976562 46.339844 11.632812 45.957031 11.984375 C 44.871094 12.976562 41.957031 16.789062 40.554688 16.671875 C 39.003906 16.546875 37.136719 11.578125 36.503906 10.28125 C 36.332031 9.933594 35.738281 9.9375 35.566406 10.28125 C 34.5625 12.3125 33.457031 15.175781 31.28125 16.152344 C 29.511719 16.949219 29.566406 16.730469 27.996094 15.699219 C 26.515625 14.734375 25.125 13.65625 23.78125 12.519531 C 23.371094 12.167969 22.761719 12.503906 22.875 13.035156 C 23.585938 16.304688 24.195312 19.53125 24.335938 22.878906 C 24.351562 23.246094 24.667969 23.453125 25.019531 23.390625 C 31.429688 22.226562 38.035156 22.332031 44.480469 23.175781 C 45.160156 23.265625 45.457031 22.246094 44.765625 22.15625 " fill-opacity="1" fill-rule="nonzero"/></g><path fill="#faf783" d="M 35.859375 11.097656 C 36.5 11.203125 37.210938 10.964844 37.582031 10.441406 C 37.949219 9.917969 37.886719 9.121094 37.382812 8.722656 C 37.148438 8.535156 36.847656 8.441406 36.542969 8.417969 C 35.539062 8.34375 34.542969 9.117188 34.390625 10.089844 C 34.367188 10.242188 34.363281 10.410156 34.425781 10.550781 C 34.523438 10.761719 34.742188 10.890625 34.957031 10.984375 C 35.410156 11.179688 35.902344 11.289062 36.398438 11.296875 " fill-opacity="1" fill-rule="nonzero"/><path fill="#100f0d" d="M 35.859375 11.496094 C 36.941406 11.617188 38.101562 10.988281 38.210938 9.851562 C 38.316406 8.738281 37.386719 7.960938 36.28125 8.023438 C 35.1875 8.089844 34.191406 8.925781 34 9.984375 C 33.761719 11.300781 35.367188 11.644531 36.398438 11.695312 C 36.921875 11.71875 36.917969 10.925781 36.398438 10.902344 C 35.835938 10.875 34.589844 10.738281 34.84375 9.941406 C 35.035156 9.351562 35.617188 8.894531 36.246094 8.824219 C 36.917969 8.75 37.554688 9.1875 37.382812 9.902344 C 37.222656 10.574219 36.472656 10.773438 35.859375 10.703125 C 35.339844 10.644531 35.34375 11.4375 35.859375 11.496094 " fill-opacity="1" fill-rule="nonzero"/><path fill="#faf783" d="M 45.949219 12.28125 C 46.195312 12.441406 46.464844 12.570312 46.742188 12.660156 C 47.269531 12.835938 47.882812 12.875 48.363281 12.597656 C 48.84375 12.320312 49.105469 11.660156 48.800781 11.203125 C 48.699219 11.050781 48.546875 10.933594 48.394531 10.828125 C 47.980469 10.539062 47.5 10.277344 46.988281 10.308594 C 46.746094 10.324219 46.515625 10.402344 46.296875 10.5 C 46.042969 10.609375 45.789062 10.761719 45.667969 11.003906 C 45.511719 11.3125 45.617188 11.699219 45.84375 11.964844 C 46.066406 12.226562 46.394531 12.386719 46.726562 12.511719 " fill-opacity="1" fill-rule="nonzero"/><path fill="#100f0d" d="M 45.746094 12.625 C 46.660156 13.171875 48.0625 13.550781 48.910156 12.671875 C 49.761719 11.789062 49.1875 10.800781 48.277344 10.277344 C 47.398438 9.777344 46.117188 9.777344 45.4375 10.628906 C 44.652344 11.609375 45.742188 12.546875 46.617188 12.894531 C 47.101562 13.085938 47.3125 12.320312 46.832031 12.128906 C 46.15625 11.859375 45.617188 11.167969 46.570312 10.8125 C 47.101562 10.613281 47.570312 10.761719 48.03125 11.0625 C 48.605469 11.441406 48.675781 12.136719 47.917969 12.355469 C 47.308594 12.53125 46.660156 12.242188 46.15625 11.941406 C 45.707031 11.671875 45.296875 12.359375 45.746094 12.625 " fill-opacity="1" fill-rule="nonzero"/><path fill="#faf783" d="M 23.527344 13.109375 C 24.09375 12.789062 24.480469 12.1875 24.53125 11.554688 C 24.542969 11.410156 24.535156 11.257812 24.472656 11.128906 C 24.417969 11.023438 24.328125 10.9375 24.230469 10.871094 C 23.828125 10.597656 23.285156 10.609375 22.824219 10.769531 C 22.488281 10.878906 22.183594 11.0625 21.921875 11.292969 C 21.714844 11.480469 21.535156 11.710938 21.457031 11.976562 C 21.375 12.242188 21.40625 12.546875 21.582031 12.761719 C 21.757812 12.980469 22.050781 13.078125 22.332031 13.109375 C 22.96875 13.175781 23.628906 12.921875 24.046875 12.449219 " fill-opacity="1" fill-rule="nonzero"/><path fill="#100f0d" d="M 23.730469 13.449219 C 24.484375 12.980469 25.3125 11.832031 24.824219 10.929688 C 24.273438 9.914062 22.738281 10.230469 21.964844 10.757812 C 21.207031 11.277344 20.550781 12.414062 21.414062 13.160156 C 22.261719 13.894531 23.644531 13.433594 24.335938 12.730469 C 24.699219 12.363281 24.121094 11.800781 23.757812 12.171875 C 23.390625 12.546875 22.824219 12.832031 22.269531 12.699219 C 21.328125 12.472656 22.101562 11.597656 22.550781 11.328125 C 22.933594 11.105469 24.011719 10.753906 24.125 11.480469 C 24.207031 11.984375 23.714844 12.519531 23.320312 12.765625 C 22.882812 13.039062 23.289062 13.726562 23.730469 13.449219 " fill-opacity="1" fill-rule="nonzero"/><g clip-path="url(#dc9e99836f)"><path fill="#100f0d" d="M 18.976562 14.996094 C 17.765625 14.777344 16.554688 14.558594 15.347656 14.339844 C 14.835938 14.25 14.617188 15.011719 15.128906 15.105469 C 16.339844 15.324219 17.550781 15.542969 18.757812 15.761719 C 19.269531 15.855469 19.488281 15.089844 18.976562 14.996094 " fill-opacity="1" fill-rule="nonzero"/></g><path fill="#100f0d" d="M 20.890625 8.699219 C 20.273438 7.890625 19.492188 7.300781 18.53125 6.917969 C 18.046875 6.722656 17.835938 7.492188 18.316406 7.683594 C 19.058594 7.980469 19.710938 8.472656 20.191406 9.101562 C 20.5 9.503906 21.207031 9.109375 20.890625 8.699219 " fill-opacity="1" fill-rule="nonzero"/><path fill="#100f0d" d="M 29.953125 6.796875 C 29.863281 5.835938 29.742188 4.882812 29.59375 3.929688 C 29.511719 3.425781 28.730469 3.636719 28.808594 4.140625 C 28.945312 5.023438 29.054688 5.90625 29.136719 6.796875 C 29.183594 7.300781 30 7.304688 29.953125 6.796875 " fill-opacity="1" fill-rule="nonzero"/><path fill="#100f0d" d="M 40.386719 6.230469 C 40.460938 5.359375 40.613281 4.503906 40.839844 3.660156 C 40.976562 3.164062 40.191406 2.953125 40.058594 3.449219 C 39.808594 4.363281 39.652344 5.289062 39.574219 6.230469 C 39.53125 6.738281 40.34375 6.734375 40.386719 6.230469 " fill-opacity="1" fill-rule="nonzero"/><path fill="#100f0d" d="M 48.167969 7.214844 C 48.941406 6.84375 49.714844 6.46875 50.488281 6.09375 C 50.957031 5.867188 50.542969 5.183594 50.074219 5.410156 C 49.304688 5.78125 48.53125 6.15625 47.757812 6.53125 C 47.289062 6.757812 47.699219 7.441406 48.167969 7.214844 " fill-opacity="1" fill-rule="nonzero"/><g clip-path="url(#ab22bb0514)"><path fill="#100f0d" d="M 51.722656 13.117188 C 52.445312 13.117188 53.167969 13.117188 53.890625 13.117188 C 54.414062 13.117188 54.417969 12.324219 53.890625 12.324219 C 53.167969 12.324219 52.445312 12.324219 51.722656 12.324219 C 51.199219 12.324219 51.195312 13.117188 51.722656 13.117188 " fill-opacity="1" fill-rule="nonzero"/></g><path fill="#100f0d" d="M 51.25 18.117188 C 51.78125 18.042969 52.3125 17.96875 52.84375 17.894531 C 53.359375 17.824219 53.140625 17.058594 52.625 17.132812 C 52.09375 17.207031 51.566406 17.28125 51.035156 17.351562 C 50.519531 17.425781 50.738281 18.191406 51.25 18.117188 " fill-opacity="1" fill-rule="nonzero"/></svg>