<svg xmlns="http://www.w3.org/2000/svg" xmlns:xlink="http://www.w3.org/1999/xlink" width="240" zoomAndPan="magnify" viewBox="0 0 180 96.749999" height="129" preserveAspectRatio="xMidYMid meet" version="1.0"><defs><g/><clipPath id="53c55e40f2"><path d="M 67 18 L 86 18 L 86 28.570312 L 67 28.570312 Z M 67 18 " clip-rule="nonzero"/></clipPath><clipPath id="7f7525cb88"><path d="M 66 17 L 86 17 L 86 28.570312 L 66 28.570312 Z M 66 17 " clip-rule="nonzero"/></clipPath><clipPath id="367de5d91b"><path d="M 60.078125 21 L 64 21 L 64 23 L 60.078125 23 Z M 60.078125 21 " clip-rule="nonzero"/></clipPath><clipPath id="b6923ff432"><path d="M 71 12.289062 L 73 12.289062 L 73 16 L 71 16 Z M 71 12.289062 " clip-rule="nonzero"/></clipPath><clipPath id="8ebef233f8"><path d="M 79 12.289062 L 81 12.289062 L 81 16 L 79 16 Z M 79 12.289062 " clip-rule="nonzero"/></clipPath><clipPath id="88c7725d47"><path d="M 89 19 L 91.675781 19 L 91.675781 21 L 89 21 Z M 89 19 " clip-rule="nonzero"/></clipPath></defs><g fill="#ffffff" fill-opacity="1"><g transform="translate(63.109268, 73.504319)"><g><path d="M 0.796875 0 L 5.21875 -45.78125 L 20.734375 -45.78125 L 25.109375 0 L 16.421875 0 L 15.78125 -7.40625 L 10.234375 -7.40625 L 9.703125 0 Z M 10.921875 -14.703125 L 15.078125 -14.703125 L 13.0625 -38 L 12.625 -38 Z M 10.921875 -14.703125 "/></g></g></g><g fill="#ffffff" fill-opacity="1"><g transform="translate(88.952294, 73.504319)"><g><path d="M 2.03125 0 L 2.03125 -45.78125 L 11.1875 -45.78125 L 11.1875 -7.78125 L 20.625 -7.78125 L 20.625 0 Z M 2.03125 0 "/></g></g></g><g fill="#ffffff" fill-opacity="1"><g transform="translate(110.106281, 73.504319)"><g><path d="M 2.03125 0 L 2.03125 -45.78125 L 11.1875 -45.78125 L 11.1875 -7.78125 L 20.625 -7.78125 L 20.625 0 Z M 2.03125 0 "/></g></g></g><g fill="#ffffff" fill-opacity="1"><g transform="translate(131.260268, 73.504319)"><g><path d="M 2.03125 0 L 2.03125 -45.78125 L 20.359375 -45.78125 L 20.359375 -36.9375 L 11.359375 -36.9375 L 11.359375 -28.03125 L 19.984375 -28.03125 L 19.984375 -19.40625 L 11.359375 -19.40625 L 11.359375 -8.90625 L 20.953125 -8.90625 L 20.953125 0 Z M 2.03125 0 "/></g></g></g><g fill="#ffffff" fill-opacity="1"><g transform="translate(153.213522, 73.504319)"><g><path d="M 2.03125 0 L 2.03125 -45.78125 L 11.453125 -45.78125 L 15.671875 -23.875 L 15.671875 -45.78125 L 24.515625 -45.78125 L 24.515625 0 L 15.5625 0 L 10.984375 -22.921875 L 10.984375 0 Z M 2.03125 0 "/></g></g></g><g clip-path="url(#53c55e40f2)"><path fill="#fccb1e" d="M 83.898438 27.9375 C 79.171875 27.265625 72.898438 27.167969 68.222656 28.109375 C 68.195312 25.433594 67.621094 22.796875 67.050781 20.179688 C 68.886719 21.808594 70.945312 23.199219 73.15625 24.304688 C 74.796875 22.507812 76.183594 20.242188 77.082031 18.320312 C 77.976562 20.242188 79.367188 22.621094 80.488281 24.265625 C 82.28125 22.703125 83.71875 21.117188 85.261719 19.757812 C 84.257812 22.867188 83.898438 25.492188 83.863281 28.011719 " fill-opacity="1" fill-rule="nonzero"/></g><g clip-path="url(#7f7525cb88)"><path fill="#100f0d" d="M 84.011719 27.535156 C 80.214844 27.035156 76.375 26.847656 72.550781 27.125 C 71.292969 27.21875 69.269531 27.960938 68.597656 26.773438 C 68.695312 26.945312 68.226562 23.835938 68.257812 24.011719 C 68.039062 22.6875 67.75 21.378906 67.464844 20.070312 C 67.226562 20.207031 66.984375 20.339844 66.746094 20.476562 C 68.675781 22.113281 70.683594 23.476562 72.9375 24.667969 C 73.09375 24.75 73.335938 24.746094 73.460938 24.601562 C 74.125 23.824219 74.480469 23.429688 75.074219 22.59375 C 75.261719 22.335938 76.71875 19.59375 76.964844 19.519531 C 77.257812 19.425781 79.773438 23.953125 80.117188 24.476562 C 80.273438 24.710938 80.585938 24.75 80.792969 24.5625 C 82.421875 23.097656 83.949219 21.53125 85.566406 20.054688 C 85.328125 19.917969 85.085938 19.78125 84.847656 19.644531 C 84.015625 22.417969 83.527344 25.125 83.433594 28.011719 C 83.414062 28.550781 84.277344 28.550781 84.292969 28.011719 C 84.386719 25.210938 84.871094 22.550781 85.675781 19.867188 C 85.800781 19.453125 85.261719 19.183594 84.957031 19.460938 C 84.09375 20.25 81.78125 23.273438 80.667969 23.183594 C 79.4375 23.082031 77.957031 19.136719 77.453125 18.109375 C 77.316406 17.832031 76.84375 17.835938 76.710938 18.109375 C 75.910156 19.71875 75.035156 21.992188 73.308594 22.769531 C 71.902344 23.398438 71.945312 23.226562 70.699219 22.410156 C 69.523438 21.640625 68.421875 20.789062 67.355469 19.882812 C 67.027344 19.605469 66.542969 19.871094 66.632812 20.292969 C 67.195312 22.886719 67.679688 25.453125 67.792969 28.109375 C 67.804688 28.398438 68.054688 28.566406 68.335938 28.515625 C 73.425781 27.589844 78.667969 27.671875 83.785156 28.34375 C 84.324219 28.414062 84.5625 27.605469 84.011719 27.535156 " fill-opacity="1" fill-rule="nonzero"/></g><path fill="#faf783" d="M 76.941406 18.757812 C 77.449219 18.839844 78.015625 18.652344 78.308594 18.234375 C 78.601562 17.820312 78.550781 17.1875 78.152344 16.867188 C 77.964844 16.71875 77.726562 16.648438 77.484375 16.628906 C 76.6875 16.570312 75.898438 17.183594 75.777344 17.953125 C 75.757812 18.078125 75.753906 18.207031 75.804688 18.324219 C 75.878906 18.488281 76.054688 18.59375 76.226562 18.664062 C 76.585938 18.820312 76.976562 18.90625 77.367188 18.914062 " fill-opacity="1" fill-rule="nonzero"/><path fill="#100f0d" d="M 76.941406 19.070312 C 77.800781 19.167969 78.722656 18.667969 78.808594 17.769531 C 78.894531 16.882812 78.152344 16.265625 77.273438 16.316406 C 76.40625 16.367188 75.617188 17.03125 75.464844 17.871094 C 75.277344 18.914062 76.550781 19.1875 77.367188 19.230469 C 77.785156 19.25 77.78125 18.621094 77.367188 18.601562 C 76.925781 18.578125 75.933594 18.46875 76.136719 17.839844 C 76.289062 17.367188 76.75 17.007812 77.25 16.953125 C 77.78125 16.890625 78.289062 17.238281 78.152344 17.808594 C 78.023438 18.339844 77.429688 18.496094 76.941406 18.441406 C 76.527344 18.394531 76.53125 19.023438 76.941406 19.070312 " fill-opacity="1" fill-rule="nonzero"/><path fill="#faf783" d="M 84.953125 19.695312 C 85.148438 19.824219 85.359375 19.921875 85.582031 19.996094 C 86 20.136719 86.488281 20.167969 86.867188 19.949219 C 87.25 19.726562 87.457031 19.203125 87.214844 18.839844 C 87.132812 18.71875 87.015625 18.625 86.894531 18.542969 C 86.5625 18.3125 86.183594 18.105469 85.777344 18.128906 C 85.585938 18.140625 85.402344 18.203125 85.226562 18.28125 C 85.027344 18.367188 84.824219 18.488281 84.726562 18.679688 C 84.605469 18.925781 84.6875 19.234375 84.867188 19.441406 C 85.046875 19.652344 85.304688 19.78125 85.566406 19.878906 " fill-opacity="1" fill-rule="nonzero"/><path fill="#100f0d" d="M 84.789062 19.96875 C 85.515625 20.402344 86.628906 20.703125 87.300781 20.003906 C 87.980469 19.304688 87.523438 18.519531 86.800781 18.105469 C 86.101562 17.707031 85.085938 17.707031 84.542969 18.382812 C 83.921875 19.164062 84.789062 19.90625 85.480469 20.179688 C 85.867188 20.335938 86.035156 19.726562 85.652344 19.574219 C 85.117188 19.359375 84.6875 18.808594 85.445312 18.527344 C 85.867188 18.371094 86.238281 18.488281 86.605469 18.730469 C 87.058594 19.027344 87.117188 19.582031 86.515625 19.753906 C 86.03125 19.894531 85.515625 19.664062 85.113281 19.425781 C 84.761719 19.210938 84.433594 19.757812 84.789062 19.96875 " fill-opacity="1" fill-rule="nonzero"/><path fill="#faf783" d="M 67.152344 20.351562 C 67.601562 20.097656 67.910156 19.621094 67.949219 19.117188 C 67.957031 19.003906 67.953125 18.882812 67.902344 18.78125 C 67.859375 18.695312 67.789062 18.628906 67.707031 18.574219 C 67.390625 18.359375 66.957031 18.371094 66.589844 18.492188 C 66.328125 18.582031 66.082031 18.726562 65.878906 18.910156 C 65.710938 19.0625 65.570312 19.242188 65.507812 19.453125 C 65.441406 19.664062 65.46875 19.90625 65.609375 20.078125 C 65.746094 20.25 65.976562 20.328125 66.203125 20.351562 C 66.707031 20.40625 67.230469 20.203125 67.5625 19.832031 " fill-opacity="1" fill-rule="nonzero"/><path fill="#100f0d" d="M 67.3125 20.621094 C 67.910156 20.25 68.570312 19.339844 68.179688 18.621094 C 67.742188 17.816406 66.523438 18.066406 65.910156 18.484375 C 65.308594 18.898438 64.789062 19.800781 65.472656 20.394531 C 66.148438 20.976562 67.246094 20.609375 67.792969 20.050781 C 68.082031 19.761719 67.625 19.316406 67.335938 19.605469 C 67.042969 19.90625 66.59375 20.132812 66.152344 20.027344 C 65.40625 19.847656 66.019531 19.152344 66.375 18.941406 C 66.679688 18.761719 67.539062 18.484375 67.628906 19.058594 C 67.691406 19.460938 67.300781 19.886719 66.988281 20.078125 C 66.640625 20.296875 66.960938 20.84375 67.3125 20.621094 " fill-opacity="1" fill-rule="nonzero"/><g clip-path="url(#367de5d91b)"><path fill="#100f0d" d="M 63.539062 21.851562 C 62.578125 21.679688 61.617188 21.503906 60.65625 21.332031 C 60.25 21.257812 60.078125 21.863281 60.484375 21.9375 C 61.445312 22.113281 62.40625 22.285156 63.367188 22.457031 C 63.773438 22.53125 63.945312 21.925781 63.539062 21.851562 " fill-opacity="1" fill-rule="nonzero"/></g><path fill="#100f0d" d="M 65.058594 16.851562 C 64.566406 16.210938 63.945312 15.742188 63.183594 15.4375 C 62.800781 15.28125 62.632812 15.890625 63.015625 16.042969 C 63.605469 16.28125 64.121094 16.671875 64.503906 17.171875 C 64.75 17.492188 65.308594 17.179688 65.058594 16.851562 " fill-opacity="1" fill-rule="nonzero"/><g clip-path="url(#b6923ff432)"><path fill="#100f0d" d="M 72.25 15.339844 C 72.179688 14.578125 72.085938 13.820312 71.964844 13.0625 C 71.902344 12.664062 71.28125 12.835938 71.34375 13.230469 C 71.453125 13.933594 71.539062 14.636719 71.605469 15.339844 C 71.644531 15.742188 72.289062 15.746094 72.25 15.339844 " fill-opacity="1" fill-rule="nonzero"/></g><g clip-path="url(#8ebef233f8)"><path fill="#100f0d" d="M 80.535156 14.890625 C 80.59375 14.199219 80.714844 13.519531 80.898438 12.851562 C 81.003906 12.457031 80.378906 12.289062 80.273438 12.683594 C 80.078125 13.40625 79.953125 14.144531 79.890625 14.890625 C 79.855469 15.292969 80.503906 15.292969 80.535156 14.890625 " fill-opacity="1" fill-rule="nonzero"/></g><path fill="#100f0d" d="M 86.710938 15.675781 C 87.328125 15.378906 87.941406 15.078125 88.554688 14.78125 C 88.925781 14.601562 88.597656 14.058594 88.226562 14.238281 C 87.613281 14.535156 87 14.832031 86.386719 15.128906 C 86.015625 15.3125 86.339844 15.855469 86.710938 15.675781 " fill-opacity="1" fill-rule="nonzero"/><g clip-path="url(#88c7725d47)"><path fill="#100f0d" d="M 89.535156 20.359375 C 90.109375 20.359375 90.683594 20.359375 91.257812 20.359375 C 91.671875 20.359375 91.675781 19.730469 91.257812 19.730469 C 90.683594 19.730469 90.109375 19.730469 89.535156 19.730469 C 89.117188 19.730469 89.117188 20.359375 89.535156 20.359375 " fill-opacity="1" fill-rule="nonzero"/></g><path fill="#100f0d" d="M 89.160156 24.328125 C 89.582031 24.269531 90.003906 24.210938 90.425781 24.152344 C 90.832031 24.09375 90.660156 23.488281 90.253906 23.546875 C 89.832031 23.605469 89.410156 23.664062 88.988281 23.722656 C 88.578125 23.777344 88.753906 24.386719 89.160156 24.328125 " fill-opacity="1" fill-rule="nonzero"/></svg>