<svg xmlns="http://www.w3.org/2000/svg" xmlns:xlink="http://www.w3.org/1999/xlink" width="240" zoomAndPan="magnify" viewBox="0 0 180 96.749999" height="129" preserveAspectRatio="xMidYMid meet" version="1.0"><defs><g/><clipPath id="9bd38f456e"><path d="M 9 25 L 24 25 L 24 33.382812 L 9 33.382812 Z M 9 25 " clip-rule="nonzero"/></clipPath><clipPath id="cf0a546e23"><path d="M 4.183594 27 L 7 27 L 7 29 L 4.183594 29 Z M 4.183594 27 " clip-rule="nonzero"/></clipPath><clipPath id="eefd8a125a"><path d="M 19 20.664062 L 20 20.664062 L 20 23 L 19 23 Z M 19 20.664062 " clip-rule="nonzero"/></clipPath><clipPath id="9d75b65899"><path d="M 26 26 L 28.125 26 L 28.125 27 L 26 27 Z M 26 26 " clip-rule="nonzero"/></clipPath></defs><g fill="#000000" fill-opacity="1"><g transform="translate(6.510788, 67.62252)"><g><path d="M 0.609375 0 L 4 -35.109375 L 15.90625 -35.109375 L 19.25 0 L 12.59375 0 L 12.09375 -5.6875 L 7.84375 -5.6875 L 7.4375 0 Z M 8.375 -11.28125 L 11.5625 -11.28125 L 10.015625 -29.140625 L 9.6875 -29.140625 Z M 8.375 -11.28125 "/></g></g></g><g fill="#000000" fill-opacity="1"><g transform="translate(26.334831, 67.62252)"><g><path d="M 1.546875 0 L 1.546875 -35.109375 L 8.578125 -35.109375 L 8.578125 -5.96875 L 15.8125 -5.96875 L 15.8125 0 Z M 1.546875 0 "/></g></g></g><g fill="#000000" fill-opacity="1"><g transform="translate(42.561939, 67.62252)"><g><path d="M 1.546875 0 L 1.546875 -35.109375 L 8.578125 -35.109375 L 8.578125 -5.96875 L 15.8125 -5.96875 L 15.8125 0 Z M 1.546875 0 "/></g></g></g><g fill="#000000" fill-opacity="1"><g transform="translate(58.789046, 67.62252)"><g><path d="M 1.546875 0 L 1.546875 -35.109375 L 15.609375 -35.109375 L 15.609375 -28.328125 L 8.703125 -28.328125 L 8.703125 -21.5 L 15.328125 -21.5 L 15.328125 -14.875 L 8.703125 -14.875 L 8.703125 -6.828125 L 16.0625 -6.828125 L 16.0625 0 Z M 1.546875 0 "/></g></g></g><g fill="#000000" fill-opacity="1"><g transform="translate(75.629267, 67.62252)"><g><path d="M 1.546875 0 L 1.546875 -35.109375 L 8.78125 -35.109375 L 12.015625 -18.3125 L 12.015625 -35.109375 L 18.796875 -35.109375 L 18.796875 0 L 11.9375 0 L 8.421875 -17.578125 L 8.421875 0 Z M 1.546875 0 "/></g></g></g><g clip-path="url(#9bd38f456e)"><path fill="#fccb1e" d="M 22.230469 32.890625 C 18.652344 32.363281 13.898438 32.289062 10.355469 33.023438 C 10.335938 30.933594 9.898438 28.875 9.464844 26.828125 C 10.859375 28.101562 12.417969 29.1875 14.09375 30.050781 C 15.335938 28.648438 16.386719 26.878906 17.066406 25.375 C 17.746094 26.878906 18.800781 28.738281 19.648438 30.023438 C 21.007812 28.800781 22.097656 27.5625 23.265625 26.5 C 22.503906 28.929688 22.230469 30.976562 22.207031 32.945312 " fill-opacity="1" fill-rule="nonzero"/><path fill="#100f0d" d="M 22.320312 32.574219 C 19.441406 32.1875 16.53125 32.039062 13.632812 32.253906 C 12.679688 32.328125 11.148438 32.90625 10.640625 31.980469 C 10.710938 32.113281 10.359375 29.683594 10.378906 29.824219 C 10.21875 28.789062 9.996094 27.765625 9.78125 26.742188 C 9.597656 26.847656 9.417969 26.957031 9.234375 27.0625 C 10.699219 28.339844 12.21875 29.40625 13.929688 30.335938 C 14.046875 30.398438 14.230469 30.398438 14.324219 30.285156 C 14.828125 29.675781 15.09375 29.367188 15.546875 28.714844 C 15.6875 28.511719 16.792969 26.371094 16.976562 26.3125 C 17.199219 26.242188 19.105469 29.777344 19.367188 30.1875 C 19.484375 30.371094 19.722656 30.402344 19.878906 30.253906 C 21.113281 29.109375 22.269531 27.886719 23.496094 26.730469 C 23.3125 26.625 23.132812 26.519531 22.949219 26.414062 C 22.320312 28.578125 21.949219 30.695312 21.878906 32.945312 C 21.867188 33.367188 22.519531 33.367188 22.53125 32.945312 C 22.601562 30.761719 22.96875 28.683594 23.578125 26.585938 C 23.671875 26.261719 23.265625 26.050781 23.035156 26.265625 C 22.378906 26.882812 20.628906 29.246094 19.785156 29.175781 C 18.851562 29.09375 17.730469 26.015625 17.347656 25.210938 C 17.246094 24.996094 16.886719 24.996094 16.785156 25.210938 C 16.179688 26.46875 15.515625 28.246094 14.207031 28.851562 C 13.144531 29.34375 13.175781 29.210938 12.230469 28.570312 C 11.339844 27.972656 10.503906 27.304688 9.695312 26.597656 C 9.449219 26.382812 9.082031 26.589844 9.152344 26.917969 C 9.578125 28.945312 9.945312 30.949219 10.027344 33.023438 C 10.039062 33.25 10.230469 33.378906 10.441406 33.339844 C 14.296875 32.617188 18.269531 32.683594 22.144531 33.207031 C 22.554688 33.261719 22.734375 32.632812 22.320312 32.574219 " fill-opacity="1" fill-rule="nonzero"/></g><path fill="#faf783" d="M 16.960938 25.71875 C 17.347656 25.78125 17.773438 25.636719 17.996094 25.308594 C 18.21875 24.984375 18.179688 24.492188 17.878906 24.242188 C 17.738281 24.125 17.554688 24.070312 17.375 24.054688 C 16.769531 24.007812 16.167969 24.488281 16.078125 25.089844 C 16.0625 25.1875 16.0625 25.289062 16.101562 25.378906 C 16.15625 25.507812 16.289062 25.589844 16.417969 25.648438 C 16.691406 25.769531 16.988281 25.835938 17.285156 25.839844 " fill-opacity="1" fill-rule="nonzero"/><path fill="#100f0d" d="M 16.960938 25.964844 C 17.613281 26.039062 18.308594 25.648438 18.375 24.945312 C 18.441406 24.253906 17.878906 23.769531 17.214844 23.8125 C 16.558594 23.851562 15.957031 24.371094 15.84375 25.027344 C 15.699219 25.84375 16.664062 26.054688 17.285156 26.085938 C 17.597656 26.101562 17.597656 25.609375 17.285156 25.59375 C 16.949219 25.578125 16.199219 25.492188 16.351562 25 C 16.464844 24.632812 16.816406 24.351562 17.195312 24.308594 C 17.597656 24.261719 17.980469 24.53125 17.878906 24.976562 C 17.78125 25.390625 17.332031 25.515625 16.960938 25.472656 C 16.648438 25.433594 16.652344 25.925781 16.960938 25.964844 " fill-opacity="1" fill-rule="nonzero"/><path fill="#faf783" d="M 23.03125 26.453125 C 23.179688 26.550781 23.339844 26.628906 23.507812 26.6875 C 23.824219 26.792969 24.191406 26.820312 24.480469 26.648438 C 24.769531 26.476562 24.925781 26.066406 24.746094 25.78125 C 24.683594 25.6875 24.59375 25.617188 24.5 25.550781 C 24.25 25.367188 23.960938 25.207031 23.65625 25.226562 C 23.511719 25.234375 23.371094 25.285156 23.238281 25.34375 C 23.085938 25.414062 22.933594 25.507812 22.859375 25.660156 C 22.765625 25.851562 22.828125 26.089844 22.964844 26.253906 C 23.101562 26.417969 23.296875 26.515625 23.496094 26.59375 " fill-opacity="1" fill-rule="nonzero"/><path fill="#100f0d" d="M 22.90625 26.664062 C 23.457031 27.003906 24.300781 27.238281 24.808594 26.691406 C 25.324219 26.144531 24.976562 25.53125 24.429688 25.207031 C 23.902344 24.898438 23.128906 24.898438 22.722656 25.425781 C 22.25 26.035156 22.90625 26.613281 23.429688 26.832031 C 23.722656 26.949219 23.847656 26.476562 23.5625 26.355469 C 23.152344 26.1875 22.832031 25.757812 23.402344 25.539062 C 23.722656 25.417969 24.003906 25.507812 24.28125 25.695312 C 24.628906 25.929688 24.671875 26.359375 24.214844 26.496094 C 23.847656 26.605469 23.457031 26.425781 23.152344 26.238281 C 22.882812 26.074219 22.636719 26.5 22.90625 26.664062 " fill-opacity="1" fill-rule="nonzero"/><path fill="#faf783" d="M 9.542969 26.964844 C 9.882812 26.765625 10.117188 26.394531 10.148438 26 C 10.152344 25.910156 10.152344 25.816406 10.113281 25.734375 C 10.078125 25.671875 10.027344 25.617188 9.964844 25.574219 C 9.726562 25.40625 9.398438 25.414062 9.121094 25.511719 C 8.917969 25.582031 8.734375 25.695312 8.578125 25.839844 C 8.453125 25.953125 8.34375 26.097656 8.296875 26.261719 C 8.25 26.425781 8.269531 26.613281 8.375 26.75 C 8.480469 26.882812 8.65625 26.945312 8.824219 26.964844 C 9.207031 27.003906 9.605469 26.847656 9.855469 26.554688 " fill-opacity="1" fill-rule="nonzero"/><path fill="#100f0d" d="M 9.667969 27.175781 C 10.117188 26.882812 10.617188 26.171875 10.324219 25.613281 C 9.992188 24.980469 9.066406 25.179688 8.605469 25.507812 C 8.148438 25.828125 7.753906 26.535156 8.273438 26.996094 C 8.78125 27.449219 9.613281 27.164062 10.027344 26.730469 C 10.246094 26.5 9.902344 26.152344 9.683594 26.382812 C 9.460938 26.617188 9.121094 26.792969 8.789062 26.710938 C 8.222656 26.570312 8.683594 26.027344 8.957031 25.859375 C 9.1875 25.722656 9.835938 25.503906 9.902344 25.953125 C 9.953125 26.265625 9.65625 26.597656 9.417969 26.75 C 9.15625 26.921875 9.402344 27.347656 9.667969 27.175781 " fill-opacity="1" fill-rule="nonzero"/><g clip-path="url(#cf0a546e23)"><path fill="#100f0d" d="M 6.804688 28.136719 C 6.078125 28 5.351562 27.863281 4.625 27.726562 C 4.316406 27.671875 4.183594 28.144531 4.492188 28.203125 C 5.21875 28.339844 5.949219 28.472656 6.675781 28.609375 C 6.984375 28.667969 7.117188 28.191406 6.804688 28.136719 " fill-opacity="1" fill-rule="nonzero"/></g><path fill="#100f0d" d="M 7.957031 24.230469 C 7.585938 23.726562 7.117188 23.363281 6.539062 23.125 C 6.246094 23.003906 6.121094 23.480469 6.410156 23.597656 C 6.855469 23.78125 7.246094 24.089844 7.535156 24.476562 C 7.722656 24.730469 8.148438 24.484375 7.957031 24.230469 " fill-opacity="1" fill-rule="nonzero"/><path fill="#100f0d" d="M 13.40625 23.050781 C 13.355469 22.453125 13.28125 21.859375 13.191406 21.269531 C 13.144531 20.957031 12.671875 21.089844 12.71875 21.402344 C 12.804688 21.949219 12.867188 22.496094 12.917969 23.050781 C 12.945312 23.363281 13.4375 23.363281 13.40625 23.050781 " fill-opacity="1" fill-rule="nonzero"/><g clip-path="url(#eefd8a125a)"><path fill="#100f0d" d="M 19.683594 22.695312 C 19.726562 22.15625 19.820312 21.628906 19.957031 21.101562 C 20.039062 20.796875 19.566406 20.664062 19.484375 20.972656 C 19.335938 21.539062 19.242188 22.113281 19.195312 22.695312 C 19.167969 23.011719 19.660156 23.011719 19.683594 22.695312 " fill-opacity="1" fill-rule="nonzero"/></g><path fill="#100f0d" d="M 24.363281 23.308594 C 24.828125 23.078125 25.292969 22.84375 25.757812 22.613281 C 26.039062 22.472656 25.792969 22.046875 25.511719 22.1875 C 25.046875 22.421875 24.582031 22.652344 24.117188 22.882812 C 23.835938 23.023438 24.082031 23.449219 24.363281 23.308594 " fill-opacity="1" fill-rule="nonzero"/><g clip-path="url(#9d75b65899)"><path fill="#100f0d" d="M 26.5 26.96875 C 26.9375 26.96875 27.371094 26.96875 27.808594 26.96875 C 28.121094 26.96875 28.121094 26.476562 27.808594 26.476562 C 27.371094 26.476562 26.9375 26.476562 26.5 26.476562 C 26.1875 26.476562 26.1875 26.96875 26.5 26.96875 " fill-opacity="1" fill-rule="nonzero"/></g><path fill="#100f0d" d="M 26.21875 30.070312 C 26.539062 30.023438 26.855469 29.980469 27.175781 29.933594 C 27.484375 29.886719 27.355469 29.414062 27.046875 29.457031 C 26.726562 29.503906 26.40625 29.550781 26.089844 29.597656 C 25.777344 29.640625 25.910156 30.113281 26.21875 30.070312 " fill-opacity="1" fill-rule="nonzero"/></svg>