<svg xmlns="http://www.w3.org/2000/svg" xmlns:xlink="http://www.w3.org/1999/xlink" width="112" zoomAndPan="magnify" viewBox="0 0 84 81.749997" height="109" preserveAspectRatio="xMidYMid meet" version="1.0"><defs><g/><clipPath id="1fb77a2e95"><path d="M 0.128906 21 L 15 21 L 15 51 L 0.128906 51 Z M 0.128906 21 " clip-rule="nonzero"/></clipPath><clipPath id="828c0d80d4"><path d="M 74 39 L 83.871094 39 L 83.871094 48 L 74 48 Z M 74 39 " clip-rule="nonzero"/></clipPath></defs><g clip-path="url(#1fb77a2e95)"><g fill="#000000" fill-opacity="1"><g transform="translate(-1.10617, 47.96811)"><g><path d="M 12.1875 -4.578125 C 12.113281 -3.441406 11.78125 -2.347656 11.1875 -1.296875 C 10.601562 -0.253906 9.847656 0.59375 8.921875 1.25 C 7.992188 1.90625 6.984375 2.234375 5.890625 2.234375 C 5.148438 2.234375 4.515625 2.035156 3.984375 1.640625 C 3.460938 1.242188 3.203125 0.695312 3.203125 0 C 3.203125 -0.5 3.375 -1.070312 3.71875 -1.71875 C 4.070312 -2.363281 4.515625 -2.816406 5.046875 -3.078125 C 5.804688 -3.453125 6.367188 -3.832031 6.734375 -4.21875 C 7.109375 -4.613281 7.296875 -5.117188 7.296875 -5.734375 C 7.296875 -6.296875 7.113281 -6.914062 6.75 -7.59375 C 6.394531 -8.269531 5.941406 -8.925781 5.390625 -9.5625 C 4.847656 -10.195312 4.285156 -10.742188 3.703125 -11.203125 C 2.867188 -11.960938 2.257812 -12.664062 1.875 -13.3125 C 1.5 -13.957031 1.3125 -14.585938 1.3125 -15.203125 C 1.3125 -16.003906 1.59375 -16.929688 2.15625 -17.984375 C 2.726562 -19.046875 3.5 -20.101562 4.46875 -21.15625 C 5.4375 -22.207031 6.5625 -23.144531 7.84375 -23.96875 C 9.125 -24.800781 10.460938 -25.390625 11.859375 -25.734375 C 12.003906 -25.828125 12.144531 -25.910156 12.28125 -25.984375 C 12.414062 -26.066406 12.601562 -26.109375 12.84375 -26.109375 C 13.40625 -26.109375 13.921875 -25.988281 14.390625 -25.75 C 14.859375 -25.519531 15.234375 -25.25 15.515625 -24.9375 C 15.804688 -24.625 15.953125 -24.320312 15.953125 -24.03125 C 15.953125 -23.488281 15.738281 -23.097656 15.3125 -22.859375 C 14.882812 -22.617188 14.472656 -22.410156 14.078125 -22.234375 C 13.015625 -21.796875 12.007812 -21.269531 11.0625 -20.65625 C 10.125 -20.050781 9.175781 -19.460938 8.21875 -18.890625 C 7.65625 -18.546875 7.101562 -18.0625 6.5625 -17.4375 C 6.03125 -16.8125 5.765625 -16.160156 5.765625 -15.484375 C 5.765625 -15.203125 5.832031 -14.90625 5.96875 -14.59375 C 6.113281 -14.289062 6.351562 -14.007812 6.6875 -13.75 C 7.601562 -13.007812 8.476562 -12.171875 9.3125 -11.234375 C 10.15625 -10.296875 10.847656 -9.300781 11.390625 -8.25 C 11.941406 -7.207031 12.21875 -6.148438 12.21875 -5.078125 C 12.21875 -4.984375 12.210938 -4.898438 12.203125 -4.828125 C 12.191406 -4.753906 12.1875 -4.671875 12.1875 -4.578125 Z M 12.1875 -4.578125 "/></g></g></g></g><g fill="#000000" fill-opacity="1"><g transform="translate(12.874499, 47.96811)"><g><path d="M 17.84375 -10.3125 C 16.800781 -9.070312 15.535156 -8.320312 14.046875 -8.0625 C 12.953125 -7.863281 12.40625 -7.285156 12.40625 -6.328125 C 12.40625 -6.054688 12.425781 -5.785156 12.46875 -5.515625 C 12.519531 -5.242188 12.546875 -4.988281 12.546875 -4.75 C 12.546875 -4.25 12.46875 -3.707031 12.3125 -3.125 C 12.15625 -2.550781 11.921875 -2.0625 11.609375 -1.65625 C 11.296875 -1.25 10.863281 -1.046875 10.3125 -1.046875 C 9.769531 -1.046875 9.234375 -1.207031 8.703125 -1.53125 C 8.179688 -1.863281 7.921875 -2.398438 7.921875 -3.140625 C 7.921875 -3.515625 7.941406 -3.882812 7.984375 -4.25 C 8.035156 -4.625 8.0625 -5.007812 8.0625 -5.40625 C 8.0625 -6.144531 7.988281 -6.660156 7.84375 -6.953125 C 7.695312 -7.253906 7.375 -7.40625 6.875 -7.40625 C 6.375 -7.40625 5.820312 -7.335938 5.21875 -7.203125 C 4.625 -7.078125 4.039062 -7.015625 3.46875 -7.015625 C 2.988281 -7.015625 2.476562 -7.109375 1.9375 -7.296875 C 1.40625 -7.492188 0.945312 -7.785156 0.5625 -8.171875 C 0.1875 -8.554688 0 -9.019531 0 -9.5625 C 0 -10.34375 0.175781 -10.921875 0.53125 -11.296875 C 0.894531 -11.671875 1.351562 -11.910156 1.90625 -12.015625 C 2.46875 -12.128906 3.070312 -12.191406 3.71875 -12.203125 C 4.363281 -12.210938 4.960938 -12.242188 5.515625 -12.296875 C 6.078125 -12.347656 6.535156 -12.503906 6.890625 -12.765625 C 7.253906 -13.035156 7.4375 -13.484375 7.4375 -14.109375 C 7.4375 -15.003906 7.359375 -15.910156 7.203125 -16.828125 C 7.046875 -17.742188 6.96875 -18.640625 6.96875 -19.515625 C 6.96875 -19.847656 7.003906 -20.195312 7.078125 -20.5625 C 7.160156 -20.9375 7.34375 -21.253906 7.625 -21.515625 C 7.914062 -21.773438 8.351562 -21.90625 8.9375 -21.90625 C 9.46875 -21.90625 9.90625 -21.722656 10.25 -21.359375 C 10.601562 -21.003906 10.921875 -20.628906 11.203125 -20.234375 C 11.785156 -19.429688 12.160156 -18.578125 12.328125 -17.671875 C 12.492188 -16.765625 12.585938 -15.84375 12.609375 -14.90625 C 12.628906 -14.132812 12.671875 -13.578125 12.734375 -13.234375 C 12.804688 -12.898438 12.992188 -12.65625 13.296875 -12.5 C 13.597656 -12.351562 14.109375 -12.160156 14.828125 -11.921875 C 15.335938 -11.765625 15.847656 -11.5625 16.359375 -11.3125 C 16.867188 -11.0625 17.363281 -10.726562 17.84375 -10.3125 Z M 17.84375 -10.3125 "/></g></g></g><g fill="#000000" fill-opacity="1"><g transform="translate(30.718675, 47.96811)"><g><path d="M 1.640625 -7.5 C 1.722656 -7.976562 1.796875 -8.492188 1.859375 -9.046875 C 1.929688 -9.609375 2.039062 -10.140625 2.1875 -10.640625 C 2.34375 -11.140625 2.566406 -11.546875 2.859375 -11.859375 C 3.160156 -12.179688 3.582031 -12.34375 4.125 -12.34375 C 4.757812 -12.34375 5.347656 -12.066406 5.890625 -11.515625 C 6.441406 -10.972656 6.71875 -10.300781 6.71875 -9.5 C 6.625 -9.039062 6.492188 -8.566406 6.328125 -8.078125 C 6.171875 -7.585938 6.09375 -7.085938 6.09375 -6.578125 C 6.09375 -6.429688 6.144531 -6.273438 6.25 -6.109375 C 6.363281 -5.941406 6.53125 -5.859375 6.75 -5.859375 C 7.050781 -5.859375 7.328125 -6.050781 7.578125 -6.4375 C 7.828125 -6.820312 8.0625 -7.289062 8.28125 -7.84375 C 8.5 -8.394531 8.726562 -8.941406 8.96875 -9.484375 C 9.207031 -10.035156 9.488281 -10.503906 9.8125 -10.890625 C 10.144531 -11.273438 10.53125 -11.46875 10.96875 -11.46875 C 11.28125 -11.46875 11.625 -11.363281 12 -11.15625 C 12.382812 -10.945312 12.710938 -10.65625 12.984375 -10.28125 C 13.253906 -9.914062 13.390625 -9.476562 13.390625 -8.96875 C 13.390625 -8.800781 13.359375 -8.648438 13.296875 -8.515625 C 12.972656 -7.660156 12.59375 -6.765625 12.15625 -5.828125 C 11.71875 -4.890625 11.207031 -4.003906 10.625 -3.171875 C 10.050781 -2.347656 9.394531 -1.671875 8.65625 -1.140625 C 7.925781 -0.617188 7.101562 -0.359375 6.1875 -0.359375 C 5.113281 -0.359375 4.238281 -0.632812 3.5625 -1.1875 C 2.882812 -1.75 2.394531 -2.429688 2.09375 -3.234375 C 1.789062 -4.046875 1.640625 -4.820312 1.640625 -5.5625 C 1.640625 -5.875 1.65625 -6.191406 1.6875 -6.515625 C 1.71875 -6.847656 1.742188 -7.175781 1.765625 -7.5 C 1.765625 -7.5 1.753906 -7.5 1.734375 -7.5 C 1.710938 -7.5 1.679688 -7.5 1.640625 -7.5 Z M 1.640625 -7.5 "/></g></g></g><g fill="#000000" fill-opacity="1"><g transform="translate(44.109996, 47.96811)"><g><path d="M 12.703125 -10.375 C 13.140625 -10.15625 13.566406 -10.046875 13.984375 -10.046875 C 14.523438 -10.046875 15.109375 -10.269531 15.734375 -10.71875 C 16.359375 -11.164062 16.96875 -11.742188 17.5625 -12.453125 C 18.164062 -13.171875 18.71875 -13.910156 19.21875 -14.671875 C 19.726562 -15.429688 20.125 -16.140625 20.40625 -16.796875 C 20.644531 -17.347656 20.863281 -17.878906 21.0625 -18.390625 C 21.257812 -18.898438 21.359375 -19.441406 21.359375 -20.015625 C 21.359375 -20.472656 21.269531 -20.953125 21.09375 -21.453125 C 20.914062 -21.953125 20.828125 -22.421875 20.828125 -22.859375 C 20.828125 -23.296875 20.929688 -23.753906 21.140625 -24.234375 C 21.347656 -24.710938 21.609375 -25.175781 21.921875 -25.625 C 22.242188 -26.070312 22.578125 -26.429688 22.921875 -26.703125 C 23.273438 -26.972656 23.59375 -27.109375 23.875 -27.109375 C 24.132812 -27.109375 24.453125 -27.003906 24.828125 -26.796875 C 25.210938 -26.597656 25.554688 -26.335938 25.859375 -26.015625 C 26.171875 -25.703125 26.328125 -25.378906 26.328125 -25.046875 C 26.328125 -24.984375 26.304688 -24.863281 26.265625 -24.6875 C 26.023438 -23.726562 25.835938 -22.742188 25.703125 -21.734375 C 25.578125 -20.734375 25.410156 -19.742188 25.203125 -18.765625 C 24.992188 -17.785156 24.648438 -16.8125 24.171875 -15.84375 C 22.515625 -12.550781 20.335938 -9.613281 17.640625 -7.03125 C 14.941406 -4.457031 11.921875 -2.460938 8.578125 -1.046875 C 8.160156 -0.867188 7.734375 -0.695312 7.296875 -0.53125 C 6.859375 -0.375 6.398438 -0.296875 5.921875 -0.296875 C 4.597656 -0.296875 3.550781 -0.617188 2.78125 -1.265625 C 2.019531 -1.910156 1.640625 -2.691406 1.640625 -3.609375 C 1.640625 -3.972656 1.695312 -4.347656 1.8125 -4.734375 C 1.9375 -5.117188 2.128906 -5.503906 2.390625 -5.890625 C 3.222656 -7.117188 4.207031 -8.09375 5.34375 -8.8125 C 6.476562 -9.53125 7.785156 -9.976562 9.265625 -10.15625 C 9.835938 -10.175781 10.414062 -10.203125 11 -10.234375 C 11.59375 -10.265625 12.160156 -10.3125 12.703125 -10.375 Z M 12.703125 -10.375 "/></g></g></g><g fill="#000000" fill-opacity="1"><g transform="translate(65.523011, 47.96811)"><g><path d="M 3.9375 -6.578125 C 4.476562 -6.535156 4.960938 -6.3125 5.390625 -5.90625 C 5.816406 -5.507812 6.15625 -5.023438 6.40625 -4.453125 C 6.65625 -3.890625 6.78125 -3.320312 6.78125 -2.75 C 6.78125 -2.207031 6.554688 -1.660156 6.109375 -1.109375 C 5.660156 -0.566406 5.117188 -0.296875 4.484375 -0.296875 C 3.984375 -0.296875 3.515625 -0.492188 3.078125 -0.890625 C 2.640625 -1.296875 2.289062 -1.820312 2.03125 -2.46875 C 1.769531 -3.113281 1.640625 -3.773438 1.640625 -4.453125 C 1.640625 -5.304688 1.863281 -5.875 2.3125 -6.15625 C 2.757812 -6.4375 3.300781 -6.578125 3.9375 -6.578125 Z M 6.453125 -15.5625 C 6.367188 -14.882812 6.117188 -14.296875 5.703125 -13.796875 C 5.285156 -13.304688 4.800781 -13.0625 4.25 -13.0625 C 3.550781 -13.0625 2.945312 -13.300781 2.4375 -13.78125 C 1.925781 -14.269531 1.671875 -14.804688 1.671875 -15.390625 C 1.671875 -16.023438 1.898438 -16.585938 2.359375 -17.078125 C 2.816406 -17.566406 3.375 -17.8125 4.03125 -17.8125 C 4.445312 -17.8125 4.832031 -17.691406 5.1875 -17.453125 C 5.550781 -17.210938 5.851562 -16.914062 6.09375 -16.5625 C 6.332031 -16.21875 6.453125 -15.882812 6.453125 -15.5625 Z M 6.453125 -15.5625 "/></g></g></g><g clip-path="url(#828c0d80d4)"><g fill="#000000" fill-opacity="1"><g transform="translate(73.28277, 47.96811)"><g><path d="M 6.578125 -8.90625 C 7.253906 -8.90625 7.859375 -8.710938 8.390625 -8.328125 C 8.929688 -7.953125 9.363281 -7.457031 9.6875 -6.84375 C 10.019531 -6.226562 10.1875 -5.582031 10.1875 -4.90625 C 10.164062 -4.144531 9.941406 -3.441406 9.515625 -2.796875 C 9.085938 -2.148438 8.535156 -1.628906 7.859375 -1.234375 C 7.179688 -0.847656 6.441406 -0.65625 5.640625 -0.65625 C 4.410156 -0.65625 3.4375 -0.988281 2.71875 -1.65625 C 2 -2.320312 1.640625 -3.144531 1.640625 -4.125 C 1.640625 -5.875 2.046875 -7.109375 2.859375 -7.828125 C 3.679688 -8.546875 4.921875 -8.90625 6.578125 -8.90625 Z M 6.578125 -8.90625 "/></g></g></g></g><g fill="#000000" fill-opacity="1"><g transform="translate(10.022903, 61.317548)"><g><path d="M 5.25 -2.1875 C 5.238281 -2 5.203125 -1.828125 5.140625 -1.671875 C 5.078125 -1.523438 5.007812 -1.378906 4.9375 -1.234375 C 4.863281 -1.085938 4.800781 -0.925781 4.75 -0.75 C 4.707031 -0.757812 4.65625 -0.726562 4.59375 -0.65625 C 4.53125 -0.582031 4.476562 -0.507812 4.4375 -0.4375 C 4.21875 -0.320312 3.988281 -0.203125 3.75 -0.078125 C 3.507812 0.0351562 3.25 0.09375 2.96875 0.09375 C 2.695312 0.09375 2.445312 0.0351562 2.21875 -0.078125 C 2 -0.191406 1.785156 -0.300781 1.578125 -0.40625 C 1.578125 -0.46875 1.550781 -0.507812 1.5 -0.53125 C 1.445312 -0.550781 1.398438 -0.582031 1.359375 -0.625 C 1.160156 -0.84375 0.992188 -1.101562 0.859375 -1.40625 C 0.734375 -1.71875 0.660156 -2.066406 0.640625 -2.453125 C 0.617188 -2.804688 0.65625 -3.148438 0.75 -3.484375 C 0.832031 -3.773438 0.953125 -4.039062 1.109375 -4.28125 C 1.273438 -4.519531 1.472656 -4.691406 1.703125 -4.796875 C 1.785156 -4.878906 1.878906 -4.957031 1.984375 -5.03125 C 2.097656 -5.101562 2.238281 -5.125 2.40625 -5.09375 L 2.4375 -5.140625 C 2.570312 -5.171875 2.734375 -5.179688 2.921875 -5.171875 C 3.117188 -5.171875 3.316406 -5.148438 3.515625 -5.109375 C 3.722656 -5.078125 3.90625 -5.019531 4.0625 -4.9375 C 4.21875 -4.851562 4.332031 -4.742188 4.40625 -4.609375 C 4.4375 -4.597656 4.460938 -4.59375 4.484375 -4.59375 C 4.503906 -4.601562 4.523438 -4.609375 4.546875 -4.609375 C 4.566406 -4.617188 4.585938 -4.625 4.609375 -4.625 C 4.628906 -4.625 4.65625 -4.617188 4.6875 -4.609375 C 4.6875 -4.546875 4.6875 -4.484375 4.6875 -4.421875 C 4.6875 -4.367188 4.691406 -4.320312 4.703125 -4.28125 C 4.796875 -4.238281 4.863281 -4.164062 4.90625 -4.0625 C 4.957031 -3.96875 5 -3.867188 5.03125 -3.765625 C 5.0625 -3.660156 5.09375 -3.5625 5.125 -3.46875 C 5.132812 -3.445312 5.144531 -3.425781 5.15625 -3.40625 C 5.164062 -3.394531 5.175781 -3.378906 5.1875 -3.359375 C 5.195312 -3.296875 5.203125 -3.234375 5.203125 -3.171875 C 5.210938 -3.109375 5.21875 -3.046875 5.21875 -2.984375 C 5.226562 -2.847656 5.238281 -2.710938 5.25 -2.578125 C 5.257812 -2.441406 5.257812 -2.3125 5.25 -2.1875 Z M 4.53125 -3.46875 C 4.53125 -3.5 4.523438 -3.523438 4.515625 -3.546875 C 4.515625 -3.566406 4.507812 -3.585938 4.5 -3.609375 C 4.488281 -3.691406 4.453125 -3.789062 4.390625 -3.90625 C 4.335938 -4.03125 4.28125 -4.148438 4.21875 -4.265625 C 4.164062 -4.378906 4.113281 -4.460938 4.0625 -4.515625 C 3.945312 -4.640625 3.796875 -4.722656 3.609375 -4.765625 C 3.429688 -4.816406 3.238281 -4.835938 3.03125 -4.828125 C 2.832031 -4.816406 2.632812 -4.78125 2.4375 -4.71875 C 2.25 -4.65625 2.09375 -4.578125 1.96875 -4.484375 C 1.84375 -4.347656 1.738281 -4.195312 1.65625 -4.03125 C 1.570312 -3.863281 1.503906 -3.679688 1.453125 -3.484375 C 1.421875 -3.347656 1.394531 -3.203125 1.375 -3.046875 C 1.351562 -2.898438 1.34375 -2.753906 1.34375 -2.609375 C 1.332031 -2.285156 1.367188 -1.960938 1.453125 -1.640625 C 1.546875 -1.328125 1.675781 -1.0625 1.84375 -0.84375 C 1.988281 -0.65625 2.15625 -0.507812 2.34375 -0.40625 C 2.539062 -0.3125 2.765625 -0.269531 3.015625 -0.28125 C 3.316406 -0.289062 3.578125 -0.382812 3.796875 -0.5625 C 4.023438 -0.738281 4.203125 -0.96875 4.328125 -1.25 C 4.472656 -1.5625 4.5625 -1.910156 4.59375 -2.296875 C 4.632812 -2.691406 4.613281 -3.082031 4.53125 -3.46875 Z M 4.53125 -3.46875 "/></g></g></g><g fill="#000000" fill-opacity="1"><g transform="translate(15.896712, 61.317548)"><g><path d="M 4.328125 -1.578125 C 4.421875 -1.347656 4.457031 -1.09375 4.4375 -0.8125 C 4.425781 -0.53125 4.375 -0.273438 4.28125 -0.046875 C 4.050781 -0.015625 3.785156 0 3.484375 0 C 3.179688 -0.0078125 2.875 -0.0234375 2.5625 -0.046875 C 2.269531 -0.0546875 1.976562 -0.0664062 1.6875 -0.078125 C 1.40625 -0.0859375 1.144531 -0.078125 0.90625 -0.046875 C 0.863281 -0.160156 0.867188 -0.25 0.921875 -0.3125 C 0.984375 -0.375 1.066406 -0.421875 1.171875 -0.453125 C 1.273438 -0.492188 1.375 -0.523438 1.46875 -0.546875 C 1.5 -0.941406 1.507812 -1.375 1.5 -1.84375 C 1.5 -2.3125 1.492188 -2.773438 1.484375 -3.234375 C 1.484375 -3.273438 1.484375 -3.316406 1.484375 -3.359375 C 1.484375 -3.398438 1.484375 -3.441406 1.484375 -3.484375 C 1.484375 -3.691406 1.476562 -3.894531 1.46875 -4.09375 C 1.46875 -4.289062 1.46875 -4.476562 1.46875 -4.65625 C 1.40625 -4.6875 1.34375 -4.695312 1.28125 -4.6875 C 1.226562 -4.675781 1.175781 -4.664062 1.125 -4.65625 C 1.082031 -4.632812 1.035156 -4.617188 0.984375 -4.609375 C 0.941406 -4.609375 0.898438 -4.613281 0.859375 -4.625 C 0.859375 -4.632812 0.851562 -4.644531 0.84375 -4.65625 C 0.84375 -4.664062 0.835938 -4.675781 0.828125 -4.6875 C 0.796875 -4.726562 0.785156 -4.765625 0.796875 -4.796875 C 0.804688 -4.828125 0.820312 -4.863281 0.84375 -4.90625 C 0.863281 -4.925781 0.878906 -4.953125 0.890625 -4.984375 C 0.910156 -5.023438 0.914062 -5.066406 0.90625 -5.109375 C 1.019531 -5.054688 1.148438 -5.03125 1.296875 -5.03125 C 1.441406 -5.03125 1.59375 -5.035156 1.75 -5.046875 C 1.800781 -5.046875 1.851562 -5.046875 1.90625 -5.046875 C 1.96875 -5.054688 2.03125 -5.0625 2.09375 -5.0625 C 2.238281 -5.0625 2.363281 -5.039062 2.46875 -5 C 2.582031 -4.957031 2.660156 -4.867188 2.703125 -4.734375 C 2.660156 -4.703125 2.617188 -4.679688 2.578125 -4.671875 C 2.535156 -4.671875 2.488281 -4.671875 2.4375 -4.671875 C 2.375 -4.671875 2.3125 -4.664062 2.25 -4.65625 C 2.1875 -4.644531 2.132812 -4.601562 2.09375 -4.53125 C 2.082031 -4.207031 2.078125 -3.859375 2.078125 -3.484375 C 2.078125 -3.378906 2.078125 -3.269531 2.078125 -3.15625 C 2.078125 -3.050781 2.078125 -2.945312 2.078125 -2.84375 C 2.078125 -2.457031 2.078125 -2.0625 2.078125 -1.65625 C 2.078125 -1.257812 2.066406 -0.851562 2.046875 -0.4375 C 2.128906 -0.40625 2.207031 -0.390625 2.28125 -0.390625 C 2.363281 -0.398438 2.445312 -0.410156 2.53125 -0.421875 C 2.5625 -0.421875 2.597656 -0.421875 2.640625 -0.421875 C 2.679688 -0.429688 2.71875 -0.4375 2.75 -0.4375 C 2.800781 -0.4375 2.851562 -0.429688 2.90625 -0.421875 C 2.957031 -0.421875 3.015625 -0.421875 3.078125 -0.421875 C 3.160156 -0.410156 3.238281 -0.398438 3.3125 -0.390625 C 3.394531 -0.390625 3.476562 -0.398438 3.5625 -0.421875 C 3.707031 -0.453125 3.800781 -0.523438 3.84375 -0.640625 C 3.882812 -0.765625 3.925781 -0.890625 3.96875 -1.015625 C 4 -1.140625 4.035156 -1.253906 4.078125 -1.359375 C 4.128906 -1.460938 4.210938 -1.535156 4.328125 -1.578125 Z M 4.328125 -1.578125 "/></g></g></g><g fill="#000000" fill-opacity="1"><g transform="translate(20.727652, 61.317548)"><g><path d="M 2.796875 -4.8125 C 2.773438 -4.726562 2.71875 -4.679688 2.625 -4.671875 C 2.53125 -4.671875 2.429688 -4.671875 2.328125 -4.671875 C 2.296875 -4.671875 2.265625 -4.671875 2.234375 -4.671875 C 2.203125 -4.671875 2.171875 -4.671875 2.140625 -4.671875 C 2.117188 -4.660156 2.125 -4.625 2.15625 -4.5625 C 2.164062 -4.539062 2.171875 -4.515625 2.171875 -4.484375 C 2.179688 -4.460938 2.1875 -4.441406 2.1875 -4.421875 C 2.164062 -4.398438 2.148438 -4.375 2.140625 -4.34375 C 2.128906 -4.320312 2.125 -4.289062 2.125 -4.25 C 2.113281 -4.125 2.109375 -4 2.109375 -3.875 C 2.109375 -3.75 2.109375 -3.617188 2.109375 -3.484375 C 2.097656 -2.992188 2.09375 -2.5 2.09375 -2 C 2.09375 -1.5 2.09375 -1 2.09375 -0.5 C 2.207031 -0.488281 2.332031 -0.457031 2.46875 -0.40625 C 2.601562 -0.363281 2.703125 -0.285156 2.765625 -0.171875 C 2.640625 -0.0976562 2.492188 -0.0546875 2.328125 -0.046875 C 2.160156 -0.046875 1.988281 -0.0507812 1.8125 -0.0625 C 1.707031 -0.0625 1.597656 -0.0625 1.484375 -0.0625 C 1.378906 -0.0703125 1.28125 -0.0664062 1.1875 -0.046875 C 1.15625 -0.046875 1.128906 -0.0351562 1.109375 -0.015625 C 1.097656 -0.00390625 1.085938 0.0078125 1.078125 0.03125 C 1.054688 0.0625 1.03125 0.0859375 1 0.109375 C 0.976562 0.140625 0.941406 0.144531 0.890625 0.125 C 0.835938 0.0507812 0.816406 -0.015625 0.828125 -0.078125 C 0.847656 -0.148438 0.878906 -0.21875 0.921875 -0.28125 C 0.960938 -0.351562 1 -0.40625 1.03125 -0.4375 C 1.0625 -0.4375 1.085938 -0.4375 1.109375 -0.4375 C 1.140625 -0.4375 1.171875 -0.4375 1.203125 -0.4375 C 1.265625 -0.4375 1.328125 -0.4375 1.390625 -0.4375 C 1.453125 -0.4375 1.503906 -0.445312 1.546875 -0.46875 C 1.546875 -0.9375 1.546875 -1.425781 1.546875 -1.9375 C 1.546875 -2.457031 1.539062 -2.972656 1.53125 -3.484375 C 1.519531 -3.878906 1.503906 -4.265625 1.484375 -4.640625 C 1.441406 -4.648438 1.398438 -4.65625 1.359375 -4.65625 C 1.316406 -4.65625 1.273438 -4.65625 1.234375 -4.65625 C 1.160156 -4.65625 1.085938 -4.65625 1.015625 -4.65625 C 0.953125 -4.664062 0.898438 -4.691406 0.859375 -4.734375 C 0.847656 -4.773438 0.847656 -4.804688 0.859375 -4.828125 C 0.867188 -4.847656 0.878906 -4.867188 0.890625 -4.890625 C 0.910156 -4.898438 0.925781 -4.914062 0.9375 -4.9375 C 0.945312 -4.957031 0.953125 -4.976562 0.953125 -5 C 1.109375 -5 1.273438 -5.003906 1.453125 -5.015625 C 1.640625 -5.035156 1.820312 -5.046875 2 -5.046875 C 2.164062 -5.046875 2.320312 -5.03125 2.46875 -5 C 2.613281 -4.96875 2.722656 -4.90625 2.796875 -4.8125 Z M 2.796875 -4.8125 "/></g></g></g><g fill="#000000" fill-opacity="1"><g transform="translate(24.331687, 61.317548)"><g><path d="M 5.34375 -4.8125 C 5.226562 -4.707031 5.097656 -4.613281 4.953125 -4.53125 C 4.804688 -4.445312 4.679688 -4.34375 4.578125 -4.21875 C 4.546875 -4.082031 4.515625 -3.953125 4.484375 -3.828125 C 4.453125 -3.710938 4.421875 -3.59375 4.390625 -3.46875 C 4.234375 -2.925781 4.054688 -2.398438 3.859375 -1.890625 C 3.660156 -1.378906 3.484375 -0.835938 3.328125 -0.265625 C 3.273438 -0.210938 3.226562 -0.15625 3.1875 -0.09375 C 3.15625 -0.03125 3.117188 0.03125 3.078125 0.09375 C 3.015625 0.125 2.957031 0.132812 2.90625 0.125 C 2.863281 0.113281 2.816406 0.0976562 2.765625 0.078125 C 2.722656 0.0664062 2.695312 0.0625 2.6875 0.0625 C 2.46875 -0.488281 2.265625 -1.066406 2.078125 -1.671875 C 1.898438 -2.285156 1.710938 -2.890625 1.515625 -3.484375 C 1.453125 -3.691406 1.382812 -3.890625 1.3125 -4.078125 C 1.238281 -4.273438 1.160156 -4.46875 1.078125 -4.65625 C 1.035156 -4.675781 0.988281 -4.679688 0.9375 -4.671875 C 0.894531 -4.671875 0.859375 -4.664062 0.828125 -4.65625 C 0.773438 -4.644531 0.726562 -4.640625 0.6875 -4.640625 C 0.644531 -4.640625 0.601562 -4.644531 0.5625 -4.65625 C 0.53125 -4.707031 0.519531 -4.753906 0.53125 -4.796875 C 0.550781 -4.847656 0.570312 -4.894531 0.59375 -4.9375 C 0.601562 -4.945312 0.609375 -4.957031 0.609375 -4.96875 C 0.617188 -4.988281 0.628906 -5.003906 0.640625 -5.015625 C 0.742188 -5.015625 0.84375 -5.015625 0.9375 -5.015625 C 1.039062 -5.023438 1.144531 -5.03125 1.25 -5.03125 C 1.320312 -5.039062 1.398438 -5.046875 1.484375 -5.046875 C 1.566406 -5.054688 1.640625 -5.0625 1.703125 -5.0625 C 1.847656 -5.050781 1.976562 -5.023438 2.09375 -4.984375 C 2.21875 -4.953125 2.320312 -4.882812 2.40625 -4.78125 C 2.3125 -4.726562 2.207031 -4.679688 2.09375 -4.640625 C 1.976562 -4.609375 1.882812 -4.585938 1.8125 -4.578125 C 1.851562 -4.390625 1.898438 -4.207031 1.953125 -4.03125 C 2.003906 -3.851562 2.054688 -3.671875 2.109375 -3.484375 C 2.242188 -3.035156 2.394531 -2.585938 2.5625 -2.140625 C 2.726562 -1.691406 2.867188 -1.238281 2.984375 -0.78125 C 3.160156 -1.207031 3.335938 -1.640625 3.515625 -2.078125 C 3.703125 -2.523438 3.863281 -2.988281 4 -3.46875 C 4.101562 -3.8125 4.191406 -4.160156 4.265625 -4.515625 C 4.222656 -4.578125 4.164062 -4.617188 4.09375 -4.640625 C 4.019531 -4.660156 3.945312 -4.679688 3.875 -4.703125 C 3.800781 -4.722656 3.738281 -4.753906 3.6875 -4.796875 C 3.695312 -4.867188 3.742188 -4.925781 3.828125 -4.96875 C 3.910156 -5.007812 4.015625 -5.035156 4.140625 -5.046875 C 4.273438 -5.054688 4.410156 -5.054688 4.546875 -5.046875 C 4.679688 -5.046875 4.800781 -5.039062 4.90625 -5.03125 C 5 -5.019531 5.082031 -4.992188 5.15625 -4.953125 C 5.238281 -4.910156 5.300781 -4.863281 5.34375 -4.8125 Z M 5.34375 -4.8125 "/></g></g></g><g fill="#000000" fill-opacity="1"><g transform="translate(30.23617, 61.317548)"><g><path d="M 2.796875 -4.8125 C 2.773438 -4.726562 2.71875 -4.679688 2.625 -4.671875 C 2.53125 -4.671875 2.429688 -4.671875 2.328125 -4.671875 C 2.296875 -4.671875 2.265625 -4.671875 2.234375 -4.671875 C 2.203125 -4.671875 2.171875 -4.671875 2.140625 -4.671875 C 2.117188 -4.660156 2.125 -4.625 2.15625 -4.5625 C 2.164062 -4.539062 2.171875 -4.515625 2.171875 -4.484375 C 2.179688 -4.460938 2.1875 -4.441406 2.1875 -4.421875 C 2.164062 -4.398438 2.148438 -4.375 2.140625 -4.34375 C 2.128906 -4.320312 2.125 -4.289062 2.125 -4.25 C 2.113281 -4.125 2.109375 -4 2.109375 -3.875 C 2.109375 -3.75 2.109375 -3.617188 2.109375 -3.484375 C 2.097656 -2.992188 2.09375 -2.5 2.09375 -2 C 2.09375 -1.5 2.09375 -1 2.09375 -0.5 C 2.207031 -0.488281 2.332031 -0.457031 2.46875 -0.40625 C 2.601562 -0.363281 2.703125 -0.285156 2.765625 -0.171875 C 2.640625 -0.0976562 2.492188 -0.0546875 2.328125 -0.046875 C 2.160156 -0.046875 1.988281 -0.0507812 1.8125 -0.0625 C 1.707031 -0.0625 1.597656 -0.0625 1.484375 -0.0625 C 1.378906 -0.0703125 1.28125 -0.0664062 1.1875 -0.046875 C 1.15625 -0.046875 1.128906 -0.0351562 1.109375 -0.015625 C 1.097656 -0.00390625 1.085938 0.0078125 1.078125 0.03125 C 1.054688 0.0625 1.03125 0.0859375 1 0.109375 C 0.976562 0.140625 0.941406 0.144531 0.890625 0.125 C 0.835938 0.0507812 0.816406 -0.015625 0.828125 -0.078125 C 0.847656 -0.148438 0.878906 -0.21875 0.921875 -0.28125 C 0.960938 -0.351562 1 -0.40625 1.03125 -0.4375 C 1.0625 -0.4375 1.085938 -0.4375 1.109375 -0.4375 C 1.140625 -0.4375 1.171875 -0.4375 1.203125 -0.4375 C 1.265625 -0.4375 1.328125 -0.4375 1.390625 -0.4375 C 1.453125 -0.4375 1.503906 -0.445312 1.546875 -0.46875 C 1.546875 -0.9375 1.546875 -1.425781 1.546875 -1.9375 C 1.546875 -2.457031 1.539062 -2.972656 1.53125 -3.484375 C 1.519531 -3.878906 1.503906 -4.265625 1.484375 -4.640625 C 1.441406 -4.648438 1.398438 -4.65625 1.359375 -4.65625 C 1.316406 -4.65625 1.273438 -4.65625 1.234375 -4.65625 C 1.160156 -4.65625 1.085938 -4.65625 1.015625 -4.65625 C 0.953125 -4.664062 0.898438 -4.691406 0.859375 -4.734375 C 0.847656 -4.773438 0.847656 -4.804688 0.859375 -4.828125 C 0.867188 -4.847656 0.878906 -4.867188 0.890625 -4.890625 C 0.910156 -4.898438 0.925781 -4.914062 0.9375 -4.9375 C 0.945312 -4.957031 0.953125 -4.976562 0.953125 -5 C 1.109375 -5 1.273438 -5.003906 1.453125 -5.015625 C 1.640625 -5.035156 1.820312 -5.046875 2 -5.046875 C 2.164062 -5.046875 2.320312 -5.03125 2.46875 -5 C 2.613281 -4.96875 2.722656 -4.90625 2.796875 -4.8125 Z M 2.796875 -4.8125 "/></g></g></g><g fill="#000000" fill-opacity="1"><g transform="translate(33.840206, 61.317548)"><g><path d="M 5.3125 -0.21875 C 5.300781 -0.164062 5.25 -0.125 5.15625 -0.09375 C 5.0625 -0.0703125 4.945312 -0.0625 4.8125 -0.0625 C 4.664062 -0.0507812 4.515625 -0.0507812 4.359375 -0.0625 C 4.203125 -0.0820312 4.054688 -0.0976562 3.921875 -0.109375 C 3.785156 -0.128906 3.679688 -0.144531 3.609375 -0.15625 C 3.566406 -0.257812 3.566406 -0.335938 3.609375 -0.390625 C 3.648438 -0.453125 3.707031 -0.5 3.78125 -0.53125 C 3.863281 -0.5625 3.941406 -0.582031 4.015625 -0.59375 C 4.035156 -0.664062 4.035156 -0.753906 4.015625 -0.859375 C 3.992188 -0.972656 3.960938 -1.085938 3.921875 -1.203125 C 3.878906 -1.328125 3.847656 -1.441406 3.828125 -1.546875 C 3.804688 -1.597656 3.785156 -1.644531 3.765625 -1.6875 C 3.753906 -1.738281 3.742188 -1.773438 3.734375 -1.796875 C 3.453125 -1.804688 3.144531 -1.804688 2.8125 -1.796875 C 2.476562 -1.785156 2.179688 -1.773438 1.921875 -1.765625 C 1.898438 -1.722656 1.867188 -1.648438 1.828125 -1.546875 C 1.785156 -1.441406 1.738281 -1.332031 1.6875 -1.21875 C 1.644531 -1.101562 1.597656 -0.988281 1.546875 -0.875 C 1.503906 -0.769531 1.46875 -0.6875 1.4375 -0.625 C 1.457031 -0.5625 1.515625 -0.523438 1.609375 -0.515625 C 1.703125 -0.503906 1.789062 -0.488281 1.875 -0.46875 C 1.957031 -0.445312 2.019531 -0.410156 2.0625 -0.359375 C 2.101562 -0.304688 2.113281 -0.21875 2.09375 -0.09375 C 1.96875 -0.0625 1.832031 -0.046875 1.6875 -0.046875 C 1.539062 -0.0546875 1.398438 -0.0664062 1.265625 -0.078125 C 1.117188 -0.0859375 0.976562 -0.09375 0.84375 -0.09375 C 0.707031 -0.09375 0.582031 -0.0703125 0.46875 -0.03125 C 0.445312 -0.0703125 0.425781 -0.113281 0.40625 -0.15625 C 0.394531 -0.195312 0.367188 -0.226562 0.328125 -0.25 C 0.328125 -0.332031 0.34375 -0.394531 0.375 -0.4375 C 0.40625 -0.476562 0.425781 -0.53125 0.4375 -0.59375 C 0.570312 -0.582031 0.6875 -0.597656 0.78125 -0.640625 C 0.875 -0.679688 0.953125 -0.738281 1.015625 -0.8125 C 1.128906 -0.925781 1.210938 -1.070312 1.265625 -1.25 C 1.328125 -1.4375 1.394531 -1.609375 1.46875 -1.765625 C 1.570312 -2.023438 1.675781 -2.300781 1.78125 -2.59375 C 1.882812 -2.894531 1.992188 -3.191406 2.109375 -3.484375 C 2.222656 -3.785156 2.335938 -4.078125 2.453125 -4.359375 C 2.566406 -4.640625 2.6875 -4.894531 2.8125 -5.125 C 2.882812 -5.132812 2.972656 -5.140625 3.078125 -5.140625 C 3.179688 -5.148438 3.269531 -5.144531 3.34375 -5.125 C 3.3125 -5.039062 3.300781 -4.96875 3.3125 -4.90625 C 3.320312 -4.851562 3.335938 -4.804688 3.359375 -4.765625 C 3.378906 -4.710938 3.394531 -4.660156 3.40625 -4.609375 C 3.414062 -4.566406 3.410156 -4.507812 3.390625 -4.4375 C 3.441406 -4.300781 3.5 -4.148438 3.5625 -3.984375 C 3.625 -3.816406 3.691406 -3.644531 3.765625 -3.46875 C 3.890625 -3.113281 4.015625 -2.742188 4.140625 -2.359375 C 4.273438 -1.972656 4.394531 -1.613281 4.5 -1.28125 C 4.519531 -1.226562 4.539062 -1.160156 4.5625 -1.078125 C 4.582031 -1.003906 4.601562 -0.945312 4.625 -0.90625 C 4.644531 -0.875 4.660156 -0.847656 4.671875 -0.828125 C 4.691406 -0.804688 4.710938 -0.785156 4.734375 -0.765625 C 4.773438 -0.734375 4.804688 -0.695312 4.828125 -0.65625 C 4.859375 -0.625 4.867188 -0.582031 4.859375 -0.53125 C 4.867188 -0.519531 4.890625 -0.515625 4.921875 -0.515625 C 5.023438 -0.492188 5.125 -0.460938 5.21875 -0.421875 C 5.3125 -0.390625 5.34375 -0.320312 5.3125 -0.21875 Z M 3.578125 -2.265625 C 3.535156 -2.367188 3.484375 -2.535156 3.421875 -2.765625 C 3.359375 -2.992188 3.28125 -3.234375 3.1875 -3.484375 C 3.132812 -3.628906 3.082031 -3.769531 3.03125 -3.90625 C 2.976562 -4.039062 2.921875 -4.160156 2.859375 -4.265625 L 2.5625 -3.484375 C 2.507812 -3.316406 2.445312 -3.144531 2.375 -2.96875 C 2.3125 -2.789062 2.253906 -2.632812 2.203125 -2.5 C 2.148438 -2.363281 2.113281 -2.265625 2.09375 -2.203125 C 2.15625 -2.203125 2.253906 -2.203125 2.390625 -2.203125 C 2.535156 -2.210938 2.6875 -2.21875 2.84375 -2.21875 C 3 -2.21875 3.144531 -2.222656 3.28125 -2.234375 C 3.414062 -2.242188 3.515625 -2.253906 3.578125 -2.265625 Z M 3.578125 -2.265625 "/></g></g></g><g fill="#000000" fill-opacity="1"><g transform="translate(39.499307, 61.317548)"><g/></g></g><g fill="#000000" fill-opacity="1"><g transform="translate(41.416348, 61.317548)"><g><path d="M 6.84375 -4.8125 C 6.789062 -4.75 6.726562 -4.691406 6.65625 -4.640625 C 6.59375 -4.585938 6.515625 -4.546875 6.421875 -4.515625 C 6.390625 -4.453125 6.363281 -4.378906 6.34375 -4.296875 C 6.320312 -4.210938 6.269531 -4.15625 6.1875 -4.125 C 6.175781 -4.007812 6.15625 -3.894531 6.125 -3.78125 C 6.101562 -3.675781 6.078125 -3.570312 6.046875 -3.46875 C 6.023438 -3.40625 6.003906 -3.332031 5.984375 -3.25 C 5.960938 -3.175781 5.941406 -3.097656 5.921875 -3.015625 C 5.878906 -2.890625 5.84375 -2.757812 5.8125 -2.625 C 5.78125 -2.5 5.742188 -2.375 5.703125 -2.25 C 5.691406 -2.207031 5.664062 -2.160156 5.625 -2.109375 C 5.59375 -2.066406 5.570312 -2.023438 5.5625 -1.984375 C 5.53125 -1.828125 5.507812 -1.671875 5.5 -1.515625 C 5.488281 -1.359375 5.457031 -1.210938 5.40625 -1.078125 C 5.394531 -1.023438 5.375 -0.972656 5.34375 -0.921875 C 5.320312 -0.878906 5.300781 -0.832031 5.28125 -0.78125 C 5.226562 -0.675781 5.179688 -0.570312 5.140625 -0.46875 C 5.097656 -0.375 5.085938 -0.265625 5.109375 -0.140625 C 5.015625 -0.0546875 4.9375 -0.0195312 4.875 -0.03125 C 4.8125 -0.0390625 4.757812 -0.078125 4.71875 -0.140625 C 4.6875 -0.210938 4.65625 -0.300781 4.625 -0.40625 C 4.59375 -0.507812 4.566406 -0.613281 4.546875 -0.71875 C 4.535156 -0.820312 4.519531 -0.910156 4.5 -0.984375 C 4.4375 -1.222656 4.363281 -1.484375 4.28125 -1.765625 C 4.207031 -2.054688 4.128906 -2.347656 4.046875 -2.640625 C 3.972656 -2.929688 3.898438 -3.207031 3.828125 -3.46875 C 3.816406 -3.5625 3.800781 -3.648438 3.78125 -3.734375 C 3.757812 -3.828125 3.738281 -3.914062 3.71875 -4 C 3.664062 -3.925781 3.625 -3.84375 3.59375 -3.75 C 3.570312 -3.664062 3.554688 -3.578125 3.546875 -3.484375 C 3.523438 -3.367188 3.5 -3.253906 3.46875 -3.140625 C 3.445312 -3.023438 3.398438 -2.925781 3.328125 -2.84375 C 3.316406 -2.644531 3.285156 -2.453125 3.234375 -2.265625 C 3.179688 -2.085938 3.117188 -1.910156 3.046875 -1.734375 C 2.984375 -1.566406 2.921875 -1.390625 2.859375 -1.203125 C 2.796875 -1.015625 2.757812 -0.8125 2.75 -0.59375 C 2.675781 -0.519531 2.613281 -0.4375 2.5625 -0.34375 C 2.507812 -0.257812 2.472656 -0.148438 2.453125 -0.015625 C 2.421875 0.00390625 2.378906 0.015625 2.328125 0.015625 C 2.285156 0.015625 2.242188 0.0078125 2.203125 0 C 2.160156 -0.0078125 2.132812 -0.015625 2.125 -0.015625 C 1.988281 -0.335938 1.878906 -0.679688 1.796875 -1.046875 C 1.710938 -1.410156 1.628906 -1.78125 1.546875 -2.15625 C 1.503906 -2.375 1.460938 -2.59375 1.421875 -2.8125 C 1.378906 -3.039062 1.332031 -3.265625 1.28125 -3.484375 C 1.25 -3.640625 1.210938 -3.796875 1.171875 -3.953125 C 1.140625 -4.109375 1.101562 -4.253906 1.0625 -4.390625 C 1.0625 -4.492188 1.070312 -4.585938 1.09375 -4.671875 C 1.039062 -4.679688 0.988281 -4.679688 0.9375 -4.671875 C 0.894531 -4.671875 0.859375 -4.671875 0.828125 -4.671875 C 0.773438 -4.660156 0.722656 -4.65625 0.671875 -4.65625 C 0.628906 -4.65625 0.578125 -4.664062 0.515625 -4.6875 C 0.453125 -4.78125 0.429688 -4.851562 0.453125 -4.90625 C 0.484375 -4.957031 0.523438 -5 0.578125 -5.03125 C 0.679688 -5.007812 0.785156 -5 0.890625 -5 C 0.992188 -5.007812 1.097656 -5.019531 1.203125 -5.03125 C 1.253906 -5.03125 1.304688 -5.03125 1.359375 -5.03125 C 1.410156 -5.039062 1.460938 -5.046875 1.515625 -5.046875 C 1.648438 -5.046875 1.773438 -5.023438 1.890625 -4.984375 C 2.003906 -4.953125 2.097656 -4.875 2.171875 -4.75 C 2.097656 -4.695312 1.992188 -4.65625 1.859375 -4.625 C 1.734375 -4.59375 1.628906 -4.566406 1.546875 -4.546875 C 1.609375 -4.367188 1.660156 -4.191406 1.703125 -4.015625 C 1.753906 -3.847656 1.800781 -3.671875 1.84375 -3.484375 C 1.9375 -3.078125 2.023438 -2.660156 2.109375 -2.234375 C 2.203125 -1.816406 2.304688 -1.410156 2.421875 -1.015625 C 2.578125 -1.398438 2.710938 -1.800781 2.828125 -2.21875 C 2.941406 -2.644531 3.054688 -3.066406 3.171875 -3.484375 C 3.242188 -3.734375 3.316406 -3.976562 3.390625 -4.21875 C 3.472656 -4.46875 3.5625 -4.707031 3.65625 -4.9375 C 3.738281 -4.945312 3.8125 -4.9375 3.875 -4.90625 C 3.9375 -4.882812 3.992188 -4.863281 4.046875 -4.84375 C 4.085938 -4.632812 4.132812 -4.410156 4.1875 -4.171875 C 4.238281 -3.941406 4.289062 -3.707031 4.34375 -3.46875 C 4.445312 -3.09375 4.550781 -2.707031 4.65625 -2.3125 C 4.769531 -1.925781 4.867188 -1.5625 4.953125 -1.21875 C 5.035156 -1.414062 5.117188 -1.632812 5.203125 -1.875 C 5.296875 -2.125 5.382812 -2.382812 5.46875 -2.65625 C 5.550781 -2.925781 5.625 -3.195312 5.6875 -3.46875 L 5.703125 -3.578125 C 5.710938 -3.628906 5.722656 -3.679688 5.734375 -3.734375 C 5.753906 -3.785156 5.769531 -3.832031 5.78125 -3.875 C 5.8125 -3.976562 5.835938 -4.078125 5.859375 -4.171875 C 5.890625 -4.273438 5.898438 -4.359375 5.890625 -4.421875 C 5.867188 -4.492188 5.835938 -4.546875 5.796875 -4.578125 C 5.765625 -4.609375 5.722656 -4.628906 5.671875 -4.640625 C 5.597656 -4.648438 5.53125 -4.660156 5.46875 -4.671875 C 5.40625 -4.679688 5.351562 -4.71875 5.3125 -4.78125 C 5.320312 -4.875 5.378906 -4.941406 5.484375 -4.984375 C 5.597656 -5.023438 5.726562 -5.046875 5.875 -5.046875 C 6 -5.046875 6.128906 -5.03125 6.265625 -5 C 6.398438 -4.976562 6.519531 -4.953125 6.625 -4.921875 C 6.738281 -4.890625 6.8125 -4.851562 6.84375 -4.8125 Z M 6.84375 -4.8125 "/></g></g></g><g fill="#000000" fill-opacity="1"><g transform="translate(48.701098, 61.317548)"><g><path d="M 2.796875 -4.8125 C 2.773438 -4.726562 2.71875 -4.679688 2.625 -4.671875 C 2.53125 -4.671875 2.429688 -4.671875 2.328125 -4.671875 C 2.296875 -4.671875 2.265625 -4.671875 2.234375 -4.671875 C 2.203125 -4.671875 2.171875 -4.671875 2.140625 -4.671875 C 2.117188 -4.660156 2.125 -4.625 2.15625 -4.5625 C 2.164062 -4.539062 2.171875 -4.515625 2.171875 -4.484375 C 2.179688 -4.460938 2.1875 -4.441406 2.1875 -4.421875 C 2.164062 -4.398438 2.148438 -4.375 2.140625 -4.34375 C 2.128906 -4.320312 2.125 -4.289062 2.125 -4.25 C 2.113281 -4.125 2.109375 -4 2.109375 -3.875 C 2.109375 -3.75 2.109375 -3.617188 2.109375 -3.484375 C 2.097656 -2.992188 2.09375 -2.5 2.09375 -2 C 2.09375 -1.5 2.09375 -1 2.09375 -0.5 C 2.207031 -0.488281 2.332031 -0.457031 2.46875 -0.40625 C 2.601562 -0.363281 2.703125 -0.285156 2.765625 -0.171875 C 2.640625 -0.0976562 2.492188 -0.0546875 2.328125 -0.046875 C 2.160156 -0.046875 1.988281 -0.0507812 1.8125 -0.0625 C 1.707031 -0.0625 1.597656 -0.0625 1.484375 -0.0625 C 1.378906 -0.0703125 1.28125 -0.0664062 1.1875 -0.046875 C 1.15625 -0.046875 1.128906 -0.0351562 1.109375 -0.015625 C 1.097656 -0.00390625 1.085938 0.0078125 1.078125 0.03125 C 1.054688 0.0625 1.03125 0.0859375 1 0.109375 C 0.976562 0.140625 0.941406 0.144531 0.890625 0.125 C 0.835938 0.0507812 0.816406 -0.015625 0.828125 -0.078125 C 0.847656 -0.148438 0.878906 -0.21875 0.921875 -0.28125 C 0.960938 -0.351562 1 -0.40625 1.03125 -0.4375 C 1.0625 -0.4375 1.085938 -0.4375 1.109375 -0.4375 C 1.140625 -0.4375 1.171875 -0.4375 1.203125 -0.4375 C 1.265625 -0.4375 1.328125 -0.4375 1.390625 -0.4375 C 1.453125 -0.4375 1.503906 -0.445312 1.546875 -0.46875 C 1.546875 -0.9375 1.546875 -1.425781 1.546875 -1.9375 C 1.546875 -2.457031 1.539062 -2.972656 1.53125 -3.484375 C 1.519531 -3.878906 1.503906 -4.265625 1.484375 -4.640625 C 1.441406 -4.648438 1.398438 -4.65625 1.359375 -4.65625 C 1.316406 -4.65625 1.273438 -4.65625 1.234375 -4.65625 C 1.160156 -4.65625 1.085938 -4.65625 1.015625 -4.65625 C 0.953125 -4.664062 0.898438 -4.691406 0.859375 -4.734375 C 0.847656 -4.773438 0.847656 -4.804688 0.859375 -4.828125 C 0.867188 -4.847656 0.878906 -4.867188 0.890625 -4.890625 C 0.910156 -4.898438 0.925781 -4.914062 0.9375 -4.9375 C 0.945312 -4.957031 0.953125 -4.976562 0.953125 -5 C 1.109375 -5 1.273438 -5.003906 1.453125 -5.015625 C 1.640625 -5.035156 1.820312 -5.046875 2 -5.046875 C 2.164062 -5.046875 2.320312 -5.03125 2.46875 -5 C 2.613281 -4.96875 2.722656 -4.90625 2.796875 -4.8125 Z M 2.796875 -4.8125 "/></g></g></g><g fill="#000000" fill-opacity="1"><g transform="translate(52.305134, 61.317548)"><g><path d="M 4.328125 -1.578125 C 4.421875 -1.347656 4.457031 -1.09375 4.4375 -0.8125 C 4.425781 -0.53125 4.375 -0.273438 4.28125 -0.046875 C 4.050781 -0.015625 3.785156 0 3.484375 0 C 3.179688 -0.0078125 2.875 -0.0234375 2.5625 -0.046875 C 2.269531 -0.0546875 1.976562 -0.0664062 1.6875 -0.078125 C 1.40625 -0.0859375 1.144531 -0.078125 0.90625 -0.046875 C 0.863281 -0.160156 0.867188 -0.25 0.921875 -0.3125 C 0.984375 -0.375 1.066406 -0.421875 1.171875 -0.453125 C 1.273438 -0.492188 1.375 -0.523438 1.46875 -0.546875 C 1.5 -0.941406 1.507812 -1.375 1.5 -1.84375 C 1.5 -2.3125 1.492188 -2.773438 1.484375 -3.234375 C 1.484375 -3.273438 1.484375 -3.316406 1.484375 -3.359375 C 1.484375 -3.398438 1.484375 -3.441406 1.484375 -3.484375 C 1.484375 -3.691406 1.476562 -3.894531 1.46875 -4.09375 C 1.46875 -4.289062 1.46875 -4.476562 1.46875 -4.65625 C 1.40625 -4.6875 1.34375 -4.695312 1.28125 -4.6875 C 1.226562 -4.675781 1.175781 -4.664062 1.125 -4.65625 C 1.082031 -4.632812 1.035156 -4.617188 0.984375 -4.609375 C 0.941406 -4.609375 0.898438 -4.613281 0.859375 -4.625 C 0.859375 -4.632812 0.851562 -4.644531 0.84375 -4.65625 C 0.84375 -4.664062 0.835938 -4.675781 0.828125 -4.6875 C 0.796875 -4.726562 0.785156 -4.765625 0.796875 -4.796875 C 0.804688 -4.828125 0.820312 -4.863281 0.84375 -4.90625 C 0.863281 -4.925781 0.878906 -4.953125 0.890625 -4.984375 C 0.910156 -5.023438 0.914062 -5.066406 0.90625 -5.109375 C 1.019531 -5.054688 1.148438 -5.03125 1.296875 -5.03125 C 1.441406 -5.03125 1.59375 -5.035156 1.75 -5.046875 C 1.800781 -5.046875 1.851562 -5.046875 1.90625 -5.046875 C 1.96875 -5.054688 2.03125 -5.0625 2.09375 -5.0625 C 2.238281 -5.0625 2.363281 -5.039062 2.46875 -5 C 2.582031 -4.957031 2.660156 -4.867188 2.703125 -4.734375 C 2.660156 -4.703125 2.617188 -4.679688 2.578125 -4.671875 C 2.535156 -4.671875 2.488281 -4.671875 2.4375 -4.671875 C 2.375 -4.671875 2.3125 -4.664062 2.25 -4.65625 C 2.1875 -4.644531 2.132812 -4.601562 2.09375 -4.53125 C 2.082031 -4.207031 2.078125 -3.859375 2.078125 -3.484375 C 2.078125 -3.378906 2.078125 -3.269531 2.078125 -3.15625 C 2.078125 -3.050781 2.078125 -2.945312 2.078125 -2.84375 C 2.078125 -2.457031 2.078125 -2.0625 2.078125 -1.65625 C 2.078125 -1.257812 2.066406 -0.851562 2.046875 -0.4375 C 2.128906 -0.40625 2.207031 -0.390625 2.28125 -0.390625 C 2.363281 -0.398438 2.445312 -0.410156 2.53125 -0.421875 C 2.5625 -0.421875 2.597656 -0.421875 2.640625 -0.421875 C 2.679688 -0.429688 2.71875 -0.4375 2.75 -0.4375 C 2.800781 -0.4375 2.851562 -0.429688 2.90625 -0.421875 C 2.957031 -0.421875 3.015625 -0.421875 3.078125 -0.421875 C 3.160156 -0.410156 3.238281 -0.398438 3.3125 -0.390625 C 3.394531 -0.390625 3.476562 -0.398438 3.5625 -0.421875 C 3.707031 -0.453125 3.800781 -0.523438 3.84375 -0.640625 C 3.882812 -0.765625 3.925781 -0.890625 3.96875 -1.015625 C 4 -1.140625 4.035156 -1.253906 4.078125 -1.359375 C 4.128906 -1.460938 4.210938 -1.535156 4.328125 -1.578125 Z M 4.328125 -1.578125 "/></g></g></g><g fill="#000000" fill-opacity="1"><g transform="translate(57.136074, 61.317548)"><g><path d="M 3.953125 -1 C 3.898438 -0.769531 3.789062 -0.570312 3.625 -0.40625 C 3.457031 -0.25 3.257812 -0.132812 3.03125 -0.0625 C 2.8125 0.0078125 2.566406 0.0390625 2.296875 0.03125 C 2.035156 0.03125 1.773438 -0.0195312 1.515625 -0.125 C 1.460938 -0.113281 1.414062 -0.09375 1.375 -0.0625 C 1.34375 -0.03125 1.3125 0 1.28125 0.03125 C 1.238281 0.0703125 1.191406 0.101562 1.140625 0.125 C 1.097656 0.15625 1.035156 0.132812 0.953125 0.0625 C 0.890625 -0.0195312 0.847656 -0.132812 0.828125 -0.28125 C 0.816406 -0.4375 0.8125 -0.597656 0.8125 -0.765625 C 0.820312 -0.941406 0.84375 -1.101562 0.875 -1.25 C 0.90625 -1.40625 0.941406 -1.53125 0.984375 -1.625 C 1.109375 -1.582031 1.1875 -1.515625 1.21875 -1.421875 C 1.257812 -1.328125 1.289062 -1.226562 1.3125 -1.125 C 1.34375 -1.007812 1.367188 -0.894531 1.390625 -0.78125 C 1.410156 -0.675781 1.460938 -0.582031 1.546875 -0.5 C 1.640625 -0.414062 1.742188 -0.351562 1.859375 -0.3125 C 1.984375 -0.269531 2.113281 -0.25 2.25 -0.25 C 2.414062 -0.257812 2.582031 -0.289062 2.75 -0.34375 C 2.914062 -0.40625 3.0625 -0.484375 3.1875 -0.578125 C 3.3125 -0.679688 3.390625 -0.796875 3.421875 -0.921875 C 3.453125 -1.148438 3.445312 -1.328125 3.40625 -1.453125 C 3.363281 -1.585938 3.289062 -1.695312 3.1875 -1.78125 C 3.070312 -1.894531 2.925781 -1.984375 2.75 -2.046875 C 2.582031 -2.117188 2.414062 -2.207031 2.25 -2.3125 C 2.175781 -2.351562 2.113281 -2.398438 2.0625 -2.453125 C 2.007812 -2.515625 1.953125 -2.5625 1.890625 -2.59375 C 1.816406 -2.632812 1.738281 -2.664062 1.65625 -2.6875 C 1.582031 -2.71875 1.515625 -2.75 1.453125 -2.78125 C 1.335938 -2.863281 1.238281 -2.960938 1.15625 -3.078125 C 1.070312 -3.203125 1.007812 -3.335938 0.96875 -3.484375 C 0.945312 -3.554688 0.929688 -3.628906 0.921875 -3.703125 C 0.910156 -3.785156 0.90625 -3.863281 0.90625 -3.9375 C 0.90625 -4.101562 0.929688 -4.265625 0.984375 -4.421875 C 1.035156 -4.585938 1.117188 -4.734375 1.234375 -4.859375 C 1.429688 -4.953125 1.65625 -5.019531 1.90625 -5.0625 C 2.15625 -5.113281 2.410156 -5.132812 2.671875 -5.125 C 2.929688 -5.125 3.175781 -5.078125 3.40625 -4.984375 C 3.425781 -4.992188 3.441406 -5.003906 3.453125 -5.015625 C 3.472656 -5.035156 3.488281 -5.054688 3.5 -5.078125 C 3.53125 -5.109375 3.5625 -5.132812 3.59375 -5.15625 C 3.625 -5.175781 3.675781 -5.164062 3.75 -5.125 C 3.78125 -5.007812 3.796875 -4.859375 3.796875 -4.671875 C 3.804688 -4.492188 3.800781 -4.316406 3.78125 -4.140625 C 3.769531 -3.972656 3.738281 -3.847656 3.6875 -3.765625 C 3.570312 -3.765625 3.492188 -3.796875 3.453125 -3.859375 C 3.410156 -3.929688 3.382812 -4.019531 3.375 -4.125 C 3.375 -4.226562 3.375 -4.335938 3.375 -4.453125 C 3.375 -4.460938 3.375 -4.46875 3.375 -4.46875 C 3.25 -4.582031 3.09375 -4.664062 2.90625 -4.71875 C 2.726562 -4.78125 2.539062 -4.8125 2.34375 -4.8125 C 2.195312 -4.8125 2.050781 -4.789062 1.90625 -4.75 C 1.769531 -4.707031 1.660156 -4.640625 1.578125 -4.546875 C 1.503906 -4.460938 1.453125 -4.367188 1.421875 -4.265625 C 1.390625 -4.160156 1.390625 -4.03125 1.421875 -3.875 C 1.429688 -3.820312 1.457031 -3.757812 1.5 -3.6875 C 1.550781 -3.625 1.597656 -3.570312 1.640625 -3.53125 L 1.6875 -3.484375 C 1.800781 -3.367188 1.945312 -3.257812 2.125 -3.15625 C 2.3125 -3.0625 2.503906 -2.960938 2.703125 -2.859375 C 2.910156 -2.765625 3.109375 -2.660156 3.296875 -2.546875 C 3.460938 -2.429688 3.601562 -2.300781 3.71875 -2.15625 C 3.84375 -2.007812 3.929688 -1.84375 3.984375 -1.65625 C 4.035156 -1.46875 4.023438 -1.25 3.953125 -1 Z M 3.953125 -1 "/></g></g></g><g fill="#000000" fill-opacity="1"><g transform="translate(61.813651, 61.317548)"><g><path d="M 5.25 -2.1875 C 5.238281 -2 5.203125 -1.828125 5.140625 -1.671875 C 5.078125 -1.523438 5.007812 -1.378906 4.9375 -1.234375 C 4.863281 -1.085938 4.800781 -0.925781 4.75 -0.75 C 4.707031 -0.757812 4.65625 -0.726562 4.59375 -0.65625 C 4.53125 -0.582031 4.476562 -0.507812 4.4375 -0.4375 C 4.21875 -0.320312 3.988281 -0.203125 3.75 -0.078125 C 3.507812 0.0351562 3.25 0.09375 2.96875 0.09375 C 2.695312 0.09375 2.445312 0.0351562 2.21875 -0.078125 C 2 -0.191406 1.785156 -0.300781 1.578125 -0.40625 C 1.578125 -0.46875 1.550781 -0.507812 1.5 -0.53125 C 1.445312 -0.550781 1.398438 -0.582031 1.359375 -0.625 C 1.160156 -0.84375 0.992188 -1.101562 0.859375 -1.40625 C 0.734375 -1.71875 0.660156 -2.066406 0.640625 -2.453125 C 0.617188 -2.804688 0.65625 -3.148438 0.75 -3.484375 C 0.832031 -3.773438 0.953125 -4.039062 1.109375 -4.28125 C 1.273438 -4.519531 1.472656 -4.691406 1.703125 -4.796875 C 1.785156 -4.878906 1.878906 -4.957031 1.984375 -5.03125 C 2.097656 -5.101562 2.238281 -5.125 2.40625 -5.09375 L 2.4375 -5.140625 C 2.570312 -5.171875 2.734375 -5.179688 2.921875 -5.171875 C 3.117188 -5.171875 3.316406 -5.148438 3.515625 -5.109375 C 3.722656 -5.078125 3.90625 -5.019531 4.0625 -4.9375 C 4.21875 -4.851562 4.332031 -4.742188 4.40625 -4.609375 C 4.4375 -4.597656 4.460938 -4.59375 4.484375 -4.59375 C 4.503906 -4.601562 4.523438 -4.609375 4.546875 -4.609375 C 4.566406 -4.617188 4.585938 -4.625 4.609375 -4.625 C 4.628906 -4.625 4.65625 -4.617188 4.6875 -4.609375 C 4.6875 -4.546875 4.6875 -4.484375 4.6875 -4.421875 C 4.6875 -4.367188 4.691406 -4.320312 4.703125 -4.28125 C 4.796875 -4.238281 4.863281 -4.164062 4.90625 -4.0625 C 4.957031 -3.96875 5 -3.867188 5.03125 -3.765625 C 5.0625 -3.660156 5.09375 -3.5625 5.125 -3.46875 C 5.132812 -3.445312 5.144531 -3.425781 5.15625 -3.40625 C 5.164062 -3.394531 5.175781 -3.378906 5.1875 -3.359375 C 5.195312 -3.296875 5.203125 -3.234375 5.203125 -3.171875 C 5.210938 -3.109375 5.21875 -3.046875 5.21875 -2.984375 C 5.226562 -2.847656 5.238281 -2.710938 5.25 -2.578125 C 5.257812 -2.441406 5.257812 -2.3125 5.25 -2.1875 Z M 4.53125 -3.46875 C 4.53125 -3.5 4.523438 -3.523438 4.515625 -3.546875 C 4.515625 -3.566406 4.507812 -3.585938 4.5 -3.609375 C 4.488281 -3.691406 4.453125 -3.789062 4.390625 -3.90625 C 4.335938 -4.03125 4.28125 -4.148438 4.21875 -4.265625 C 4.164062 -4.378906 4.113281 -4.460938 4.0625 -4.515625 C 3.945312 -4.640625 3.796875 -4.722656 3.609375 -4.765625 C 3.429688 -4.816406 3.238281 -4.835938 3.03125 -4.828125 C 2.832031 -4.816406 2.632812 -4.78125 2.4375 -4.71875 C 2.25 -4.65625 2.09375 -4.578125 1.96875 -4.484375 C 1.84375 -4.347656 1.738281 -4.195312 1.65625 -4.03125 C 1.570312 -3.863281 1.503906 -3.679688 1.453125 -3.484375 C 1.421875 -3.347656 1.394531 -3.203125 1.375 -3.046875 C 1.351562 -2.898438 1.34375 -2.753906 1.34375 -2.609375 C 1.332031 -2.285156 1.367188 -1.960938 1.453125 -1.640625 C 1.546875 -1.328125 1.675781 -1.0625 1.84375 -0.84375 C 1.988281 -0.65625 2.15625 -0.507812 2.34375 -0.40625 C 2.539062 -0.3125 2.765625 -0.269531 3.015625 -0.28125 C 3.316406 -0.289062 3.578125 -0.382812 3.796875 -0.5625 C 4.023438 -0.738281 4.203125 -0.96875 4.328125 -1.25 C 4.472656 -1.5625 4.5625 -1.910156 4.59375 -2.296875 C 4.632812 -2.691406 4.613281 -3.082031 4.53125 -3.46875 Z M 4.53125 -3.46875 "/></g></g></g><g fill="#000000" fill-opacity="1"><g transform="translate(67.687461, 61.317548)"><g><path d="M 5.671875 -4.890625 C 5.671875 -4.773438 5.617188 -4.707031 5.515625 -4.6875 C 5.421875 -4.675781 5.3125 -4.671875 5.1875 -4.671875 C 5.144531 -4.660156 5.117188 -4.632812 5.109375 -4.59375 C 5.097656 -4.550781 5.085938 -4.507812 5.078125 -4.46875 C 5.066406 -4.425781 5.035156 -4.390625 4.984375 -4.359375 C 5.003906 -4.222656 5.015625 -4.078125 5.015625 -3.921875 C 5.023438 -3.773438 5.035156 -3.625 5.046875 -3.46875 C 5.046875 -3.300781 5.046875 -3.125 5.046875 -2.9375 C 5.046875 -2.757812 5.046875 -2.578125 5.046875 -2.390625 C 5.054688 -1.992188 5.0625 -1.601562 5.0625 -1.21875 C 5.070312 -0.84375 5.097656 -0.5 5.140625 -0.1875 C 5.085938 -0.101562 5 -0.0546875 4.875 -0.046875 C 4.757812 -0.0351562 4.679688 -0.0546875 4.640625 -0.109375 C 4.515625 -0.265625 4.394531 -0.429688 4.28125 -0.609375 C 4.175781 -0.796875 4.050781 -0.976562 3.90625 -1.15625 C 3.625 -1.476562 3.351562 -1.847656 3.09375 -2.265625 C 2.84375 -2.691406 2.59375 -3.097656 2.34375 -3.484375 C 2.238281 -3.640625 2.132812 -3.789062 2.03125 -3.9375 C 1.9375 -4.082031 1.835938 -4.21875 1.734375 -4.34375 C 1.722656 -4.1875 1.710938 -4.039062 1.703125 -3.90625 C 1.703125 -3.769531 1.703125 -3.628906 1.703125 -3.484375 C 1.703125 -3.296875 1.703125 -3.097656 1.703125 -2.890625 C 1.710938 -2.691406 1.722656 -2.46875 1.734375 -2.21875 C 1.734375 -2.132812 1.726562 -2.039062 1.71875 -1.9375 C 1.71875 -1.832031 1.71875 -1.734375 1.71875 -1.640625 C 1.707031 -1.429688 1.703125 -1.238281 1.703125 -1.0625 C 1.703125 -0.882812 1.722656 -0.734375 1.765625 -0.609375 C 1.785156 -0.535156 1.828125 -0.484375 1.890625 -0.453125 C 1.960938 -0.421875 2.035156 -0.390625 2.109375 -0.359375 C 2.179688 -0.328125 2.234375 -0.285156 2.265625 -0.234375 C 2.242188 -0.171875 2.203125 -0.128906 2.140625 -0.109375 C 2.078125 -0.0859375 2.03125 -0.0546875 2 -0.015625 C 1.90625 -0.046875 1.804688 -0.0625 1.703125 -0.0625 C 1.609375 -0.0625 1.515625 -0.0507812 1.421875 -0.03125 C 1.316406 -0.0195312 1.210938 -0.015625 1.109375 -0.015625 C 1.015625 -0.015625 0.925781 -0.0390625 0.84375 -0.09375 C 0.8125 -0.132812 0.800781 -0.164062 0.8125 -0.1875 C 0.820312 -0.21875 0.832031 -0.25 0.84375 -0.28125 C 0.851562 -0.300781 0.863281 -0.316406 0.875 -0.328125 C 0.882812 -0.347656 0.890625 -0.375 0.890625 -0.40625 C 0.953125 -0.425781 1.019531 -0.441406 1.09375 -0.453125 C 1.164062 -0.472656 1.238281 -0.492188 1.3125 -0.515625 C 1.351562 -0.910156 1.367188 -1.320312 1.359375 -1.75 C 1.359375 -2.1875 1.34375 -2.628906 1.3125 -3.078125 C 1.3125 -3.148438 1.3125 -3.21875 1.3125 -3.28125 C 1.3125 -3.351562 1.304688 -3.421875 1.296875 -3.484375 C 1.296875 -3.679688 1.289062 -3.875 1.28125 -4.0625 C 1.28125 -4.25 1.273438 -4.441406 1.265625 -4.640625 C 1.203125 -4.617188 1.132812 -4.609375 1.0625 -4.609375 C 1 -4.617188 0.945312 -4.640625 0.90625 -4.671875 C 0.851562 -4.703125 0.820312 -4.75 0.8125 -4.8125 C 0.800781 -4.875 0.832031 -4.945312 0.90625 -5.03125 C 0.96875 -5.019531 1.03125 -5.015625 1.09375 -5.015625 C 1.164062 -5.015625 1.234375 -5.019531 1.296875 -5.03125 C 1.472656 -5.03125 1.644531 -5.023438 1.8125 -5.015625 C 1.976562 -5.003906 2.132812 -4.960938 2.28125 -4.890625 C 2.28125 -4.867188 2.273438 -4.851562 2.265625 -4.84375 C 2.253906 -4.832031 2.238281 -4.820312 2.21875 -4.8125 C 2.175781 -4.789062 2.15625 -4.769531 2.15625 -4.75 C 2.300781 -4.539062 2.445312 -4.328125 2.59375 -4.109375 C 2.738281 -3.898438 2.882812 -3.691406 3.03125 -3.484375 C 3.300781 -3.085938 3.578125 -2.691406 3.859375 -2.296875 C 4.140625 -1.898438 4.414062 -1.515625 4.6875 -1.140625 C 4.675781 -1.523438 4.671875 -1.910156 4.671875 -2.296875 C 4.671875 -2.691406 4.664062 -3.082031 4.65625 -3.46875 C 4.644531 -3.851562 4.625 -4.238281 4.59375 -4.625 C 4.550781 -4.644531 4.507812 -4.65625 4.46875 -4.65625 C 4.4375 -4.664062 4.40625 -4.671875 4.375 -4.671875 C 4.300781 -4.679688 4.238281 -4.691406 4.1875 -4.703125 C 4.144531 -4.710938 4.117188 -4.753906 4.109375 -4.828125 C 4.109375 -4.910156 4.171875 -4.972656 4.296875 -5.015625 C 4.429688 -5.054688 4.582031 -5.078125 4.75 -5.078125 C 4.882812 -5.085938 5.019531 -5.082031 5.15625 -5.0625 C 5.289062 -5.050781 5.40625 -5.03125 5.5 -5 C 5.59375 -4.96875 5.648438 -4.929688 5.671875 -4.890625 Z M 5.671875 -4.890625 "/></g></g></g></svg>