<svg xmlns="http://www.w3.org/2000/svg" xmlns:xlink="http://www.w3.org/1999/xlink" width="240" zoomAndPan="magnify" viewBox="0 0 180 96.749999" height="129" preserveAspectRatio="xMidYMid meet" version="1.0"><defs><g/></defs><g fill="#000000" fill-opacity="1"><g transform="translate(45.255841, 64.423498)"><g><path d="M 0.609375 0 L 4 -35.109375 L 15.90625 -35.109375 L 19.25 0 L 12.59375 0 L 12.09375 -5.6875 L 7.84375 -5.6875 L 7.4375 0 Z M 8.375 -11.28125 L 11.5625 -11.28125 L 10.015625 -29.140625 L 9.6875 -29.140625 Z M 8.375 -11.28125 "/></g></g></g><g fill="#000000" fill-opacity="1"><g transform="translate(65.079885, 64.423498)"><g><path d="M 1.546875 0 L 1.546875 -35.109375 L 8.578125 -35.109375 L 8.578125 -5.96875 L 15.8125 -5.96875 L 15.8125 0 Z M 1.546875 0 "/></g></g></g><g fill="#000000" fill-opacity="1"><g transform="translate(81.306992, 64.423498)"><g><path d="M 1.546875 0 L 1.546875 -35.109375 L 8.578125 -35.109375 L 8.578125 -5.96875 L 15.8125 -5.96875 L 15.8125 0 Z M 1.546875 0 "/></g></g></g><g fill="#000000" fill-opacity="1"><g transform="translate(97.5341, 64.423498)"><g><path d="M 1.546875 0 L 1.546875 -35.109375 L 15.609375 -35.109375 L 15.609375 -28.328125 L 8.703125 -28.328125 L 8.703125 -21.5 L 15.328125 -21.5 L 15.328125 -14.875 L 8.703125 -14.875 L 8.703125 -6.828125 L 16.0625 -6.828125 L 16.0625 0 Z M 1.546875 0 "/></g></g></g><g fill="#000000" fill-opacity="1"><g transform="translate(114.37432, 64.423498)"><g><path d="M 1.546875 0 L 1.546875 -35.109375 L 8.78125 -35.109375 L 12.015625 -18.3125 L 12.015625 -35.109375 L 18.796875 -35.109375 L 18.796875 0 L 11.9375 0 L 8.421875 -17.578125 L 8.421875 0 Z M 1.546875 0 "/></g></g></g></svg>