<svg xmlns="http://www.w3.org/2000/svg" xmlns:xlink="http://www.w3.org/1999/xlink" width="112" zoomAndPan="magnify" viewBox="0 0 84 81.749997" height="109" preserveAspectRatio="xMidYMid meet" version="1.0"><defs><g/><clipPath id="66c1286ab8"><path d="M 17 0 L 83.871094 0 L 83.871094 81.5 L 17 81.5 Z M 17 0 " clip-rule="nonzero"/></clipPath></defs><g fill="#004aad" fill-opacity="1"><g transform="translate(12.612973, 59.066121)"><g><path d="M 14.53125 0.75 C 11.789062 0.75 9.195312 0.4375 6.75 -0.1875 C 4.300781 -0.8125 2.265625 -1.671875 0.640625 -2.765625 L 0.640625 -12.125 L 11.28125 -12.125 L 11.28125 -11.59375 C 11.28125 -9.675781 12.203125 -8.71875 14.046875 -8.71875 C 15.003906 -8.71875 15.722656 -8.972656 16.203125 -9.484375 C 16.679688 -10.003906 16.921875 -10.816406 16.921875 -11.921875 L 16.921875 -32.671875 L 12.125 -32.671875 L 12.125 -41.390625 L 34.46875 -41.390625 L 34.46875 -32.671875 L 31.8125 -32.671875 L 31.8125 -14.796875 C 31.8125 -9.578125 30.285156 -5.679688 27.234375 -3.109375 C 24.191406 -0.535156 19.957031 0.75 14.53125 0.75 Z M 14.53125 0.75 "/></g></g></g><g clip-path="url(#66c1286ab8)"><path stroke-linecap="butt" transform="matrix(0.318446, 0, 0, 0.318446, 33.137423, 3.503946)" fill="none" stroke-linejoin="miter" d="M 22.850452 147.591518 L 31.204001 147.591518 L 31.204001 72.409571 L 22.850452 72.409571 L 22.850452 44.993737 L 96.19241 44.993737 C 110.55659 44.993737 121.510657 48.097184 129.066878 54.291814 C 136.659899 60.46191 140.450276 70.459183 140.450276 84.271367 C 140.450276 98.095817 136.659899 108.080823 129.066878 114.263186 C 121.510657 120.433282 110.55659 123.524463 96.19241 123.524463 L 78.001053 123.524463 L 78.001053 147.591518 L 94.033489 147.591518 L 94.033489 174.995087 L 22.850452 174.995087 Z M 83.668219 99.81314 C 90.10818 99.81314 93.334294 96.255828 93.334294 89.128937 L 93.334294 83.093774 C 93.334294 79.426062 92.536965 76.727412 90.930042 75.010089 C 89.323118 73.280499 86.906599 72.409571 83.668219 72.409571 L 78.001053 72.409571 L 78.001053 99.81314 Z M 83.668219 99.81314 " stroke="#000000" stroke-width="12.53205" stroke-opacity="1" stroke-miterlimit="4"/></g><g fill="#004aad" fill-opacity="1"><g transform="translate(39.347124, 59.232033)"><g><path d="M 1.0625 -8.71875 L 3.71875 -8.71875 L 3.71875 -32.671875 L 1.0625 -32.671875 L 1.0625 -41.390625 L 24.421875 -41.390625 C 28.992188 -41.390625 32.484375 -40.40625 34.890625 -38.4375 C 37.304688 -36.46875 38.515625 -33.285156 38.515625 -28.890625 C 38.515625 -24.492188 37.304688 -21.3125 34.890625 -19.34375 C 32.484375 -17.375 28.992188 -16.390625 24.421875 -16.390625 L 18.625 -16.390625 L 18.625 -8.71875 L 23.734375 -8.71875 L 23.734375 0 L 1.0625 0 Z M 20.4375 -23.9375 C 22.488281 -23.9375 23.515625 -25.070312 23.515625 -27.34375 L 23.515625 -29.265625 C 23.515625 -30.429688 23.253906 -31.289062 22.734375 -31.84375 C 22.222656 -32.394531 21.457031 -32.671875 20.4375 -32.671875 L 18.625 -32.671875 L 18.625 -23.9375 Z M 20.4375 -23.9375 "/></g></g></g><g fill="#004aad" fill-opacity="1"><g transform="translate(1.0505, 71.04232)"><g><path d="M 1.484375 0.0625 C 1.117188 0.0625 0.816406 -0.00390625 0.578125 -0.140625 C 0.347656 -0.273438 0.175781 -0.457031 0.0625 -0.6875 L 0.546875 -1.265625 L 0.609375 -1.265625 C 0.691406 -1.078125 0.800781 -0.929688 0.9375 -0.828125 C 1.082031 -0.722656 1.25 -0.671875 1.4375 -0.671875 C 1.644531 -0.671875 1.800781 -0.726562 1.90625 -0.84375 C 2.007812 -0.96875 2.0625 -1.171875 2.0625 -1.453125 L 2.0625 -4.234375 L 2.890625 -4.234375 L 2.890625 -1.4375 C 2.890625 -0.925781 2.773438 -0.546875 2.546875 -0.296875 C 2.316406 -0.0546875 1.960938 0.0625 1.484375 0.0625 Z M 1.484375 0.0625 "/></g></g></g><g fill="#004aad" fill-opacity="1"><g transform="translate(5.127421, 71.04232)"><g><path d="M 2.3125 0.0625 C 1.925781 0.0625 1.582031 -0.015625 1.28125 -0.171875 C 0.988281 -0.335938 0.753906 -0.582031 0.578125 -0.90625 C 0.410156 -1.226562 0.328125 -1.632812 0.328125 -2.125 C 0.328125 -2.601562 0.410156 -3.003906 0.578125 -3.328125 C 0.753906 -3.660156 0.988281 -3.90625 1.28125 -4.0625 C 1.582031 -4.21875 1.925781 -4.296875 2.3125 -4.296875 C 2.695312 -4.296875 3.035156 -4.21875 3.328125 -4.0625 C 3.628906 -3.90625 3.863281 -3.660156 4.03125 -3.328125 C 4.195312 -3.003906 4.28125 -2.601562 4.28125 -2.125 C 4.28125 -1.632812 4.195312 -1.222656 4.03125 -0.890625 C 3.863281 -0.566406 3.628906 -0.328125 3.328125 -0.171875 C 3.035156 -0.015625 2.695312 0.0625 2.3125 0.0625 Z M 2.3125 -0.671875 C 2.664062 -0.671875 2.9375 -0.785156 3.125 -1.015625 C 3.320312 -1.242188 3.421875 -1.613281 3.421875 -2.125 C 3.421875 -2.625 3.320312 -2.988281 3.125 -3.21875 C 2.9375 -3.457031 2.664062 -3.578125 2.3125 -3.578125 C 1.945312 -3.578125 1.671875 -3.457031 1.484375 -3.21875 C 1.296875 -2.988281 1.203125 -2.625 1.203125 -2.125 C 1.203125 -1.613281 1.296875 -1.242188 1.484375 -1.015625 C 1.671875 -0.785156 1.945312 -0.671875 2.3125 -0.671875 Z M 2.3125 -0.671875 "/></g></g></g><g fill="#004aad" fill-opacity="1"><g transform="translate(10.402408, 71.04232)"><g><path d="M 1.359375 0 L 0.546875 0 L 0.546875 -4.234375 L 1.515625 -4.234375 L 3.21875 -1.5 L 3.28125 -1.515625 L 3.28125 -4.234375 L 4.09375 -4.234375 L 4.09375 0 L 3.234375 0 L 1.4375 -2.921875 L 1.359375 -2.90625 Z M 1.359375 0 "/></g></g></g><g fill="#004aad" fill-opacity="1"><g transform="translate(15.706404, 71.04232)"><g><path d="M 4.0625 0 L 3.1875 0 L 2.875 -0.984375 L 1.25 -0.984375 L 0.921875 0 L 0.0625 0 L 1.53125 -4.234375 L 2.609375 -4.234375 Z M 2.015625 -3.359375 L 1.46875 -1.6875 L 2.640625 -1.6875 L 2.09375 -3.359375 Z M 2.015625 -3.359375 "/></g></g></g><g fill="#004aad" fill-opacity="1"><g transform="translate(20.494042, 71.04232)"><g><path d="M 3.390625 -4.234375 L 3.390625 -3.53125 L 2.171875 -3.53125 L 2.171875 0 L 1.34375 0 L 1.34375 -3.53125 L 0.109375 -3.53125 L 0.109375 -4.234375 Z M 3.390625 -4.234375 "/></g></g></g><g fill="#004aad" fill-opacity="1"><g transform="translate(24.663792, 71.04232)"><g><path d="M 3.28125 -2.640625 L 3.28125 -4.234375 L 4.125 -4.234375 L 4.125 0 L 3.28125 0 L 3.28125 -1.9375 L 1.390625 -1.9375 L 1.390625 0 L 0.546875 0 L 0.546875 -4.234375 L 1.390625 -4.234375 L 1.390625 -2.640625 Z M 3.28125 -2.640625 "/></g></g></g><g fill="#004aad" fill-opacity="1"><g transform="translate(29.996797, 71.04232)"><g><path d="M 4.0625 0 L 3.1875 0 L 2.875 -0.984375 L 1.25 -0.984375 L 0.921875 0 L 0.0625 0 L 1.53125 -4.234375 L 2.609375 -4.234375 Z M 2.015625 -3.359375 L 1.46875 -1.6875 L 2.640625 -1.6875 L 2.09375 -3.359375 Z M 2.015625 -3.359375 "/></g></g></g><g fill="#004aad" fill-opacity="1"><g transform="translate(34.784435, 71.04232)"><g><path d="M 1.359375 0 L 0.546875 0 L 0.546875 -4.234375 L 1.515625 -4.234375 L 3.21875 -1.5 L 3.28125 -1.515625 L 3.28125 -4.234375 L 4.09375 -4.234375 L 4.09375 0 L 3.234375 0 L 1.4375 -2.921875 L 1.359375 -2.90625 Z M 1.359375 0 "/></g></g></g><g fill="#004aad" fill-opacity="1"><g transform="translate(40.088431, 71.04232)"><g/></g></g><g fill="#004aad" fill-opacity="1"><g transform="translate(42.143433, 71.04232)"><g><path d="M 2.1875 -4.234375 C 2.488281 -4.234375 2.75 -4.175781 2.96875 -4.0625 C 3.1875 -3.957031 3.347656 -3.804688 3.453125 -3.609375 C 3.566406 -3.410156 3.625 -3.175781 3.625 -2.90625 C 3.625 -2.644531 3.566406 -2.410156 3.453125 -2.203125 C 3.347656 -2.003906 3.1875 -1.847656 2.96875 -1.734375 C 2.75 -1.628906 2.488281 -1.578125 2.1875 -1.578125 L 1.390625 -1.578125 L 1.390625 0 L 0.546875 0 L 0.546875 -4.234375 Z M 2.078125 -2.25 C 2.546875 -2.25 2.78125 -2.46875 2.78125 -2.90625 C 2.78125 -3.351562 2.546875 -3.578125 2.078125 -3.578125 L 1.390625 -3.578125 L 1.390625 -2.25 Z M 2.078125 -2.25 "/></g></g></g><g fill="#004aad" fill-opacity="1"><g transform="translate(46.672895, 71.04232)"><g><path d="M 4.0625 0 L 3.1875 0 L 2.875 -0.984375 L 1.25 -0.984375 L 0.921875 0 L 0.0625 0 L 1.53125 -4.234375 L 2.609375 -4.234375 Z M 2.015625 -3.359375 L 1.46875 -1.6875 L 2.640625 -1.6875 L 2.09375 -3.359375 Z M 2.015625 -3.359375 "/></g></g></g><g fill="#004aad" fill-opacity="1"><g transform="translate(51.460531, 71.04232)"><g><path d="M 3.390625 -4.234375 L 3.390625 -3.53125 L 2.171875 -3.53125 L 2.171875 0 L 1.34375 0 L 1.34375 -3.53125 L 0.109375 -3.53125 L 0.109375 -4.234375 Z M 3.390625 -4.234375 "/></g></g></g><g fill="#004aad" fill-opacity="1"><g transform="translate(55.630283, 71.04232)"><g><path d="M 3.390625 -4.234375 L 3.390625 -3.53125 L 2.171875 -3.53125 L 2.171875 0 L 1.34375 0 L 1.34375 -3.53125 L 0.109375 -3.53125 L 0.109375 -4.234375 Z M 3.390625 -4.234375 "/></g></g></g><g fill="#004aad" fill-opacity="1"><g transform="translate(59.800036, 71.04232)"><g><path d="M 1.390625 -1.859375 L 1.390625 -0.703125 L 3.40625 -0.703125 L 3.40625 0 L 0.546875 0 L 0.546875 -4.234375 L 3.359375 -4.234375 L 3.359375 -3.53125 L 1.390625 -3.53125 L 1.390625 -2.546875 L 3.109375 -2.546875 L 3.109375 -1.859375 Z M 1.390625 -1.859375 "/></g></g></g><g fill="#004aad" fill-opacity="1"><g transform="translate(64.100323, 71.04232)"><g><path d="M 0.546875 0 L 0.546875 -4.234375 L 2.25 -4.234375 C 2.6875 -4.234375 3.015625 -4.128906 3.234375 -3.921875 C 3.460938 -3.722656 3.578125 -3.445312 3.578125 -3.09375 C 3.578125 -2.84375 3.507812 -2.632812 3.375 -2.46875 C 3.25 -2.300781 3.054688 -2.175781 2.796875 -2.09375 L 2.796875 -2.03125 C 2.929688 -1.96875 3.039062 -1.878906 3.125 -1.765625 C 3.207031 -1.648438 3.285156 -1.484375 3.359375 -1.265625 L 3.78125 0 L 2.921875 0 L 2.5 -1.265625 C 2.457031 -1.390625 2.410156 -1.488281 2.359375 -1.5625 C 2.304688 -1.632812 2.238281 -1.6875 2.15625 -1.71875 C 2.070312 -1.75 1.96875 -1.765625 1.84375 -1.765625 L 1.390625 -1.765625 L 1.390625 0 Z M 2.15625 -2.421875 C 2.5625 -2.421875 2.765625 -2.613281 2.765625 -3 C 2.765625 -3.382812 2.5625 -3.578125 2.15625 -3.578125 L 1.390625 -3.578125 L 1.390625 -2.421875 Z M 2.15625 -2.421875 "/></g></g></g><g fill="#004aad" fill-opacity="1"><g transform="translate(68.719707, 71.04232)"><g><path d="M 1.875 0.0625 C 1.582031 0.0625 1.320312 0.0234375 1.09375 -0.046875 C 0.863281 -0.117188 0.671875 -0.210938 0.515625 -0.328125 C 0.367188 -0.453125 0.253906 -0.582031 0.171875 -0.71875 L 0.625 -1.28125 L 0.703125 -1.28125 C 0.828125 -1.09375 0.988281 -0.941406 1.1875 -0.828125 C 1.382812 -0.710938 1.613281 -0.65625 1.875 -0.65625 C 2.101562 -0.65625 2.273438 -0.703125 2.390625 -0.796875 C 2.503906 -0.898438 2.5625 -1.035156 2.5625 -1.203125 C 2.5625 -1.296875 2.539062 -1.375 2.5 -1.4375 C 2.46875 -1.507812 2.40625 -1.570312 2.3125 -1.625 C 2.226562 -1.675781 2.113281 -1.71875 1.96875 -1.75 L 1.421875 -1.875 C 1.046875 -1.957031 0.765625 -2.097656 0.578125 -2.296875 C 0.390625 -2.503906 0.296875 -2.769531 0.296875 -3.09375 C 0.296875 -3.332031 0.351562 -3.539062 0.46875 -3.71875 C 0.59375 -3.90625 0.769531 -4.046875 1 -4.140625 C 1.226562 -4.242188 1.503906 -4.296875 1.828125 -4.296875 C 2.148438 -4.296875 2.425781 -4.253906 2.65625 -4.171875 C 2.894531 -4.085938 3.09375 -3.957031 3.25 -3.78125 L 2.84375 -3.203125 L 2.765625 -3.203125 C 2.648438 -3.328125 2.515625 -3.421875 2.359375 -3.484375 C 2.203125 -3.546875 2.023438 -3.578125 1.828125 -3.578125 C 1.597656 -3.578125 1.421875 -3.535156 1.296875 -3.453125 C 1.179688 -3.378906 1.125 -3.269531 1.125 -3.125 C 1.125 -2.988281 1.164062 -2.878906 1.25 -2.796875 C 1.332031 -2.722656 1.476562 -2.664062 1.6875 -2.625 L 2.234375 -2.5 C 2.648438 -2.414062 2.945312 -2.269531 3.125 -2.0625 C 3.3125 -1.851562 3.40625 -1.582031 3.40625 -1.25 C 3.40625 -0.988281 3.347656 -0.757812 3.234375 -0.5625 C 3.117188 -0.363281 2.945312 -0.207031 2.71875 -0.09375 C 2.488281 0.0078125 2.207031 0.0625 1.875 0.0625 Z M 1.875 0.0625 "/></g></g></g><g fill="#004aad" fill-opacity="1"><g transform="translate(73.017099, 71.04232)"><g><path d="M 2.3125 0.0625 C 1.925781 0.0625 1.582031 -0.015625 1.28125 -0.171875 C 0.988281 -0.335938 0.753906 -0.582031 0.578125 -0.90625 C 0.410156 -1.226562 0.328125 -1.632812 0.328125 -2.125 C 0.328125 -2.601562 0.410156 -3.003906 0.578125 -3.328125 C 0.753906 -3.660156 0.988281 -3.90625 1.28125 -4.0625 C 1.582031 -4.21875 1.925781 -4.296875 2.3125 -4.296875 C 2.695312 -4.296875 3.035156 -4.21875 3.328125 -4.0625 C 3.628906 -3.90625 3.863281 -3.660156 4.03125 -3.328125 C 4.195312 -3.003906 4.28125 -2.601562 4.28125 -2.125 C 4.28125 -1.632812 4.195312 -1.222656 4.03125 -0.890625 C 3.863281 -0.566406 3.628906 -0.328125 3.328125 -0.171875 C 3.035156 -0.015625 2.695312 0.0625 2.3125 0.0625 Z M 2.3125 -0.671875 C 2.664062 -0.671875 2.9375 -0.785156 3.125 -1.015625 C 3.320312 -1.242188 3.421875 -1.613281 3.421875 -2.125 C 3.421875 -2.625 3.320312 -2.988281 3.125 -3.21875 C 2.9375 -3.457031 2.664062 -3.578125 2.3125 -3.578125 C 1.945312 -3.578125 1.671875 -3.457031 1.484375 -3.21875 C 1.296875 -2.988281 1.203125 -2.625 1.203125 -2.125 C 1.203125 -1.613281 1.296875 -1.242188 1.484375 -1.015625 C 1.671875 -0.785156 1.945312 -0.671875 2.3125 -0.671875 Z M 2.3125 -0.671875 "/></g></g></g><g fill="#004aad" fill-opacity="1"><g transform="translate(78.292083, 71.04232)"><g><path d="M 1.359375 0 L 0.546875 0 L 0.546875 -4.234375 L 1.515625 -4.234375 L 3.21875 -1.5 L 3.28125 -1.515625 L 3.28125 -4.234375 L 4.09375 -4.234375 L 4.09375 0 L 3.234375 0 L 1.4375 -2.921875 L 1.359375 -2.90625 Z M 1.359375 0 "/></g></g></g></svg>