<svg xmlns="http://www.w3.org/2000/svg" xmlns:xlink="http://www.w3.org/1999/xlink" width="112" zoomAndPan="magnify" viewBox="0 0 84 81.749997" height="109" preserveAspectRatio="xMidYMid meet" version="1.0"><defs><g/><clipPath id="0788ba1582"><path d="M 64 34 L 71 34 L 71 41 L 64 41 Z M 64 34 " clip-rule="nonzero"/></clipPath><clipPath id="2c6490ed66"><path d="M 63.75 35.300781 L 68.144531 31.238281 L 74.234375 37.828125 L 69.839844 41.890625 Z M 63.75 35.300781 " clip-rule="nonzero"/></clipPath><clipPath id="250deaccac"><path d="M 63.75 35.300781 L 68.144531 31.238281 L 74.234375 37.828125 L 69.839844 41.890625 Z M 63.75 35.300781 " clip-rule="nonzero"/></clipPath><clipPath id="9eda674929"><path d="M 68 31 L 75 31 L 75 38 L 68 38 Z M 68 31 " clip-rule="nonzero"/></clipPath><clipPath id="cbc100fa1c"><path d="M 66.804688 32.480469 L 71.195312 28.417969 L 77.285156 35.007812 L 72.894531 39.066406 Z M 66.804688 32.480469 " clip-rule="nonzero"/></clipPath><clipPath id="9ce3b9d9ab"><path d="M 66.804688 32.480469 L 71.195312 28.417969 L 77.285156 35.007812 L 72.894531 39.066406 Z M 66.804688 32.480469 " clip-rule="nonzero"/></clipPath></defs><g clip-path="url(#0788ba1582)"><g clip-path="url(#2c6490ed66)"><g clip-path="url(#250deaccac)"><path fill="#18cb96" d="M 70.957031 34.59375 L 65.804688 34.367188 C 64.808594 34.320312 64.640625 36.261719 65.820312 36.292969 L 69.027344 36.378906 L 68.78125 39.605469 C 68.707031 40.585938 70.621094 40.691406 70.675781 39.691406 Z M 70.957031 34.59375 " fill-opacity="1" fill-rule="nonzero"/></g></g></g><g clip-path="url(#9eda674929)"><g clip-path="url(#cbc100fa1c)"><g clip-path="url(#9ce3b9d9ab)"><path fill="#18cb96" d="M 74.007812 31.773438 L 68.855469 31.546875 C 67.859375 31.5 67.691406 33.4375 68.871094 33.472656 L 72.078125 33.558594 L 71.832031 36.785156 C 71.757812 37.765625 73.675781 37.871094 73.730469 36.871094 Z M 74.007812 31.773438 " fill-opacity="1" fill-rule="nonzero"/></g></g></g><g fill="#373643" fill-opacity="1"><g transform="translate(16.009819, 45.712085)"><g><path d="M 4.390625 -1.359375 C 4.679688 -1.359375 4.96875 -1.398438 5.25 -1.484375 C 5.539062 -1.566406 5.8125 -1.707031 6.0625 -1.90625 C 6.289062 -2.113281 6.519531 -2.207031 6.75 -2.1875 C 6.976562 -2.175781 7.164062 -2.097656 7.3125 -1.953125 C 7.457031 -1.804688 7.53125 -1.625 7.53125 -1.40625 C 7.53125 -1.1875 7.425781 -0.972656 7.21875 -0.765625 C 6.851562 -0.421875 6.425781 -0.175781 5.9375 -0.03125 C 5.445312 0.101562 4.945312 0.164062 4.4375 0.15625 C 3.632812 0.15625 2.925781 -0.00390625 2.3125 -0.328125 C 1.707031 -0.660156 1.234375 -1.117188 0.890625 -1.703125 C 0.554688 -2.285156 0.390625 -2.960938 0.390625 -3.734375 C 0.390625 -4.566406 0.550781 -5.300781 0.875 -5.9375 C 1.195312 -6.570312 1.65625 -7.066406 2.25 -7.421875 C 2.851562 -7.785156 3.566406 -7.96875 4.390625 -7.96875 C 5.203125 -7.96875 5.894531 -7.800781 6.46875 -7.46875 C 7.039062 -7.132812 7.476562 -6.664062 7.78125 -6.0625 C 8.082031 -5.46875 8.234375 -4.769531 8.234375 -3.96875 C 8.234375 -3.71875 8.179688 -3.5 8.078125 -3.3125 C 7.984375 -3.132812 7.710938 -3.046875 7.265625 -3.046875 L 2.15625 -3.046875 C 2.300781 -2.546875 2.570312 -2.140625 2.96875 -1.828125 C 3.375 -1.515625 3.847656 -1.359375 4.390625 -1.359375 Z M 4.40625 -6.4375 C 3.8125 -6.4375 3.3125 -6.25 2.90625 -5.875 C 2.507812 -5.507812 2.253906 -5.023438 2.140625 -4.421875 L 6.609375 -4.421875 C 6.554688 -5.023438 6.359375 -5.507812 6.015625 -5.875 C 5.671875 -6.25 5.132812 -6.4375 4.40625 -6.4375 Z M 4.40625 -6.4375 "/></g></g></g><g fill="#373643" fill-opacity="1"><g transform="translate(24.926162, 45.712085)"><g><path d="M 2.28125 -0.765625 C 2.28125 -0.554688 2.195312 -0.375 2.03125 -0.21875 C 1.863281 -0.0703125 1.65625 0 1.40625 0 C 1.15625 0 0.945312 -0.0703125 0.78125 -0.21875 C 0.613281 -0.375 0.53125 -0.554688 0.53125 -0.765625 L 0.53125 -9.15625 C 0.53125 -9.363281 0.613281 -9.539062 0.78125 -9.6875 C 0.945312 -9.84375 1.15625 -9.921875 1.40625 -9.921875 C 1.65625 -9.921875 1.863281 -9.84375 2.03125 -9.6875 C 2.195312 -9.539062 2.28125 -9.363281 2.28125 -9.15625 Z M 2.28125 -0.765625 "/></g></g></g><g fill="#373643" fill-opacity="1"><g transform="translate(27.442897, 45.712085)"><g><path d="M 4.390625 -1.359375 C 4.679688 -1.359375 4.96875 -1.398438 5.25 -1.484375 C 5.539062 -1.566406 5.8125 -1.707031 6.0625 -1.90625 C 6.289062 -2.113281 6.519531 -2.207031 6.75 -2.1875 C 6.976562 -2.175781 7.164062 -2.097656 7.3125 -1.953125 C 7.457031 -1.804688 7.53125 -1.625 7.53125 -1.40625 C 7.53125 -1.1875 7.425781 -0.972656 7.21875 -0.765625 C 6.851562 -0.421875 6.425781 -0.175781 5.9375 -0.03125 C 5.445312 0.101562 4.945312 0.164062 4.4375 0.15625 C 3.632812 0.15625 2.925781 -0.00390625 2.3125 -0.328125 C 1.707031 -0.660156 1.234375 -1.117188 0.890625 -1.703125 C 0.554688 -2.285156 0.390625 -2.960938 0.390625 -3.734375 C 0.390625 -4.566406 0.550781 -5.300781 0.875 -5.9375 C 1.195312 -6.570312 1.65625 -7.066406 2.25 -7.421875 C 2.851562 -7.785156 3.566406 -7.96875 4.390625 -7.96875 C 5.203125 -7.96875 5.894531 -7.800781 6.46875 -7.46875 C 7.039062 -7.132812 7.476562 -6.664062 7.78125 -6.0625 C 8.082031 -5.46875 8.234375 -4.769531 8.234375 -3.96875 C 8.234375 -3.71875 8.179688 -3.5 8.078125 -3.3125 C 7.984375 -3.132812 7.710938 -3.046875 7.265625 -3.046875 L 2.15625 -3.046875 C 2.300781 -2.546875 2.570312 -2.140625 2.96875 -1.828125 C 3.375 -1.515625 3.847656 -1.359375 4.390625 -1.359375 Z M 4.40625 -6.4375 C 3.8125 -6.4375 3.3125 -6.25 2.90625 -5.875 C 2.507812 -5.507812 2.253906 -5.023438 2.140625 -4.421875 L 6.609375 -4.421875 C 6.554688 -5.023438 6.359375 -5.507812 6.015625 -5.875 C 5.671875 -6.25 5.132812 -6.4375 4.40625 -6.4375 Z M 4.40625 -6.4375 "/></g></g></g><g fill="#373643" fill-opacity="1"><g transform="translate(36.359239, 45.712085)"><g><path d="M 0.015625 -6.65625 C -0.0546875 -6.863281 -0.0625 -7.050781 0 -7.21875 C 0.0703125 -7.394531 0.1875 -7.535156 0.34375 -7.640625 C 0.5 -7.753906 0.664062 -7.8125 0.84375 -7.8125 C 1.03125 -7.8125 1.191406 -7.757812 1.328125 -7.65625 C 1.460938 -7.5625 1.566406 -7.429688 1.640625 -7.265625 L 3.984375 -2.515625 L 6.34375 -7.28125 C 6.425781 -7.46875 6.539062 -7.601562 6.6875 -7.6875 C 6.84375 -7.769531 7.003906 -7.8125 7.171875 -7.8125 C 7.347656 -7.8125 7.507812 -7.757812 7.65625 -7.65625 C 7.8125 -7.5625 7.914062 -7.429688 7.96875 -7.265625 C 8.03125 -7.097656 8.003906 -6.898438 7.890625 -6.671875 L 4.75 -0.328125 C 4.6875 -0.191406 4.582031 -0.078125 4.4375 0.015625 C 4.289062 0.109375 4.128906 0.15625 3.953125 0.15625 C 3.617188 0.15625 3.363281 0.00390625 3.1875 -0.296875 Z M 0.015625 -6.65625 "/></g></g></g><g fill="#373643" fill-opacity="1"><g transform="translate(44.293388, 45.712085)"><g><path d="M 7.140625 -7.8125 C 7.398438 -7.8125 7.609375 -7.734375 7.765625 -7.578125 C 7.929688 -7.429688 8.015625 -7.242188 8.015625 -7.015625 L 8.015625 -0.796875 C 8.015625 -0.554688 7.929688 -0.363281 7.765625 -0.21875 C 7.609375 -0.0703125 7.398438 0 7.140625 0 C 6.878906 0 6.675781 -0.0546875 6.53125 -0.171875 C 6.394531 -0.296875 6.3125 -0.453125 6.28125 -0.640625 C 5.925781 -0.367188 5.535156 -0.164062 5.109375 -0.03125 C 4.679688 0.09375 4.269531 0.15625 3.875 0.15625 C 3.144531 0.15625 2.507812 -0.0078125 1.96875 -0.34375 C 1.4375 -0.6875 1.023438 -1.164062 0.734375 -1.78125 C 0.453125 -2.394531 0.3125 -3.109375 0.3125 -3.921875 C 0.3125 -4.722656 0.46875 -5.425781 0.78125 -6.03125 C 1.101562 -6.632812 1.546875 -7.109375 2.109375 -7.453125 C 2.679688 -7.796875 3.335938 -7.96875 4.078125 -7.96875 C 4.410156 -7.96875 4.773438 -7.90625 5.171875 -7.78125 C 5.566406 -7.65625 5.9375 -7.460938 6.28125 -7.203125 C 6.320312 -7.378906 6.410156 -7.523438 6.546875 -7.640625 C 6.691406 -7.753906 6.890625 -7.8125 7.140625 -7.8125 Z M 4.0625 -1.390625 C 4.507812 -1.390625 4.941406 -1.488281 5.359375 -1.6875 C 5.785156 -1.894531 6.085938 -2.191406 6.265625 -2.578125 L 6.265625 -5.234375 C 6.066406 -5.609375 5.769531 -5.894531 5.375 -6.09375 C 4.988281 -6.300781 4.597656 -6.40625 4.203125 -6.40625 C 3.554688 -6.40625 3.035156 -6.171875 2.640625 -5.703125 C 2.253906 -5.234375 2.0625 -4.632812 2.0625 -3.90625 C 2.0625 -3.15625 2.242188 -2.546875 2.609375 -2.078125 C 2.972656 -1.617188 3.457031 -1.390625 4.0625 -1.390625 Z M 4.0625 -1.390625 "/></g></g></g><g fill="#373643" fill-opacity="1"><g transform="translate(53.16369, 45.712085)"><g><path d="M 4.21875 -1.453125 C 4.457031 -1.585938 4.671875 -1.632812 4.859375 -1.59375 C 5.046875 -1.550781 5.195312 -1.460938 5.3125 -1.328125 C 5.4375 -1.191406 5.5 -1.03125 5.5 -0.84375 C 5.5 -0.707031 5.457031 -0.570312 5.375 -0.4375 C 5.289062 -0.3125 5.160156 -0.203125 4.984375 -0.109375 C 4.765625 0.015625 4.5625 0.0859375 4.375 0.109375 C 4.1875 0.140625 3.972656 0.15625 3.734375 0.15625 C 3.066406 0.15625 2.550781 0.0195312 2.1875 -0.25 C 1.832031 -0.53125 1.585938 -0.890625 1.453125 -1.328125 C 1.328125 -1.773438 1.265625 -2.242188 1.265625 -2.734375 L 1.265625 -6.359375 L 0.671875 -6.359375 C 0.390625 -6.359375 0.175781 -6.429688 0.03125 -6.578125 C -0.101562 -6.734375 -0.171875 -6.898438 -0.171875 -7.078125 C -0.171875 -7.253906 -0.0976562 -7.421875 0.046875 -7.578125 C 0.191406 -7.734375 0.398438 -7.8125 0.671875 -7.8125 L 1.265625 -7.8125 L 1.265625 -9.125 C 1.265625 -9.394531 1.347656 -9.59375 1.515625 -9.71875 C 1.691406 -9.851562 1.894531 -9.921875 2.125 -9.921875 C 2.332031 -9.921875 2.523438 -9.851562 2.703125 -9.71875 C 2.890625 -9.59375 2.984375 -9.394531 2.984375 -9.125 L 2.984375 -7.8125 L 4.1875 -7.8125 C 4.457031 -7.8125 4.660156 -7.734375 4.796875 -7.578125 C 4.941406 -7.421875 5.015625 -7.253906 5.015625 -7.078125 C 5.015625 -6.890625 4.941406 -6.722656 4.796875 -6.578125 C 4.660156 -6.429688 4.457031 -6.359375 4.1875 -6.359375 L 2.984375 -6.359375 L 2.984375 -2.734375 C 2.984375 -2.503906 3 -2.285156 3.03125 -2.078125 C 3.0625 -1.867188 3.128906 -1.691406 3.234375 -1.546875 C 3.347656 -1.410156 3.515625 -1.34375 3.734375 -1.34375 C 3.804688 -1.34375 3.890625 -1.351562 3.984375 -1.375 C 4.085938 -1.40625 4.164062 -1.429688 4.21875 -1.453125 Z M 4.21875 -1.453125 "/></g></g></g><g fill="#373643" fill-opacity="1"><g transform="translate(58.488886, 45.712085)"><g><path d="M 4.390625 -1.359375 C 4.679688 -1.359375 4.96875 -1.398438 5.25 -1.484375 C 5.539062 -1.566406 5.8125 -1.707031 6.0625 -1.90625 C 6.289062 -2.113281 6.519531 -2.207031 6.75 -2.1875 C 6.976562 -2.175781 7.164062 -2.097656 7.3125 -1.953125 C 7.457031 -1.804688 7.53125 -1.625 7.53125 -1.40625 C 7.53125 -1.1875 7.425781 -0.972656 7.21875 -0.765625 C 6.851562 -0.421875 6.425781 -0.175781 5.9375 -0.03125 C 5.445312 0.101562 4.945312 0.164062 4.4375 0.15625 C 3.632812 0.15625 2.925781 -0.00390625 2.3125 -0.328125 C 1.707031 -0.660156 1.234375 -1.117188 0.890625 -1.703125 C 0.554688 -2.285156 0.390625 -2.960938 0.390625 -3.734375 C 0.390625 -4.566406 0.550781 -5.300781 0.875 -5.9375 C 1.195312 -6.570312 1.65625 -7.066406 2.25 -7.421875 C 2.851562 -7.785156 3.566406 -7.96875 4.390625 -7.96875 C 5.203125 -7.96875 5.894531 -7.800781 6.46875 -7.46875 C 7.039062 -7.132812 7.476562 -6.664062 7.78125 -6.0625 C 8.082031 -5.46875 8.234375 -4.769531 8.234375 -3.96875 C 8.234375 -3.71875 8.179688 -3.5 8.078125 -3.3125 C 7.984375 -3.132812 7.710938 -3.046875 7.265625 -3.046875 L 2.15625 -3.046875 C 2.300781 -2.546875 2.570312 -2.140625 2.96875 -1.828125 C 3.375 -1.515625 3.847656 -1.359375 4.390625 -1.359375 Z M 4.40625 -6.4375 C 3.8125 -6.4375 3.3125 -6.25 2.90625 -5.875 C 2.507812 -5.507812 2.253906 -5.023438 2.140625 -4.421875 L 6.609375 -4.421875 C 6.554688 -5.023438 6.359375 -5.507812 6.015625 -5.875 C 5.671875 -6.25 5.132812 -6.4375 4.40625 -6.4375 Z M 4.40625 -6.4375 "/></g></g></g><g fill="#373643" fill-opacity="1"><g transform="translate(16.508881, 51.697272)"><g><path d="M 3.5 -2.671875 C 3.789062 -2.671875 4.03125 -2.570312 4.21875 -2.375 C 4.414062 -2.1875 4.515625 -1.90625 4.515625 -1.53125 L 4.515625 0 L 4.296875 0 L 4.296875 -1.515625 C 4.296875 -1.828125 4.222656 -2.066406 4.078125 -2.234375 C 3.929688 -2.398438 3.726562 -2.484375 3.46875 -2.484375 C 3.195312 -2.484375 2.976562 -2.390625 2.8125 -2.203125 C 2.644531 -2.015625 2.5625 -1.742188 2.5625 -1.390625 L 2.5625 0 L 2.34375 0 L 2.34375 -1.515625 C 2.34375 -1.828125 2.269531 -2.066406 2.125 -2.234375 C 1.976562 -2.398438 1.773438 -2.484375 1.515625 -2.484375 C 1.242188 -2.484375 1.023438 -2.390625 0.859375 -2.203125 C 0.691406 -2.015625 0.609375 -1.742188 0.609375 -1.390625 L 0.609375 0 L 0.390625 0 L 0.390625 -2.625 L 0.609375 -2.625 L 0.609375 -2.046875 C 0.679688 -2.253906 0.800781 -2.410156 0.96875 -2.515625 C 1.132812 -2.617188 1.328125 -2.671875 1.546875 -2.671875 C 1.785156 -2.671875 1.988281 -2.609375 2.15625 -2.484375 C 2.332031 -2.359375 2.453125 -2.175781 2.515625 -1.9375 C 2.578125 -2.175781 2.695312 -2.359375 2.875 -2.484375 C 3.050781 -2.609375 3.257812 -2.671875 3.5 -2.671875 Z M 3.5 -2.671875 "/></g></g></g><g fill="#373643" fill-opacity="1"><g transform="translate(21.216051, 51.697272)"><g><path d="M 0.265625 -1.3125 C 0.265625 -1.582031 0.316406 -1.816406 0.421875 -2.015625 C 0.523438 -2.222656 0.671875 -2.378906 0.859375 -2.484375 C 1.054688 -2.597656 1.28125 -2.65625 1.53125 -2.65625 C 1.800781 -2.65625 2.03125 -2.585938 2.21875 -2.453125 C 2.414062 -2.316406 2.554688 -2.144531 2.640625 -1.9375 L 2.640625 -2.625 L 2.859375 -2.625 L 2.859375 0 L 2.640625 0 L 2.640625 -0.6875 C 2.554688 -0.476562 2.414062 -0.304688 2.21875 -0.171875 C 2.03125 -0.0351562 1.800781 0.03125 1.53125 0.03125 C 1.28125 0.03125 1.054688 -0.0195312 0.859375 -0.125 C 0.671875 -0.238281 0.523438 -0.394531 0.421875 -0.59375 C 0.316406 -0.800781 0.265625 -1.039062 0.265625 -1.3125 Z M 2.640625 -1.3125 C 2.640625 -1.539062 2.585938 -1.742188 2.484375 -1.921875 C 2.390625 -2.097656 2.257812 -2.234375 2.09375 -2.328125 C 1.9375 -2.421875 1.753906 -2.46875 1.546875 -2.46875 C 1.335938 -2.46875 1.148438 -2.421875 0.984375 -2.328125 C 0.828125 -2.234375 0.703125 -2.097656 0.609375 -1.921875 C 0.523438 -1.753906 0.484375 -1.550781 0.484375 -1.3125 C 0.484375 -1.070312 0.523438 -0.863281 0.609375 -0.6875 C 0.703125 -0.519531 0.828125 -0.390625 0.984375 -0.296875 C 1.148438 -0.203125 1.335938 -0.15625 1.546875 -0.15625 C 1.753906 -0.15625 1.941406 -0.203125 2.109375 -0.296875 C 2.273438 -0.390625 2.40625 -0.523438 2.5 -0.703125 C 2.59375 -0.878906 2.640625 -1.082031 2.640625 -1.3125 Z M 2.640625 -1.3125 "/></g></g></g><g fill="#373643" fill-opacity="1"><g transform="translate(24.281732, 51.697272)"><g><path d="M 0.609375 -2.078125 C 0.671875 -2.273438 0.785156 -2.421875 0.953125 -2.515625 C 1.117188 -2.617188 1.328125 -2.671875 1.578125 -2.671875 L 1.578125 -2.453125 L 1.515625 -2.453125 C 1.253906 -2.453125 1.035156 -2.378906 0.859375 -2.234375 C 0.691406 -2.085938 0.609375 -1.847656 0.609375 -1.515625 L 0.609375 0 L 0.390625 0 L 0.390625 -2.625 L 0.609375 -2.625 Z M 0.609375 -2.078125 "/></g></g></g><g fill="#373643" fill-opacity="1"><g transform="translate(25.787993, 51.697272)"><g><path d="M 1.75 0 L 0.609375 -1.203125 L 0.609375 0 L 0.390625 0 L 0.390625 -3.578125 L 0.609375 -3.578125 L 0.609375 -1.4375 L 1.734375 -2.625 L 2.046875 -2.625 L 0.765625 -1.3125 L 2.0625 0 Z M 1.75 0 "/></g></g></g><g fill="#373643" fill-opacity="1"><g transform="translate(27.714283, 51.697272)"><g><path d="M 2.75 -1.484375 C 2.75 -1.367188 2.75 -1.28125 2.75 -1.21875 L 0.484375 -1.21875 C 0.492188 -0.988281 0.546875 -0.789062 0.640625 -0.625 C 0.734375 -0.46875 0.859375 -0.347656 1.015625 -0.265625 C 1.171875 -0.191406 1.34375 -0.15625 1.53125 -0.15625 C 1.789062 -0.15625 2.003906 -0.21875 2.171875 -0.34375 C 2.347656 -0.46875 2.460938 -0.640625 2.515625 -0.859375 L 2.734375 -0.859375 C 2.679688 -0.585938 2.546875 -0.367188 2.328125 -0.203125 C 2.117188 -0.046875 1.851562 0.03125 1.53125 0.03125 C 1.289062 0.03125 1.070312 -0.0195312 0.875 -0.125 C 0.6875 -0.238281 0.535156 -0.394531 0.421875 -0.59375 C 0.316406 -0.800781 0.265625 -1.039062 0.265625 -1.3125 C 0.265625 -1.582031 0.316406 -1.816406 0.421875 -2.015625 C 0.523438 -2.222656 0.671875 -2.378906 0.859375 -2.484375 C 1.054688 -2.597656 1.28125 -2.65625 1.53125 -2.65625 C 1.78125 -2.65625 2 -2.597656 2.1875 -2.484375 C 2.375 -2.378906 2.515625 -2.238281 2.609375 -2.0625 C 2.703125 -1.882812 2.75 -1.691406 2.75 -1.484375 Z M 2.546875 -1.40625 C 2.546875 -1.632812 2.5 -1.828125 2.40625 -1.984375 C 2.320312 -2.148438 2.203125 -2.269531 2.046875 -2.34375 C 1.890625 -2.425781 1.71875 -2.46875 1.53125 -2.46875 C 1.34375 -2.46875 1.171875 -2.425781 1.015625 -2.34375 C 0.859375 -2.269531 0.734375 -2.148438 0.640625 -1.984375 C 0.546875 -1.828125 0.492188 -1.632812 0.484375 -1.40625 Z M 2.546875 -1.40625 "/></g></g></g><g fill="#373643" fill-opacity="1"><g transform="translate(30.548222, 51.697272)"><g><path d="M 0.71875 -2.4375 L 0.71875 -0.703125 C 0.71875 -0.503906 0.753906 -0.367188 0.828125 -0.296875 C 0.898438 -0.222656 1.023438 -0.1875 1.203125 -0.1875 L 1.5 -0.1875 L 1.5 0 L 1.171875 0 C 0.941406 0 0.769531 -0.0507812 0.65625 -0.15625 C 0.550781 -0.269531 0.5 -0.453125 0.5 -0.703125 L 0.5 -2.4375 L 0.109375 -2.4375 L 0.109375 -2.625 L 0.5 -2.625 L 0.5 -3.28125 L 0.71875 -3.28125 L 0.71875 -2.625 L 1.5 -2.625 L 1.5 -2.4375 Z M 0.71875 -2.4375 "/></g></g></g><g fill="#373643" fill-opacity="1"><g transform="translate(32.039999, 51.697272)"><g><path d="M 0.5 -3.203125 C 0.457031 -3.203125 0.414062 -3.21875 0.375 -3.25 C 0.34375 -3.289062 0.328125 -3.335938 0.328125 -3.390625 C 0.328125 -3.441406 0.34375 -3.484375 0.375 -3.515625 C 0.414062 -3.554688 0.457031 -3.578125 0.5 -3.578125 C 0.550781 -3.578125 0.59375 -3.554688 0.625 -3.515625 C 0.664062 -3.484375 0.6875 -3.441406 0.6875 -3.390625 C 0.6875 -3.335938 0.664062 -3.289062 0.625 -3.25 C 0.59375 -3.21875 0.550781 -3.203125 0.5 -3.203125 Z M 0.609375 -2.625 L 0.609375 0 L 0.390625 0 L 0.390625 -2.625 Z M 0.609375 -2.625 "/></g></g></g><g fill="#373643" fill-opacity="1"><g transform="translate(32.87035, 51.697272)"><g><path d="M 1.578125 -2.671875 C 1.890625 -2.671875 2.144531 -2.570312 2.34375 -2.375 C 2.539062 -2.1875 2.640625 -1.90625 2.640625 -1.53125 L 2.640625 0 L 2.421875 0 L 2.421875 -1.515625 C 2.421875 -1.828125 2.34375 -2.066406 2.1875 -2.234375 C 2.03125 -2.398438 1.816406 -2.484375 1.546875 -2.484375 C 1.265625 -2.484375 1.035156 -2.394531 0.859375 -2.21875 C 0.691406 -2.039062 0.609375 -1.773438 0.609375 -1.421875 L 0.609375 0 L 0.390625 0 L 0.390625 -2.625 L 0.609375 -2.625 L 0.609375 -2.0625 C 0.679688 -2.257812 0.800781 -2.410156 0.96875 -2.515625 C 1.144531 -2.617188 1.347656 -2.671875 1.578125 -2.671875 Z M 1.578125 -2.671875 "/></g></g></g><g fill="#373643" fill-opacity="1"><g transform="translate(35.694634, 51.697272)"><g><path d="M 1.53125 -2.65625 C 1.800781 -2.65625 2.03125 -2.585938 2.21875 -2.453125 C 2.414062 -2.316406 2.554688 -2.144531 2.640625 -1.9375 L 2.640625 -2.625 L 2.859375 -2.625 L 2.859375 0.078125 C 2.859375 0.316406 2.800781 0.523438 2.6875 0.703125 C 2.582031 0.890625 2.441406 1.03125 2.265625 1.125 C 2.085938 1.226562 1.882812 1.28125 1.65625 1.28125 C 1.332031 1.28125 1.0625 1.203125 0.84375 1.046875 C 0.625 0.890625 0.484375 0.675781 0.421875 0.40625 L 0.640625 0.40625 C 0.703125 0.613281 0.820312 0.78125 1 0.90625 C 1.175781 1.03125 1.394531 1.09375 1.65625 1.09375 C 1.84375 1.09375 2.007812 1.050781 2.15625 0.96875 C 2.300781 0.882812 2.414062 0.765625 2.5 0.609375 C 2.59375 0.460938 2.640625 0.285156 2.640625 0.078125 L 2.640625 -0.6875 C 2.554688 -0.476562 2.414062 -0.304688 2.21875 -0.171875 C 2.03125 -0.0351562 1.800781 0.03125 1.53125 0.03125 C 1.28125 0.03125 1.054688 -0.0195312 0.859375 -0.125 C 0.671875 -0.238281 0.523438 -0.394531 0.421875 -0.59375 C 0.316406 -0.800781 0.265625 -1.039062 0.265625 -1.3125 C 0.265625 -1.582031 0.316406 -1.816406 0.421875 -2.015625 C 0.523438 -2.222656 0.671875 -2.378906 0.859375 -2.484375 C 1.054688 -2.597656 1.28125 -2.65625 1.53125 -2.65625 Z M 2.640625 -1.3125 C 2.640625 -1.539062 2.585938 -1.742188 2.484375 -1.921875 C 2.390625 -2.097656 2.257812 -2.234375 2.09375 -2.328125 C 1.9375 -2.421875 1.753906 -2.46875 1.546875 -2.46875 C 1.335938 -2.46875 1.148438 -2.421875 0.984375 -2.328125 C 0.828125 -2.234375 0.703125 -2.097656 0.609375 -1.921875 C 0.523438 -1.753906 0.484375 -1.550781 0.484375 -1.3125 C 0.484375 -1.070312 0.523438 -0.863281 0.609375 -0.6875 C 0.703125 -0.519531 0.828125 -0.390625 0.984375 -0.296875 C 1.148438 -0.203125 1.335938 -0.15625 1.546875 -0.15625 C 1.753906 -0.15625 1.941406 -0.203125 2.109375 -0.296875 C 2.273438 -0.390625 2.40625 -0.523438 2.5 -0.703125 C 2.59375 -0.878906 2.640625 -1.082031 2.640625 -1.3125 Z M 2.640625 -1.3125 "/></g></g></g><g fill="#373643" fill-opacity="1"><g transform="translate(38.760315, 51.697272)"><g/></g></g><g fill="#373643" fill-opacity="1"><g transform="translate(39.938277, 51.697272)"><g><path d="M 0.71875 -2.4375 L 0.71875 -0.703125 C 0.71875 -0.503906 0.753906 -0.367188 0.828125 -0.296875 C 0.898438 -0.222656 1.023438 -0.1875 1.203125 -0.1875 L 1.5 -0.1875 L 1.5 0 L 1.171875 0 C 0.941406 0 0.769531 -0.0507812 0.65625 -0.15625 C 0.550781 -0.269531 0.5 -0.453125 0.5 -0.703125 L 0.5 -2.4375 L 0.109375 -2.4375 L 0.109375 -2.625 L 0.5 -2.625 L 0.5 -3.28125 L 0.71875 -3.28125 L 0.71875 -2.625 L 1.5 -2.625 L 1.5 -2.4375 Z M 0.71875 -2.4375 "/></g></g></g><g fill="#373643" fill-opacity="1"><g transform="translate(41.430055, 51.697272)"><g><path d="M 1.578125 -2.671875 C 1.890625 -2.671875 2.144531 -2.570312 2.34375 -2.375 C 2.539062 -2.1875 2.640625 -1.90625 2.640625 -1.53125 L 2.640625 0 L 2.421875 0 L 2.421875 -1.515625 C 2.421875 -1.828125 2.34375 -2.066406 2.1875 -2.234375 C 2.03125 -2.398438 1.816406 -2.484375 1.546875 -2.484375 C 1.265625 -2.484375 1.035156 -2.394531 0.859375 -2.21875 C 0.691406 -2.039062 0.609375 -1.773438 0.609375 -1.421875 L 0.609375 0 L 0.390625 0 L 0.390625 -3.578125 L 0.609375 -3.578125 L 0.609375 -2.0625 C 0.679688 -2.257812 0.804688 -2.410156 0.984375 -2.515625 C 1.160156 -2.617188 1.359375 -2.671875 1.578125 -2.671875 Z M 1.578125 -2.671875 "/></g></g></g><g fill="#373643" fill-opacity="1"><g transform="translate(44.254339, 51.697272)"><g><path d="M 0.265625 -1.3125 C 0.265625 -1.582031 0.316406 -1.816406 0.421875 -2.015625 C 0.523438 -2.222656 0.671875 -2.378906 0.859375 -2.484375 C 1.054688 -2.597656 1.28125 -2.65625 1.53125 -2.65625 C 1.800781 -2.65625 2.03125 -2.585938 2.21875 -2.453125 C 2.414062 -2.316406 2.554688 -2.144531 2.640625 -1.9375 L 2.640625 -2.625 L 2.859375 -2.625 L 2.859375 0 L 2.640625 0 L 2.640625 -0.6875 C 2.554688 -0.476562 2.414062 -0.304688 2.21875 -0.171875 C 2.03125 -0.0351562 1.800781 0.03125 1.53125 0.03125 C 1.28125 0.03125 1.054688 -0.0195312 0.859375 -0.125 C 0.671875 -0.238281 0.523438 -0.394531 0.421875 -0.59375 C 0.316406 -0.800781 0.265625 -1.039062 0.265625 -1.3125 Z M 2.640625 -1.3125 C 2.640625 -1.539062 2.585938 -1.742188 2.484375 -1.921875 C 2.390625 -2.097656 2.257812 -2.234375 2.09375 -2.328125 C 1.9375 -2.421875 1.753906 -2.46875 1.546875 -2.46875 C 1.335938 -2.46875 1.148438 -2.421875 0.984375 -2.328125 C 0.828125 -2.234375 0.703125 -2.097656 0.609375 -1.921875 C 0.523438 -1.753906 0.484375 -1.550781 0.484375 -1.3125 C 0.484375 -1.070312 0.523438 -0.863281 0.609375 -0.6875 C 0.703125 -0.519531 0.828125 -0.390625 0.984375 -0.296875 C 1.148438 -0.203125 1.335938 -0.15625 1.546875 -0.15625 C 1.753906 -0.15625 1.941406 -0.203125 2.109375 -0.296875 C 2.273438 -0.390625 2.40625 -0.523438 2.5 -0.703125 C 2.59375 -0.878906 2.640625 -1.082031 2.640625 -1.3125 Z M 2.640625 -1.3125 "/></g></g></g><g fill="#373643" fill-opacity="1"><g transform="translate(47.320019, 51.697272)"><g><path d="M 0.71875 -2.4375 L 0.71875 -0.703125 C 0.71875 -0.503906 0.753906 -0.367188 0.828125 -0.296875 C 0.898438 -0.222656 1.023438 -0.1875 1.203125 -0.1875 L 1.5 -0.1875 L 1.5 0 L 1.171875 0 C 0.941406 0 0.769531 -0.0507812 0.65625 -0.15625 C 0.550781 -0.269531 0.5 -0.453125 0.5 -0.703125 L 0.5 -2.4375 L 0.109375 -2.4375 L 0.109375 -2.625 L 0.5 -2.625 L 0.5 -3.28125 L 0.71875 -3.28125 L 0.71875 -2.625 L 1.5 -2.625 L 1.5 -2.4375 Z M 0.71875 -2.4375 "/></g></g></g><g fill="#373643" fill-opacity="1"><g transform="translate(48.811798, 51.697272)"><g/></g></g><g fill="#373643" fill-opacity="1"><g transform="translate(49.989761, 51.697272)"><g><path d="M 3.5 -2.671875 C 3.789062 -2.671875 4.03125 -2.570312 4.21875 -2.375 C 4.414062 -2.1875 4.515625 -1.90625 4.515625 -1.53125 L 4.515625 0 L 4.296875 0 L 4.296875 -1.515625 C 4.296875 -1.828125 4.222656 -2.066406 4.078125 -2.234375 C 3.929688 -2.398438 3.726562 -2.484375 3.46875 -2.484375 C 3.195312 -2.484375 2.976562 -2.390625 2.8125 -2.203125 C 2.644531 -2.015625 2.5625 -1.742188 2.5625 -1.390625 L 2.5625 0 L 2.34375 0 L 2.34375 -1.515625 C 2.34375 -1.828125 2.269531 -2.066406 2.125 -2.234375 C 1.976562 -2.398438 1.773438 -2.484375 1.515625 -2.484375 C 1.242188 -2.484375 1.023438 -2.390625 0.859375 -2.203125 C 0.691406 -2.015625 0.609375 -1.742188 0.609375 -1.390625 L 0.609375 0 L 0.390625 0 L 0.390625 -2.625 L 0.609375 -2.625 L 0.609375 -2.046875 C 0.679688 -2.253906 0.800781 -2.410156 0.96875 -2.515625 C 1.132812 -2.617188 1.328125 -2.671875 1.546875 -2.671875 C 1.785156 -2.671875 1.988281 -2.609375 2.15625 -2.484375 C 2.332031 -2.359375 2.453125 -2.175781 2.515625 -1.9375 C 2.578125 -2.175781 2.695312 -2.359375 2.875 -2.484375 C 3.050781 -2.609375 3.257812 -2.671875 3.5 -2.671875 Z M 3.5 -2.671875 "/></g></g></g><g fill="#373643" fill-opacity="1"><g transform="translate(54.696931, 51.697272)"><g><path d="M 0.265625 -1.3125 C 0.265625 -1.582031 0.316406 -1.816406 0.421875 -2.015625 C 0.523438 -2.222656 0.671875 -2.378906 0.859375 -2.484375 C 1.054688 -2.597656 1.28125 -2.65625 1.53125 -2.65625 C 1.800781 -2.65625 2.03125 -2.585938 2.21875 -2.453125 C 2.414062 -2.316406 2.554688 -2.144531 2.640625 -1.9375 L 2.640625 -2.625 L 2.859375 -2.625 L 2.859375 0 L 2.640625 0 L 2.640625 -0.6875 C 2.554688 -0.476562 2.414062 -0.304688 2.21875 -0.171875 C 2.03125 -0.0351562 1.800781 0.03125 1.53125 0.03125 C 1.28125 0.03125 1.054688 -0.0195312 0.859375 -0.125 C 0.671875 -0.238281 0.523438 -0.394531 0.421875 -0.59375 C 0.316406 -0.800781 0.265625 -1.039062 0.265625 -1.3125 Z M 2.640625 -1.3125 C 2.640625 -1.539062 2.585938 -1.742188 2.484375 -1.921875 C 2.390625 -2.097656 2.257812 -2.234375 2.09375 -2.328125 C 1.9375 -2.421875 1.753906 -2.46875 1.546875 -2.46875 C 1.335938 -2.46875 1.148438 -2.421875 0.984375 -2.328125 C 0.828125 -2.234375 0.703125 -2.097656 0.609375 -1.921875 C 0.523438 -1.753906 0.484375 -1.550781 0.484375 -1.3125 C 0.484375 -1.070312 0.523438 -0.863281 0.609375 -0.6875 C 0.703125 -0.519531 0.828125 -0.390625 0.984375 -0.296875 C 1.148438 -0.203125 1.335938 -0.15625 1.546875 -0.15625 C 1.753906 -0.15625 1.941406 -0.203125 2.109375 -0.296875 C 2.273438 -0.390625 2.40625 -0.523438 2.5 -0.703125 C 2.59375 -0.878906 2.640625 -1.082031 2.640625 -1.3125 Z M 2.640625 -1.3125 "/></g></g></g><g fill="#373643" fill-opacity="1"><g transform="translate(57.762611, 51.697272)"><g><path d="M 0.71875 -2.4375 L 0.71875 -0.703125 C 0.71875 -0.503906 0.753906 -0.367188 0.828125 -0.296875 C 0.898438 -0.222656 1.023438 -0.1875 1.203125 -0.1875 L 1.5 -0.1875 L 1.5 0 L 1.171875 0 C 0.941406 0 0.769531 -0.0507812 0.65625 -0.15625 C 0.550781 -0.269531 0.5 -0.453125 0.5 -0.703125 L 0.5 -2.4375 L 0.109375 -2.4375 L 0.109375 -2.625 L 0.5 -2.625 L 0.5 -3.28125 L 0.71875 -3.28125 L 0.71875 -2.625 L 1.5 -2.625 L 1.5 -2.4375 Z M 0.71875 -2.4375 "/></g></g></g><g fill="#373643" fill-opacity="1"><g transform="translate(59.254388, 51.697272)"><g><path d="M 0.71875 -2.4375 L 0.71875 -0.703125 C 0.71875 -0.503906 0.753906 -0.367188 0.828125 -0.296875 C 0.898438 -0.222656 1.023438 -0.1875 1.203125 -0.1875 L 1.5 -0.1875 L 1.5 0 L 1.171875 0 C 0.941406 0 0.769531 -0.0507812 0.65625 -0.15625 C 0.550781 -0.269531 0.5 -0.453125 0.5 -0.703125 L 0.5 -2.4375 L 0.109375 -2.4375 L 0.109375 -2.625 L 0.5 -2.625 L 0.5 -3.28125 L 0.71875 -3.28125 L 0.71875 -2.625 L 1.5 -2.625 L 1.5 -2.4375 Z M 0.71875 -2.4375 "/></g></g></g><g fill="#373643" fill-opacity="1"><g transform="translate(60.746165, 51.697272)"><g><path d="M 2.75 -1.484375 C 2.75 -1.367188 2.75 -1.28125 2.75 -1.21875 L 0.484375 -1.21875 C 0.492188 -0.988281 0.546875 -0.789062 0.640625 -0.625 C 0.734375 -0.46875 0.859375 -0.347656 1.015625 -0.265625 C 1.171875 -0.191406 1.34375 -0.15625 1.53125 -0.15625 C 1.789062 -0.15625 2.003906 -0.21875 2.171875 -0.34375 C 2.347656 -0.46875 2.460938 -0.640625 2.515625 -0.859375 L 2.734375 -0.859375 C 2.679688 -0.585938 2.546875 -0.367188 2.328125 -0.203125 C 2.117188 -0.046875 1.851562 0.03125 1.53125 0.03125 C 1.289062 0.03125 1.070312 -0.0195312 0.875 -0.125 C 0.6875 -0.238281 0.535156 -0.394531 0.421875 -0.59375 C 0.316406 -0.800781 0.265625 -1.039062 0.265625 -1.3125 C 0.265625 -1.582031 0.316406 -1.816406 0.421875 -2.015625 C 0.523438 -2.222656 0.671875 -2.378906 0.859375 -2.484375 C 1.054688 -2.597656 1.28125 -2.65625 1.53125 -2.65625 C 1.78125 -2.65625 2 -2.597656 2.1875 -2.484375 C 2.375 -2.378906 2.515625 -2.238281 2.609375 -2.0625 C 2.703125 -1.882812 2.75 -1.691406 2.75 -1.484375 Z M 2.546875 -1.40625 C 2.546875 -1.632812 2.5 -1.828125 2.40625 -1.984375 C 2.320312 -2.148438 2.203125 -2.269531 2.046875 -2.34375 C 1.890625 -2.425781 1.71875 -2.46875 1.53125 -2.46875 C 1.34375 -2.46875 1.171875 -2.425781 1.015625 -2.34375 C 0.859375 -2.269531 0.734375 -2.148438 0.640625 -1.984375 C 0.546875 -1.828125 0.492188 -1.632812 0.484375 -1.40625 Z M 2.546875 -1.40625 "/></g></g></g><g fill="#373643" fill-opacity="1"><g transform="translate(63.580105, 51.697272)"><g><path d="M 0.609375 -2.078125 C 0.671875 -2.273438 0.785156 -2.421875 0.953125 -2.515625 C 1.117188 -2.617188 1.328125 -2.671875 1.578125 -2.671875 L 1.578125 -2.453125 L 1.515625 -2.453125 C 1.253906 -2.453125 1.035156 -2.378906 0.859375 -2.234375 C 0.691406 -2.085938 0.609375 -1.847656 0.609375 -1.515625 L 0.609375 0 L 0.390625 0 L 0.390625 -2.625 L 0.609375 -2.625 Z M 0.609375 -2.078125 "/></g></g></g><g fill="#373643" fill-opacity="1"><g transform="translate(65.086365, 51.697272)"><g><path d="M 1.265625 0.03125 C 0.972656 0.03125 0.734375 -0.03125 0.546875 -0.15625 C 0.367188 -0.28125 0.265625 -0.460938 0.234375 -0.703125 L 0.46875 -0.703125 C 0.476562 -0.535156 0.550781 -0.398438 0.6875 -0.296875 C 0.832031 -0.203125 1.023438 -0.15625 1.265625 -0.15625 C 1.460938 -0.15625 1.617188 -0.203125 1.734375 -0.296875 C 1.859375 -0.398438 1.921875 -0.523438 1.921875 -0.671875 C 1.921875 -0.773438 1.890625 -0.859375 1.828125 -0.921875 C 1.765625 -0.992188 1.6875 -1.046875 1.59375 -1.078125 C 1.5 -1.117188 1.375 -1.160156 1.21875 -1.203125 C 1.019531 -1.253906 0.859375 -1.300781 0.734375 -1.34375 C 0.617188 -1.394531 0.519531 -1.46875 0.4375 -1.5625 C 0.351562 -1.664062 0.3125 -1.800781 0.3125 -1.96875 C 0.3125 -2.09375 0.347656 -2.207031 0.421875 -2.3125 C 0.492188 -2.414062 0.597656 -2.5 0.734375 -2.5625 C 0.867188 -2.625 1.019531 -2.65625 1.1875 -2.65625 C 1.457031 -2.65625 1.675781 -2.585938 1.84375 -2.453125 C 2.007812 -2.316406 2.101562 -2.128906 2.125 -1.890625 L 1.90625 -1.890625 C 1.894531 -2.054688 1.828125 -2.191406 1.703125 -2.296875 C 1.578125 -2.410156 1.398438 -2.46875 1.171875 -2.46875 C 0.984375 -2.46875 0.828125 -2.421875 0.703125 -2.328125 C 0.585938 -2.234375 0.53125 -2.113281 0.53125 -1.96875 C 0.53125 -1.851562 0.5625 -1.753906 0.625 -1.671875 C 0.695312 -1.597656 0.785156 -1.539062 0.890625 -1.5 C 0.992188 -1.457031 1.128906 -1.414062 1.296875 -1.375 C 1.472656 -1.320312 1.617188 -1.269531 1.734375 -1.21875 C 1.847656 -1.175781 1.941406 -1.109375 2.015625 -1.015625 C 2.097656 -0.929688 2.140625 -0.816406 2.140625 -0.671875 C 2.140625 -0.535156 2.097656 -0.410156 2.015625 -0.296875 C 1.941406 -0.191406 1.835938 -0.109375 1.703125 -0.046875 C 1.578125 0.00390625 1.429688 0.03125 1.265625 0.03125 Z M 1.265625 0.03125 "/></g></g></g></svg>