<svg xmlns="http://www.w3.org/2000/svg" xmlns:xlink="http://www.w3.org/1999/xlink" width="112" zoomAndPan="magnify" viewBox="0 0 84 81.749997" height="109" preserveAspectRatio="xMidYMid meet" version="1.0"><defs><g/><clipPath id="14b31da674"><path d="M 6 5 L 78 5 L 78 76 L 6 76 Z M 6 5 " clip-rule="nonzero"/></clipPath><clipPath id="3ad9297cf4"><path d="M 15.289062 -1.121094 L 83.871094 14.042969 L 68.707031 82.625 L 0.125 67.460938 Z M 15.289062 -1.121094 " clip-rule="nonzero"/></clipPath><clipPath id="dbfe5084bf"><path d="M 49.578125 6.460938 C 30.640625 2.273438 11.894531 14.230469 7.707031 33.171875 C 3.519531 52.109375 15.480469 70.855469 34.417969 75.042969 C 53.355469 79.230469 72.101562 67.269531 76.289062 48.332031 C 80.476562 29.394531 68.519531 10.648438 49.578125 6.460938 Z M 49.578125 6.460938 " clip-rule="nonzero"/></clipPath><clipPath id="b12032ac0b"><path d="M 9 7 L 75 7 L 75 75 L 9 75 Z M 9 7 " clip-rule="nonzero"/></clipPath><clipPath id="ede08e334a"><path d="M 76.121094 73.066406 L 9.875 75.445312 L 7.457031 8.183594 L 73.703125 5.800781 Z M 76.121094 73.066406 " clip-rule="nonzero"/></clipPath><clipPath id="2da5c69794"><path d="M 76.121094 73.066406 L 9.875 75.445312 L 7.457031 8.183594 L 73.703125 5.800781 Z M 76.121094 73.066406 " clip-rule="nonzero"/></clipPath><clipPath id="f4b238e8cc"><path d="M 10 9 L 74 9 L 74 72 L 10 72 Z M 10 9 " clip-rule="nonzero"/></clipPath><clipPath id="7e5bc98be5"><path d="M 7.511719 67.890625 L 14.859375 6.257812 L 76.488281 13.605469 L 69.140625 75.238281 Z M 7.511719 67.890625 " clip-rule="nonzero"/></clipPath><clipPath id="2914e524de"><path d="M 11.183594 37.074219 C 9.15625 54.09375 21.308594 69.535156 38.328125 71.5625 C 55.34375 73.59375 70.785156 61.441406 72.816406 44.421875 C 74.84375 27.402344 62.691406 11.960938 45.671875 9.933594 C 28.65625 7.902344 13.214844 20.054688 11.183594 37.074219 Z M 11.183594 37.074219 " clip-rule="nonzero"/></clipPath></defs><g clip-path="url(#14b31da674)"><g clip-path="url(#3ad9297cf4)"><g clip-path="url(#dbfe5084bf)"><path fill="#fdf9f7" d="M 15.289062 -1.121094 L 83.871094 14.042969 L 68.707031 82.625 L 0.125 67.460938 Z M 15.289062 -1.121094 " fill-opacity="1" fill-rule="nonzero"/></g></g></g><g clip-path="url(#b12032ac0b)"><g clip-path="url(#ede08e334a)"><g clip-path="url(#2da5c69794)"><path fill="#0b0019" d="M 74.785156 38.199219 C 75.070312 43.820312 73.867188 49.144531 71.511719 54.21875 C 70.25 56.941406 68.621094 59.4375 66.695312 61.753906 C 63.722656 65.328125 60.1875 68.203125 56.082031 70.371094 C 53.109375 71.941406 49.964844 73.058594 46.660156 73.628906 C 44.816406 73.945312 42.953125 74.257812 41.070312 74.15625 C 39.804688 74.089844 38.53125 74.066406 37.261719 73.957031 C 33.710938 73.640625 30.386719 72.625 27.1875 71.140625 C 24.808594 70.039062 22.644531 68.59375 20.613281 66.941406 C 19.273438 65.847656 18.078125 64.617188 16.949219 63.3125 C 16.636719 62.953125 16.597656 62.515625 16.886719 62.289062 C 17.25 62 17.597656 62.085938 17.902344 62.410156 C 18.519531 63.070312 19.121094 63.742188 19.769531 64.371094 C 23.410156 67.917969 27.675781 70.367188 32.566406 71.730469 C 34.476562 72.261719 36.417969 72.605469 38.402344 72.734375 C 39.441406 72.800781 40.484375 72.875 41.515625 72.871094 C 42.621094 72.871094 43.730469 72.714844 44.832031 72.570312 C 46.96875 72.289062 49.066406 71.804688 51.097656 71.085938 C 54.550781 69.859375 57.730469 68.136719 60.601562 65.847656 C 62.269531 64.523438 63.832031 63.09375 65.21875 61.484375 C 67.769531 58.523438 69.765625 55.222656 71.195312 51.582031 C 72.050781 49.40625 72.664062 47.167969 73.054688 44.863281 C 73.210938 43.929688 73.289062 42.992188 73.398438 42.058594 C 73.675781 39.699219 73.613281 37.335938 73.261719 35.011719 C 72.769531 31.765625 71.863281 28.617188 70.414062 25.644531 C 69.277344 23.320312 67.902344 21.152344 66.230469 19.179688 C 64.261719 16.859375 62 14.878906 59.417969 13.253906 C 56.0625 11.140625 52.449219 9.742188 48.550781 9.058594 C 45.960938 8.601562 43.351562 8.414062 40.742188 8.667969 C 36 9.125 31.523438 10.492188 27.390625 12.894531 C 24.703125 14.457031 22.28125 16.355469 20.101562 18.589844 C 17.035156 21.730469 14.707031 25.339844 13.023438 29.378906 C 11.796875 32.3125 11.027344 35.378906 10.703125 38.542969 C 10.546875 40.035156 10.464844 41.546875 10.53125 43.054688 C 10.683594 46.632812 11.308594 50.117188 12.617188 53.464844 C 12.699219 53.675781 12.796875 53.886719 12.847656 54.101562 C 12.917969 54.386719 12.890625 54.710938 12.570312 54.789062 C 12.273438 54.863281 11.890625 55.058594 11.664062 54.597656 C 11.3125 53.875 11.042969 53.121094 10.804688 52.359375 C 10.210938 50.457031 9.714844 48.527344 9.492188 46.539062 C 9.261719 44.453125 9.09375 42.351562 9.21875 40.265625 C 9.589844 34.078125 11.425781 28.34375 14.78125 23.117188 C 16.167969 20.960938 17.769531 18.964844 19.597656 17.171875 C 22.953125 13.890625 26.789062 11.328125 31.167969 9.601562 C 33.261719 8.777344 35.414062 8.164062 37.617188 7.746094 C 39.929688 7.304688 42.289062 7.183594 44.625 7.273438 C 48.777344 7.425781 52.769531 8.402344 56.546875 10.15625 C 59.03125 11.308594 61.328125 12.765625 63.429688 14.535156 C 68.5625 18.859375 71.945312 24.296875 73.714844 30.746094 C 74.050781 31.960938 74.273438 33.214844 74.503906 34.460938 C 74.730469 35.691406 74.726562 36.949219 74.785156 38.199219 Z M 74.785156 38.199219 " fill-opacity="1" fill-rule="nonzero"/></g></g></g><g clip-path="url(#f4b238e8cc)"><g clip-path="url(#7e5bc98be5)"><g clip-path="url(#2914e524de)"><path fill="#ffcc00" d="M 7.511719 67.890625 L 14.859375 6.257812 L 76.488281 13.605469 L 69.140625 75.238281 Z M 7.511719 67.890625 " fill-opacity="1" fill-rule="nonzero"/></g></g></g><g fill="#0b0019" fill-opacity="1"><g transform="translate(18.112284, 42.934927)"><g><path d="M 4.53125 -0.53125 C 4.289062 -0.5 3.96875 -0.515625 3.5625 -0.578125 C 3.164062 -0.640625 2.859375 -1.007812 2.640625 -1.6875 C 2.523438 -2.113281 2.488281 -2.726562 2.53125 -3.53125 C 2.582031 -4.332031 2.664062 -5.210938 2.78125 -6.171875 C 2.882812 -7.035156 2.960938 -7.863281 3.015625 -8.65625 C 3.078125 -9.445312 3.0625 -10.210938 2.96875 -10.953125 L 2.1875 -10.859375 C 1.675781 -10.796875 1.15625 -10.691406 0.625 -10.546875 C 0.101562 -10.410156 -0.257812 -10.21875 -0.46875 -9.96875 C -0.6875 -10.164062 -0.832031 -10.398438 -0.90625 -10.671875 C -0.925781 -10.710938 -0.953125 -10.816406 -0.984375 -10.984375 C -1.015625 -11.148438 -0.957031 -11.359375 -0.8125 -11.609375 C -0.675781 -11.859375 -0.5 -12.054688 -0.28125 -12.203125 C 0.09375 -12.429688 0.707031 -12.597656 1.5625 -12.703125 C 2.445312 -12.816406 3.410156 -12.90625 4.453125 -12.96875 C 5.503906 -13.039062 6.421875 -13.125 7.203125 -13.21875 C 7.984375 -13.3125 8.523438 -13.429688 8.828125 -13.578125 C 8.847656 -13.503906 8.890625 -13.378906 8.953125 -13.203125 C 9.066406 -12.804688 9.035156 -12.40625 8.859375 -12 C 8.679688 -11.59375 8.238281 -11.3125 7.53125 -11.15625 L 7.25 -11.109375 C 6.789062 -11.054688 6 -11.023438 4.875 -11.015625 C 5.289062 -10.710938 5.523438 -10.519531 5.578125 -10.4375 C 5.609375 -10.382812 5.640625 -10.316406 5.671875 -10.234375 C 5.765625 -9.890625 5.796875 -9.390625 5.765625 -8.734375 C 5.742188 -8.085938 5.679688 -7.3125 5.578125 -6.40625 C 5.484375 -5.6875 5.410156 -4.960938 5.359375 -4.234375 C 5.316406 -3.515625 5.328125 -2.859375 5.390625 -2.265625 C 5.429688 -1.984375 5.484375 -1.726562 5.546875 -1.5 C 5.640625 -1.21875 5.710938 -1.03125 5.765625 -0.9375 C 5.378906 -0.726562 4.96875 -0.59375 4.53125 -0.53125 Z M 4.53125 -0.53125 "/></g></g></g><g fill="#0b0019" fill-opacity="1"><g transform="translate(29.027793, 41.567071)"><g><path d="M 7.640625 -0.953125 C 7.421875 -0.929688 7.101562 -0.945312 6.6875 -1 C 6.28125 -1.0625 5.96875 -1.429688 5.75 -2.109375 C 5.625 -2.554688 5.566406 -3.023438 5.578125 -3.515625 C 5.585938 -4.003906 5.625 -4.539062 5.6875 -5.125 C 5.75 -5.71875 5.800781 -6.367188 5.84375 -7.078125 C 5.84375 -7.148438 5.832031 -7.210938 5.8125 -7.265625 C 5.75 -7.472656 5.617188 -7.5625 5.421875 -7.53125 C 5.328125 -7.519531 5.179688 -7.441406 4.984375 -7.296875 C 4.785156 -7.148438 4.507812 -6.820312 4.15625 -6.3125 C 3.8125 -5.8125 3.492188 -5.226562 3.203125 -4.5625 C 2.910156 -3.90625 2.726562 -3.238281 2.65625 -2.5625 C 2.664062 -2.039062 2.722656 -1.582031 2.828125 -1.1875 C 2.910156 -0.914062 2.984375 -0.738281 3.046875 -0.65625 C 2.671875 -0.4375 2.257812 -0.300781 1.8125 -0.25 C 1.582031 -0.21875 1.265625 -0.226562 0.859375 -0.28125 C 0.453125 -0.34375 0.132812 -0.710938 -0.09375 -1.390625 C -0.1875 -1.734375 -0.210938 -2.234375 -0.171875 -2.890625 C -0.128906 -3.546875 -0.0546875 -4.296875 0.046875 -5.140625 C 0.203125 -6.367188 0.3125 -7.65625 0.375 -9 C 0.4375 -10.351562 0.34375 -11.535156 0.09375 -12.546875 C 0.425781 -12.578125 0.804688 -12.570312 1.234375 -12.53125 C 1.671875 -12.488281 2.03125 -12.414062 2.3125 -12.3125 C 2.59375 -12.21875 2.757812 -12.085938 2.8125 -11.921875 C 2.945312 -11.472656 3.035156 -10.96875 3.078125 -10.40625 C 3.117188 -9.84375 3.125 -9.257812 3.09375 -8.65625 C 3.0625 -8.0625 2.984375 -7.140625 2.859375 -5.890625 C 3.617188 -7.035156 4.238281 -7.828125 4.71875 -8.265625 C 5.195312 -8.703125 5.664062 -9.070312 6.125 -9.375 C 6.550781 -9.644531 6.960938 -9.804688 7.359375 -9.859375 C 7.441406 -9.867188 7.601562 -9.875 7.84375 -9.875 C 8.082031 -9.882812 8.296875 -9.753906 8.484375 -9.484375 C 8.554688 -9.367188 8.617188 -9.234375 8.671875 -9.078125 C 8.835938 -8.535156 8.816406 -7.472656 8.609375 -5.890625 C 8.398438 -4.054688 8.410156 -2.765625 8.640625 -2.015625 C 8.722656 -1.710938 8.8125 -1.503906 8.90625 -1.390625 C 8.519531 -1.160156 8.097656 -1.015625 7.640625 -0.953125 Z M 7.640625 -0.953125 "/></g></g></g><g fill="#0b0019" fill-opacity="1"><g transform="translate(38.288863, 40.406539)"><g><path d="M 4.359375 3.484375 C 3.691406 3.566406 3.039062 3.503906 2.40625 3.296875 C 1.78125 3.097656 1.285156 2.800781 0.921875 2.40625 C 0.703125 2.144531 0.554688 1.898438 0.484375 1.671875 C 0.460938 1.597656 0.441406 1.472656 0.421875 1.296875 C 0.410156 1.117188 0.394531 1.039062 0.375 1.0625 C 0.71875 1.289062 1.078125 1.472656 1.453125 1.609375 C 1.828125 1.753906 2.171875 1.84375 2.484375 1.875 C 2.796875 1.90625 3.085938 1.898438 3.359375 1.859375 C 3.847656 1.796875 4.234375 1.632812 4.515625 1.375 C 4.804688 1.113281 5.019531 0.796875 5.15625 0.421875 C 5.300781 0.0546875 5.40625 -0.320312 5.46875 -0.71875 C 5.53125 -1.113281 5.578125 -1.492188 5.609375 -1.859375 L 5.78125 -3.5 C 5.125 -2.1875 4.59375 -1.351562 4.1875 -1 C 3.789062 -0.644531 3.359375 -0.4375 2.890625 -0.375 C 2.273438 -0.300781 1.738281 -0.398438 1.28125 -0.671875 C 0.832031 -0.941406 0.519531 -1.363281 0.34375 -1.9375 C 0.226562 -2.3125 0.191406 -2.726562 0.234375 -3.1875 C 0.285156 -3.644531 0.351562 -4.128906 0.4375 -4.640625 C 0.570312 -5.359375 0.644531 -6.066406 0.65625 -6.765625 C 0.664062 -7.128906 0.625 -7.476562 0.53125 -7.8125 C 0.425781 -8.132812 0.316406 -8.378906 0.203125 -8.546875 C 0.585938 -8.773438 1.007812 -8.914062 1.46875 -8.96875 C 1.6875 -9 1.992188 -8.984375 2.390625 -8.921875 C 2.796875 -8.859375 3.117188 -8.484375 3.359375 -7.796875 C 3.484375 -7.328125 3.507812 -6.8125 3.4375 -6.25 C 3.375 -5.6875 3.28125 -5.144531 3.15625 -4.625 C 3.082031 -4.289062 3.023438 -3.988281 2.984375 -3.71875 C 2.941406 -3.445312 2.945312 -3.226562 3 -3.0625 C 3.070312 -2.8125 3.25 -2.707031 3.53125 -2.75 C 3.945312 -2.800781 4.3125 -2.976562 4.625 -3.28125 C 4.9375 -3.582031 5.191406 -3.960938 5.390625 -4.421875 C 5.597656 -4.890625 5.753906 -5.390625 5.859375 -5.921875 C 5.972656 -6.453125 6.039062 -6.988281 6.0625 -7.53125 C 6.050781 -8.28125 5.960938 -8.9375 5.796875 -9.5 L 5.84375 -9.34375 C 6.394531 -9.382812 6.925781 -9.347656 7.4375 -9.234375 C 7.957031 -9.117188 8.28125 -8.957031 8.40625 -8.75 C 8.4375 -8.6875 8.460938 -8.613281 8.484375 -8.53125 C 8.734375 -7.726562 8.679688 -5.921875 8.328125 -3.109375 C 8.234375 -2.242188 8.101562 -1.429688 7.9375 -0.671875 C 7.769531 0.0859375 7.550781 0.757812 7.28125 1.34375 C 7.007812 1.9375 6.640625 2.414062 6.171875 2.78125 C 5.710938 3.15625 5.109375 3.390625 4.359375 3.484375 Z M 4.359375 3.484375 "/></g></g></g><g fill="#0b0019" fill-opacity="1"><g transform="translate(48.049709, 39.183377)"><g><path d="M 7.28125 -0.90625 C 7.070312 -0.882812 6.757812 -0.898438 6.34375 -0.953125 C 5.9375 -1.015625 5.617188 -1.390625 5.390625 -2.078125 C 5.285156 -2.484375 5.242188 -2.910156 5.265625 -3.359375 C 5.285156 -3.816406 5.335938 -4.3125 5.421875 -4.84375 C 5.523438 -5.5 5.609375 -6.238281 5.671875 -7.0625 C 5.660156 -7.132812 5.644531 -7.195312 5.625 -7.25 C 5.5625 -7.457031 5.421875 -7.546875 5.203125 -7.515625 C 5.128906 -7.515625 5.007812 -7.472656 4.84375 -7.390625 C 4.6875 -7.316406 4.445312 -7.085938 4.125 -6.703125 C 3.8125 -6.316406 3.507812 -5.847656 3.21875 -5.296875 C 2.9375 -4.753906 2.742188 -4.148438 2.640625 -3.484375 C 2.523438 -2.703125 2.566406 -1.988281 2.765625 -1.34375 C 2.867188 -1.019531 2.96875 -0.789062 3.0625 -0.65625 C 2.6875 -0.4375 2.273438 -0.300781 1.828125 -0.25 C 1.597656 -0.21875 1.28125 -0.226562 0.875 -0.28125 C 0.46875 -0.34375 0.148438 -0.710938 -0.078125 -1.390625 C -0.191406 -1.804688 -0.222656 -2.332031 -0.171875 -2.96875 C -0.128906 -3.601562 -0.0664062 -4.285156 0.015625 -5.015625 C 0.128906 -5.796875 0.207031 -6.550781 0.25 -7.28125 C 0.289062 -8.019531 0.257812 -8.578125 0.15625 -8.953125 C 0.71875 -9.003906 1.253906 -8.972656 1.765625 -8.859375 C 2.285156 -8.742188 2.613281 -8.582031 2.75 -8.375 C 2.789062 -8.28125 2.820312 -8.175781 2.84375 -8.0625 C 2.925781 -7.789062 2.96875 -7.238281 2.96875 -6.40625 C 3.65625 -7.300781 4.21875 -7.945312 4.65625 -8.34375 C 5.101562 -8.738281 5.535156 -9.070312 5.953125 -9.34375 C 6.378906 -9.625 6.785156 -9.785156 7.171875 -9.828125 C 7.253906 -9.835938 7.414062 -9.84375 7.65625 -9.84375 C 7.90625 -9.851562 8.125 -9.726562 8.3125 -9.46875 C 8.375 -9.363281 8.429688 -9.238281 8.484375 -9.09375 C 8.566406 -8.800781 8.59375 -8.378906 8.5625 -7.828125 C 8.539062 -7.285156 8.476562 -6.632812 8.375 -5.875 C 8.082031 -4.019531 8.0625 -2.707031 8.3125 -1.9375 C 8.40625 -1.632812 8.484375 -1.4375 8.546875 -1.34375 C 8.160156 -1.113281 7.738281 -0.96875 7.28125 -0.90625 Z M 7.28125 -0.90625 "/></g></g></g><g fill="#0b0019" fill-opacity="1"><g transform="translate(57.069508, 38.053078)"><g><path d="M 6.703125 -0.453125 C 6.285156 -0.398438 5.925781 -0.445312 5.625 -0.59375 C 5.082031 -0.9375 4.628906 -1.382812 4.265625 -1.9375 C 3.898438 -2.5 3.59375 -3.046875 3.34375 -3.578125 L 2.765625 -4.796875 C 2.640625 -2.992188 2.671875 -1.785156 2.859375 -1.171875 C 2.929688 -0.890625 2.992188 -0.71875 3.046875 -0.65625 C 2.671875 -0.4375 2.257812 -0.300781 1.8125 -0.25 C 1.582031 -0.21875 1.265625 -0.226562 0.859375 -0.28125 C 0.453125 -0.34375 0.132812 -0.710938 -0.09375 -1.390625 C -0.1875 -1.734375 -0.210938 -2.234375 -0.171875 -2.890625 C -0.128906 -3.546875 -0.0546875 -4.296875 0.046875 -5.140625 C 0.203125 -6.367188 0.3125 -7.65625 0.375 -9 C 0.4375 -10.351562 0.34375 -11.535156 0.09375 -12.546875 C 0.425781 -12.578125 0.8125 -12.566406 1.25 -12.515625 C 1.6875 -12.460938 2.046875 -12.378906 2.328125 -12.265625 C 2.609375 -12.160156 2.769531 -12.046875 2.8125 -11.921875 C 3.039062 -11.140625 3.144531 -10.242188 3.125 -9.234375 C 3.101562 -8.222656 3.003906 -7 2.828125 -5.5625 C 3.703125 -6.289062 4.3125 -6.941406 4.65625 -7.515625 C 5 -8.085938 5.320312 -8.75 5.625 -9.5 C 5.851562 -9.4375 6.160156 -9.25 6.546875 -8.9375 C 6.941406 -8.625 7.226562 -8.265625 7.40625 -7.859375 C 7.4375 -7.804688 7.460938 -7.753906 7.484375 -7.703125 C 7.578125 -7.378906 7.523438 -7.082031 7.328125 -6.8125 C 6.816406 -6.101562 5.988281 -5.492188 4.84375 -4.984375 C 5.226562 -4.191406 5.789062 -3.515625 6.53125 -2.953125 C 7.28125 -2.398438 8.050781 -2.070312 8.84375 -1.96875 C 8.875 -1.707031 8.707031 -1.429688 8.34375 -1.140625 C 7.863281 -0.765625 7.316406 -0.535156 6.703125 -0.453125 Z M 6.703125 -0.453125 "/></g></g></g><g fill="#0b0019" fill-opacity="1"><g transform="translate(27.264928, 57.920012)"><g><path d="M 6.34375 -0.859375 C 5.382812 -0.734375 4.503906 -0.832031 3.703125 -1.15625 C 2.898438 -1.476562 2.21875 -1.972656 1.65625 -2.640625 C 1.113281 -3.242188 0.71875 -3.960938 0.46875 -4.796875 C 0.445312 -4.847656 0.367188 -5.109375 0.234375 -5.578125 C 0.0976562 -6.054688 0.0859375 -6.804688 0.203125 -7.828125 C 0.453125 -9.398438 1.054688 -10.640625 2.015625 -11.546875 C 2.972656 -12.460938 4.09375 -13 5.375 -13.15625 C 6.101562 -13.25 6.773438 -13.21875 7.390625 -13.0625 C 8.003906 -12.90625 8.53125 -12.671875 8.96875 -12.359375 C 9.519531 -11.960938 9.878906 -11.488281 10.046875 -10.9375 C 10.128906 -10.65625 10.148438 -10.363281 10.109375 -10.0625 C 10.046875 -9.789062 9.890625 -9.554688 9.640625 -9.359375 C 9.390625 -9.171875 9.109375 -9.023438 8.796875 -8.921875 C 8.492188 -8.828125 8.234375 -8.765625 8.015625 -8.734375 C 7.816406 -8.703125 7.75 -8.648438 7.8125 -8.578125 C 7.789062 -8.734375 7.738281 -8.96875 7.65625 -9.28125 C 7.539062 -9.644531 7.410156 -9.960938 7.265625 -10.234375 C 6.898438 -11.015625 6.382812 -11.363281 5.71875 -11.28125 C 5.070312 -11.164062 4.507812 -10.765625 4.03125 -10.078125 C 3.550781 -9.398438 3.265625 -8.570312 3.171875 -7.59375 C 3.117188 -6.851562 3.207031 -6.109375 3.4375 -5.359375 C 3.457031 -5.296875 3.507812 -5.140625 3.59375 -4.890625 C 3.6875 -4.640625 3.863281 -4.351562 4.125 -4.03125 C 4.382812 -3.707031 4.695312 -3.457031 5.0625 -3.28125 C 5.4375 -3.113281 5.875 -3.0625 6.375 -3.125 C 7.238281 -3.238281 8.054688 -3.703125 8.828125 -4.515625 C 9.128906 -4.835938 9.359375 -5.101562 9.515625 -5.3125 C 9.671875 -5.519531 9.71875 -5.617188 9.65625 -5.609375 C 9.71875 -5.578125 9.78125 -5.460938 9.84375 -5.265625 C 9.914062 -5.015625 9.941406 -4.722656 9.921875 -4.390625 C 9.910156 -4.054688 9.835938 -3.695312 9.703125 -3.3125 C 9.578125 -2.9375 9.375 -2.578125 9.09375 -2.234375 C 8.820312 -1.898438 8.457031 -1.609375 8 -1.359375 C 7.539062 -1.109375 6.988281 -0.941406 6.34375 -0.859375 Z M 6.34375 -0.859375 "/></g></g></g><g fill="#0b0019" fill-opacity="1"><g transform="translate(37.249815, 56.668775)"><g><path d="M 8.171875 -1.03125 C 7.941406 -1 7.625 -1.007812 7.21875 -1.0625 C 6.820312 -1.125 6.507812 -1.5 6.28125 -2.1875 C 6.207031 -2.40625 6.15625 -3 6.125 -3.96875 C 5.5625 -2.65625 5.085938 -1.757812 4.703125 -1.28125 C 4.265625 -0.789062 3.753906 -0.507812 3.171875 -0.4375 C 2.566406 -0.363281 2.015625 -0.460938 1.515625 -0.734375 C 1.023438 -1.015625 0.628906 -1.457031 0.328125 -2.0625 C 0.203125 -2.28125 0.109375 -2.519531 0.046875 -2.78125 C -0.0859375 -3.195312 -0.164062 -3.671875 -0.1875 -4.203125 C -0.207031 -5.023438 -0.0546875 -5.8125 0.265625 -6.5625 C 0.597656 -7.3125 1.070312 -7.945312 1.6875 -8.46875 C 2.300781 -8.988281 3.03125 -9.300781 3.875 -9.40625 C 4.363281 -9.46875 4.796875 -9.441406 5.171875 -9.328125 C 5.546875 -9.210938 6.003906 -8.8125 6.546875 -8.125 C 6.554688 -9.007812 6.539062 -9.550781 6.5 -9.75 C 7.0625 -9.800781 7.597656 -9.769531 8.109375 -9.65625 C 8.628906 -9.539062 8.957031 -9.375 9.09375 -9.15625 C 9.132812 -9.070312 9.171875 -8.972656 9.203125 -8.859375 C 9.296875 -8.554688 9.332031 -8.148438 9.3125 -7.640625 C 9.300781 -7.140625 9.25 -6.546875 9.15625 -5.859375 C 9.03125 -4.984375 8.96875 -4.148438 8.96875 -3.359375 C 8.96875 -2.898438 9.019531 -2.488281 9.125 -2.125 C 9.226562 -1.800781 9.328125 -1.578125 9.421875 -1.453125 C 9.046875 -1.222656 8.628906 -1.082031 8.171875 -1.03125 Z M 4.046875 -2.578125 C 4.390625 -2.628906 4.703125 -2.863281 4.984375 -3.28125 C 5.273438 -3.695312 5.53125 -4.207031 5.75 -4.8125 C 5.976562 -5.414062 6.15625 -6.046875 6.28125 -6.703125 C 6.3125 -6.960938 6.300781 -7.1875 6.25 -7.375 C 6.207031 -7.5625 6.070312 -7.742188 5.84375 -7.921875 C 5.613281 -8.109375 5.21875 -8.171875 4.65625 -8.109375 C 4.15625 -8.035156 3.738281 -7.820312 3.40625 -7.46875 C 3.082031 -7.113281 2.835938 -6.703125 2.671875 -6.234375 C 2.421875 -5.398438 2.398438 -4.59375 2.609375 -3.8125 C 2.617188 -3.800781 2.65625 -3.703125 2.71875 -3.515625 C 2.78125 -3.328125 2.929688 -3.113281 3.171875 -2.875 C 3.410156 -2.632812 3.703125 -2.535156 4.046875 -2.578125 Z M 4.046875 -2.578125 "/></g></g></g><g fill="#0b0019" fill-opacity="1"><g transform="translate(47.070981, 55.438055)"><g><path d="M 2.65625 -0.34375 C 2.425781 -0.320312 2.101562 -0.335938 1.6875 -0.390625 C 1.28125 -0.453125 0.96875 -0.816406 0.75 -1.484375 C 0.65625 -1.835938 0.625 -2.34375 0.65625 -3 C 0.695312 -3.664062 0.773438 -4.421875 0.890625 -5.265625 C 0.960938 -5.835938 1.03125 -6.519531 1.09375 -7.3125 C 0.507812 -7.238281 0.0078125 -7.148438 -0.40625 -7.046875 L -0.390625 -7.046875 C -0.390625 -7.046875 -0.40625 -7.101562 -0.4375 -7.21875 C -0.457031 -7.257812 -0.472656 -7.359375 -0.484375 -7.515625 C -0.503906 -7.679688 -0.457031 -7.875 -0.34375 -8.09375 C -0.238281 -8.3125 -0.0351562 -8.457031 0.265625 -8.53125 L 0.359375 -8.546875 C 0.597656 -8.585938 0.875 -8.628906 1.1875 -8.671875 C 1.207031 -8.847656 1.21875 -8.984375 1.21875 -9.078125 C 1.21875 -9.429688 1.242188 -9.820312 1.296875 -10.25 C 1.347656 -10.675781 1.4375 -11.085938 1.5625 -11.484375 C 1.6875 -11.890625 1.878906 -12.269531 2.140625 -12.625 C 2.398438 -12.976562 2.734375 -13.273438 3.140625 -13.515625 C 3.554688 -13.753906 4.085938 -13.910156 4.734375 -13.984375 C 5.703125 -14.109375 6.457031 -14.035156 7 -13.765625 C 7.425781 -13.546875 7.695312 -13.234375 7.8125 -12.828125 C 7.832031 -12.753906 7.859375 -12.664062 7.890625 -12.5625 C 7.921875 -12.21875 7.867188 -11.945312 7.734375 -11.75 C 7.484375 -11.414062 7.109375 -11.21875 6.609375 -11.15625 C 6.335938 -11.125 6.210938 -11.101562 6.234375 -11.09375 C 6.203125 -11.195312 6.160156 -11.332031 6.109375 -11.5 C 6.097656 -11.570312 6.0625 -11.6875 6 -11.84375 C 5.9375 -12 5.835938 -12.175781 5.703125 -12.375 C 5.578125 -12.582031 5.410156 -12.675781 5.203125 -12.65625 C 4.660156 -12.582031 4.300781 -12.0625 4.125 -11.09375 C 4.019531 -10.5625 3.960938 -9.8125 3.953125 -8.84375 C 4.796875 -8.945312 5.445312 -9.070312 5.90625 -9.21875 C 5.945312 -9.15625 5.992188 -9.046875 6.046875 -8.890625 C 6.222656 -8.316406 6.054688 -7.945312 5.546875 -7.78125 C 5.128906 -7.6875 4.722656 -7.617188 4.328125 -7.578125 L 3.875 -7.515625 C 3.800781 -6.921875 3.738281 -6.382812 3.6875 -5.90625 C 3.4375 -3.632812 3.425781 -2.097656 3.65625 -1.296875 C 3.75 -1.023438 3.828125 -0.84375 3.890625 -0.75 C 3.503906 -0.539062 3.09375 -0.40625 2.65625 -0.34375 Z M 2.65625 -0.34375 "/></g></g></g><g fill="#0b0019" fill-opacity="1"><g transform="translate(52.592328, 54.746158)"><g><path d="M 4.28125 -0.578125 C 3.425781 -0.472656 2.664062 -0.546875 2 -0.796875 C 1.332031 -1.054688 0.804688 -1.484375 0.421875 -2.078125 C 0.234375 -2.367188 0.09375 -2.679688 0 -3.015625 C -0.113281 -3.367188 -0.175781 -3.765625 -0.1875 -4.203125 C -0.207031 -4.804688 -0.125 -5.40625 0.0625 -6 C 0.257812 -6.601562 0.554688 -7.144531 0.953125 -7.625 C 1.347656 -8.101562 1.835938 -8.503906 2.421875 -8.828125 C 3.015625 -9.160156 3.691406 -9.378906 4.453125 -9.484375 L 4.625 -9.5 C 5.28125 -9.582031 5.867188 -9.519531 6.390625 -9.3125 C 6.921875 -9.101562 7.320312 -8.773438 7.59375 -8.328125 C 7.695312 -8.179688 7.769531 -8.023438 7.8125 -7.859375 C 7.914062 -7.546875 7.9375 -7.203125 7.875 -6.828125 C 7.757812 -6.273438 7.445312 -5.765625 6.9375 -5.296875 C 6.4375 -4.835938 5.820312 -4.46875 5.09375 -4.1875 C 4.476562 -3.9375 3.867188 -3.769531 3.265625 -3.6875 L 2.671875 -3.640625 C 3.035156 -3.097656 3.414062 -2.742188 3.8125 -2.578125 C 4.21875 -2.410156 4.6875 -2.363281 5.21875 -2.4375 C 5.863281 -2.53125 6.394531 -2.710938 6.8125 -2.984375 C 7.238281 -3.265625 7.566406 -3.554688 7.796875 -3.859375 C 7.765625 -3.867188 7.757812 -3.835938 7.78125 -3.765625 C 7.78125 -3.734375 7.789062 -3.65625 7.8125 -3.53125 C 7.84375 -3.414062 7.796875 -3.203125 7.671875 -2.890625 C 7.554688 -2.585938 7.367188 -2.273438 7.109375 -1.953125 C 6.847656 -1.640625 6.507812 -1.359375 6.09375 -1.109375 C 5.675781 -0.867188 5.1875 -0.710938 4.625 -0.640625 Z M 2.453125 -4.796875 C 3.429688 -5.035156 4.1875 -5.316406 4.71875 -5.640625 C 5.5 -6.097656 5.789062 -6.65625 5.59375 -7.3125 C 5.414062 -7.894531 4.988281 -8.144531 4.3125 -8.0625 C 3.863281 -7.988281 3.507812 -7.773438 3.25 -7.421875 C 2.988281 -7.078125 2.800781 -6.691406 2.6875 -6.265625 C 2.570312 -5.835938 2.492188 -5.347656 2.453125 -4.796875 Z M 2.453125 -4.796875 "/></g></g></g></svg>