<svg xmlns="http://www.w3.org/2000/svg" xmlns:xlink="http://www.w3.org/1999/xlink" width="240" zoomAndPan="magnify" viewBox="0 0 180 96.749999" height="129" preserveAspectRatio="xMidYMid meet" version="1.0"><defs><g/><clipPath id="4fbb82058c"><path d="M 0.230469 54 L 4 54 L 4 56 L 0.230469 56 Z M 0.230469 54 " clip-rule="nonzero"/></clipPath><clipPath id="239118ebd1"><path d="M 15 46.753906 L 17 46.753906 L 17 50 L 15 50 Z M 15 46.753906 " clip-rule="nonzero"/></clipPath><clipPath id="3cbb523cac"><path d="M 23 52 L 25.195312 52 L 25.195312 54 L 23 54 Z M 23 52 " clip-rule="nonzero"/></clipPath></defs><g fill="#000000" fill-opacity="1"><g transform="translate(2.657519, 95.725233)"><g><path d="M 0.640625 0 L 4.171875 -36.625 L 16.59375 -36.625 L 20.078125 0 L 13.140625 0 L 12.625 -5.921875 L 8.1875 -5.921875 L 7.765625 0 Z M 8.734375 -11.765625 L 12.0625 -11.765625 L 10.453125 -30.40625 L 10.109375 -30.40625 Z M 8.734375 -11.765625 "/></g></g></g><g fill="#000000" fill-opacity="1"><g transform="translate(23.33194, 95.725233)"><g><path d="M 1.625 0 L 1.625 -36.625 L 8.953125 -36.625 L 8.953125 -6.21875 L 16.5 -6.21875 L 16.5 0 Z M 1.625 0 "/></g></g></g><g fill="#000000" fill-opacity="1"><g transform="translate(40.255128, 95.725233)"><g><path d="M 1.625 0 L 1.625 -36.625 L 8.953125 -36.625 L 8.953125 -6.21875 L 16.5 -6.21875 L 16.5 0 Z M 1.625 0 "/></g></g></g><g fill="#000000" fill-opacity="1"><g transform="translate(57.178317, 95.725233)"><g><path d="M 1.625 0 L 1.625 -36.625 L 16.28125 -36.625 L 16.28125 -29.546875 L 9.078125 -29.546875 L 9.078125 -22.421875 L 15.984375 -22.421875 L 15.984375 -15.515625 L 9.078125 -15.515625 L 9.078125 -7.125 L 16.75 -7.125 L 16.75 0 Z M 1.625 0 "/></g></g></g><g fill="#000000" fill-opacity="1"><g transform="translate(74.74092, 95.725233)"><g><path d="M 1.625 0 L 1.625 -36.625 L 9.171875 -36.625 L 12.53125 -19.109375 L 12.53125 -36.625 L 19.609375 -36.625 L 19.609375 0 L 12.453125 0 L 8.78125 -18.328125 L 8.78125 0 Z M 1.625 0 "/></g></g></g><path fill="#fccb1e" d="M 19.054688 59.503906 C 15.320312 58.953125 10.363281 58.875 6.667969 59.644531 C 6.648438 57.464844 6.191406 55.3125 5.738281 53.183594 C 7.191406 54.507812 8.820312 55.640625 10.566406 56.542969 C 11.863281 55.082031 12.957031 53.234375 13.667969 51.667969 C 14.375 53.234375 15.472656 55.171875 16.359375 56.511719 C 17.777344 55.238281 18.910156 53.945312 20.128906 52.839844 C 19.335938 55.371094 19.054688 57.507812 19.023438 59.5625 " fill-opacity="1" fill-rule="nonzero"/><path fill="#100f0d" d="M 19.144531 59.175781 C 16.140625 58.769531 13.109375 58.613281 10.085938 58.839844 C 9.089844 58.914062 7.492188 59.519531 6.960938 58.554688 C 7.039062 58.695312 6.671875 56.160156 6.691406 56.304688 C 6.523438 55.226562 6.292969 54.160156 6.066406 53.09375 C 5.878906 53.203125 5.6875 53.3125 5.5 53.425781 C 7.023438 54.757812 8.609375 55.867188 10.394531 56.839844 C 10.515625 56.90625 10.707031 56.902344 10.804688 56.785156 C 11.332031 56.152344 11.609375 55.828125 12.082031 55.148438 C 12.230469 54.9375 13.378906 52.707031 13.574219 52.644531 C 13.804688 52.570312 15.792969 56.257812 16.066406 56.683594 C 16.1875 56.875 16.433594 56.90625 16.601562 56.753906 C 17.886719 55.558594 19.09375 54.28125 20.371094 53.078125 C 20.179688 52.96875 19.992188 52.859375 19.800781 52.746094 C 19.144531 55.003906 18.761719 57.210938 18.683594 59.5625 C 18.671875 60.003906 19.351562 60 19.367188 59.5625 C 19.4375 57.28125 19.820312 55.113281 20.457031 52.929688 C 20.558594 52.589844 20.132812 52.367188 19.890625 52.597656 C 19.207031 53.238281 17.382812 55.703125 16.5 55.628906 C 15.527344 55.546875 14.359375 52.332031 13.960938 51.492188 C 13.851562 51.269531 13.480469 51.269531 13.371094 51.492188 C 12.742188 52.804688 12.046875 54.660156 10.683594 55.292969 C 9.574219 55.804688 9.609375 55.664062 8.625 55 C 7.695312 54.371094 6.824219 53.675781 5.980469 52.941406 C 5.722656 52.714844 5.339844 52.933594 5.410156 53.273438 C 5.855469 55.386719 6.238281 57.476562 6.328125 59.644531 C 6.335938 59.878906 6.535156 60.015625 6.757812 59.972656 C 10.777344 59.21875 14.921875 59.289062 18.960938 59.832031 C 19.390625 59.890625 19.574219 59.234375 19.144531 59.175781 " fill-opacity="1" fill-rule="nonzero"/><path fill="#faf783" d="M 13.554688 52.023438 C 13.957031 52.089844 14.40625 51.9375 14.636719 51.597656 C 14.867188 51.261719 14.828125 50.746094 14.511719 50.484375 C 14.363281 50.363281 14.175781 50.304688 13.984375 50.289062 C 13.355469 50.242188 12.730469 50.742188 12.636719 51.371094 C 12.621094 51.46875 12.617188 51.574219 12.65625 51.667969 C 12.714844 51.804688 12.855469 51.886719 12.992188 51.949219 C 13.273438 52.074219 13.582031 52.144531 13.894531 52.152344 " fill-opacity="1" fill-rule="nonzero"/><path fill="#100f0d" d="M 13.554688 52.277344 C 14.234375 52.359375 14.964844 51.949219 15.03125 51.21875 C 15.097656 50.496094 14.511719 49.992188 13.820312 50.035156 C 13.132812 50.074219 12.507812 50.617188 12.390625 51.300781 C 12.242188 52.152344 13.246094 52.375 13.894531 52.40625 C 14.222656 52.425781 14.21875 51.910156 13.894531 51.894531 C 13.542969 51.878906 12.761719 51.789062 12.921875 51.273438 C 13.039062 50.890625 13.402344 50.597656 13.800781 50.550781 C 14.21875 50.503906 14.621094 50.785156 14.511719 51.25 C 14.410156 51.683594 13.941406 51.8125 13.554688 51.765625 C 13.230469 51.726562 13.230469 52.242188 13.554688 52.277344 " fill-opacity="1" fill-rule="nonzero"/><path fill="#faf783" d="M 19.886719 52.789062 C 20.039062 52.890625 20.207031 52.972656 20.382812 53.03125 C 20.714844 53.144531 21.097656 53.171875 21.398438 52.992188 C 21.699219 52.8125 21.863281 52.386719 21.671875 52.089844 C 21.609375 51.992188 21.515625 51.917969 21.417969 51.847656 C 21.160156 51.660156 20.855469 51.492188 20.535156 51.511719 C 20.386719 51.519531 20.242188 51.570312 20.101562 51.632812 C 19.945312 51.707031 19.785156 51.804688 19.707031 51.960938 C 19.609375 52.160156 19.675781 52.410156 19.816406 52.582031 C 19.960938 52.753906 20.164062 52.855469 20.371094 52.9375 " fill-opacity="1" fill-rule="nonzero"/><path fill="#100f0d" d="M 19.757812 53.007812 C 20.332031 53.363281 21.210938 53.609375 21.742188 53.039062 C 22.277344 52.46875 21.917969 51.828125 21.34375 51.492188 C 20.796875 51.167969 19.988281 51.167969 19.5625 51.71875 C 19.070312 52.355469 19.753906 52.957031 20.304688 53.183594 C 20.609375 53.308594 20.738281 52.8125 20.441406 52.6875 C 20.015625 52.515625 19.675781 52.066406 20.273438 51.835938 C 20.609375 51.710938 20.902344 51.804688 21.191406 52 C 21.550781 52.242188 21.597656 52.695312 21.121094 52.835938 C 20.738281 52.949219 20.332031 52.761719 20.015625 52.566406 C 19.734375 52.394531 19.476562 52.835938 19.757812 53.007812 " fill-opacity="1" fill-rule="nonzero"/><path fill="#faf783" d="M 5.820312 53.320312 C 6.175781 53.117188 6.417969 52.726562 6.449219 52.316406 C 6.457031 52.222656 6.453125 52.125 6.414062 52.042969 C 6.378906 51.972656 6.324219 51.917969 6.261719 51.875 C 6.011719 51.699219 5.667969 51.707031 5.378906 51.808594 C 5.167969 51.882812 4.976562 51.996094 4.8125 52.148438 C 4.683594 52.269531 4.570312 52.417969 4.519531 52.589844 C 4.472656 52.761719 4.492188 52.957031 4.601562 53.097656 C 4.710938 53.238281 4.894531 53.304688 5.070312 53.324219 C 5.46875 53.367188 5.882812 53.203125 6.148438 52.898438 " fill-opacity="1" fill-rule="nonzero"/><path fill="#100f0d" d="M 5.949219 53.542969 C 6.421875 53.238281 6.941406 52.496094 6.632812 51.914062 C 6.289062 51.253906 5.324219 51.460938 4.839844 51.800781 C 4.367188 52.136719 3.953125 52.875 4.496094 53.355469 C 5.027344 53.832031 5.894531 53.53125 6.328125 53.078125 C 6.554688 52.839844 6.195312 52.476562 5.964844 52.714844 C 5.734375 52.960938 5.378906 53.144531 5.03125 53.058594 C 4.441406 52.910156 4.925781 52.34375 5.207031 52.171875 C 5.449219 52.027344 6.125 51.800781 6.195312 52.269531 C 6.246094 52.597656 5.9375 52.941406 5.691406 53.101562 C 5.414062 53.277344 5.671875 53.722656 5.949219 53.542969 " fill-opacity="1" fill-rule="nonzero"/><g clip-path="url(#4fbb82058c)"><path fill="#100f0d" d="M 2.964844 54.542969 C 2.207031 54.402344 1.449219 54.261719 0.6875 54.121094 C 0.367188 54.058594 0.230469 54.554688 0.554688 54.613281 C 1.3125 54.757812 2.070312 54.898438 2.828125 55.039062 C 3.148438 55.097656 3.289062 54.605469 2.964844 54.542969 " fill-opacity="1" fill-rule="nonzero"/></g><path fill="#100f0d" d="M 4.167969 50.472656 C 3.777344 49.949219 3.289062 49.566406 2.6875 49.316406 C 2.382812 49.191406 2.25 49.6875 2.550781 49.8125 C 3.019531 50.003906 3.425781 50.324219 3.726562 50.730469 C 3.921875 50.992188 4.363281 50.734375 4.167969 50.472656 " fill-opacity="1" fill-rule="nonzero"/><path fill="#100f0d" d="M 9.851562 49.238281 C 9.792969 48.617188 9.71875 48 9.625 47.382812 C 9.574219 47.058594 9.082031 47.195312 9.132812 47.519531 C 9.21875 48.089844 9.289062 48.664062 9.339844 49.238281 C 9.371094 49.566406 9.878906 49.570312 9.851562 49.238281 " fill-opacity="1" fill-rule="nonzero"/><g clip-path="url(#239118ebd1)"><path fill="#100f0d" d="M 16.394531 48.871094 C 16.441406 48.308594 16.539062 47.757812 16.679688 47.210938 C 16.765625 46.890625 16.273438 46.753906 16.1875 47.074219 C 16.035156 47.664062 15.933594 48.261719 15.886719 48.871094 C 15.859375 49.203125 16.371094 49.199219 16.394531 48.871094 " fill-opacity="1" fill-rule="nonzero"/></g><path fill="#100f0d" d="M 21.277344 49.511719 C 21.761719 49.269531 22.246094 49.027344 22.730469 48.785156 C 23.027344 48.636719 22.765625 48.195312 22.472656 48.339844 C 21.988281 48.582031 21.503906 48.824219 21.019531 49.066406 C 20.726562 49.214844 20.984375 49.65625 21.277344 49.511719 " fill-opacity="1" fill-rule="nonzero"/><g clip-path="url(#3cbb523cac)"><path fill="#100f0d" d="M 23.503906 53.328125 C 23.960938 53.328125 24.414062 53.328125 24.867188 53.328125 C 25.195312 53.328125 25.195312 52.816406 24.867188 52.816406 C 24.414062 52.816406 23.960938 52.816406 23.503906 52.816406 C 23.175781 52.816406 23.175781 53.328125 23.503906 53.328125 " fill-opacity="1" fill-rule="nonzero"/></g><path fill="#100f0d" d="M 23.210938 56.5625 C 23.542969 56.515625 23.875 56.464844 24.207031 56.417969 C 24.53125 56.371094 24.394531 55.878906 24.074219 55.925781 C 23.742188 55.972656 23.40625 56.019531 23.074219 56.066406 C 22.75 56.113281 22.890625 56.609375 23.210938 56.5625 " fill-opacity="1" fill-rule="nonzero"/></svg>