<svg xmlns="http://www.w3.org/2000/svg" xmlns:xlink="http://www.w3.org/1999/xlink" width="240" zoomAndPan="magnify" viewBox="0 0 180 96.749999" height="129" preserveAspectRatio="xMidYMid meet" version="1.0"><defs><g/><clipPath id="bfd7ab7bee"><path d="M 6 50 L 20 50 L 20 58.359375 L 6 58.359375 Z M 6 50 " clip-rule="nonzero"/></clipPath><clipPath id="7d845e11b8"><path d="M 5 50 L 20 50 L 20 58.359375 L 5 58.359375 Z M 5 50 " clip-rule="nonzero"/></clipPath><clipPath id="53af7a1465"><path d="M 22 51 L 24.382812 51 L 24.382812 53 L 22 53 Z M 22 51 " clip-rule="nonzero"/></clipPath></defs><g fill="#000000" fill-opacity="1"><g transform="translate(3.253989, 91.835931)"><g><path d="M 0.59375 0 L 3.921875 -34.328125 L 15.546875 -34.328125 L 18.828125 0 L 12.3125 0 L 11.828125 -5.5625 L 7.671875 -5.5625 L 7.28125 0 Z M 8.1875 -11.03125 L 11.3125 -11.03125 L 9.796875 -28.5 L 9.46875 -28.5 Z M 8.1875 -11.03125 "/></g></g></g><g fill="#000000" fill-opacity="1"><g transform="translate(22.636258, 91.835931)"><g><path d="M 1.515625 0 L 1.515625 -34.328125 L 8.390625 -34.328125 L 8.390625 -5.828125 L 15.46875 -5.828125 L 15.46875 0 Z M 1.515625 0 "/></g></g></g><g fill="#000000" fill-opacity="1"><g transform="translate(38.501748, 91.835931)"><g><path d="M 1.515625 0 L 1.515625 -34.328125 L 8.390625 -34.328125 L 8.390625 -5.828125 L 15.46875 -5.828125 L 15.46875 0 Z M 1.515625 0 "/></g></g></g><g fill="#000000" fill-opacity="1"><g transform="translate(54.367238, 91.835931)"><g><path d="M 1.515625 0 L 1.515625 -34.328125 L 15.265625 -34.328125 L 15.265625 -27.703125 L 8.515625 -27.703125 L 8.515625 -21.03125 L 14.984375 -21.03125 L 14.984375 -14.546875 L 8.515625 -14.546875 L 8.515625 -6.671875 L 15.703125 -6.671875 L 15.703125 0 Z M 1.515625 0 "/></g></g></g><g fill="#000000" fill-opacity="1"><g transform="translate(70.832178, 91.835931)"><g><path d="M 1.515625 0 L 1.515625 -34.328125 L 8.59375 -34.328125 L 11.75 -17.90625 L 11.75 -34.328125 L 18.390625 -34.328125 L 18.390625 0 L 11.671875 0 L 8.234375 -17.1875 L 8.234375 0 Z M 1.515625 0 "/></g></g></g><g clip-path="url(#bfd7ab7bee)"><path fill="#fccb1e" d="M 18.625 57.878906 C 15.125 57.363281 10.476562 57.289062 7.011719 58.007812 C 6.992188 55.964844 6.566406 53.949219 6.144531 51.953125 C 7.503906 53.195312 9.03125 54.257812 10.667969 55.101562 C 11.882812 53.730469 12.910156 52 13.574219 50.53125 C 14.238281 52 15.269531 53.816406 16.101562 55.074219 C 17.425781 53.878906 18.492188 52.667969 19.636719 51.628906 C 18.890625 54.003906 18.625 56.007812 18.597656 57.933594 " fill-opacity="1" fill-rule="nonzero"/></g><g clip-path="url(#7d845e11b8)"><path fill="#100f0d" d="M 18.710938 57.570312 C 15.894531 57.1875 13.050781 57.042969 10.21875 57.257812 C 9.285156 57.328125 7.789062 57.894531 7.289062 56.988281 C 7.363281 57.121094 7.015625 54.742188 7.039062 54.878906 C 6.878906 53.867188 6.660156 52.867188 6.449219 51.867188 C 6.273438 51.972656 6.09375 52.074219 5.917969 52.179688 C 7.347656 53.429688 8.835938 54.46875 10.507812 55.378906 C 10.621094 55.441406 10.800781 55.441406 10.894531 55.328125 C 11.386719 54.734375 11.648438 54.433594 12.089844 53.796875 C 12.226562 53.597656 13.304688 51.503906 13.488281 51.445312 C 13.707031 51.375 15.566406 54.835938 15.824219 55.234375 C 15.9375 55.414062 16.167969 55.445312 16.324219 55.300781 C 17.53125 54.179688 18.660156 52.984375 19.859375 51.855469 C 19.683594 51.75 19.503906 51.648438 19.328125 51.542969 C 18.710938 53.660156 18.351562 55.730469 18.28125 57.933594 C 18.265625 58.347656 18.90625 58.34375 18.917969 57.933594 C 18.984375 55.796875 19.34375 53.765625 19.941406 51.714844 C 20.035156 51.398438 19.636719 51.191406 19.410156 51.402344 C 18.769531 52.003906 17.058594 54.316406 16.230469 54.246094 C 15.320312 54.167969 14.222656 51.15625 13.851562 50.367188 C 13.75 50.160156 13.398438 50.160156 13.300781 50.367188 C 12.707031 51.601562 12.058594 53.335938 10.777344 53.929688 C 9.738281 54.410156 9.769531 54.277344 8.847656 53.65625 C 7.976562 53.066406 7.160156 52.417969 6.367188 51.726562 C 6.125 51.515625 5.769531 51.71875 5.835938 52.039062 C 6.253906 54.019531 6.609375 55.980469 6.695312 58.007812 C 6.703125 58.230469 6.890625 58.355469 7.097656 58.316406 C 10.867188 57.613281 14.75 57.675781 18.539062 58.1875 C 18.941406 58.242188 19.113281 57.625 18.710938 57.570312 " fill-opacity="1" fill-rule="nonzero"/></g><path fill="#faf783" d="M 13.46875 50.863281 C 13.847656 50.925781 14.265625 50.785156 14.484375 50.464844 C 14.699219 50.148438 14.664062 49.667969 14.367188 49.421875 C 14.230469 49.308594 14.050781 49.253906 13.875 49.238281 C 13.28125 49.195312 12.699219 49.664062 12.609375 50.253906 C 12.59375 50.347656 12.589844 50.445312 12.628906 50.53125 C 12.683594 50.660156 12.816406 50.738281 12.941406 50.796875 C 13.207031 50.914062 13.496094 50.980469 13.789062 50.984375 " fill-opacity="1" fill-rule="nonzero"/><path fill="#100f0d" d="M 13.46875 51.105469 C 14.109375 51.179688 14.789062 50.796875 14.855469 50.109375 C 14.917969 49.433594 14.367188 48.960938 13.71875 49 C 13.074219 49.039062 12.488281 49.546875 12.378906 50.1875 C 12.238281 50.988281 13.179688 51.195312 13.789062 51.226562 C 14.09375 51.242188 14.09375 50.761719 13.789062 50.746094 C 13.457031 50.726562 12.726562 50.644531 12.875 50.164062 C 12.988281 49.804688 13.328125 49.527344 13.699219 49.484375 C 14.09375 49.441406 14.46875 49.707031 14.367188 50.140625 C 14.273438 50.546875 13.832031 50.667969 13.46875 50.625 C 13.164062 50.589844 13.167969 51.070312 13.46875 51.105469 " fill-opacity="1" fill-rule="nonzero"/><path fill="#faf783" d="M 19.40625 51.582031 C 19.550781 51.679688 19.707031 51.757812 19.871094 51.8125 C 20.183594 51.917969 20.542969 51.941406 20.824219 51.773438 C 21.105469 51.605469 21.261719 51.203125 21.082031 50.929688 C 21.019531 50.835938 20.933594 50.765625 20.84375 50.699219 C 20.597656 50.523438 20.316406 50.367188 20.015625 50.386719 C 19.875 50.394531 19.738281 50.441406 19.609375 50.5 C 19.460938 50.566406 19.3125 50.660156 19.238281 50.808594 C 19.148438 50.992188 19.207031 51.230469 19.34375 51.390625 C 19.476562 51.550781 19.667969 51.644531 19.859375 51.722656 " fill-opacity="1" fill-rule="nonzero"/><path fill="#100f0d" d="M 19.285156 51.789062 C 19.820312 52.121094 20.648438 52.351562 21.144531 51.816406 C 21.648438 51.28125 21.308594 50.683594 20.773438 50.367188 C 20.257812 50.0625 19.503906 50.0625 19.101562 50.578125 C 18.640625 51.175781 19.285156 51.742188 19.796875 51.953125 C 20.082031 52.070312 20.207031 51.605469 19.925781 51.488281 C 19.527344 51.324219 19.210938 50.90625 19.769531 50.691406 C 20.082031 50.570312 20.359375 50.660156 20.628906 50.84375 C 20.96875 51.074219 21.007812 51.492188 20.5625 51.625 C 20.207031 51.734375 19.824219 51.558594 19.527344 51.375 C 19.261719 51.210938 19.023438 51.628906 19.285156 51.789062 " fill-opacity="1" fill-rule="nonzero"/><path fill="#faf783" d="M 6.21875 52.082031 C 6.550781 51.890625 6.78125 51.523438 6.808594 51.140625 C 6.816406 51.050781 6.8125 50.960938 6.773438 50.882812 C 6.742188 50.820312 6.691406 50.765625 6.632812 50.726562 C 6.398438 50.558594 6.074219 50.570312 5.804688 50.664062 C 5.609375 50.730469 5.429688 50.839844 5.277344 50.984375 C 5.152344 51.097656 5.046875 51.234375 5 51.394531 C 4.953125 51.558594 4.972656 51.742188 5.074219 51.875 C 5.179688 52.003906 5.351562 52.066406 5.515625 52.082031 C 5.890625 52.125 6.277344 51.96875 6.523438 51.683594 " fill-opacity="1" fill-rule="nonzero"/><path fill="#100f0d" d="M 6.339844 52.289062 C 6.78125 52.007812 7.269531 51.308594 6.980469 50.761719 C 6.65625 50.144531 5.753906 50.335938 5.300781 50.65625 C 4.855469 50.972656 4.46875 51.664062 4.976562 52.113281 C 5.476562 52.558594 6.289062 52.28125 6.695312 51.855469 C 6.90625 51.632812 6.570312 51.289062 6.355469 51.515625 C 6.136719 51.742188 5.804688 51.917969 5.480469 51.835938 C 4.925781 51.699219 5.378906 51.167969 5.644531 51.003906 C 5.871094 50.867188 6.503906 50.65625 6.570312 51.097656 C 6.617188 51.402344 6.328125 51.726562 6.097656 51.875 C 5.839844 52.042969 6.078125 52.457031 6.339844 52.289062 " fill-opacity="1" fill-rule="nonzero"/><path fill="#100f0d" d="M 3.542969 53.230469 C 2.832031 53.097656 2.121094 52.964844 1.410156 52.832031 C 1.109375 52.773438 0.980469 53.238281 1.28125 53.292969 C 1.992188 53.425781 2.703125 53.558594 3.414062 53.691406 C 3.714844 53.75 3.84375 53.285156 3.542969 53.230469 " fill-opacity="1" fill-rule="nonzero"/><path fill="#100f0d" d="M 4.667969 49.410156 C 4.304688 48.917969 3.84375 48.5625 3.28125 48.328125 C 2.996094 48.210938 2.875 48.675781 3.15625 48.792969 C 3.589844 48.972656 3.972656 49.273438 4.257812 49.652344 C 4.4375 49.898438 4.855469 49.660156 4.667969 49.410156 " fill-opacity="1" fill-rule="nonzero"/><path fill="#100f0d" d="M 9.996094 48.253906 C 9.945312 47.671875 9.875 47.09375 9.785156 46.515625 C 9.738281 46.210938 9.277344 46.339844 9.324219 46.644531 C 9.40625 47.179688 9.46875 47.714844 9.519531 48.253906 C 9.546875 48.5625 10.023438 48.5625 9.996094 48.253906 " fill-opacity="1" fill-rule="nonzero"/><path fill="#100f0d" d="M 16.132812 47.910156 C 16.175781 47.382812 16.265625 46.867188 16.402344 46.351562 C 16.480469 46.054688 16.019531 45.925781 15.941406 46.226562 C 15.792969 46.777344 15.703125 47.339844 15.65625 47.910156 C 15.628906 48.21875 16.109375 48.21875 16.132812 47.910156 " fill-opacity="1" fill-rule="nonzero"/><path fill="#100f0d" d="M 20.710938 48.511719 C 21.164062 48.285156 21.617188 48.054688 22.074219 47.828125 C 22.347656 47.691406 22.105469 47.277344 21.832031 47.414062 C 21.378906 47.640625 20.921875 47.867188 20.46875 48.09375 C 20.191406 48.234375 20.433594 48.648438 20.710938 48.511719 " fill-opacity="1" fill-rule="nonzero"/><g clip-path="url(#53af7a1465)"><path fill="#100f0d" d="M 22.800781 52.089844 C 23.222656 52.089844 23.652344 52.089844 24.074219 52.089844 C 24.382812 52.089844 24.382812 51.609375 24.074219 51.609375 C 23.652344 51.609375 23.222656 51.609375 22.800781 51.609375 C 22.492188 51.609375 22.492188 52.089844 22.800781 52.089844 " fill-opacity="1" fill-rule="nonzero"/></g><path fill="#100f0d" d="M 22.523438 55.121094 C 22.835938 55.074219 23.144531 55.03125 23.457031 54.988281 C 23.761719 54.941406 23.632812 54.480469 23.332031 54.523438 C 23.019531 54.566406 22.707031 54.613281 22.394531 54.65625 C 22.09375 54.699219 22.222656 55.164062 22.523438 55.121094 " fill-opacity="1" fill-rule="nonzero"/></svg>