<svg xmlns="http://www.w3.org/2000/svg" xmlns:xlink="http://www.w3.org/1999/xlink" width="240" zoomAndPan="magnify" viewBox="0 0 180 96.749999" height="129" preserveAspectRatio="xMidYMid meet" version="1.0"><defs><g/><clipPath id="d64995f3fc"><path d="M 0.230469 0 L 179.765625 0 L 179.765625 96.5 L 0.230469 96.5 Z M 0.230469 0 " clip-rule="nonzero"/></clipPath><clipPath id="5a4e10e37e"><path d="M 6 28 L 20 28 L 20 36.707031 L 6 36.707031 Z M 6 28 " clip-rule="nonzero"/></clipPath><clipPath id="8924ef7614"><path d="M 5 28 L 20 28 L 20 36.707031 L 5 36.707031 Z M 5 28 " clip-rule="nonzero"/></clipPath><clipPath id="b14588e869"><path d="M 9 24.273438 L 10 24.273438 L 10 27 L 9 27 Z M 9 24.273438 " clip-rule="nonzero"/></clipPath><clipPath id="7006348100"><path d="M 15 24.273438 L 17 24.273438 L 17 27 L 15 27 Z M 15 24.273438 " clip-rule="nonzero"/></clipPath><clipPath id="bca833a54a"><path d="M 22 29 L 24.382812 29 L 24.382812 31 L 22 31 Z M 22 29 " clip-rule="nonzero"/></clipPath></defs><g clip-path="url(#d64995f3fc)"><path fill="#ffffff" d="M 0.230469 0 L 179.769531 0 L 179.769531 96.5 L 0.230469 96.5 Z M 0.230469 0 " fill-opacity="1" fill-rule="nonzero"/><path fill="#a6a6a6" d="M 0.230469 0 L 179.769531 0 L 179.769531 96.5 L 0.230469 96.5 Z M 0.230469 0 " fill-opacity="1" fill-rule="nonzero"/></g><g fill="#000000" fill-opacity="1"><g transform="translate(3.253989, 70.183087)"><g><path d="M 0.59375 0 L 3.921875 -34.328125 L 15.546875 -34.328125 L 18.828125 0 L 12.3125 0 L 11.828125 -5.5625 L 7.671875 -5.5625 L 7.28125 0 Z M 8.1875 -11.03125 L 11.3125 -11.03125 L 9.796875 -28.5 L 9.46875 -28.5 Z M 8.1875 -11.03125 "/></g></g></g><g fill="#000000" fill-opacity="1"><g transform="translate(22.636258, 70.183087)"><g><path d="M 1.515625 0 L 1.515625 -34.328125 L 8.390625 -34.328125 L 8.390625 -5.828125 L 15.46875 -5.828125 L 15.46875 0 Z M 1.515625 0 "/></g></g></g><g fill="#000000" fill-opacity="1"><g transform="translate(38.501748, 70.183087)"><g><path d="M 1.515625 0 L 1.515625 -34.328125 L 8.390625 -34.328125 L 8.390625 -5.828125 L 15.46875 -5.828125 L 15.46875 0 Z M 1.515625 0 "/></g></g></g><g fill="#000000" fill-opacity="1"><g transform="translate(54.367238, 70.183087)"><g><path d="M 1.515625 0 L 1.515625 -34.328125 L 15.265625 -34.328125 L 15.265625 -27.703125 L 8.515625 -27.703125 L 8.515625 -21.03125 L 14.984375 -21.03125 L 14.984375 -14.546875 L 8.515625 -14.546875 L 8.515625 -6.671875 L 15.703125 -6.671875 L 15.703125 0 Z M 1.515625 0 "/></g></g></g><g fill="#000000" fill-opacity="1"><g transform="translate(70.832178, 70.183087)"><g><path d="M 1.515625 0 L 1.515625 -34.328125 L 8.59375 -34.328125 L 11.75 -17.90625 L 11.75 -34.328125 L 18.390625 -34.328125 L 18.390625 0 L 11.671875 0 L 8.234375 -17.1875 L 8.234375 0 Z M 1.515625 0 "/></g></g></g><g clip-path="url(#5a4e10e37e)"><path fill="#fccb1e" d="M 18.625 36.226562 C 15.125 35.710938 10.476562 35.636719 7.011719 36.355469 C 6.992188 34.3125 6.566406 32.296875 6.144531 30.300781 C 7.503906 31.542969 9.03125 32.605469 10.667969 33.449219 C 11.882812 32.078125 12.910156 30.347656 13.574219 28.878906 C 14.238281 30.347656 15.269531 32.164062 16.101562 33.421875 C 17.425781 32.226562 18.492188 31.015625 19.636719 29.976562 C 18.890625 32.351562 18.625 34.355469 18.597656 36.28125 " fill-opacity="1" fill-rule="nonzero"/></g><g clip-path="url(#8924ef7614)"><path fill="#100f0d" d="M 18.710938 35.917969 C 15.894531 35.535156 13.050781 35.390625 10.21875 35.605469 C 9.285156 35.675781 7.789062 36.242188 7.289062 35.335938 C 7.363281 35.46875 7.015625 33.089844 7.039062 33.226562 C 6.878906 32.214844 6.660156 31.214844 6.449219 30.214844 C 6.273438 30.316406 6.09375 30.421875 5.917969 30.527344 C 7.347656 31.777344 8.835938 32.816406 10.507812 33.726562 C 10.621094 33.789062 10.800781 33.785156 10.894531 33.675781 C 11.386719 33.082031 11.648438 32.78125 12.089844 32.144531 C 12.226562 31.945312 13.304688 29.851562 13.488281 29.792969 C 13.707031 29.722656 15.566406 33.183594 15.824219 33.582031 C 15.9375 33.761719 16.167969 33.792969 16.324219 33.648438 C 17.53125 32.527344 18.660156 31.332031 19.859375 30.203125 C 19.683594 30.097656 19.503906 29.996094 19.328125 29.890625 C 18.710938 32.007812 18.351562 34.078125 18.28125 36.28125 C 18.265625 36.691406 18.90625 36.691406 18.917969 36.28125 C 18.984375 34.140625 19.34375 32.109375 19.941406 30.0625 C 20.035156 29.746094 19.636719 29.535156 19.410156 29.75 C 18.769531 30.351562 17.058594 32.664062 16.230469 32.59375 C 15.320312 32.515625 14.222656 29.503906 13.851562 28.714844 C 13.75 28.507812 13.398438 28.507812 13.300781 28.714844 C 12.707031 29.945312 12.058594 31.683594 10.777344 32.277344 C 9.738281 32.757812 9.769531 32.625 8.847656 32.003906 C 7.976562 31.414062 7.160156 30.761719 6.367188 30.074219 C 6.125 29.859375 5.769531 30.0625 5.835938 30.386719 C 6.253906 32.367188 6.609375 34.324219 6.695312 36.355469 C 6.703125 36.578125 6.890625 36.703125 7.097656 36.664062 C 10.867188 35.957031 14.75 36.023438 18.539062 36.535156 C 18.941406 36.589844 19.113281 35.972656 18.710938 35.917969 " fill-opacity="1" fill-rule="nonzero"/></g><path fill="#faf783" d="M 13.46875 29.210938 C 13.847656 29.273438 14.265625 29.132812 14.484375 28.8125 C 14.699219 28.496094 14.664062 28.011719 14.367188 27.769531 C 14.230469 27.65625 14.050781 27.601562 13.875 27.585938 C 13.28125 27.542969 12.699219 28.011719 12.609375 28.597656 C 12.59375 28.695312 12.589844 28.792969 12.628906 28.878906 C 12.683594 29.007812 12.816406 29.085938 12.941406 29.140625 C 13.207031 29.261719 13.496094 29.324219 13.789062 29.332031 " fill-opacity="1" fill-rule="nonzero"/><path fill="#100f0d" d="M 13.46875 29.453125 C 14.109375 29.527344 14.789062 29.144531 14.855469 28.457031 C 14.917969 27.78125 14.367188 27.308594 13.71875 27.347656 C 13.074219 27.386719 12.488281 27.894531 12.378906 28.535156 C 12.238281 29.332031 13.179688 29.542969 13.789062 29.574219 C 14.09375 29.589844 14.09375 29.105469 13.789062 29.09375 C 13.457031 29.074219 12.726562 28.992188 12.875 28.511719 C 12.988281 28.152344 13.328125 27.875 13.699219 27.832031 C 14.09375 27.789062 14.46875 28.050781 14.367188 28.488281 C 14.273438 28.890625 13.832031 29.011719 13.46875 28.972656 C 13.164062 28.933594 13.167969 29.417969 13.46875 29.453125 " fill-opacity="1" fill-rule="nonzero"/><path fill="#faf783" d="M 19.40625 29.929688 C 19.550781 30.027344 19.707031 30.101562 19.871094 30.160156 C 20.183594 30.265625 20.542969 30.289062 20.824219 30.121094 C 21.105469 29.953125 21.261719 29.550781 21.082031 29.273438 C 21.019531 29.183594 20.933594 29.113281 20.84375 29.046875 C 20.597656 28.871094 20.316406 28.714844 20.015625 28.734375 C 19.875 28.742188 19.738281 28.789062 19.609375 28.847656 C 19.460938 28.914062 19.3125 29.007812 19.238281 29.152344 C 19.148438 29.339844 19.207031 29.578125 19.34375 29.734375 C 19.476562 29.894531 19.667969 29.992188 19.859375 30.070312 " fill-opacity="1" fill-rule="nonzero"/><path fill="#100f0d" d="M 19.285156 30.136719 C 19.820312 30.46875 20.648438 30.699219 21.144531 30.164062 C 21.648438 29.628906 21.308594 29.03125 20.773438 28.714844 C 20.257812 28.410156 19.503906 28.410156 19.101562 28.925781 C 18.640625 29.523438 19.285156 30.089844 19.796875 30.300781 C 20.082031 30.417969 20.207031 29.953125 19.925781 29.835938 C 19.527344 29.671875 19.210938 29.253906 19.769531 29.039062 C 20.082031 28.917969 20.359375 29.007812 20.628906 29.191406 C 20.96875 29.417969 21.007812 29.839844 20.5625 29.972656 C 20.207031 30.082031 19.824219 29.90625 19.527344 29.722656 C 19.261719 29.558594 19.023438 29.976562 19.285156 30.136719 " fill-opacity="1" fill-rule="nonzero"/><path fill="#faf783" d="M 6.21875 30.429688 C 6.550781 30.238281 6.78125 29.871094 6.808594 29.488281 C 6.816406 29.398438 6.8125 29.308594 6.773438 29.230469 C 6.742188 29.164062 6.691406 29.113281 6.632812 29.074219 C 6.398438 28.90625 6.074219 28.914062 5.804688 29.011719 C 5.609375 29.078125 5.429688 29.1875 5.277344 29.328125 C 5.152344 29.445312 5.046875 29.582031 5 29.742188 C 4.953125 29.902344 4.972656 30.089844 5.074219 30.222656 C 5.179688 30.351562 5.351562 30.414062 5.515625 30.429688 C 5.890625 30.472656 6.277344 30.316406 6.523438 30.03125 " fill-opacity="1" fill-rule="nonzero"/><path fill="#100f0d" d="M 6.339844 30.636719 C 6.78125 30.351562 7.269531 29.65625 6.980469 29.109375 C 6.65625 28.492188 5.753906 28.683594 5.300781 29.003906 C 4.855469 29.320312 4.46875 30.011719 4.976562 30.460938 C 5.476562 30.90625 6.289062 30.625 6.695312 30.203125 C 6.90625 29.976562 6.570312 29.636719 6.355469 29.863281 C 6.136719 30.089844 5.804688 30.265625 5.480469 30.183594 C 4.925781 30.046875 5.378906 29.511719 5.644531 29.351562 C 5.871094 29.214844 6.503906 29.003906 6.570312 29.441406 C 6.617188 29.75 6.328125 30.074219 6.097656 30.222656 C 5.839844 30.386719 6.078125 30.804688 6.339844 30.636719 " fill-opacity="1" fill-rule="nonzero"/><path fill="#100f0d" d="M 3.542969 31.574219 C 2.832031 31.445312 2.121094 31.3125 1.410156 31.179688 C 1.109375 31.121094 0.980469 31.585938 1.28125 31.640625 C 1.992188 31.773438 2.703125 31.90625 3.414062 32.039062 C 3.714844 32.097656 3.84375 31.632812 3.542969 31.574219 " fill-opacity="1" fill-rule="nonzero"/><path fill="#100f0d" d="M 4.667969 27.757812 C 4.304688 27.265625 3.84375 26.910156 3.28125 26.675781 C 2.996094 26.558594 2.875 27.023438 3.15625 27.140625 C 3.589844 27.320312 3.972656 27.621094 4.257812 28 C 4.4375 28.246094 4.855469 28.003906 4.667969 27.757812 " fill-opacity="1" fill-rule="nonzero"/><g clip-path="url(#b14588e869)"><path fill="#100f0d" d="M 9.996094 26.601562 C 9.945312 26.019531 9.875 25.441406 9.785156 24.863281 C 9.738281 24.558594 9.277344 24.6875 9.324219 24.992188 C 9.40625 25.527344 9.46875 26.0625 9.519531 26.601562 C 9.546875 26.910156 10.023438 26.910156 9.996094 26.601562 " fill-opacity="1" fill-rule="nonzero"/></g><g clip-path="url(#7006348100)"><path fill="#100f0d" d="M 16.132812 26.257812 C 16.175781 25.730469 16.265625 25.210938 16.402344 24.699219 C 16.480469 24.402344 16.019531 24.273438 15.941406 24.574219 C 15.792969 25.125 15.703125 25.6875 15.65625 26.257812 C 15.628906 26.566406 16.109375 26.566406 16.132812 26.257812 " fill-opacity="1" fill-rule="nonzero"/></g><path fill="#100f0d" d="M 20.710938 26.855469 C 21.164062 26.628906 21.617188 26.402344 22.074219 26.175781 C 22.347656 26.039062 22.105469 25.625 21.832031 25.761719 C 21.378906 25.988281 20.921875 26.214844 20.46875 26.441406 C 20.191406 26.578125 20.433594 26.996094 20.710938 26.855469 " fill-opacity="1" fill-rule="nonzero"/><g clip-path="url(#bca833a54a)"><path fill="#100f0d" d="M 22.800781 30.433594 C 23.222656 30.433594 23.652344 30.433594 24.074219 30.433594 C 24.382812 30.433594 24.382812 29.953125 24.074219 29.953125 C 23.652344 29.953125 23.222656 29.953125 22.800781 29.953125 C 22.492188 29.953125 22.492188 30.433594 22.800781 30.433594 " fill-opacity="1" fill-rule="nonzero"/></g><path fill="#100f0d" d="M 22.523438 33.46875 C 22.835938 33.421875 23.144531 33.378906 23.457031 33.332031 C 23.761719 33.289062 23.632812 32.828125 23.332031 32.871094 C 23.019531 32.914062 22.707031 32.960938 22.394531 33.003906 C 22.09375 33.046875 22.222656 33.511719 22.523438 33.46875 " fill-opacity="1" fill-rule="nonzero"/></svg>