<svg xmlns="http://www.w3.org/2000/svg" xmlns:xlink="http://www.w3.org/1999/xlink" width="112" zoomAndPan="magnify" viewBox="0 0 84 81.749997" height="109" preserveAspectRatio="xMidYMid meet" version="1.0"><defs><g/><clipPath id="e4959c42dc"><path d="M 62 28 L 83.871094 28 L 83.871094 48 L 62 48 Z M 62 28 " clip-rule="nonzero"/></clipPath></defs><g fill="#000000" fill-opacity="1"><g transform="translate(0.58313, 47.70886)"><g><path d="M 15.71875 -19.375 C 15.769531 -19.375 15.796875 -19.351562 15.796875 -19.3125 C 15.796875 -19.257812 15.769531 -19.234375 15.71875 -19.234375 L 12.828125 -19.234375 C 13.222656 -19.085938 13.53125 -18.84375 13.75 -18.5 C 13.96875 -18.15625 14.078125 -17.78125 14.078125 -17.375 C 14.097656 -16.988281 14 -16.640625 13.78125 -16.328125 L 3.546875 -1.21875 C 3.472656 -1.09375 3.425781 -0.953125 3.40625 -0.796875 C 3.40625 -0.597656 3.476562 -0.425781 3.625 -0.28125 C 3.78125 -0.144531 3.957031 -0.078125 4.15625 -0.078125 L 8.375 -0.078125 C 9.78125 -0.078125 10.863281 -0.171875 11.625 -0.359375 C 12.394531 -0.546875 12.945312 -0.765625 13.28125 -1.015625 C 13.625 -1.265625 13.84375 -1.488281 13.9375 -1.6875 C 13.957031 -1.707031 13.976562 -1.726562 14 -1.75 C 14.019531 -1.75 14.035156 -1.75 14.046875 -1.75 C 14.066406 -1.726562 14.078125 -1.707031 14.078125 -1.6875 C 14.097656 -1.664062 14.097656 -1.648438 14.078125 -1.640625 L 13.28125 0.03125 C 13.28125 0.0625 13.257812 0.078125 13.21875 0.078125 L 0.53125 0.078125 C 0.507812 0.078125 0.488281 0.0703125 0.46875 0.0625 C 0.445312 0.0390625 0.4375 0.0195312 0.4375 0 C 0.4375 -0.0195312 0.445312 -0.0390625 0.46875 -0.0625 C 0.488281 -0.0703125 0.507812 -0.078125 0.53125 -0.078125 L 3.40625 -0.078125 C 3.019531 -0.234375 2.710938 -0.472656 2.484375 -0.796875 C 2.265625 -1.128906 2.15625 -1.5 2.15625 -1.90625 C 2.144531 -2.300781 2.238281 -2.664062 2.4375 -3 L 12.671875 -18.078125 C 12.765625 -18.203125 12.816406 -18.347656 12.828125 -18.515625 C 12.828125 -18.722656 12.753906 -18.894531 12.609375 -19.03125 C 12.460938 -19.164062 12.285156 -19.234375 12.078125 -19.234375 L 7.875 -19.234375 C 6.46875 -19.234375 5.378906 -19.140625 4.609375 -18.953125 C 3.847656 -18.773438 3.296875 -18.554688 2.953125 -18.296875 C 2.609375 -18.035156 2.390625 -17.800781 2.296875 -17.59375 C 2.273438 -17.582031 2.25 -17.578125 2.21875 -17.578125 C 2.21875 -17.578125 2.207031 -17.578125 2.1875 -17.578125 C 2.164062 -17.585938 2.15625 -17.601562 2.15625 -17.625 C 2.144531 -17.644531 2.144531 -17.664062 2.15625 -17.6875 L 2.96875 -19.34375 C 2.96875 -19.363281 2.984375 -19.375 3.015625 -19.375 Z M 15.71875 -19.375 "/></g></g></g><g fill="#000000" fill-opacity="1"><g transform="translate(16.821714, 47.70886)"><g><path d="M 4.578125 -3.25 C 4.578125 -2.519531 4.359375 -1.859375 3.921875 -1.265625 C 3.484375 -0.679688 2.914062 -0.28125 2.21875 -0.0625 L 5.984375 -0.078125 C 6.046875 -0.078125 6.078125 -0.0507812 6.078125 0 C 6.078125 0.0195312 6.066406 0.0390625 6.046875 0.0625 C 6.046875 0.0703125 6.035156 0.078125 6.015625 0.078125 L 1.25 0.078125 C 1.226562 0.078125 1.207031 0.0703125 1.1875 0.0625 C 1.175781 0.0390625 1.171875 0.0195312 1.171875 0 C 1.171875 -0.0195312 1.175781 -0.03125 1.1875 -0.03125 L 1.1875 -0.0625 C 1.1875 -0.0625 1.195312 -0.0625 1.21875 -0.0625 C 1.21875 -0.0625 1.226562 -0.0625 1.25 -0.0625 C 1.632812 -0.0625 1.960938 -0.203125 2.234375 -0.484375 C 2.515625 -0.773438 2.65625 -1.113281 2.65625 -1.5 L 2.65625 -16.046875 C 2.65625 -16.785156 2.875 -17.445312 3.3125 -18.03125 C 3.75 -18.613281 4.316406 -19.015625 5.015625 -19.234375 L 1.25 -19.234375 C 1.195312 -19.234375 1.171875 -19.257812 1.171875 -19.3125 C 1.171875 -19.351562 1.195312 -19.375 1.25 -19.375 L 5.984375 -19.375 C 6.046875 -19.375 6.078125 -19.351562 6.078125 -19.3125 C 6.078125 -19.257812 6.046875 -19.234375 5.984375 -19.234375 C 5.960938 -19.234375 5.941406 -19.234375 5.921875 -19.234375 C 5.910156 -19.234375 5.882812 -19.234375 5.84375 -19.234375 C 5.476562 -19.203125 5.175781 -19.046875 4.9375 -18.765625 C 4.695312 -18.484375 4.578125 -18.160156 4.578125 -17.796875 Z M 4.578125 -3.25 "/></g></g></g><g fill="#000000" fill-opacity="1"><g transform="translate(24.081967, 47.70886)"><g><path d="M 20.515625 -0.078125 C 20.546875 -0.078125 20.570312 -0.0507812 20.59375 0 C 20.59375 0.0507812 20.566406 0.078125 20.515625 0.078125 L 15.75 0.078125 C 15.6875 0.078125 15.65625 0.0507812 15.65625 0 C 15.65625 -0.0507812 15.6875 -0.078125 15.75 -0.078125 C 16.019531 -0.078125 16.253906 -0.175781 16.453125 -0.375 C 16.660156 -0.570312 16.765625 -0.816406 16.765625 -1.109375 C 16.765625 -1.296875 16.71875 -1.460938 16.625 -1.609375 L 14.5 -6.484375 C 14.125 -7.316406 13.554688 -7.976562 12.796875 -8.46875 C 12.046875 -8.957031 11.21875 -9.203125 10.3125 -9.203125 C 9.476562 -9.203125 8.710938 -9 8.015625 -8.59375 C 7.328125 -8.1875 6.78125 -7.632812 6.375 -6.9375 C 5.96875 -6.25 5.765625 -5.488281 5.765625 -4.65625 C 5.765625 -3.800781 5.96875 -3.023438 6.375 -2.328125 C 6.78125 -1.640625 7.328125 -1.09375 8.015625 -0.6875 C 8.710938 -0.28125 9.476562 -0.078125 10.3125 -0.078125 C 10.363281 -0.078125 10.390625 -0.0507812 10.390625 0 C 10.390625 0.0507812 10.363281 0.078125 10.3125 0.078125 L 0.25 0.078125 C 0.195312 0.078125 0.171875 0.0507812 0.171875 0 C 0.171875 -0.0507812 0.195312 -0.078125 0.25 -0.078125 C 0.945312 -0.078125 1.59375 -0.269531 2.1875 -0.65625 C 2.78125 -1.050781 3.21875 -1.570312 3.5 -2.21875 L 10.609375 -19.515625 L 10.671875 -19.625 C 10.671875 -19.644531 10.679688 -19.65625 10.703125 -19.65625 C 10.703125 -19.65625 10.703125 -19.664062 10.703125 -19.6875 C 10.722656 -19.6875 10.734375 -19.6875 10.734375 -19.6875 C 10.742188 -19.6875 10.757812 -19.6875 10.78125 -19.6875 C 10.78125 -19.6875 10.78125 -19.675781 10.78125 -19.65625 C 10.800781 -19.65625 10.8125 -19.644531 10.8125 -19.625 L 17.9375 -3.359375 C 18.082031 -3.035156 18.15625 -2.703125 18.15625 -2.359375 C 18.15625 -1.835938 18.007812 -1.367188 17.71875 -0.953125 C 17.4375 -0.535156 17.054688 -0.242188 16.578125 -0.078125 Z M 10.3125 -9.375 C 11.050781 -9.375 11.742188 -9.210938 12.390625 -8.890625 C 13.035156 -8.566406 13.582031 -8.117188 14.03125 -7.546875 L 9.8125 -17.1875 L 3.625 -2.1875 C 3.625 -2.164062 3.625 -2.15625 3.625 -2.15625 C 3.613281 -2.144531 3.613281 -2.144531 3.625 -2.15625 L 2.90625 -0.46875 C 2.90625 -0.4375 2.890625 -0.421875 2.859375 -0.421875 C 2.835938 -0.421875 2.828125 -0.421875 2.828125 -0.421875 C 2.773438 -0.429688 2.753906 -0.46875 2.765625 -0.53125 L 3.109375 -1.296875 C 2.628906 -0.691406 2.019531 -0.285156 1.28125 -0.078125 L 9.140625 -0.078125 C 8.109375 -0.335938 7.257812 -0.890625 6.59375 -1.734375 C 5.925781 -2.585938 5.59375 -3.550781 5.59375 -4.625 C 5.59375 -5.5 5.804688 -6.296875 6.234375 -7.015625 C 6.660156 -7.734375 7.226562 -8.304688 7.9375 -8.734375 C 8.65625 -9.160156 9.445312 -9.375 10.3125 -9.375 Z M 10.3125 -9.375 "/></g></g></g><g fill="#000000" fill-opacity="1"><g transform="translate(44.892848, 47.70886)"><g><path d="M 17.125 -0.078125 C 17.164062 -0.078125 17.1875 -0.0703125 17.1875 -0.0625 C 17.207031 -0.0390625 17.21875 -0.0195312 17.21875 0 C 17.21875 0.0507812 17.1875 0.078125 17.125 0.078125 L 12.390625 0.078125 C 12.335938 0.078125 12.3125 0.0507812 12.3125 0 C 12.3125 -0.0507812 12.335938 -0.078125 12.390625 -0.078125 C 12.585938 -0.078125 12.753906 -0.144531 12.890625 -0.28125 C 13.035156 -0.425781 13.109375 -0.597656 13.109375 -0.796875 C 13.109375 -0.953125 13.0625 -1.09375 12.96875 -1.21875 L 8.421875 -6.296875 C 8.421875 -6.304688 8.421875 -6.3125 8.421875 -6.3125 C 8.203125 -6.632812 8.101562 -6.988281 8.125 -7.375 C 8.125 -7.78125 8.242188 -8.15625 8.484375 -8.5 C 8.722656 -8.84375 9.035156 -9.085938 9.421875 -9.234375 C 9.296875 -9.210938 9.175781 -9.203125 9.0625 -9.203125 C 8.226562 -9.203125 7.472656 -9.003906 6.796875 -8.609375 C 6.128906 -8.210938 5.59375 -7.671875 5.1875 -6.984375 C 4.78125 -6.296875 4.578125 -5.546875 4.578125 -4.734375 L 4.578125 -3.25 C 4.578125 -2.519531 4.359375 -1.859375 3.921875 -1.265625 C 3.484375 -0.679688 2.914062 -0.28125 2.21875 -0.0625 L 6.015625 -0.078125 C 6.054688 -0.078125 6.078125 -0.0507812 6.078125 0 C 6.078125 0.0195312 6.066406 0.0390625 6.046875 0.0625 C 6.046875 0.0703125 6.035156 0.078125 6.015625 0.078125 L 1.25 0.078125 C 1.226562 0.078125 1.207031 0.0703125 1.1875 0.0625 C 1.175781 0.0390625 1.171875 0.0195312 1.171875 0 C 1.171875 -0.0195312 1.175781 -0.03125 1.1875 -0.03125 L 1.1875 -0.0625 C 1.1875 -0.0625 1.195312 -0.0625 1.21875 -0.0625 C 1.21875 -0.0625 1.226562 -0.0625 1.25 -0.0625 C 1.632812 -0.0625 1.960938 -0.203125 2.234375 -0.484375 C 2.515625 -0.773438 2.65625 -1.113281 2.65625 -1.5 L 2.65625 -16.046875 C 2.65625 -16.785156 2.875 -17.445312 3.3125 -18.03125 C 3.75 -18.613281 4.316406 -19.015625 5.015625 -19.234375 L 1.25 -19.234375 C 1.195312 -19.234375 1.171875 -19.257812 1.171875 -19.3125 C 1.171875 -19.351562 1.195312 -19.375 1.25 -19.375 L 10.125 -19.375 C 11.0625 -19.375 11.910156 -19.144531 12.671875 -18.6875 C 13.441406 -18.238281 14.054688 -17.628906 14.515625 -16.859375 C 14.984375 -16.097656 15.21875 -15.242188 15.21875 -14.296875 C 15.21875 -13.359375 14.984375 -12.503906 14.515625 -11.734375 C 14.054688 -10.972656 13.441406 -10.359375 12.671875 -9.890625 C 11.910156 -9.429688 11.0625 -9.203125 10.125 -9.203125 C 9.914062 -9.203125 9.738281 -9.128906 9.59375 -8.984375 C 9.457031 -8.847656 9.390625 -8.679688 9.390625 -8.484375 C 9.390625 -8.335938 9.4375 -8.195312 9.53125 -8.0625 L 14.078125 -3 C 14.054688 -3 14.054688 -3 14.078125 -3 C 14.078125 -2.976562 14.078125 -2.976562 14.078125 -3 C 14.296875 -2.664062 14.398438 -2.300781 14.390625 -1.90625 C 14.390625 -1.5 14.269531 -1.128906 14.03125 -0.796875 C 13.800781 -0.472656 13.503906 -0.234375 13.140625 -0.078125 Z M 4.578125 -17.796875 L 4.578125 -5.90625 C 4.835938 -6.914062 5.378906 -7.742188 6.203125 -8.390625 C 7.035156 -9.046875 7.976562 -9.375 9.03125 -9.375 C 9.757812 -9.375 10.410156 -9.59375 10.984375 -10.03125 C 11.566406 -10.476562 12.035156 -11.070312 12.390625 -11.8125 C 12.742188 -12.5625 12.921875 -13.390625 12.921875 -14.296875 C 12.921875 -15.203125 12.742188 -16.03125 12.390625 -16.78125 C 12.035156 -17.53125 11.566406 -18.125 10.984375 -18.5625 C 10.410156 -19.007812 9.757812 -19.234375 9.03125 -19.234375 L 5.984375 -19.234375 C 5.960938 -19.234375 5.9375 -19.234375 5.90625 -19.234375 C 5.882812 -19.234375 5.863281 -19.234375 5.84375 -19.234375 C 5.476562 -19.203125 5.175781 -19.046875 4.9375 -18.765625 C 4.695312 -18.484375 4.578125 -18.160156 4.578125 -17.796875 Z M 4.578125 -17.796875 "/></g></g></g><g clip-path="url(#e4959c42dc)"><g fill="#000000" fill-opacity="1"><g transform="translate(62.600114, 47.70886)"><g><path d="M 20.515625 -0.078125 C 20.546875 -0.078125 20.570312 -0.0507812 20.59375 0 C 20.59375 0.0507812 20.566406 0.078125 20.515625 0.078125 L 15.75 0.078125 C 15.6875 0.078125 15.65625 0.0507812 15.65625 0 C 15.65625 -0.0507812 15.6875 -0.078125 15.75 -0.078125 C 16.019531 -0.078125 16.253906 -0.175781 16.453125 -0.375 C 16.660156 -0.570312 16.765625 -0.816406 16.765625 -1.109375 C 16.765625 -1.296875 16.71875 -1.460938 16.625 -1.609375 L 14.5 -6.484375 C 14.125 -7.316406 13.554688 -7.976562 12.796875 -8.46875 C 12.046875 -8.957031 11.21875 -9.203125 10.3125 -9.203125 C 9.476562 -9.203125 8.710938 -9 8.015625 -8.59375 C 7.328125 -8.1875 6.78125 -7.632812 6.375 -6.9375 C 5.96875 -6.25 5.765625 -5.488281 5.765625 -4.65625 C 5.765625 -3.800781 5.96875 -3.023438 6.375 -2.328125 C 6.78125 -1.640625 7.328125 -1.09375 8.015625 -0.6875 C 8.710938 -0.28125 9.476562 -0.078125 10.3125 -0.078125 C 10.363281 -0.078125 10.390625 -0.0507812 10.390625 0 C 10.390625 0.0507812 10.363281 0.078125 10.3125 0.078125 L 0.25 0.078125 C 0.195312 0.078125 0.171875 0.0507812 0.171875 0 C 0.171875 -0.0507812 0.195312 -0.078125 0.25 -0.078125 C 0.945312 -0.078125 1.59375 -0.269531 2.1875 -0.65625 C 2.78125 -1.050781 3.21875 -1.570312 3.5 -2.21875 L 10.609375 -19.515625 L 10.671875 -19.625 C 10.671875 -19.644531 10.679688 -19.65625 10.703125 -19.65625 C 10.703125 -19.65625 10.703125 -19.664062 10.703125 -19.6875 C 10.722656 -19.6875 10.734375 -19.6875 10.734375 -19.6875 C 10.742188 -19.6875 10.757812 -19.6875 10.78125 -19.6875 C 10.78125 -19.6875 10.78125 -19.675781 10.78125 -19.65625 C 10.800781 -19.65625 10.8125 -19.644531 10.8125 -19.625 L 17.9375 -3.359375 C 18.082031 -3.035156 18.15625 -2.703125 18.15625 -2.359375 C 18.15625 -1.835938 18.007812 -1.367188 17.71875 -0.953125 C 17.4375 -0.535156 17.054688 -0.242188 16.578125 -0.078125 Z M 10.3125 -9.375 C 11.050781 -9.375 11.742188 -9.210938 12.390625 -8.890625 C 13.035156 -8.566406 13.582031 -8.117188 14.03125 -7.546875 L 9.8125 -17.1875 L 3.625 -2.1875 C 3.625 -2.164062 3.625 -2.15625 3.625 -2.15625 C 3.613281 -2.144531 3.613281 -2.144531 3.625 -2.15625 L 2.90625 -0.46875 C 2.90625 -0.4375 2.890625 -0.421875 2.859375 -0.421875 C 2.835938 -0.421875 2.828125 -0.421875 2.828125 -0.421875 C 2.773438 -0.429688 2.753906 -0.46875 2.765625 -0.53125 L 3.109375 -1.296875 C 2.628906 -0.691406 2.019531 -0.285156 1.28125 -0.078125 L 9.140625 -0.078125 C 8.109375 -0.335938 7.257812 -0.890625 6.59375 -1.734375 C 5.925781 -2.585938 5.59375 -3.550781 5.59375 -4.625 C 5.59375 -5.5 5.804688 -6.296875 6.234375 -7.015625 C 6.660156 -7.734375 7.226562 -8.304688 7.9375 -8.734375 C 8.65625 -9.160156 9.445312 -9.375 10.3125 -9.375 Z M 10.3125 -9.375 "/></g></g></g></g><g fill="#000000" fill-opacity="1"><g transform="translate(24.992383, 56.854963)"><g><path d="M 2.09375 -1.609375 C 2.09375 -1.566406 2.082031 -1.546875 2.0625 -1.546875 C 2.03125 -1.546875 2.003906 -1.570312 1.984375 -1.625 C 1.972656 -1.675781 1.945312 -1.722656 1.90625 -1.765625 C 1.863281 -1.804688 1.8125 -1.84375 1.75 -1.875 C 1.625 -1.9375 1.484375 -1.96875 1.328125 -1.96875 C 1.179688 -1.96875 1.054688 -1.945312 0.953125 -1.90625 C 0.847656 -1.875 0.757812 -1.816406 0.6875 -1.734375 C 0.519531 -1.578125 0.4375 -1.367188 0.4375 -1.109375 C 0.4375 -0.816406 0.53125 -0.570312 0.71875 -0.375 C 0.894531 -0.1875 1.125 -0.09375 1.40625 -0.09375 C 1.707031 -0.09375 1.945312 -0.234375 2.125 -0.515625 C 2.132812 -0.535156 2.144531 -0.546875 2.15625 -0.546875 C 2.164062 -0.546875 2.175781 -0.535156 2.1875 -0.515625 C 2.195312 -0.492188 2.203125 -0.46875 2.203125 -0.4375 C 2.203125 -0.382812 2.15625 -0.316406 2.0625 -0.234375 C 1.976562 -0.148438 1.875 -0.0820312 1.75 -0.03125 C 1.632812 0.0078125 1.492188 0.03125 1.328125 0.03125 C 1.160156 0.03125 1.003906 0.00390625 0.859375 -0.046875 C 0.710938 -0.0976562 0.585938 -0.171875 0.484375 -0.265625 C 0.265625 -0.453125 0.15625 -0.691406 0.15625 -0.984375 C 0.15625 -1.316406 0.265625 -1.582031 0.484375 -1.78125 C 0.703125 -1.988281 0.988281 -2.09375 1.34375 -2.09375 C 1.601562 -2.09375 1.816406 -2.054688 1.984375 -1.984375 C 2.015625 -1.972656 2.035156 -1.960938 2.046875 -1.953125 C 2.066406 -1.921875 2.078125 -1.875 2.078125 -1.8125 C 2.085938 -1.757812 2.09375 -1.722656 2.09375 -1.703125 C 2.09375 -1.648438 2.09375 -1.617188 2.09375 -1.609375 Z M 2.09375 -1.609375 "/></g></g></g><g fill="#000000" fill-opacity="1"><g transform="translate(29.798806, 56.854963)"><g><path d="M 0.1875 0.015625 C 0.132812 0.015625 0.109375 0 0.109375 -0.03125 C 0.109375 -0.0625 0.125 -0.078125 0.15625 -0.078125 L 0.234375 -0.078125 C 0.296875 -0.078125 0.335938 -0.109375 0.359375 -0.171875 C 0.378906 -0.234375 0.390625 -0.335938 0.390625 -0.484375 L 0.390625 -1.5625 C 0.390625 -1.71875 0.378906 -1.816406 0.359375 -1.859375 C 0.347656 -1.910156 0.332031 -1.941406 0.3125 -1.953125 C 0.289062 -1.972656 0.265625 -1.984375 0.234375 -1.984375 L 0.15625 -1.984375 C 0.125 -1.984375 0.109375 -1.992188 0.109375 -2.015625 C 0.109375 -2.054688 0.132812 -2.078125 0.1875 -2.078125 C 0.238281 -2.078125 0.289062 -2.070312 0.34375 -2.0625 C 0.394531 -2.0625 0.445312 -2.0625 0.5 -2.0625 C 0.5625 -2.0625 0.613281 -2.0625 0.65625 -2.0625 C 0.707031 -2.070312 0.757812 -2.078125 0.8125 -2.078125 C 0.875 -2.078125 0.90625 -2.054688 0.90625 -2.015625 C 0.90625 -1.992188 0.882812 -1.984375 0.84375 -1.984375 L 0.78125 -1.984375 C 0.71875 -1.984375 0.675781 -1.945312 0.65625 -1.875 C 0.632812 -1.820312 0.625 -1.71875 0.625 -1.5625 L 0.625 -0.703125 C 0.625 -0.472656 0.628906 -0.285156 0.640625 -0.140625 C 0.710938 -0.117188 0.796875 -0.109375 0.890625 -0.109375 C 0.984375 -0.109375 1.0625 -0.113281 1.125 -0.125 C 1.1875 -0.132812 1.242188 -0.148438 1.296875 -0.171875 C 1.390625 -0.210938 1.460938 -0.28125 1.515625 -0.375 C 1.535156 -0.40625 1.554688 -0.421875 1.578125 -0.421875 C 1.597656 -0.421875 1.609375 -0.40625 1.609375 -0.375 C 1.609375 -0.363281 1.601562 -0.347656 1.59375 -0.328125 C 1.582031 -0.304688 1.566406 -0.269531 1.546875 -0.21875 C 1.535156 -0.164062 1.523438 -0.125 1.515625 -0.09375 C 1.503906 -0.0625 1.492188 -0.0351562 1.484375 -0.015625 C 1.460938 0.015625 1.429688 0.03125 1.390625 0.03125 C 1.347656 0.03125 1.304688 0.03125 1.265625 0.03125 C 1.222656 0.03125 1.179688 0.03125 1.140625 0.03125 C 1.097656 0.03125 1.050781 0.0234375 1 0.015625 C 0.957031 0.015625 0.90625 0.0078125 0.84375 0 C 0.78125 0 0.722656 0 0.671875 0 C 0.628906 0 0.582031 0 0.53125 0 C 0.488281 0 0.453125 0 0.421875 0 C 0.390625 0 0.363281 0 0.34375 0 C 0.320312 0.0078125 0.296875 0.015625 0.265625 0.015625 C 0.242188 0.015625 0.21875 0.015625 0.1875 0.015625 Z M 0.1875 0.015625 "/></g></g></g><g fill="#000000" fill-opacity="1"><g transform="translate(34.004244, 56.854963)"><g><path d="M 0.15625 -1.03125 C 0.15625 -1.1875 0.179688 -1.328125 0.234375 -1.453125 C 0.296875 -1.585938 0.375 -1.703125 0.46875 -1.796875 C 0.570312 -1.890625 0.6875 -1.960938 0.8125 -2.015625 C 0.945312 -2.066406 1.085938 -2.09375 1.234375 -2.09375 C 1.390625 -2.09375 1.53125 -2.0625 1.65625 -2 C 1.78125 -1.945312 1.890625 -1.875 1.984375 -1.78125 C 2.179688 -1.582031 2.28125 -1.328125 2.28125 -1.015625 C 2.28125 -0.710938 2.179688 -0.460938 1.984375 -0.265625 C 1.773438 -0.0664062 1.515625 0.03125 1.203125 0.03125 C 0.898438 0.03125 0.644531 -0.0664062 0.4375 -0.265625 C 0.25 -0.472656 0.15625 -0.726562 0.15625 -1.03125 Z M 0.421875 -1.125 C 0.421875 -0.988281 0.441406 -0.859375 0.484375 -0.734375 C 0.523438 -0.609375 0.585938 -0.5 0.671875 -0.40625 C 0.835938 -0.195312 1.050781 -0.09375 1.3125 -0.09375 C 1.507812 -0.09375 1.675781 -0.164062 1.8125 -0.3125 C 1.9375 -0.46875 2 -0.671875 2 -0.921875 C 2 -1.222656 1.921875 -1.472656 1.765625 -1.671875 C 1.609375 -1.867188 1.40625 -1.96875 1.15625 -1.96875 C 0.957031 -1.96875 0.785156 -1.890625 0.640625 -1.734375 C 0.492188 -1.578125 0.421875 -1.375 0.421875 -1.125 Z M 0.421875 -1.125 "/></g></g></g><g fill="#000000" fill-opacity="1"><g transform="translate(38.959763, 56.854963)"><g><path d="M 0.625 0.015625 C 0.5625 0.015625 0.53125 0 0.53125 -0.03125 C 0.53125 -0.0625 0.546875 -0.078125 0.578125 -0.078125 L 0.65625 -0.078125 C 0.71875 -0.078125 0.757812 -0.109375 0.78125 -0.171875 C 0.800781 -0.234375 0.8125 -0.335938 0.8125 -0.484375 L 0.8125 -1.921875 L 0.765625 -1.921875 C 0.585938 -1.921875 0.445312 -1.898438 0.34375 -1.859375 C 0.269531 -1.835938 0.21875 -1.796875 0.1875 -1.734375 C 0.164062 -1.679688 0.144531 -1.65625 0.125 -1.65625 C 0.09375 -1.65625 0.078125 -1.671875 0.078125 -1.703125 C 0.078125 -1.710938 0.078125 -1.722656 0.078125 -1.734375 C 0.0859375 -1.753906 0.0976562 -1.773438 0.109375 -1.796875 C 0.117188 -1.835938 0.125 -1.882812 0.125 -1.9375 C 0.132812 -2 0.144531 -2.035156 0.15625 -2.046875 C 0.164062 -2.066406 0.175781 -2.078125 0.1875 -2.078125 C 0.207031 -2.078125 0.222656 -2.078125 0.234375 -2.078125 C 0.242188 -2.078125 0.257812 -2.070312 0.28125 -2.0625 C 0.34375 -2.0625 0.421875 -2.0625 0.515625 -2.0625 L 1.484375 -2.0625 C 1.566406 -2.0625 1.625 -2.0625 1.65625 -2.0625 C 1.6875 -2.070312 1.710938 -2.078125 1.734375 -2.078125 C 1.765625 -2.078125 1.78125 -2.0625 1.78125 -2.03125 C 1.78125 -2.007812 1.773438 -1.988281 1.765625 -1.96875 C 1.753906 -1.925781 1.742188 -1.882812 1.734375 -1.84375 C 1.734375 -1.8125 1.726562 -1.78125 1.71875 -1.75 C 1.71875 -1.726562 1.71875 -1.710938 1.71875 -1.703125 C 1.707031 -1.679688 1.691406 -1.671875 1.671875 -1.671875 C 1.660156 -1.671875 1.648438 -1.675781 1.640625 -1.6875 C 1.640625 -1.695312 1.632812 -1.71875 1.625 -1.75 C 1.625 -1.78125 1.613281 -1.804688 1.59375 -1.828125 C 1.582031 -1.859375 1.570312 -1.878906 1.5625 -1.890625 C 1.519531 -1.910156 1.457031 -1.921875 1.375 -1.921875 L 1.046875 -1.921875 L 1.046875 -0.484375 C 1.046875 -0.328125 1.050781 -0.226562 1.0625 -0.1875 C 1.082031 -0.144531 1.101562 -0.113281 1.125 -0.09375 C 1.144531 -0.0820312 1.171875 -0.078125 1.203125 -0.078125 L 1.28125 -0.078125 C 1.3125 -0.078125 1.328125 -0.0625 1.328125 -0.03125 C 1.328125 0 1.296875 0.015625 1.234375 0.015625 C 1.203125 0.015625 1.164062 0.015625 1.125 0.015625 C 1 -0.00390625 0.890625 -0.0078125 0.796875 0 C 0.710938 0.0078125 0.65625 0.015625 0.625 0.015625 Z M 0.625 0.015625 "/></g></g></g><g fill="#000000" fill-opacity="1"><g transform="translate(43.346573, 56.854963)"><g><path d="M 0.203125 0.015625 C 0.140625 0.015625 0.109375 0 0.109375 -0.03125 C 0.109375 -0.0625 0.125 -0.078125 0.15625 -0.078125 L 0.234375 -0.078125 C 0.285156 -0.078125 0.320312 -0.101562 0.34375 -0.15625 C 0.375 -0.207031 0.390625 -0.316406 0.390625 -0.484375 L 0.390625 -1.5625 C 0.390625 -1.738281 0.378906 -1.847656 0.359375 -1.890625 C 0.335938 -1.929688 0.316406 -1.957031 0.296875 -1.96875 C 0.285156 -1.976562 0.265625 -1.984375 0.234375 -1.984375 L 0.15625 -1.984375 C 0.125 -1.984375 0.109375 -1.992188 0.109375 -2.015625 C 0.109375 -2.054688 0.132812 -2.078125 0.1875 -2.078125 C 0.238281 -2.078125 0.289062 -2.070312 0.34375 -2.0625 C 0.394531 -2.0625 0.445312 -2.0625 0.5 -2.0625 C 0.5625 -2.0625 0.613281 -2.0625 0.65625 -2.0625 C 0.707031 -2.070312 0.757812 -2.078125 0.8125 -2.078125 C 0.875 -2.078125 0.90625 -2.054688 0.90625 -2.015625 C 0.90625 -1.992188 0.882812 -1.984375 0.84375 -1.984375 L 0.78125 -1.984375 C 0.71875 -1.984375 0.675781 -1.957031 0.65625 -1.90625 C 0.632812 -1.84375 0.625 -1.726562 0.625 -1.5625 L 0.625 -1.21875 L 1.703125 -1.21875 L 1.703125 -1.5625 C 1.703125 -1.738281 1.691406 -1.847656 1.671875 -1.890625 C 1.660156 -1.929688 1.644531 -1.957031 1.625 -1.96875 C 1.601562 -1.976562 1.582031 -1.984375 1.5625 -1.984375 L 1.484375 -1.984375 C 1.441406 -1.984375 1.421875 -1.992188 1.421875 -2.015625 C 1.421875 -2.054688 1.445312 -2.078125 1.5 -2.078125 C 1.5625 -2.078125 1.617188 -2.070312 1.671875 -2.0625 C 1.722656 -2.0625 1.773438 -2.0625 1.828125 -2.0625 C 1.890625 -2.0625 1.941406 -2.0625 1.984375 -2.0625 C 2.035156 -2.070312 2.085938 -2.078125 2.140625 -2.078125 C 2.203125 -2.078125 2.234375 -2.054688 2.234375 -2.015625 C 2.234375 -1.992188 2.210938 -1.984375 2.171875 -1.984375 L 2.09375 -1.984375 C 2.039062 -1.984375 2.003906 -1.957031 1.984375 -1.90625 C 1.960938 -1.84375 1.953125 -1.726562 1.953125 -1.5625 L 1.953125 -0.484375 C 1.953125 -0.316406 1.957031 -0.210938 1.96875 -0.171875 C 1.988281 -0.128906 2.007812 -0.101562 2.03125 -0.09375 C 2.050781 -0.0820312 2.070312 -0.078125 2.09375 -0.078125 L 2.171875 -0.078125 C 2.210938 -0.078125 2.234375 -0.0625 2.234375 -0.03125 C 2.234375 0 2.195312 0.015625 2.125 0.015625 C 2.09375 0.015625 2.0625 0.015625 2.03125 0.015625 C 1.96875 0.00390625 1.898438 0 1.828125 0 C 1.765625 0 1.707031 0 1.65625 0 C 1.601562 0.0078125 1.5625 0.015625 1.53125 0.015625 C 1.457031 0.015625 1.421875 0 1.421875 -0.03125 C 1.421875 -0.0625 1.441406 -0.078125 1.484375 -0.078125 L 1.5625 -0.078125 C 1.613281 -0.078125 1.648438 -0.101562 1.671875 -0.15625 C 1.691406 -0.207031 1.703125 -0.316406 1.703125 -0.484375 L 1.703125 -1.078125 L 0.625 -1.078125 L 0.625 -0.484375 C 0.625 -0.316406 0.628906 -0.210938 0.640625 -0.171875 C 0.660156 -0.128906 0.679688 -0.101562 0.703125 -0.09375 C 0.722656 -0.0820312 0.75 -0.078125 0.78125 -0.078125 L 0.84375 -0.078125 C 0.882812 -0.078125 0.90625 -0.0625 0.90625 -0.03125 C 0.90625 0 0.875 0.015625 0.8125 0.015625 C 0.769531 0.015625 0.734375 0.015625 0.703125 0.015625 C 0.578125 -0.00390625 0.46875 -0.0078125 0.375 0 C 0.289062 0.0078125 0.234375 0.015625 0.203125 0.015625 Z M 0.203125 0.015625 "/></g></g></g><g fill="#000000" fill-opacity="1"><g transform="translate(48.205255, 56.854963)"><g><path d="M 0.21875 0.015625 C 0.15625 0.015625 0.125 0 0.125 -0.03125 C 0.125 -0.0625 0.140625 -0.078125 0.171875 -0.078125 L 0.25 -0.078125 C 0.3125 -0.078125 0.351562 -0.101562 0.375 -0.15625 C 0.394531 -0.207031 0.40625 -0.316406 0.40625 -0.484375 L 0.390625 -1.5625 C 0.390625 -1.738281 0.378906 -1.847656 0.359375 -1.890625 C 0.347656 -1.929688 0.332031 -1.957031 0.3125 -1.96875 C 0.289062 -1.976562 0.269531 -1.984375 0.25 -1.984375 L 0.171875 -1.984375 C 0.128906 -1.984375 0.109375 -1.992188 0.109375 -2.015625 C 0.109375 -2.054688 0.132812 -2.078125 0.1875 -2.078125 C 0.25 -2.078125 0.304688 -2.070312 0.359375 -2.0625 C 0.410156 -2.0625 0.460938 -2.0625 0.515625 -2.0625 C 0.578125 -2.0625 0.628906 -2.0625 0.671875 -2.0625 C 0.722656 -2.070312 0.773438 -2.078125 0.828125 -2.078125 C 0.890625 -2.078125 0.921875 -2.054688 0.921875 -2.015625 C 0.921875 -1.992188 0.898438 -1.984375 0.859375 -1.984375 L 0.796875 -1.984375 C 0.734375 -1.984375 0.691406 -1.957031 0.671875 -1.90625 C 0.648438 -1.84375 0.640625 -1.726562 0.640625 -1.5625 L 0.65625 -0.484375 C 0.65625 -0.316406 0.660156 -0.210938 0.671875 -0.171875 C 0.691406 -0.128906 0.710938 -0.101562 0.734375 -0.09375 C 0.753906 -0.0820312 0.78125 -0.078125 0.8125 -0.078125 L 0.890625 -0.078125 C 0.921875 -0.078125 0.9375 -0.0625 0.9375 -0.03125 C 0.9375 0 0.90625 0.015625 0.84375 0.015625 C 0.8125 0.015625 0.773438 0.015625 0.734375 0.015625 C 0.609375 -0.00390625 0.5 -0.0078125 0.40625 0 C 0.3125 0.0078125 0.25 0.015625 0.21875 0.015625 Z M 0.21875 0.015625 "/></g></g></g><g fill="#000000" fill-opacity="1"><g transform="translate(51.766669, 56.854963)"><g><path d="M 0.203125 0.015625 C 0.140625 0.015625 0.109375 0 0.109375 -0.03125 C 0.109375 -0.0625 0.128906 -0.078125 0.171875 -0.078125 L 0.234375 -0.078125 C 0.296875 -0.078125 0.335938 -0.109375 0.359375 -0.171875 C 0.378906 -0.234375 0.390625 -0.335938 0.390625 -0.484375 L 0.390625 -1.5625 C 0.390625 -1.71875 0.378906 -1.816406 0.359375 -1.859375 C 0.347656 -1.898438 0.332031 -1.929688 0.3125 -1.953125 C 0.289062 -1.972656 0.265625 -1.984375 0.234375 -1.984375 L 0.171875 -1.96875 C 0.128906 -1.96875 0.109375 -1.984375 0.109375 -2.015625 C 0.109375 -2.054688 0.140625 -2.078125 0.203125 -2.078125 L 0.40625 -2.0625 C 0.445312 -2.0625 0.488281 -2.0625 0.53125 -2.0625 L 1.9375 -0.421875 L 1.9375 -1.5625 C 1.9375 -1.71875 1.925781 -1.816406 1.90625 -1.859375 C 1.894531 -1.910156 1.878906 -1.941406 1.859375 -1.953125 C 1.835938 -1.972656 1.8125 -1.984375 1.78125 -1.984375 L 1.703125 -1.984375 C 1.671875 -1.984375 1.65625 -1.992188 1.65625 -2.015625 C 1.65625 -2.054688 1.6875 -2.078125 1.75 -2.078125 C 1.769531 -2.078125 1.800781 -2.070312 1.84375 -2.0625 C 1.90625 -2.0625 1.957031 -2.0625 2 -2.0625 C 2.039062 -2.0625 2.082031 -2.0625 2.125 -2.0625 C 2.164062 -2.070312 2.210938 -2.078125 2.265625 -2.078125 C 2.328125 -2.078125 2.359375 -2.054688 2.359375 -2.015625 C 2.359375 -1.992188 2.335938 -1.984375 2.296875 -1.984375 L 2.234375 -1.984375 C 2.171875 -1.984375 2.128906 -1.945312 2.109375 -1.875 C 2.085938 -1.820312 2.078125 -1.71875 2.078125 -1.5625 L 2.078125 -0.015625 C 2.078125 0.015625 2.070312 0.0351562 2.0625 0.046875 C 2.0625 0.0546875 2.054688 0.0625 2.046875 0.0625 C 2.023438 0.0625 1.992188 0.0390625 1.953125 0 L 0.53125 -1.640625 L 0.53125 -0.484375 C 0.53125 -0.328125 0.535156 -0.226562 0.546875 -0.1875 C 0.566406 -0.144531 0.585938 -0.113281 0.609375 -0.09375 C 0.628906 -0.0820312 0.65625 -0.078125 0.6875 -0.078125 L 0.765625 -0.078125 C 0.796875 -0.078125 0.8125 -0.0625 0.8125 -0.03125 C 0.8125 0 0.78125 0.015625 0.71875 0.015625 C 0.664062 0.015625 0.613281 0.0078125 0.5625 0 C 0.519531 0 0.476562 0 0.4375 0 C 0.394531 0 0.351562 0 0.3125 0 C 0.269531 0.0078125 0.234375 0.015625 0.203125 0.015625 Z M 0.203125 0.015625 "/></g></g></g><g fill="#000000" fill-opacity="1"><g transform="translate(56.676077, 56.854963)"><g><path d="M 2.15625 -0.984375 C 2.195312 -0.984375 2.21875 -0.96875 2.21875 -0.9375 C 2.21875 -0.914062 2.210938 -0.898438 2.203125 -0.890625 C 2.191406 -0.890625 2.175781 -0.882812 2.15625 -0.875 C 2.144531 -0.863281 2.132812 -0.851562 2.125 -0.84375 C 2.113281 -0.832031 2.101562 -0.816406 2.09375 -0.796875 C 2.082031 -0.753906 2.078125 -0.695312 2.078125 -0.625 C 2.078125 -0.5625 2.078125 -0.519531 2.078125 -0.5 C 2.078125 -0.488281 2.078125 -0.472656 2.078125 -0.453125 C 2.085938 -0.367188 2.09375 -0.316406 2.09375 -0.296875 C 2.101562 -0.273438 2.109375 -0.253906 2.109375 -0.234375 C 2.109375 -0.210938 2.09375 -0.1875 2.0625 -0.15625 C 2.039062 -0.132812 2.003906 -0.113281 1.953125 -0.09375 C 1.910156 -0.0703125 1.859375 -0.0507812 1.796875 -0.03125 C 1.742188 -0.0195312 1.691406 -0.0078125 1.640625 0 C 1.503906 0.03125 1.382812 0.046875 1.28125 0.046875 C 0.914062 0.046875 0.628906 -0.0546875 0.421875 -0.265625 C 0.222656 -0.460938 0.125 -0.707031 0.125 -1 C 0.125 -1.332031 0.234375 -1.597656 0.453125 -1.796875 C 0.660156 -1.992188 0.945312 -2.09375 1.3125 -2.09375 C 1.570312 -2.09375 1.78125 -2.0625 1.9375 -2 C 1.96875 -1.988281 1.988281 -1.976562 2 -1.96875 C 2.019531 -1.9375 2.03125 -1.890625 2.03125 -1.828125 C 2.039062 -1.773438 2.046875 -1.738281 2.046875 -1.71875 C 2.046875 -1.664062 2.046875 -1.628906 2.046875 -1.609375 C 2.046875 -1.578125 2.03125 -1.5625 2 -1.5625 C 1.976562 -1.5625 1.957031 -1.582031 1.9375 -1.625 C 1.925781 -1.675781 1.898438 -1.722656 1.859375 -1.765625 C 1.816406 -1.816406 1.765625 -1.859375 1.703125 -1.890625 C 1.578125 -1.953125 1.4375 -1.984375 1.28125 -1.984375 C 1.132812 -1.984375 1.007812 -1.960938 0.90625 -1.921875 C 0.800781 -1.878906 0.710938 -1.820312 0.640625 -1.75 C 0.492188 -1.59375 0.421875 -1.378906 0.421875 -1.109375 C 0.421875 -0.816406 0.507812 -0.570312 0.6875 -0.375 C 0.769531 -0.289062 0.863281 -0.21875 0.96875 -0.15625 C 1.082031 -0.101562 1.207031 -0.078125 1.34375 -0.078125 C 1.5625 -0.078125 1.703125 -0.117188 1.765625 -0.203125 C 1.804688 -0.253906 1.828125 -0.328125 1.828125 -0.421875 L 1.828125 -0.75 C 1.828125 -0.800781 1.816406 -0.832031 1.796875 -0.84375 C 1.765625 -0.851562 1.722656 -0.859375 1.671875 -0.859375 C 1.585938 -0.859375 1.546875 -0.878906 1.546875 -0.921875 C 1.546875 -0.960938 1.578125 -0.984375 1.640625 -0.984375 L 1.953125 -0.96875 Z M 2.15625 -0.984375 "/></g></g></g></svg>