<svg xmlns="http://www.w3.org/2000/svg" xmlns:xlink="http://www.w3.org/1999/xlink" width="240" zoomAndPan="magnify" viewBox="0 0 180 96.749999" height="129" preserveAspectRatio="xMidYMid meet" version="1.0"><defs><g/><clipPath id="955dc9fcda"><path d="M 5 34 L 20 34 L 20 43.101562 L 5 43.101562 Z M 5 34 " clip-rule="nonzero"/></clipPath><clipPath id="a7f6377d46"><path d="M 15 30.667969 L 17 30.667969 L 17 33 L 15 33 Z M 15 30.667969 " clip-rule="nonzero"/></clipPath><clipPath id="a034af800f"><path d="M 22 36 L 24.382812 36 L 24.382812 37 L 22 37 Z M 22 36 " clip-rule="nonzero"/></clipPath></defs><g fill="#000000" fill-opacity="1"><g transform="translate(3.253989, 76.577009)"><g><path d="M 0.59375 0 L 3.921875 -34.328125 L 15.546875 -34.328125 L 18.828125 0 L 12.3125 0 L 11.828125 -5.5625 L 7.671875 -5.5625 L 7.28125 0 Z M 8.1875 -11.03125 L 11.3125 -11.03125 L 9.796875 -28.5 L 9.46875 -28.5 Z M 8.1875 -11.03125 "/></g></g></g><g fill="#000000" fill-opacity="1"><g transform="translate(22.636258, 76.577009)"><g><path d="M 1.515625 0 L 1.515625 -34.328125 L 8.390625 -34.328125 L 8.390625 -5.828125 L 15.46875 -5.828125 L 15.46875 0 Z M 1.515625 0 "/></g></g></g><g fill="#000000" fill-opacity="1"><g transform="translate(38.501748, 76.577009)"><g><path d="M 1.515625 0 L 1.515625 -34.328125 L 8.390625 -34.328125 L 8.390625 -5.828125 L 15.46875 -5.828125 L 15.46875 0 Z M 1.515625 0 "/></g></g></g><g fill="#000000" fill-opacity="1"><g transform="translate(54.367238, 76.577009)"><g><path d="M 1.515625 0 L 1.515625 -34.328125 L 15.265625 -34.328125 L 15.265625 -27.703125 L 8.515625 -27.703125 L 8.515625 -21.03125 L 14.984375 -21.03125 L 14.984375 -14.546875 L 8.515625 -14.546875 L 8.515625 -6.671875 L 15.703125 -6.671875 L 15.703125 0 Z M 1.515625 0 "/></g></g></g><g fill="#000000" fill-opacity="1"><g transform="translate(70.832178, 76.577009)"><g><path d="M 1.515625 0 L 1.515625 -34.328125 L 8.59375 -34.328125 L 11.75 -17.90625 L 11.75 -34.328125 L 18.390625 -34.328125 L 18.390625 0 L 11.671875 0 L 8.234375 -17.1875 L 8.234375 0 Z M 1.515625 0 "/></g></g></g><path fill="#fccb1e" d="M 18.625 42.621094 C 15.125 42.105469 10.476562 42.03125 7.011719 42.75 C 6.992188 40.707031 6.566406 38.691406 6.144531 36.695312 C 7.503906 37.9375 9.03125 39 10.667969 39.84375 C 11.882812 38.472656 12.910156 36.742188 13.574219 35.273438 C 14.238281 36.742188 15.269531 38.558594 16.101562 39.8125 C 17.425781 38.621094 18.492188 37.410156 19.636719 36.371094 C 18.890625 38.746094 18.625 40.75 18.597656 42.675781 " fill-opacity="1" fill-rule="nonzero"/><g clip-path="url(#955dc9fcda)"><path fill="#100f0d" d="M 18.710938 42.3125 C 15.894531 41.929688 13.050781 41.785156 10.21875 42 C 9.285156 42.066406 7.789062 42.636719 7.289062 41.730469 C 7.363281 41.859375 7.015625 39.484375 7.039062 39.621094 C 6.878906 38.609375 6.660156 37.609375 6.449219 36.609375 C 6.273438 36.710938 6.09375 36.816406 5.917969 36.921875 C 7.347656 38.167969 8.835938 39.210938 10.507812 40.121094 C 10.621094 40.183594 10.800781 40.179688 10.894531 40.070312 C 11.386719 39.476562 11.648438 39.175781 12.089844 38.539062 C 12.226562 38.339844 13.304688 36.246094 13.488281 36.1875 C 13.707031 36.117188 15.566406 39.578125 15.824219 39.976562 C 15.9375 40.152344 16.167969 40.183594 16.324219 40.042969 C 17.53125 38.921875 18.660156 37.726562 19.859375 36.597656 C 19.683594 36.492188 19.503906 36.390625 19.328125 36.285156 C 18.710938 38.402344 18.351562 40.472656 18.28125 42.675781 C 18.265625 43.085938 18.90625 43.085938 18.917969 42.675781 C 18.984375 40.535156 19.34375 38.503906 19.941406 36.457031 C 20.035156 36.140625 19.636719 35.929688 19.410156 36.144531 C 18.769531 36.746094 17.058594 39.058594 16.230469 38.984375 C 15.320312 38.910156 14.222656 35.898438 13.851562 35.109375 C 13.75 34.898438 13.398438 34.902344 13.300781 35.109375 C 12.707031 36.339844 12.058594 38.078125 10.777344 38.671875 C 9.738281 39.152344 9.769531 39.019531 8.847656 38.394531 C 7.976562 37.808594 7.160156 37.15625 6.367188 36.464844 C 6.125 36.253906 5.769531 36.457031 5.835938 36.777344 C 6.253906 38.761719 6.609375 40.71875 6.695312 42.75 C 6.703125 42.972656 6.890625 43.097656 7.097656 43.058594 C 10.867188 42.351562 14.75 42.417969 18.539062 42.929688 C 18.941406 42.984375 19.113281 42.367188 18.710938 42.3125 " fill-opacity="1" fill-rule="nonzero"/></g><path fill="#faf783" d="M 13.46875 35.605469 C 13.847656 35.667969 14.265625 35.523438 14.484375 35.207031 C 14.699219 34.890625 14.664062 34.40625 14.367188 34.164062 C 14.230469 34.050781 14.050781 33.996094 13.875 33.980469 C 13.28125 33.9375 12.699219 34.402344 12.609375 34.992188 C 12.59375 35.085938 12.589844 35.1875 12.628906 35.273438 C 12.683594 35.402344 12.816406 35.480469 12.941406 35.535156 C 13.207031 35.65625 13.496094 35.71875 13.789062 35.726562 " fill-opacity="1" fill-rule="nonzero"/><path fill="#100f0d" d="M 13.46875 35.847656 C 14.109375 35.921875 14.789062 35.539062 14.855469 34.851562 C 14.917969 34.175781 14.367188 33.703125 13.71875 33.742188 C 13.074219 33.78125 12.488281 34.289062 12.378906 34.929688 C 12.238281 35.726562 13.179688 35.9375 13.789062 35.96875 C 14.09375 35.980469 14.09375 35.5 13.789062 35.484375 C 13.457031 35.46875 12.726562 35.386719 12.875 34.90625 C 12.988281 34.546875 13.328125 34.269531 13.699219 34.226562 C 14.09375 34.179688 14.46875 34.445312 14.367188 34.882812 C 14.273438 35.285156 13.832031 35.40625 13.46875 35.363281 C 13.164062 35.328125 13.167969 35.808594 13.46875 35.847656 " fill-opacity="1" fill-rule="nonzero"/><path fill="#faf783" d="M 19.40625 36.324219 C 19.550781 36.417969 19.707031 36.496094 19.871094 36.554688 C 20.183594 36.660156 20.542969 36.683594 20.824219 36.515625 C 21.105469 36.347656 21.261719 35.945312 21.082031 35.667969 C 21.019531 35.578125 20.933594 35.507812 20.84375 35.441406 C 20.597656 35.265625 20.316406 35.109375 20.015625 35.125 C 19.875 35.136719 19.738281 35.183594 19.609375 35.242188 C 19.460938 35.308594 19.3125 35.402344 19.238281 35.546875 C 19.148438 35.734375 19.207031 35.96875 19.34375 36.128906 C 19.476562 36.289062 19.667969 36.386719 19.859375 36.460938 " fill-opacity="1" fill-rule="nonzero"/><path fill="#100f0d" d="M 19.285156 36.53125 C 19.820312 36.863281 20.648438 37.09375 21.144531 36.558594 C 21.648438 36.023438 21.308594 35.425781 20.773438 35.109375 C 20.257812 34.804688 19.503906 34.804688 19.101562 35.320312 C 18.640625 35.917969 19.285156 36.484375 19.796875 36.695312 C 20.082031 36.8125 20.207031 36.347656 19.925781 36.230469 C 19.527344 36.066406 19.210938 35.648438 19.769531 35.433594 C 20.082031 35.3125 20.359375 35.402344 20.628906 35.585938 C 20.96875 35.8125 21.007812 36.234375 20.5625 36.367188 C 20.207031 36.472656 19.824219 36.300781 19.527344 36.117188 C 19.261719 35.953125 19.023438 36.367188 19.285156 36.53125 " fill-opacity="1" fill-rule="nonzero"/><path fill="#faf783" d="M 6.21875 36.824219 C 6.550781 36.632812 6.78125 36.265625 6.808594 35.882812 C 6.816406 35.792969 6.8125 35.703125 6.773438 35.625 C 6.742188 35.558594 6.691406 35.507812 6.632812 35.464844 C 6.398438 35.300781 6.074219 35.308594 5.804688 35.40625 C 5.609375 35.472656 5.429688 35.582031 5.277344 35.722656 C 5.152344 35.839844 5.046875 35.976562 5 36.136719 C 4.953125 36.296875 4.972656 36.484375 5.074219 36.613281 C 5.179688 36.746094 5.351562 36.808594 5.515625 36.824219 C 5.890625 36.863281 6.277344 36.710938 6.523438 36.425781 " fill-opacity="1" fill-rule="nonzero"/><path fill="#100f0d" d="M 6.339844 37.03125 C 6.78125 36.746094 7.269531 36.050781 6.980469 35.503906 C 6.65625 34.886719 5.753906 35.078125 5.300781 35.398438 C 4.855469 35.714844 4.46875 36.40625 4.976562 36.855469 C 5.476562 37.300781 6.289062 37.019531 6.695312 36.59375 C 6.90625 36.371094 6.570312 36.03125 6.355469 36.253906 C 6.136719 36.484375 5.804688 36.65625 5.480469 36.578125 C 4.925781 36.4375 5.378906 35.90625 5.644531 35.746094 C 5.871094 35.609375 6.503906 35.398438 6.570312 35.835938 C 6.617188 36.144531 6.328125 36.46875 6.097656 36.617188 C 5.839844 36.78125 6.078125 37.199219 6.339844 37.03125 " fill-opacity="1" fill-rule="nonzero"/><path fill="#100f0d" d="M 3.542969 37.96875 C 2.832031 37.835938 2.121094 37.703125 1.410156 37.570312 C 1.109375 37.515625 0.980469 37.980469 1.28125 38.035156 C 1.992188 38.167969 2.703125 38.300781 3.414062 38.433594 C 3.714844 38.488281 3.84375 38.027344 3.542969 37.96875 " fill-opacity="1" fill-rule="nonzero"/><path fill="#100f0d" d="M 4.667969 34.152344 C 4.304688 33.660156 3.84375 33.304688 3.28125 33.070312 C 2.996094 32.953125 2.875 33.417969 3.15625 33.535156 C 3.589844 33.714844 3.972656 34.011719 4.257812 34.394531 C 4.4375 34.640625 4.855469 34.398438 4.667969 34.152344 " fill-opacity="1" fill-rule="nonzero"/><path fill="#100f0d" d="M 9.996094 32.996094 C 9.945312 32.414062 9.875 31.835938 9.785156 31.257812 C 9.738281 30.953125 9.277344 31.082031 9.324219 31.386719 C 9.40625 31.921875 9.46875 32.457031 9.519531 32.996094 C 9.546875 33.300781 10.023438 33.304688 9.996094 32.996094 " fill-opacity="1" fill-rule="nonzero"/><g clip-path="url(#a7f6377d46)"><path fill="#100f0d" d="M 16.132812 32.652344 C 16.175781 32.125 16.265625 31.605469 16.402344 31.09375 C 16.480469 30.792969 16.019531 30.667969 15.941406 30.964844 C 15.792969 31.519531 15.703125 32.082031 15.65625 32.652344 C 15.628906 32.960938 16.109375 32.960938 16.132812 32.652344 " fill-opacity="1" fill-rule="nonzero"/></g><path fill="#100f0d" d="M 20.710938 33.25 C 21.164062 33.023438 21.617188 32.796875 22.074219 32.570312 C 22.347656 32.433594 22.105469 32.019531 21.832031 32.15625 C 21.378906 32.382812 20.921875 32.609375 20.46875 32.835938 C 20.191406 32.972656 20.433594 33.386719 20.710938 33.25 " fill-opacity="1" fill-rule="nonzero"/><g clip-path="url(#a034af800f)"><path fill="#100f0d" d="M 22.800781 36.828125 C 23.222656 36.828125 23.652344 36.828125 24.074219 36.828125 C 24.382812 36.828125 24.382812 36.347656 24.074219 36.347656 C 23.652344 36.347656 23.222656 36.347656 22.800781 36.347656 C 22.492188 36.347656 22.492188 36.828125 22.800781 36.828125 " fill-opacity="1" fill-rule="nonzero"/></g><path fill="#100f0d" d="M 22.523438 39.863281 C 22.835938 39.816406 23.144531 39.773438 23.457031 39.726562 C 23.761719 39.683594 23.632812 39.21875 23.332031 39.261719 C 23.019531 39.308594 22.707031 39.351562 22.394531 39.398438 C 22.09375 39.441406 22.222656 39.90625 22.523438 39.863281 " fill-opacity="1" fill-rule="nonzero"/></svg>