<svg xmlns="http://www.w3.org/2000/svg" xmlns:xlink="http://www.w3.org/1999/xlink" width="112" zoomAndPan="magnify" viewBox="0 0 84 81.749997" height="109" preserveAspectRatio="xMidYMid meet" version="1.0"><defs><g/><clipPath id="1b8bef7b82"><path d="M 0.128906 13 L 83.871094 13 L 83.871094 62 L 0.128906 62 Z M 0.128906 13 " clip-rule="nonzero"/></clipPath></defs><g fill="#100a09" fill-opacity="1"><g transform="translate(10.614703, 49.861464)"><g><path d="M 14.296875 -5.71875 C 14.078125 -4.988281 13.789062 -4.273438 13.4375 -3.578125 C 13.082031 -2.890625 12.617188 -2.289062 12.046875 -1.78125 C 11.984375 -1.738281 11.910156 -1.675781 11.828125 -1.59375 C 11.691406 -1.457031 11.503906 -1.285156 11.265625 -1.078125 C 11.023438 -0.867188 10.78125 -0.707031 10.53125 -0.59375 C 9.851562 -0.15625 9.117188 0.0351562 8.328125 -0.015625 C 7.535156 -0.0664062 6.78125 -0.285156 6.0625 -0.671875 C 5.34375 -1.054688 4.734375 -1.535156 4.234375 -2.109375 C 3.742188 -2.679688 3.332031 -3.320312 3 -4.03125 C 2.820312 -4.007812 2.640625 -4.039062 2.453125 -4.125 C 2.273438 -4.21875 2.140625 -4.375 2.046875 -4.59375 C 1.316406 -6.4375 0.90625 -8.359375 0.8125 -10.359375 C 0.726562 -12.367188 0.898438 -14.332031 1.328125 -16.25 C 1.453125 -16.75 1.632812 -17.25 1.875 -17.75 C 2.125 -18.25 2.453125 -18.648438 2.859375 -18.953125 C 3.265625 -19.265625 3.765625 -19.375 4.359375 -19.28125 C 4.710938 -19.238281 5.03125 -19.101562 5.3125 -18.875 C 5.601562 -18.644531 5.816406 -18.363281 5.953125 -18.03125 C 6.117188 -17.59375 6.132812 -17.113281 6 -16.59375 C 5.875 -16.070312 5.789062 -15.582031 5.75 -15.125 C 5.707031 -14.570312 5.6875 -14.015625 5.6875 -13.453125 C 5.6875 -12.890625 5.695312 -12.332031 5.71875 -11.78125 C 5.800781 -10.625 5.96875 -9.492188 6.21875 -8.390625 C 6.476562 -7.285156 6.804688 -6.195312 7.203125 -5.125 C 7.421875 -4.96875 7.644531 -4.832031 7.875 -4.71875 C 8.101562 -4.613281 8.34375 -4.550781 8.59375 -4.53125 C 9.164062 -4.65625 9.660156 -4.894531 10.078125 -5.25 C 10.316406 -5.582031 10.472656 -5.988281 10.546875 -6.46875 C 10.628906 -6.957031 10.679688 -7.4375 10.703125 -7.90625 C 10.722656 -8.382812 10.742188 -8.796875 10.765625 -9.140625 C 10.859375 -10.460938 10.90625 -11.785156 10.90625 -13.109375 C 10.90625 -14.429688 10.898438 -15.753906 10.890625 -17.078125 C 10.867188 -17.535156 11.0625 -17.878906 11.46875 -18.109375 C 11.882812 -18.347656 12.28125 -18.363281 12.65625 -18.15625 L 12.65625 -18.453125 C 12.65625 -18.609375 12.710938 -18.75 12.828125 -18.875 C 12.953125 -19 13.09375 -19.054688 13.25 -19.046875 C 13.707031 -19.003906 14.039062 -18.832031 14.25 -18.53125 C 14.457031 -18.238281 14.59375 -17.898438 14.65625 -17.515625 C 14.726562 -17.128906 14.773438 -16.75 14.796875 -16.375 C 14.835938 -16.019531 14.875 -15.660156 14.90625 -15.296875 C 14.945312 -14.941406 14.96875 -14.585938 14.96875 -14.234375 L 14.96875 -13.046875 C 15.03125 -11.816406 15.015625 -10.582031 14.921875 -9.34375 C 14.835938 -8.113281 14.628906 -6.90625 14.296875 -5.71875 Z M 5.640625 -16.15625 C 5.554688 -16.125 5.492188 -16.144531 5.453125 -16.21875 C 5.429688 -16.082031 5.398438 -15.945312 5.359375 -15.8125 C 5.328125 -15.6875 5.28125 -15.566406 5.21875 -15.453125 C 5.101562 -14.441406 5.050781 -13.429688 5.0625 -12.421875 C 5.070312 -11.410156 5.175781 -10.414062 5.375 -9.4375 C 5.40625 -9.238281 5.441406 -9.046875 5.484375 -8.859375 C 5.523438 -8.671875 5.566406 -8.484375 5.609375 -8.296875 C 5.648438 -8.296875 5.675781 -8.289062 5.6875 -8.28125 C 5.21875 -10.925781 5.203125 -13.550781 5.640625 -16.15625 Z M 5.640625 -16.15625 "/></g></g></g><g fill="#100a09" fill-opacity="1"><g transform="translate(24.46216, 49.861464)"><g><path d="M 16.90625 -11.296875 L 16.8125 -10.671875 C 16.789062 -10.398438 16.660156 -10.160156 16.421875 -9.953125 C 16.191406 -9.742188 15.957031 -9.648438 15.71875 -9.671875 C 15.03125 -9.710938 14.332031 -9.757812 13.625 -9.8125 C 12.925781 -9.875 12.226562 -9.9375 11.53125 -10 C 12.34375 -8.789062 13.054688 -7.5625 13.671875 -6.3125 C 14.066406 -5.46875 14.460938 -4.582031 14.859375 -3.65625 C 15.253906 -2.738281 15.390625 -1.796875 15.265625 -0.828125 C 15.234375 -0.515625 15.078125 -0.3125 14.796875 -0.21875 C 14.523438 -0.132812 14.257812 -0.140625 14 -0.234375 C 13.863281 -0.210938 13.726562 -0.207031 13.59375 -0.21875 C 13.46875 -0.226562 13.335938 -0.265625 13.203125 -0.328125 C 13.160156 -0.328125 13.140625 -0.335938 13.140625 -0.359375 C 13.015625 -0.234375 12.882812 -0.203125 12.75 -0.265625 C 12.488281 -0.960938 12.210938 -1.660156 11.921875 -2.359375 C 11.628906 -3.054688 11.332031 -3.742188 11.03125 -4.421875 C 10.9375 -4.671875 10.789062 -5.03125 10.59375 -5.5 C 10.394531 -5.96875 10.1875 -6.453125 9.96875 -6.953125 C 9.75 -7.453125 9.539062 -7.882812 9.34375 -8.25 C 9.1875 -8.601562 9.03125 -8.90625 8.875 -9.15625 L 8.875 -9.1875 C 8.6875 -9.445312 8.515625 -9.726562 8.359375 -10.03125 C 7.984375 -10.039062 7.597656 -10.054688 7.203125 -10.078125 C 6.804688 -10.097656 6.410156 -10.117188 6.015625 -10.140625 C 6.097656 -9.472656 6.164062 -8.800781 6.21875 -8.125 C 6.28125 -7.457031 6.320312 -6.773438 6.34375 -6.078125 C 6.382812 -5.347656 6.425781 -4.613281 6.46875 -3.875 C 6.519531 -3.132812 6.53125 -2.394531 6.5 -1.65625 C 6.519531 -1.582031 6.53125 -1.5 6.53125 -1.40625 C 6.53125 -1.320312 6.53125 -1.238281 6.53125 -1.15625 C 6.332031 -0.78125 6.101562 -0.484375 5.84375 -0.265625 C 5.644531 -0.109375 5.414062 -0.03125 5.15625 -0.03125 C 4.90625 -0.03125 4.6875 -0.128906 4.5 -0.328125 C 4.40625 -0.484375 4.347656 -0.640625 4.328125 -0.796875 C 4.210938 -0.773438 4.09375 -0.804688 3.96875 -0.890625 C 3.851562 -0.984375 3.796875 -1.113281 3.796875 -1.28125 C 3.710938 -1.59375 3.675781 -1.921875 3.6875 -2.265625 C 3.695312 -2.609375 3.679688 -2.941406 3.640625 -3.265625 L 3.375 -5.21875 C 3.257812 -5.90625 3.140625 -6.597656 3.015625 -7.296875 C 2.898438 -8.003906 2.785156 -8.707031 2.671875 -9.40625 L 2.484375 -10.4375 C 2.472656 -10.4375 2.453125 -10.4375 2.421875 -10.4375 C 2.390625 -10.4375 2.351562 -10.4375 2.3125 -10.4375 C 2.3125 -10.550781 2.253906 -10.617188 2.140625 -10.640625 C 1.972656 -10.679688 1.804688 -10.734375 1.640625 -10.796875 C 1.472656 -10.859375 1.3125 -10.914062 1.15625 -10.96875 L 1.84375 -11.0625 C 1.539062 -11.175781 1.242188 -11.332031 0.953125 -11.53125 C 0.671875 -11.707031 0.515625 -11.957031 0.484375 -12.28125 C 0.453125 -12.613281 0.515625 -12.90625 0.671875 -13.15625 C 0.835938 -13.414062 1.066406 -13.546875 1.359375 -13.546875 C 1.460938 -13.566406 1.554688 -13.578125 1.640625 -13.578125 C 1.734375 -13.578125 1.816406 -13.578125 1.890625 -13.578125 C 1.796875 -14.097656 1.691406 -14.613281 1.578125 -15.125 C 1.472656 -15.632812 1.363281 -16.140625 1.25 -16.640625 C 1.5 -16.835938 1.707031 -17.054688 1.875 -17.296875 C 1.59375 -17.523438 1.382812 -17.828125 1.25 -18.203125 C 1.125 -18.578125 1.144531 -18.9375 1.3125 -19.28125 C 1.5 -19.65625 1.789062 -19.878906 2.1875 -19.953125 C 2.582031 -20.035156 3.007812 -20.046875 3.46875 -19.984375 C 3.925781 -19.929688 4.3125 -19.875 4.625 -19.8125 C 4.726562 -19.8125 4.816406 -19.769531 4.890625 -19.6875 C 4.992188 -19.644531 5.097656 -19.601562 5.203125 -19.5625 C 5.316406 -19.53125 5.421875 -19.492188 5.515625 -19.453125 C 5.535156 -19.453125 5.550781 -19.445312 5.5625 -19.4375 C 5.570312 -19.425781 5.585938 -19.421875 5.609375 -19.421875 C 7.242188 -18.910156 8.804688 -18.191406 10.296875 -17.265625 C 11.796875 -16.347656 13.265625 -15.394531 14.703125 -14.40625 C 14.898438 -14.25 15.039062 -14.035156 15.125 -13.765625 C 15.34375 -13.617188 15.550781 -13.46875 15.75 -13.3125 C 15.945312 -13.15625 16.144531 -13 16.34375 -12.84375 C 16.8125 -12.488281 17 -11.972656 16.90625 -11.296875 Z M 4.859375 -15.84375 C 4.878906 -15.820312 4.890625 -15.789062 4.890625 -15.75 C 4.890625 -15.707031 4.898438 -15.664062 4.921875 -15.625 C 5.003906 -15.707031 5.097656 -15.742188 5.203125 -15.734375 C 5.316406 -15.722656 5.378906 -15.648438 5.390625 -15.515625 C 5.472656 -15.191406 5.546875 -14.875 5.609375 -14.5625 C 5.679688 -14.257812 5.75 -13.953125 5.8125 -13.640625 C 5.894531 -13.617188 5.972656 -13.609375 6.046875 -13.609375 C 6.128906 -13.609375 6.207031 -13.597656 6.28125 -13.578125 C 6.320312 -13.753906 6.410156 -13.90625 6.546875 -14.03125 C 6.847656 -14.226562 7.148438 -14.285156 7.453125 -14.203125 C 7.765625 -14.128906 8.0625 -13.992188 8.34375 -13.796875 C 8.632812 -13.609375 8.890625 -13.421875 9.109375 -13.234375 L 11.984375 -12.875 C 10.835938 -13.664062 9.671875 -14.359375 8.484375 -14.953125 C 7.296875 -15.554688 6.0625 -16.007812 4.78125 -16.3125 Z M 6.96875 -2.484375 C 6.90625 -3.710938 6.835938 -4.941406 6.765625 -6.171875 C 6.703125 -7.410156 6.582031 -8.632812 6.40625 -9.84375 L 6.640625 -9.84375 C 6.796875 -9 6.914062 -8.128906 7 -7.234375 C 7.082031 -6.347656 7.160156 -5.457031 7.234375 -4.5625 C 7.273438 -4.03125 7.253906 -3.640625 7.171875 -3.390625 C 7.097656 -3.148438 7.03125 -2.847656 6.96875 -2.484375 Z M 6.96875 -2.484375 "/></g></g></g><g fill="#100a09" fill-opacity="1"><g transform="translate(40.681808, 49.861464)"><g><path d="M 16.703125 -1.484375 C 16.578125 -1.066406 16.335938 -0.765625 15.984375 -0.578125 C 15.628906 -0.390625 15.234375 -0.273438 14.796875 -0.234375 C 14.359375 -0.191406 13.953125 -0.160156 13.578125 -0.140625 C 12.960938 -0.128906 12.347656 -0.15625 11.734375 -0.21875 C 11.128906 -0.289062 10.519531 -0.335938 9.90625 -0.359375 C 9.050781 -0.398438 8.203125 -0.394531 7.359375 -0.34375 C 6.523438 -0.289062 5.691406 -0.21875 4.859375 -0.125 C 4.640625 0.0195312 4.375 0.09375 4.0625 0.09375 C 3.90625 0.09375 3.796875 0.0820312 3.734375 0.0625 C 3.535156 0.0820312 3.34375 0.109375 3.15625 0.140625 C 2.96875 0.179688 2.785156 0.222656 2.609375 0.265625 C 2.328125 0.304688 2.066406 0.265625 1.828125 0.140625 C 1.597656 0.0234375 1.441406 -0.164062 1.359375 -0.4375 C 1.335938 -0.476562 1.328125 -0.53125 1.328125 -0.59375 C 1.210938 -0.769531 1.15625 -0.96875 1.15625 -1.1875 C 1.15625 -1.519531 1.265625 -1.785156 1.484375 -1.984375 C 1.703125 -2.179688 1.96875 -2.289062 2.28125 -2.3125 C 2.320312 -2.3125 2.351562 -2.320312 2.375 -2.34375 C 2.351562 -3.226562 2.304688 -4.113281 2.234375 -5 C 2.171875 -5.894531 2.097656 -6.789062 2.015625 -7.6875 C 1.703125 -7.78125 1.441406 -7.9375 1.234375 -8.15625 C 1.023438 -8.375 0.921875 -8.671875 0.921875 -9.046875 C 0.921875 -9.335938 1 -9.59375 1.15625 -9.8125 C 1.3125 -10.03125 1.519531 -10.203125 1.78125 -10.328125 C 1.78125 -10.335938 1.773438 -10.347656 1.765625 -10.359375 C 1.753906 -10.367188 1.75 -10.375 1.75 -10.375 C 1.6875 -11.125 1.625 -11.867188 1.5625 -12.609375 C 1.507812 -13.359375 1.441406 -14.097656 1.359375 -14.828125 C 1.222656 -14.910156 1.085938 -15 0.953125 -15.09375 C 0.828125 -15.195312 0.707031 -15.285156 0.59375 -15.359375 C 0.394531 -15.554688 0.195312 -15.78125 0 -16.03125 C -0.195312 -16.289062 -0.320312 -16.566406 -0.375 -16.859375 C -0.4375 -17.160156 -0.367188 -17.453125 -0.171875 -17.734375 C 0.117188 -18.128906 0.492188 -18.382812 0.953125 -18.5 C 1.421875 -18.625 1.882812 -18.695312 2.34375 -18.71875 C 3.269531 -18.71875 4.148438 -18.566406 4.984375 -18.265625 C 5.867188 -17.972656 6.738281 -17.597656 7.59375 -17.140625 C 7.851562 -17.003906 8.269531 -16.753906 8.84375 -16.390625 C 9.414062 -16.035156 10.050781 -15.601562 10.75 -15.09375 C 11.445312 -14.582031 12.128906 -14.035156 12.796875 -13.453125 C 13.460938 -12.867188 14.015625 -12.285156 14.453125 -11.703125 C 14.898438 -11.117188 15.15625 -10.5625 15.21875 -10.03125 C 15.289062 -9.507812 15.082031 -9.0625 14.59375 -8.6875 C 14.394531 -8.53125 14.1875 -8.394531 13.96875 -8.28125 C 13.75 -8.175781 13.507812 -8.132812 13.25 -8.15625 C 12.914062 -8.195312 12.585938 -8.234375 12.265625 -8.265625 C 11.953125 -8.304688 11.597656 -8.347656 11.203125 -8.390625 L 9.78125 -8.484375 C 9.882812 -8.441406 9.96875 -8.394531 10.03125 -8.34375 C 10.101562 -8.300781 10.179688 -8.257812 10.265625 -8.21875 C 10.617188 -8 10.960938 -7.773438 11.296875 -7.546875 C 11.628906 -7.316406 11.957031 -7.078125 12.28125 -6.828125 C 13.644531 -5.753906 14.859375 -4.585938 15.921875 -3.328125 C 16.203125 -3.066406 16.425781 -2.785156 16.59375 -2.484375 C 16.757812 -2.191406 16.796875 -1.859375 16.703125 -1.484375 Z M 10.375 -11.453125 C 10.195312 -11.648438 10.015625 -11.835938 9.828125 -12.015625 C 9.640625 -12.191406 9.445312 -12.367188 9.25 -12.546875 C 9.050781 -12.703125 8.878906 -12.847656 8.734375 -12.984375 C 8.585938 -13.128906 8.4375 -13.25 8.28125 -13.34375 C 7.863281 -13.625 7.429688 -13.882812 6.984375 -14.125 C 6.535156 -14.375 6.113281 -14.566406 5.71875 -14.703125 C 5.582031 -14.742188 5.445312 -14.789062 5.3125 -14.84375 C 5.1875 -14.894531 5.054688 -14.929688 4.921875 -14.953125 L 4.453125 -15.03125 C 4.429688 -15.03125 4.414062 -15.03125 4.40625 -15.03125 C 4.394531 -15.03125 4.378906 -15.03125 4.359375 -15.03125 C 4.492188 -14.40625 4.601562 -13.769531 4.6875 -13.125 C 4.78125 -12.476562 4.867188 -11.832031 4.953125 -11.1875 C 5.921875 -11.320312 6.890625 -11.410156 7.859375 -11.453125 C 8.710938 -11.472656 9.550781 -11.472656 10.375 -11.453125 Z M 11.984375 -3.640625 C 11.523438 -4.035156 11.046875 -4.410156 10.546875 -4.765625 C 10.054688 -5.128906 9.546875 -5.457031 9.015625 -5.75 C 8.503906 -6.03125 7.960938 -6.300781 7.390625 -6.5625 C 6.828125 -6.832031 6.257812 -7.046875 5.6875 -7.203125 C 5.613281 -7.242188 5.535156 -7.265625 5.453125 -7.265625 L 5.8125 -4.625 C 5.851562 -4.332031 5.890625 -4.035156 5.921875 -3.734375 C 5.960938 -3.441406 5.992188 -3.144531 6.015625 -2.84375 C 6.691406 -2.925781 7.363281 -2.988281 8.03125 -3.03125 C 8.625 -3.039062 9.21875 -3.03125 9.8125 -3 C 10.40625 -2.976562 11 -2.914062 11.59375 -2.8125 C 12.101562 -2.757812 12.617188 -2.671875 13.140625 -2.546875 C 12.960938 -2.742188 12.78125 -2.9375 12.59375 -3.125 C 12.40625 -3.3125 12.203125 -3.484375 11.984375 -3.640625 Z M 11.984375 -3.640625 "/></g></g></g><g fill="#100a09" fill-opacity="1"><g transform="translate(55.418837, 49.861464)"><g><path d="M 10.859375 -0.890625 C 10.734375 -0.929688 10.597656 -1.140625 10.453125 -1.515625 C 10.304688 -1.890625 10.148438 -2.351562 9.984375 -2.90625 C 9.816406 -3.457031 9.65625 -4.03125 9.5 -4.625 C 9.351562 -5.21875 9.21875 -5.75 9.09375 -6.21875 C 8.976562 -6.695312 8.90625 -7.046875 8.875 -7.265625 L 6.546875 -7.234375 C 6.335938 -6.347656 6.148438 -5.460938 5.984375 -4.578125 C 5.828125 -3.703125 5.710938 -2.804688 5.640625 -1.890625 C 5.640625 -1.710938 5.550781 -1.625 5.375 -1.625 C 5.207031 -1.625 5.132812 -1.710938 5.15625 -1.890625 C 5.238281 -2.785156 5.351562 -3.679688 5.5 -4.578125 C 5.644531 -5.484375 5.859375 -6.367188 6.140625 -7.234375 L 5.875 -7.234375 C 5.769531 -6.878906 5.664062 -6.445312 5.5625 -5.9375 C 5.46875 -5.4375 5.375 -4.941406 5.28125 -4.453125 C 5.195312 -3.972656 5.125 -3.570312 5.0625 -3.25 C 5.007812 -2.925781 4.984375 -2.765625 4.984375 -2.765625 L 4.796875 -1.421875 C 4.742188 -0.753906 4.519531 -0.273438 4.125 0.015625 C 3.726562 0.316406 3.289062 0.4375 2.8125 0.375 C 2.34375 0.320312 1.941406 0.0976562 1.609375 -0.296875 C 1.285156 -0.691406 1.175781 -1.234375 1.28125 -1.921875 C 1.394531 -2.796875 1.53125 -3.664062 1.6875 -4.53125 C 1.84375 -5.40625 2.03125 -6.269531 2.25 -7.125 C 2.113281 -7.101562 1.972656 -7.085938 1.828125 -7.078125 C 1.691406 -7.066406 1.566406 -7.0625 1.453125 -7.0625 C 1.492188 -7.15625 1.503906 -7.242188 1.484375 -7.328125 C 1.003906 -7.441406 0.65625 -7.695312 0.4375 -8.09375 C 0.226562 -8.488281 0.171875 -8.925781 0.265625 -9.40625 C 0.367188 -9.894531 0.644531 -10.34375 1.09375 -10.75 C 1.550781 -11.15625 2.222656 -11.425781 3.109375 -11.5625 C 3.328125 -12.550781 3.566406 -13.523438 3.828125 -14.484375 C 4.085938 -15.441406 4.40625 -16.378906 4.78125 -17.296875 C 4.957031 -17.679688 5.148438 -18.109375 5.359375 -18.578125 C 5.578125 -19.046875 5.847656 -19.453125 6.171875 -19.796875 C 6.503906 -20.140625 6.914062 -20.3125 7.40625 -20.3125 C 7.664062 -20.332031 7.925781 -20.265625 8.1875 -20.109375 C 8.445312 -19.953125 8.632812 -19.753906 8.75 -19.515625 C 9.1875 -19.492188 9.546875 -19.335938 9.828125 -19.046875 C 10.117188 -18.765625 10.285156 -18.382812 10.328125 -17.90625 C 10.359375 -17.3125 10.40625 -16.710938 10.46875 -16.109375 C 10.53125 -15.515625 10.585938 -14.929688 10.640625 -14.359375 C 10.660156 -14.335938 10.679688 -14.328125 10.703125 -14.328125 C 10.722656 -14.835938 10.75 -15.34375 10.78125 -15.84375 C 10.8125 -16.351562 10.851562 -16.851562 10.90625 -17.34375 C 10.90625 -17.425781 10.921875 -17.25 10.953125 -16.8125 C 10.984375 -16.375 11.019531 -15.8125 11.0625 -15.125 C 11.101562 -14.445312 11.140625 -13.765625 11.171875 -13.078125 C 11.210938 -12.398438 11.265625 -11.835938 11.328125 -11.390625 C 11.898438 -11.328125 12.34375 -11.132812 12.65625 -10.8125 C 12.976562 -10.488281 13.175781 -10.113281 13.25 -9.6875 C 13.332031 -9.257812 13.296875 -8.835938 13.140625 -8.421875 C 12.984375 -8.003906 12.695312 -7.664062 12.28125 -7.40625 C 12.476562 -6.539062 12.6875 -5.554688 12.90625 -4.453125 C 13.125 -3.359375 13.289062 -2.367188 13.40625 -1.484375 C 13.476562 -0.804688 13.421875 -0.296875 13.234375 0.046875 C 13.046875 0.390625 12.800781 0.582031 12.5 0.625 C 12.195312 0.664062 11.890625 0.554688 11.578125 0.296875 C 11.273438 0.0351562 11.035156 -0.359375 10.859375 -0.890625 Z M 6.46875 -11.09375 C 6.6875 -11.132812 6.96875 -11.160156 7.3125 -11.171875 C 7.65625 -11.179688 7.925781 -11.191406 8.125 -11.203125 C 8.082031 -11.460938 8.035156 -11.828125 7.984375 -12.296875 C 7.941406 -12.773438 7.882812 -13.285156 7.8125 -13.828125 C 7.738281 -14.378906 7.65625 -14.878906 7.5625 -15.328125 C 7.320312 -14.503906 7.113281 -13.765625 6.9375 -13.109375 C 6.757812 -12.453125 6.601562 -11.78125 6.46875 -11.09375 Z M 6.46875 -11.09375 "/></g></g></g><g fill="#100a09" fill-opacity="1"><g transform="translate(68.050543, 49.861464)"><g><path d="M 12.875 0.09375 C 12.695312 0.207031 12.5 0.207031 12.28125 0.09375 C 11.882812 -0.0820312 11.613281 -0.375 11.46875 -0.78125 C 11.332031 -1.1875 11.226562 -1.578125 11.15625 -1.953125 L 10.96875 -2.96875 L 5.8125 -12.1875 C 5.726562 -12.289062 5.644531 -12.398438 5.5625 -12.515625 C 5.488281 -12.628906 5.414062 -12.738281 5.34375 -12.84375 C 5.363281 -11.832031 5.367188 -10.820312 5.359375 -9.8125 C 5.347656 -8.800781 5.34375 -7.796875 5.34375 -6.796875 C 5.375 -6.203125 5.394531 -5.609375 5.40625 -5.015625 C 5.414062 -4.421875 5.429688 -3.828125 5.453125 -3.234375 C 5.472656 -2.929688 5.492188 -2.566406 5.515625 -2.140625 C 5.535156 -1.722656 5.488281 -1.34375 5.375 -1 C 5.269531 -0.664062 5.007812 -0.472656 4.59375 -0.421875 C 4.414062 -0.117188 4.171875 0.0820312 3.859375 0.1875 C 3.554688 0.300781 3.238281 0.304688 2.90625 0.203125 C 2.59375 0.128906 2.316406 -0.0546875 2.078125 -0.359375 C 1.992188 -1.597656 1.925781 -2.835938 1.875 -4.078125 C 1.832031 -5.328125 1.789062 -6.578125 1.75 -7.828125 C 1.707031 -8.835938 1.675781 -9.847656 1.65625 -10.859375 C 1.632812 -11.878906 1.609375 -12.894531 1.578125 -13.90625 C 1.554688 -14.5625 1.539062 -15.210938 1.53125 -15.859375 C 1.519531 -16.515625 1.535156 -17.160156 1.578125 -17.796875 C 1.773438 -17.953125 1.960938 -18.039062 2.140625 -18.0625 C 2.140625 -18.300781 2.21875 -18.53125 2.375 -18.75 C 2.613281 -19.039062 2.878906 -19.179688 3.171875 -19.171875 C 3.472656 -19.160156 3.78125 -19.050781 4.09375 -18.84375 C 4.40625 -18.632812 4.691406 -18.394531 4.953125 -18.125 C 5.210938 -17.863281 5.410156 -17.644531 5.546875 -17.46875 C 6.054688 -16.789062 6.523438 -16.101562 6.953125 -15.40625 C 7.378906 -14.707031 7.789062 -13.988281 8.1875 -13.25 C 8.519531 -12.675781 8.84375 -12.09375 9.15625 -11.5 C 9.476562 -10.90625 9.785156 -10.304688 10.078125 -9.703125 C 10.117188 -9.617188 10.140625 -9.519531 10.140625 -9.40625 L 10.609375 -8.484375 C 10.535156 -9.234375 10.425781 -9.992188 10.28125 -10.765625 C 10.144531 -11.535156 10.007812 -12.296875 9.875 -13.046875 C 9.78125 -13.578125 9.679688 -14.109375 9.578125 -14.640625 C 9.484375 -15.179688 9.351562 -15.71875 9.1875 -16.25 C 9.113281 -16.53125 9.039062 -16.8125 8.96875 -17.09375 C 8.90625 -17.382812 8.953125 -17.675781 9.109375 -17.96875 C 9.242188 -18.207031 9.410156 -18.382812 9.609375 -18.5 C 9.609375 -18.519531 9.613281 -18.53125 9.625 -18.53125 C 9.632812 -18.53125 9.640625 -18.539062 9.640625 -18.5625 C 9.816406 -18.894531 10.085938 -19.0625 10.453125 -19.0625 C 10.816406 -19.0625 11.128906 -18.972656 11.390625 -18.796875 C 11.453125 -18.773438 11.519531 -18.726562 11.59375 -18.65625 C 11.65625 -18.375 11.722656 -18.085938 11.796875 -17.796875 C 11.878906 -17.515625 11.960938 -17.238281 12.046875 -16.96875 C 12.273438 -16.113281 12.46875 -15.234375 12.625 -14.328125 C 12.789062 -13.429688 12.941406 -12.539062 13.078125 -11.65625 C 13.367188 -9.851562 13.601562 -8.03125 13.78125 -6.1875 C 13.96875 -4.351562 14.117188 -2.53125 14.234375 -0.71875 C 14.078125 -0.5 13.878906 -0.304688 13.640625 -0.140625 C 13.398438 0.015625 13.144531 0.09375 12.875 0.09375 Z M 14.53125 -1.015625 C 14.488281 -1.015625 14.445312 -0.984375 14.40625 -0.921875 C 14.207031 -3.742188 13.9375 -6.5625 13.59375 -9.375 C 13.25 -12.195312 12.769531 -14.984375 12.15625 -17.734375 C 12.113281 -17.847656 12.144531 -17.957031 12.25 -18.0625 C 12.320312 -18.15625 12.425781 -18.195312 12.5625 -18.1875 C 12.707031 -18.175781 12.789062 -18.09375 12.8125 -17.9375 C 13.34375 -15.375 13.757812 -12.78125 14.0625 -10.15625 C 14.375 -7.539062 14.519531 -4.914062 14.5 -2.28125 C 14.519531 -2.1875 14.535156 -2.003906 14.546875 -1.734375 C 14.554688 -1.460938 14.550781 -1.222656 14.53125 -1.015625 Z M 1.546875 -3.171875 C 1.460938 -4.222656 1.398438 -5.316406 1.359375 -6.453125 C 1.328125 -7.585938 1.289062 -8.6875 1.25 -9.75 C 1.207031 -10.800781 1.175781 -11.859375 1.15625 -12.921875 C 1.132812 -13.992188 1.113281 -15.066406 1.09375 -16.140625 C 1.070312 -16.390625 1.082031 -16.644531 1.125 -16.90625 C 1.164062 -17.175781 1.234375 -17.429688 1.328125 -17.671875 C 1.316406 -17.203125 1.3125 -16.726562 1.3125 -16.25 C 1.320312 -15.78125 1.335938 -15.304688 1.359375 -14.828125 C 1.378906 -13.796875 1.40625 -12.765625 1.4375 -11.734375 C 1.46875 -10.710938 1.492188 -9.675781 1.515625 -8.625 L 1.78125 -1.953125 C 1.78125 -1.953125 1.753906 -1.992188 1.703125 -2.078125 C 1.648438 -2.171875 1.597656 -2.535156 1.546875 -3.171875 Z M 4.859375 -4.625 L 4.78125 -4.53125 C 4.78125 -4.53125 4.773438 -4.53125 4.765625 -4.53125 C 4.753906 -4.53125 4.738281 -4.519531 4.71875 -4.5 L 4.6875 -2.734375 C 4.6875 -2.492188 4.726562 -2.207031 4.8125 -1.875 C 4.90625 -1.550781 4.898438 -1.203125 4.796875 -0.828125 C 4.992188 -1.160156 5.078125 -1.5 5.046875 -1.84375 C 5.023438 -2.113281 5.007812 -2.394531 5 -2.6875 C 4.988281 -2.988281 4.960938 -3.289062 4.921875 -3.59375 C 4.921875 -3.769531 4.914062 -3.941406 4.90625 -4.109375 C 4.894531 -4.273438 4.878906 -4.445312 4.859375 -4.625 Z M 4.859375 -4.625 "/></g></g></g><g clip-path="url(#1b8bef7b82)"><path stroke-linecap="butt" transform="matrix(0.28719, 0, 0, 0.28719, 0.0950895, 18.122676)" fill="none" stroke-linejoin="miter" d="M 75.185003 83.059486 C 74.423313 85.616588 73.430396 88.105681 72.19265 90.526767 C 70.954904 92.920649 69.349914 95.015296 67.350479 96.797106 C 67.146455 96.933122 66.901626 97.137146 66.615992 97.42278 C 66.139936 97.898836 65.487059 98.510908 64.64376 99.245395 C 63.827663 99.96628 62.970762 100.523946 62.073056 100.931994 C 59.747182 102.441772 57.190081 103.121852 54.442557 102.945031 C 51.681431 102.781812 49.04272 102.020122 46.526423 100.687165 C 44.023728 99.340606 41.915479 97.667609 40.201677 95.668173 C 38.460672 93.668737 37.018902 91.424473 35.862766 88.962582 C 35.237092 89.03059 34.611418 88.908176 33.999346 88.608941 C 33.373672 88.282502 32.897616 87.75204 32.557576 86.99035 C 30.000474 80.583994 28.558704 73.905607 28.245867 66.927984 C 27.946632 59.936759 28.545103 53.095153 30.054881 46.403164 C 30.47653 44.689361 31.115806 42.961958 31.972707 41.207351 C 32.829608 39.439142 33.972143 38.038177 35.373108 36.977252 C 36.787675 35.902725 38.52868 35.535482 40.596124 35.889124 C 41.847471 36.02514 42.962803 36.487594 43.95572 37.276487 C 44.962239 38.06538 45.696725 39.044696 46.172781 40.228035 C 46.730447 41.737813 46.771252 43.410811 46.322399 45.247027 C 45.887148 47.056041 45.601514 48.756241 45.465498 50.334027 C 45.31588 52.265455 45.234271 54.224086 45.234271 56.182717 C 45.234271 58.141348 45.275075 60.072775 45.356685 62.004203 C 45.628717 65.989473 46.213586 69.920337 47.09769 73.783192 C 47.995396 77.632446 49.124329 81.413692 50.511693 85.12693 C 51.259781 85.684596 52.035073 86.14705 52.823966 86.541497 C 53.62646 86.90874 54.483361 87.126366 55.367466 87.194374 C 57.366901 86.786326 59.094305 85.970229 60.536075 84.718882 C 61.365773 83.549144 61.909837 82.120975 62.181869 80.434377 C 62.467503 78.761379 62.644324 77.088382 62.712332 75.442588 C 62.78034 73.783192 62.848348 72.355024 62.902754 71.185286 C 63.242794 66.574342 63.419615 61.977 63.419615 57.366056 C 63.419615 52.741511 63.37881 48.130567 63.310802 43.533225 C 63.242794 41.955439 63.936476 40.744896 65.378246 39.9288 C 66.820016 39.085501 68.20738 39.044696 69.513134 39.792784 L 69.513134 38.759062 C 69.513134 38.2286 69.717158 37.72534 70.125206 37.276487 C 70.533254 36.827634 71.022912 36.637212 71.580578 36.691618 C 73.158364 36.854838 74.3145 37.439707 75.035385 38.459827 C 75.75627 39.493549 76.232326 40.676888 76.477155 42.023447 C 76.721984 43.356404 76.885203 44.689361 76.953211 45.995115 C 77.089227 47.246463 77.225243 48.484209 77.347658 49.735556 C 77.483674 50.959701 77.551682 52.197447 77.551682 53.435193 L 77.551682 57.57008 C 77.769307 61.840984 77.728503 66.125489 77.402064 70.423596 C 77.102829 74.735305 76.368342 78.9382 75.185003 83.059486 Z M 45.030247 46.729602 C 44.771816 46.865618 44.567792 46.784008 44.431776 46.498375 C 44.363768 46.988032 44.254955 47.464089 44.105338 47.912942 C 43.969322 48.348193 43.806102 48.783444 43.602078 49.205094 C 43.180428 52.714308 42.990006 56.223522 43.017209 59.746337 C 43.058014 63.255551 43.411656 66.72396 44.105338 70.151564 C 44.254955 70.845246 44.390971 71.511724 44.526987 72.164601 C 44.663003 72.817478 44.799019 73.456754 44.935035 74.082428 C 45.071051 74.082428 45.166263 74.123232 45.234271 74.19124 C 43.588477 64.955751 43.520469 55.801872 45.030247 46.729602 Z M 132.502162 63.649997 L 132.175723 65.812652 C 132.107715 66.791968 131.658862 67.635267 130.842766 68.356152 C 130.013068 69.090639 129.196972 69.417077 128.367274 69.349069 C 125.95979 69.213053 123.538705 69.036232 121.090416 68.84581 C 118.642127 68.628184 116.221042 68.410559 113.799956 68.206535 C 116.615488 72.40943 119.104582 76.680334 121.240034 81.019246 C 122.613796 83.970794 123.987558 87.058358 125.374921 90.268336 C 126.748683 93.464713 127.224739 96.7427 126.80309 100.102296 C 126.667073 101.204026 126.123009 101.924911 125.170897 102.237748 C 124.205183 102.550585 123.280274 102.523381 122.368967 102.16974 C 121.892911 102.237748 121.430456 102.251349 120.981603 102.224146 C 120.53275 102.183341 120.070296 102.060927 119.594239 101.870504 C 119.458223 101.870504 119.390215 101.8297 119.390215 101.761692 C 118.968566 102.16974 118.519713 102.264951 118.030055 102.060927 C 117.145951 99.667045 116.180237 97.245959 115.132913 94.811272 C 114.112793 92.349382 113.079071 89.955499 112.058951 87.616023 C 111.705309 86.718318 111.188448 85.453368 110.494766 83.834778 C 109.801085 82.229788 109.0802 80.543189 108.332111 78.802184 C 107.570422 77.033976 106.849537 75.524198 106.155855 74.286452 C 105.611791 73.062307 105.054125 71.987781 104.523662 71.090075 L 104.523662 70.981262 C 103.897988 70.097158 103.31312 69.131444 102.755454 68.111323 C 101.4497 68.029714 100.103141 67.948104 98.729379 67.880096 C 97.342015 67.812088 95.968253 67.74408 94.594491 67.676072 C 94.880125 70.015548 95.111352 72.355024 95.315376 74.708101 C 95.5194 77.047577 95.669018 79.414256 95.750628 81.82174 C 95.886644 84.378842 96.036261 86.949545 96.199481 89.53385 C 96.376302 92.104553 96.389903 94.675256 96.253887 97.232357 C 96.321895 97.490788 96.349098 97.790023 96.349098 98.10286 C 96.349098 98.415697 96.349098 98.701331 96.349098 98.959761 C 95.669018 100.279117 94.880125 101.312839 93.982419 102.060927 C 93.288737 102.618593 92.499844 102.904226 91.588537 102.904226 C 90.690831 102.904226 89.956344 102.550585 89.344272 101.870504 C 88.990631 101.312839 88.786607 100.755173 88.718598 100.197507 C 88.296949 100.279117 87.875299 100.170304 87.453649 99.871069 C 87.045601 99.558232 86.855179 99.12298 86.855179 98.565315 C 86.583147 97.449983 86.460732 96.307448 86.501537 95.110507 C 86.52874 93.899965 86.474334 92.743828 86.338318 91.628497 L 85.413409 84.827695 C 84.991759 82.420211 84.570109 79.999125 84.14846 77.564438 C 83.754013 75.116149 83.345965 72.681462 82.937917 70.273978 L 82.312243 66.64235 C 82.244235 66.64235 82.162625 66.64235 82.053813 66.64235 C 81.958601 66.64235 81.836187 66.64235 81.686569 66.64235 C 81.686569 66.247904 81.482545 66.003075 81.074497 65.935067 C 80.516831 65.785449 79.945564 65.608628 79.360695 65.418206 C 78.789428 65.214182 78.231762 64.996556 77.674096 64.77893 L 80.040775 64.479695 C 79.020655 64.071647 77.986933 63.527583 76.939609 62.833901 C 75.987497 62.221829 75.443433 61.351326 75.33462 60.222393 C 75.225807 59.079858 75.457035 58.059738 76.0147 57.162032 C 76.558765 56.264326 77.347658 55.801872 78.381379 55.801872 C 78.735021 55.733864 79.06146 55.706661 79.360695 55.706661 C 79.687133 55.706661 79.972767 55.706661 80.244799 55.706661 C 79.904759 53.924851 79.551117 52.14304 79.156671 50.36123 C 78.789428 48.565819 78.394981 46.79761 77.973331 45.070206 C 78.871037 44.376525 79.591922 43.628436 80.149588 42.798738 C 79.183874 41.969041 78.476591 40.908116 78.027738 39.602362 C 77.565283 38.283006 77.61969 37.04526 78.177355 35.889124 C 78.871037 34.58337 79.904759 33.794477 81.278521 33.522445 C 82.652283 33.236811 84.134858 33.196006 85.712644 33.427233 C 87.29043 33.617656 88.636989 33.82168 89.75232 34.025704 C 90.078759 34.025704 90.391596 34.16172 90.677229 34.433752 C 91.01727 34.569768 91.370911 34.705784 91.738155 34.855402 C 92.132601 34.991418 92.499844 35.127434 92.853486 35.26345 C 92.921494 35.26345 92.962299 35.277051 93.003104 35.317856 C 93.030307 35.34506 93.084713 35.358661 93.152721 35.358661 C 98.865395 37.154073 104.319638 39.67037 109.515451 42.880348 C 114.724865 46.063123 119.839068 49.381915 124.871662 52.809519 C 125.551742 53.367185 126.027798 54.115273 126.29983 55.080987 C 127.06152 55.557043 127.782405 56.087506 128.476087 56.645171 C 129.156167 57.189235 129.849849 57.7333 130.543531 58.277364 C 132.189325 59.51511 132.842202 61.310521 132.502162 63.649997 Z M 90.582018 47.872137 C 90.650026 47.926543 90.677229 48.035356 90.677229 48.171372 C 90.677229 48.307388 90.718034 48.443404 90.786042 48.565819 C 91.044473 48.307388 91.370911 48.184974 91.738155 48.212177 C 92.132601 48.252982 92.350227 48.511412 92.418235 49.00107 C 92.703868 50.089198 92.962299 51.177327 93.207128 52.251853 C 93.451957 53.312778 93.683184 54.400907 93.887208 55.502637 C 94.145638 55.570645 94.417671 55.611449 94.689703 55.611449 C 94.975336 55.611449 95.247368 55.638653 95.5194 55.706661 C 95.669018 55.080987 95.981855 54.577727 96.457911 54.169679 C 97.491633 53.475998 98.552558 53.271974 99.599882 53.544006 C 100.674408 53.802436 101.70813 54.264891 102.701047 54.931369 C 103.693964 55.584246 104.578069 56.250725 105.326157 56.944407 L 115.364141 58.182153 C 111.365269 55.421027 107.298389 52.999941 103.163502 50.918896 C 99.042216 48.810647 94.744109 47.246463 90.25558 46.199139 Z M 97.913283 94.321614 C 97.695657 90.064312 97.46443 85.779807 97.233203 81.468098 C 97.001975 77.169992 96.566724 72.91269 95.954652 68.709794 L 96.78435 68.709794 C 97.314812 71.674944 97.72286 74.708101 97.994892 77.809267 C 98.280526 80.910433 98.552558 83.997997 98.82459 87.099163 C 98.974208 88.962582 98.9062 90.322743 98.620566 91.179644 C 98.348534 92.036545 98.117307 93.083868 97.913283 94.321614 Z M 188.255136 97.830828 C 187.833486 99.272598 187.003789 100.333523 185.752441 100.9864 C 184.528297 101.639277 183.154535 102.033724 181.644757 102.16974 C 180.134979 102.305756 178.720412 102.414569 177.414658 102.496178 C 175.279206 102.564186 173.143754 102.482577 171.008302 102.237748 C 168.872851 101.992919 166.737399 101.8297 164.601947 101.761692 C 161.650399 101.625676 158.698851 101.652879 155.774506 101.816098 C 152.850161 101.979317 149.953019 102.237748 147.055878 102.591389 C 146.294188 103.067446 145.369279 103.298673 144.253947 103.298673 C 143.709883 103.298673 143.329038 103.27147 143.125014 103.203462 C 142.431332 103.27147 141.764854 103.366681 141.111977 103.502697 C 140.445498 103.652315 139.819825 103.801932 139.194151 103.937948 C 138.228437 104.073964 137.344333 103.924347 136.514635 103.502697 C 135.698539 103.094649 135.140873 102.414569 134.855239 101.462456 C 134.787231 101.312839 134.760028 101.136018 134.760028 100.931994 C 134.35198 100.30632 134.147956 99.62624 134.147956 98.86455 C 134.147956 97.708414 134.528801 96.783505 135.29049 96.089823 C 136.038579 95.409743 136.963488 95.028898 138.051616 94.96089 C 138.214835 94.96089 138.323648 94.920085 138.378054 94.838475 C 138.323648 91.737309 138.160429 88.649745 137.901998 85.54858 C 137.670771 82.447414 137.412341 79.346248 137.15391 76.258684 C 136.038579 75.918644 135.127271 75.37458 134.406386 74.61289 C 133.685501 73.8512 133.318258 72.817478 133.318258 71.511724 C 133.318258 70.464401 133.59029 69.566695 134.147956 68.818607 C 134.705621 68.056917 135.426506 67.48565 136.324212 67.077602 C 136.324212 66.995992 136.297009 66.927984 136.269806 66.900781 C 136.229001 66.859976 136.215399 66.846374 136.215399 66.846374 C 135.997774 64.248468 135.79375 61.650562 135.589726 59.079858 C 135.385702 56.495554 135.140873 53.924851 134.855239 51.367749 C 134.379183 51.095717 133.916728 50.796482 133.467875 50.456442 C 133.019023 50.1028 132.583771 49.789963 132.189325 49.504329 C 131.495643 48.810647 130.801961 48.021754 130.121881 47.13765 C 129.428199 46.239944 128.979346 45.287832 128.775322 44.25411 C 128.557696 43.220388 128.802525 42.21387 129.482606 41.261757 C 130.529929 39.887995 131.849285 38.990289 133.467875 38.582241 C 135.086466 38.174193 136.691456 37.915763 138.282843 37.834153 C 141.506423 37.834153 144.566784 38.351014 147.463926 39.398337 C 150.55149 40.418458 153.584648 41.737813 156.563399 43.329201 C 157.447503 43.805257 158.889273 44.662158 160.875107 45.899904 C 162.874543 47.13765 165.091605 48.66103 167.526292 50.456442 C 169.97458 52.238252 172.354861 54.156078 174.667134 56.182717 C 176.979406 58.195754 178.910834 60.222393 180.461417 62.262634 C 182.012 64.289273 182.896104 66.2207 183.127331 68.056917 C 183.385762 69.879532 182.651275 71.443716 180.91027 72.74947 C 180.23019 73.307136 179.495703 73.769591 178.747615 74.164037 C 177.985925 74.53128 177.169829 74.680898 176.272123 74.61289 C 175.102385 74.463272 173.95985 74.313655 172.844519 74.19124 C 171.756391 74.055224 170.518645 73.919208 169.144883 73.783192 L 164.193899 73.483957 C 164.533939 73.619973 164.819573 73.769591 165.0508 73.93281 C 165.30923 74.096029 165.567661 74.245647 165.839693 74.381663 C 167.077439 75.143353 168.287982 75.918644 169.444118 76.73474 C 170.613856 77.523633 171.756391 78.366933 172.871722 79.251037 C 177.60508 82.964275 181.848781 87.031155 185.57562 91.424473 C 186.541334 92.322178 187.303024 93.287892 187.901494 94.321614 C 188.486363 95.355336 188.608778 96.525074 188.255136 97.830828 Z M 166.261343 63.146738 C 165.64927 62.453056 165.009995 61.800179 164.357118 61.174505 C 163.690639 60.548832 163.024161 59.936759 162.330479 59.311086 C 161.650399 58.767022 161.038327 58.263762 160.521466 57.774104 C 160.018206 57.284447 159.487744 56.876399 158.930078 56.536358 C 157.488308 55.557043 155.97853 54.645736 154.414346 53.788834 C 152.877364 52.931933 151.421993 52.265455 150.061832 51.775797 C 149.572175 51.639781 149.096118 51.490163 148.647265 51.313343 C 148.212014 51.150123 147.74956 51.027709 147.259902 50.973302 L 145.600506 50.633262 C 145.532498 50.633262 145.478092 50.633262 145.437287 50.633262 C 145.410084 50.633262 145.355677 50.633262 145.287669 50.633262 C 145.777327 52.836722 146.171774 55.067385 146.471009 57.325251 C 146.797447 59.555915 147.096683 61.800179 147.355113 64.071647 C 150.741912 63.581989 154.101509 63.282754 157.474706 63.146738 C 160.439856 63.07873 163.377803 63.07873 166.261343 63.146738 Z M 171.838 90.295539 C 170.260214 88.921777 168.600818 87.616023 166.873415 86.391879 C 165.159613 85.140532 163.364201 83.997997 161.500781 82.964275 C 159.718971 81.998561 157.84195 81.06005 155.883319 80.135141 C 153.911086 79.196631 151.925252 78.448542 149.925816 77.91808 C 149.667386 77.768462 149.395354 77.686853 149.123322 77.686853 L 150.361068 86.895138 C 150.497084 87.915259 150.6331 88.948981 150.769116 89.996304 C 150.89153 91.016424 151.000343 92.050146 151.068351 93.09747 C 153.421428 92.811836 155.760904 92.594211 158.10038 92.458194 C 160.167824 92.390186 162.235268 92.41739 164.302712 92.512601 C 166.370155 92.607812 168.437599 92.839039 170.505043 93.192681 C 172.286853 93.396705 174.068663 93.709542 175.877677 94.131192 C 175.252003 93.43751 174.612727 92.771031 173.95985 92.104553 C 173.306973 91.451676 172.59969 90.853205 171.838 90.295539 Z M 219.225988 99.898272 C 218.81794 99.762256 218.355486 99.041371 217.838625 97.735617 C 217.308162 96.416261 216.764098 94.811272 216.165627 92.893446 C 215.580758 90.962018 215.023093 88.962582 214.506232 86.895138 C 214.002972 84.827695 213.540518 82.964275 213.118868 81.318481 C 212.71082 79.672687 212.45239 78.462144 212.316374 77.686853 L 204.250622 77.809267 C 203.488933 80.910433 202.836056 83.984395 202.27839 87.044756 C 201.747927 90.105117 201.326278 93.219884 201.040644 96.389058 C 201.040644 97.014732 200.75501 97.327569 200.15654 97.327569 C 199.585272 97.327569 199.340443 97.014732 199.408451 96.389058 C 199.680483 93.301494 200.07493 90.186727 200.591791 87.071959 C 201.108652 83.929989 201.85674 80.842425 202.808852 77.809267 L 201.870342 77.809267 C 201.543903 79.047013 201.190262 80.543189 200.83662 82.297796 C 200.510181 84.052403 200.183743 85.779807 199.857304 87.466406 C 199.558069 89.153005 199.299639 90.567572 199.082013 91.710106 C 198.877989 92.825438 198.769176 93.396705 198.769176 93.396705 L 198.170705 98.034852 C 197.95308 100.38793 197.150585 102.074528 195.776823 103.094649 C 194.403061 104.141972 192.879682 104.55002 191.233887 104.332395 C 189.588093 104.128371 188.20073 103.339478 187.058195 101.965716 C 185.929262 100.591954 185.534815 98.701331 185.861254 96.293847 C 186.282904 93.274291 186.772561 90.241133 187.303024 87.221577 C 187.86069 84.174818 188.513567 81.182465 189.275256 78.217315 C 188.7992 78.285323 188.323144 78.33973 187.833486 78.366933 C 187.343829 78.407738 186.894976 78.421339 186.500529 78.421339 C 186.636545 78.081299 186.663749 77.768462 186.59574 77.482829 C 184.936345 77.088382 183.725802 76.190676 182.964112 74.816914 C 182.216024 73.443152 181.998398 71.906171 182.338438 70.233174 C 182.69208 68.532973 183.657794 66.968789 185.23558 65.567823 C 186.826968 64.153257 189.180045 63.214746 192.267609 62.73869 C 193.029299 59.297484 193.845395 55.897083 194.743101 52.551089 C 195.654409 49.205094 196.756139 45.954311 198.048291 42.798738 C 198.660363 41.424976 199.354045 39.9288 200.115735 38.310209 C 200.863823 36.691618 201.815935 35.290653 202.95847 34.08011 C 204.101005 32.869568 205.529173 32.257495 207.242975 32.257495 C 208.140681 32.189487 209.024785 32.434316 209.922491 32.991982 C 210.820197 33.549648 211.486676 34.229728 211.881122 35.059426 C 213.3909 35.127434 214.642248 35.657896 215.635165 36.678017 C 216.655285 37.670934 217.226553 38.990289 217.348967 40.636083 C 217.512186 42.703527 217.689007 44.784573 217.87943 46.87922 C 218.083454 48.987468 218.287478 51.027709 218.491502 53.027145 C 218.573111 53.095153 218.654721 53.135957 218.709127 53.135957 C 218.777135 51.340546 218.872347 49.558736 218.967558 47.81773 C 219.062769 46.049522 219.225988 44.308517 219.416411 42.594714 C 219.416411 42.309081 219.470817 42.934755 219.57963 44.458134 C 219.688443 45.981514 219.810857 47.912942 219.946873 50.279621 C 220.082889 52.659901 220.218905 55.040182 220.354921 57.420463 C 220.490938 59.787142 220.667758 61.759374 220.885384 63.350762 C 222.871218 63.541184 224.408199 64.221265 225.523531 65.363799 C 226.625261 66.506334 227.318943 67.812088 227.590975 69.294663 C 227.863007 70.777238 227.713389 72.232609 227.155723 73.674379 C 226.625261 75.129751 225.632344 76.299489 224.190574 77.183593 C 224.870654 80.216751 225.591539 83.644355 226.353229 87.466406 C 227.114919 91.288457 227.686186 94.743264 228.094234 97.830828 C 228.379868 100.170304 228.189445 101.938512 227.536568 103.149055 C 226.883691 104.359598 226.013189 105.039678 224.938662 105.162093 C 223.877737 105.298109 222.816812 104.930865 221.742285 104.033159 C 220.68136 103.149055 219.838061 101.761692 219.225988 99.898272 Z M 203.937786 64.384484 C 204.699475 64.248468 205.678791 64.153257 206.86213 64.126053 C 208.072673 64.09885 209.024785 64.044444 209.718467 63.976436 C 209.582451 63.065128 209.432834 61.786578 209.256013 60.140784 C 209.092793 58.494989 208.888769 56.726781 208.630339 54.84976 C 208.399112 52.945535 208.099876 51.20453 207.746235 49.59954 C 206.930138 52.496682 206.209253 55.080987 205.58358 57.366056 C 204.971507 59.637524 204.427443 61.977 203.937786 64.384484 Z M 270.232003 103.298673 C 269.619931 103.720323 268.926249 103.720323 268.164559 103.298673 C 266.790797 102.686601 265.865888 101.66648 265.376231 100.251914 C 264.886573 98.837347 264.505728 97.490788 264.233696 96.198636 L 263.635225 92.662219 L 245.653905 60.576035 C 245.368271 60.222393 245.096239 59.841548 244.824207 59.4335 C 244.552175 59.01185 244.280143 58.631005 243.994509 58.277364 C 244.062517 61.786578 244.076119 65.309393 244.048916 68.818607 C 244.008111 72.327821 243.994509 75.837034 243.994509 79.35985 C 244.130525 81.413692 244.212135 83.481136 244.239338 85.54858 C 244.293744 87.616023 244.361752 89.683467 244.416159 91.750911 C 244.484167 92.784633 244.552175 94.035981 244.620183 95.518555 C 244.688191 96.987529 244.524972 98.320486 244.144127 99.490224 C 243.776883 100.659962 242.865576 101.340042 241.423806 101.557668 C 240.798132 102.591389 239.954833 103.285071 238.880306 103.652315 C 237.819381 104.046761 236.704049 104.073964 235.52071 103.733924 C 234.432582 103.44829 233.466868 102.795413 232.650771 101.761692 C 232.365138 97.42278 232.13391 93.09747 231.970691 88.758558 C 231.79387 84.419647 231.644253 80.080735 231.508237 75.741823 C 231.358619 72.232609 231.249806 68.709794 231.181798 65.159775 C 231.11379 61.609757 231.018579 58.086941 230.882563 54.577727 C 230.814555 52.30626 230.77375 50.034792 230.732945 47.763324 C 230.705742 45.478254 230.746547 43.23399 230.882563 41.03053 C 231.576245 40.500067 232.229122 40.187231 232.854796 40.132824 C 232.854796 39.289525 233.126828 38.48703 233.684493 37.72534 C 234.50059 36.70522 235.425499 36.215562 236.459221 36.242765 C 237.492942 36.28357 238.567469 36.650813 239.655597 37.371699 C 240.770929 38.106185 241.763846 38.935883 242.661552 39.874394 C 243.545656 40.799303 244.239338 41.560993 244.728996 42.173065 C 246.510806 44.526142 248.142998 46.920024 249.611972 49.381915 C 251.108148 51.816602 252.536316 54.305695 253.896477 56.835594 C 255.079816 58.83503 256.208749 60.87527 257.310479 62.942714 C 258.412209 65.010158 259.486736 67.104805 260.53406 69.240257 C 260.670076 69.512289 260.738084 69.852329 260.738084 70.273978 L 262.370276 73.483957 C 262.098244 70.858847 261.731001 68.206535 261.241343 65.513417 C 260.765287 62.820299 260.289231 60.181588 259.799573 57.57008 C 259.445931 55.706661 259.105891 53.843241 258.765851 52.007024 C 258.425811 50.130003 257.99056 48.266583 257.432894 46.403164 C 257.14726 45.451051 256.88883 44.471736 256.644001 43.478819 C 256.412774 42.4723 256.562391 41.45218 257.106455 40.432059 C 257.596113 39.602362 258.180982 38.990289 258.861062 38.56864 C 258.861062 38.500632 258.888265 38.459827 258.915469 38.459827 C 258.956273 38.459827 258.969875 38.432624 258.969875 38.364616 C 259.595549 37.181276 260.53406 36.596407 261.81261 36.596407 C 263.091161 36.596407 264.179289 36.909244 265.063394 37.534918 C 265.267418 37.602926 265.512247 37.779747 265.79788 38.06538 C 266.001904 39.017493 266.233132 39.996808 266.505164 41.003327 C 266.790797 41.996244 267.062829 42.975559 267.334862 43.927672 C 268.164559 46.892821 268.84464 49.939581 269.402305 53.081551 C 269.959971 56.20992 270.476832 59.324687 270.939287 62.412251 C 271.98661 68.682591 272.816308 75.020938 273.441982 81.413692 C 274.067655 87.820048 274.570915 94.1992 274.978963 100.523946 C 274.421297 101.285635 273.727615 101.938512 272.911519 102.496178 C 272.081821 103.040242 271.197717 103.298673 270.232003 103.298673 Z M 276.012685 99.490224 C 275.876669 99.490224 275.740653 99.599037 275.604637 99.803061 C 274.924557 89.955499 273.972444 80.12154 272.761901 70.328385 C 271.551359 60.508027 269.878361 50.823685 267.74291 41.261757 C 267.606894 40.840108 267.715706 40.459263 268.069348 40.132824 C 268.34138 39.779182 268.708624 39.615963 269.18468 39.643166 C 269.660736 39.683971 269.946369 39.969605 270.014377 40.527271 C 271.877797 49.477126 273.333169 58.508591 274.394094 67.635267 C 275.468621 76.761944 275.97188 85.902221 275.903872 95.056101 C 275.97188 95.396141 276.026286 96.035416 276.067091 96.973927 C 276.094294 97.898836 276.080693 98.742136 276.012685 99.490224 Z M 230.787352 91.954935 C 230.51532 88.309705 230.311296 84.514858 230.148076 80.556791 C 230.025662 76.598724 229.889646 72.74947 229.75363 69.022631 C 229.617614 65.363799 229.508801 61.691366 229.454395 57.978128 C 229.386386 54.264891 229.318378 50.551653 229.25037 46.838415 C 229.155159 45.940709 229.182362 45.029402 229.318378 44.104492 C 229.467996 43.165982 229.712825 42.281878 230.052865 41.465781 C 229.984857 43.111575 229.971255 44.770971 229.998459 46.430367 C 230.039263 48.076161 230.080068 49.721955 230.148076 51.367749 C 230.243288 54.944971 230.324897 58.535794 230.43371 62.113016 C 230.528921 65.690238 230.610531 69.308265 230.678539 72.953494 L 231.61705 96.198636 C 231.61705 96.198636 231.521838 96.035416 231.345017 95.736181 C 231.168197 95.423344 230.991376 94.158395 230.787352 91.954935 Z M 242.348715 86.895138 L 242.022277 87.194374 C 242.022277 87.194374 242.008675 87.194374 241.981472 87.194374 C 241.940667 87.194374 241.886261 87.221577 241.831854 87.289585 L 241.723041 93.491916 C 241.723041 94.321614 241.872659 95.30093 242.185496 96.443464 C 242.498333 97.572398 242.484731 98.796542 242.158293 100.102296 C 242.838373 98.94616 243.110405 97.776422 242.960787 96.593082 C 242.892779 95.64097 242.838373 94.648053 242.81117 93.627932 C 242.770365 92.580609 242.688755 91.533285 242.552739 90.499564 C 242.552739 89.887491 242.539138 89.289021 242.511934 88.704152 C 242.471129 88.119283 242.416723 87.507211 242.348715 86.895138 Z M 242.348715 86.895138 " stroke="#100a09" stroke-width="8.26144" stroke-opacity="1" stroke-miterlimit="4"/></g><g fill="#b2d12e" fill-opacity="1"><g transform="translate(7.396008, 47.703287)"><g><path d="M 14.296875 -5.71875 C 14.078125 -4.988281 13.789062 -4.273438 13.4375 -3.578125 C 13.082031 -2.890625 12.617188 -2.289062 12.046875 -1.78125 C 11.984375 -1.738281 11.910156 -1.675781 11.828125 -1.59375 C 11.691406 -1.457031 11.503906 -1.285156 11.265625 -1.078125 C 11.023438 -0.867188 10.78125 -0.707031 10.53125 -0.59375 C 9.851562 -0.15625 9.117188 0.0351562 8.328125 -0.015625 C 7.535156 -0.0664062 6.78125 -0.285156 6.0625 -0.671875 C 5.34375 -1.054688 4.734375 -1.535156 4.234375 -2.109375 C 3.742188 -2.679688 3.332031 -3.320312 3 -4.03125 C 2.820312 -4.007812 2.640625 -4.039062 2.453125 -4.125 C 2.273438 -4.21875 2.140625 -4.375 2.046875 -4.59375 C 1.316406 -6.4375 0.90625 -8.359375 0.8125 -10.359375 C 0.726562 -12.367188 0.898438 -14.332031 1.328125 -16.25 C 1.453125 -16.75 1.632812 -17.25 1.875 -17.75 C 2.125 -18.25 2.453125 -18.648438 2.859375 -18.953125 C 3.265625 -19.265625 3.765625 -19.375 4.359375 -19.28125 C 4.710938 -19.238281 5.03125 -19.101562 5.3125 -18.875 C 5.601562 -18.644531 5.816406 -18.363281 5.953125 -18.03125 C 6.117188 -17.59375 6.132812 -17.113281 6 -16.59375 C 5.875 -16.070312 5.789062 -15.582031 5.75 -15.125 C 5.707031 -14.570312 5.6875 -14.015625 5.6875 -13.453125 C 5.6875 -12.890625 5.695312 -12.332031 5.71875 -11.78125 C 5.800781 -10.625 5.96875 -9.492188 6.21875 -8.390625 C 6.476562 -7.285156 6.804688 -6.195312 7.203125 -5.125 C 7.421875 -4.96875 7.644531 -4.832031 7.875 -4.71875 C 8.101562 -4.613281 8.34375 -4.550781 8.59375 -4.53125 C 9.164062 -4.65625 9.660156 -4.894531 10.078125 -5.25 C 10.316406 -5.582031 10.472656 -5.988281 10.546875 -6.46875 C 10.628906 -6.957031 10.679688 -7.4375 10.703125 -7.90625 C 10.722656 -8.382812 10.742188 -8.796875 10.765625 -9.140625 C 10.859375 -10.460938 10.90625 -11.785156 10.90625 -13.109375 C 10.90625 -14.429688 10.898438 -15.753906 10.890625 -17.078125 C 10.867188 -17.535156 11.0625 -17.878906 11.46875 -18.109375 C 11.882812 -18.347656 12.28125 -18.363281 12.65625 -18.15625 L 12.65625 -18.453125 C 12.65625 -18.609375 12.710938 -18.75 12.828125 -18.875 C 12.953125 -19 13.09375 -19.054688 13.25 -19.046875 C 13.707031 -19.003906 14.039062 -18.832031 14.25 -18.53125 C 14.457031 -18.238281 14.59375 -17.898438 14.65625 -17.515625 C 14.726562 -17.128906 14.773438 -16.75 14.796875 -16.375 C 14.835938 -16.019531 14.875 -15.660156 14.90625 -15.296875 C 14.945312 -14.941406 14.96875 -14.585938 14.96875 -14.234375 L 14.96875 -13.046875 C 15.03125 -11.816406 15.015625 -10.582031 14.921875 -9.34375 C 14.835938 -8.113281 14.628906 -6.90625 14.296875 -5.71875 Z M 5.640625 -16.15625 C 5.554688 -16.125 5.492188 -16.144531 5.453125 -16.21875 C 5.429688 -16.082031 5.398438 -15.945312 5.359375 -15.8125 C 5.328125 -15.6875 5.28125 -15.566406 5.21875 -15.453125 C 5.101562 -14.441406 5.050781 -13.429688 5.0625 -12.421875 C 5.070312 -11.410156 5.175781 -10.414062 5.375 -9.4375 C 5.40625 -9.238281 5.441406 -9.046875 5.484375 -8.859375 C 5.523438 -8.671875 5.566406 -8.484375 5.609375 -8.296875 C 5.648438 -8.296875 5.675781 -8.289062 5.6875 -8.28125 C 5.21875 -10.925781 5.203125 -13.550781 5.640625 -16.15625 Z M 5.640625 -16.15625 "/></g></g></g><g fill="#b2d12e" fill-opacity="1"><g transform="translate(21.243464, 47.703287)"><g><path d="M 16.90625 -11.296875 L 16.8125 -10.671875 C 16.789062 -10.398438 16.660156 -10.160156 16.421875 -9.953125 C 16.191406 -9.742188 15.957031 -9.648438 15.71875 -9.671875 C 15.03125 -9.710938 14.332031 -9.757812 13.625 -9.8125 C 12.925781 -9.875 12.226562 -9.9375 11.53125 -10 C 12.34375 -8.789062 13.054688 -7.5625 13.671875 -6.3125 C 14.066406 -5.46875 14.460938 -4.582031 14.859375 -3.65625 C 15.253906 -2.738281 15.390625 -1.796875 15.265625 -0.828125 C 15.234375 -0.515625 15.078125 -0.3125 14.796875 -0.21875 C 14.523438 -0.132812 14.257812 -0.140625 14 -0.234375 C 13.863281 -0.210938 13.726562 -0.207031 13.59375 -0.21875 C 13.46875 -0.226562 13.335938 -0.265625 13.203125 -0.328125 C 13.160156 -0.328125 13.140625 -0.335938 13.140625 -0.359375 C 13.015625 -0.234375 12.882812 -0.203125 12.75 -0.265625 C 12.488281 -0.960938 12.210938 -1.660156 11.921875 -2.359375 C 11.628906 -3.054688 11.332031 -3.742188 11.03125 -4.421875 C 10.9375 -4.671875 10.789062 -5.03125 10.59375 -5.5 C 10.394531 -5.96875 10.1875 -6.453125 9.96875 -6.953125 C 9.75 -7.453125 9.539062 -7.882812 9.34375 -8.25 C 9.1875 -8.601562 9.03125 -8.90625 8.875 -9.15625 L 8.875 -9.1875 C 8.6875 -9.445312 8.515625 -9.726562 8.359375 -10.03125 C 7.984375 -10.039062 7.597656 -10.054688 7.203125 -10.078125 C 6.804688 -10.097656 6.410156 -10.117188 6.015625 -10.140625 C 6.097656 -9.472656 6.164062 -8.800781 6.21875 -8.125 C 6.28125 -7.457031 6.320312 -6.773438 6.34375 -6.078125 C 6.382812 -5.347656 6.425781 -4.613281 6.46875 -3.875 C 6.519531 -3.132812 6.53125 -2.394531 6.5 -1.65625 C 6.519531 -1.582031 6.53125 -1.5 6.53125 -1.40625 C 6.53125 -1.320312 6.53125 -1.238281 6.53125 -1.15625 C 6.332031 -0.78125 6.101562 -0.484375 5.84375 -0.265625 C 5.644531 -0.109375 5.414062 -0.03125 5.15625 -0.03125 C 4.90625 -0.03125 4.6875 -0.128906 4.5 -0.328125 C 4.40625 -0.484375 4.347656 -0.640625 4.328125 -0.796875 C 4.210938 -0.773438 4.09375 -0.804688 3.96875 -0.890625 C 3.851562 -0.984375 3.796875 -1.113281 3.796875 -1.28125 C 3.710938 -1.59375 3.675781 -1.921875 3.6875 -2.265625 C 3.695312 -2.609375 3.679688 -2.941406 3.640625 -3.265625 L 3.375 -5.21875 C 3.257812 -5.90625 3.140625 -6.597656 3.015625 -7.296875 C 2.898438 -8.003906 2.785156 -8.707031 2.671875 -9.40625 L 2.484375 -10.4375 C 2.472656 -10.4375 2.453125 -10.4375 2.421875 -10.4375 C 2.390625 -10.4375 2.351562 -10.4375 2.3125 -10.4375 C 2.3125 -10.550781 2.253906 -10.617188 2.140625 -10.640625 C 1.972656 -10.679688 1.804688 -10.734375 1.640625 -10.796875 C 1.472656 -10.859375 1.3125 -10.914062 1.15625 -10.96875 L 1.84375 -11.0625 C 1.539062 -11.175781 1.242188 -11.332031 0.953125 -11.53125 C 0.671875 -11.707031 0.515625 -11.957031 0.484375 -12.28125 C 0.453125 -12.613281 0.515625 -12.90625 0.671875 -13.15625 C 0.835938 -13.414062 1.066406 -13.546875 1.359375 -13.546875 C 1.460938 -13.566406 1.554688 -13.578125 1.640625 -13.578125 C 1.734375 -13.578125 1.816406 -13.578125 1.890625 -13.578125 C 1.796875 -14.097656 1.691406 -14.613281 1.578125 -15.125 C 1.472656 -15.632812 1.363281 -16.140625 1.25 -16.640625 C 1.5 -16.835938 1.707031 -17.054688 1.875 -17.296875 C 1.59375 -17.523438 1.382812 -17.828125 1.25 -18.203125 C 1.125 -18.578125 1.144531 -18.9375 1.3125 -19.28125 C 1.5 -19.65625 1.789062 -19.878906 2.1875 -19.953125 C 2.582031 -20.035156 3.007812 -20.046875 3.46875 -19.984375 C 3.925781 -19.929688 4.3125 -19.875 4.625 -19.8125 C 4.726562 -19.8125 4.816406 -19.769531 4.890625 -19.6875 C 4.992188 -19.644531 5.097656 -19.601562 5.203125 -19.5625 C 5.316406 -19.53125 5.421875 -19.492188 5.515625 -19.453125 C 5.535156 -19.453125 5.550781 -19.445312 5.5625 -19.4375 C 5.570312 -19.425781 5.585938 -19.421875 5.609375 -19.421875 C 7.242188 -18.910156 8.804688 -18.191406 10.296875 -17.265625 C 11.796875 -16.347656 13.265625 -15.394531 14.703125 -14.40625 C 14.898438 -14.25 15.039062 -14.035156 15.125 -13.765625 C 15.34375 -13.617188 15.550781 -13.46875 15.75 -13.3125 C 15.945312 -13.15625 16.144531 -13 16.34375 -12.84375 C 16.8125 -12.488281 17 -11.972656 16.90625 -11.296875 Z M 4.859375 -15.84375 C 4.878906 -15.820312 4.890625 -15.789062 4.890625 -15.75 C 4.890625 -15.707031 4.898438 -15.664062 4.921875 -15.625 C 5.003906 -15.707031 5.097656 -15.742188 5.203125 -15.734375 C 5.316406 -15.722656 5.378906 -15.648438 5.390625 -15.515625 C 5.472656 -15.191406 5.546875 -14.875 5.609375 -14.5625 C 5.679688 -14.257812 5.75 -13.953125 5.8125 -13.640625 C 5.894531 -13.617188 5.972656 -13.609375 6.046875 -13.609375 C 6.128906 -13.609375 6.207031 -13.597656 6.28125 -13.578125 C 6.320312 -13.753906 6.410156 -13.90625 6.546875 -14.03125 C 6.847656 -14.226562 7.148438 -14.285156 7.453125 -14.203125 C 7.765625 -14.128906 8.0625 -13.992188 8.34375 -13.796875 C 8.632812 -13.609375 8.890625 -13.421875 9.109375 -13.234375 L 11.984375 -12.875 C 10.835938 -13.664062 9.671875 -14.359375 8.484375 -14.953125 C 7.296875 -15.554688 6.0625 -16.007812 4.78125 -16.3125 Z M 6.96875 -2.484375 C 6.90625 -3.710938 6.835938 -4.941406 6.765625 -6.171875 C 6.703125 -7.410156 6.582031 -8.632812 6.40625 -9.84375 L 6.640625 -9.84375 C 6.796875 -9 6.914062 -8.128906 7 -7.234375 C 7.082031 -6.347656 7.160156 -5.457031 7.234375 -4.5625 C 7.273438 -4.03125 7.253906 -3.640625 7.171875 -3.390625 C 7.097656 -3.148438 7.03125 -2.847656 6.96875 -2.484375 Z M 6.96875 -2.484375 "/></g></g></g><g fill="#b2d12e" fill-opacity="1"><g transform="translate(37.463112, 47.703287)"><g><path d="M 16.703125 -1.484375 C 16.578125 -1.066406 16.335938 -0.765625 15.984375 -0.578125 C 15.628906 -0.390625 15.234375 -0.273438 14.796875 -0.234375 C 14.359375 -0.191406 13.953125 -0.160156 13.578125 -0.140625 C 12.960938 -0.128906 12.347656 -0.15625 11.734375 -0.21875 C 11.128906 -0.289062 10.519531 -0.335938 9.90625 -0.359375 C 9.050781 -0.398438 8.203125 -0.394531 7.359375 -0.34375 C 6.523438 -0.289062 5.691406 -0.21875 4.859375 -0.125 C 4.640625 0.0195312 4.375 0.09375 4.0625 0.09375 C 3.90625 0.09375 3.796875 0.0820312 3.734375 0.0625 C 3.535156 0.0820312 3.34375 0.109375 3.15625 0.140625 C 2.96875 0.179688 2.785156 0.222656 2.609375 0.265625 C 2.328125 0.304688 2.066406 0.265625 1.828125 0.140625 C 1.597656 0.0234375 1.441406 -0.164062 1.359375 -0.4375 C 1.335938 -0.476562 1.328125 -0.53125 1.328125 -0.59375 C 1.210938 -0.769531 1.15625 -0.96875 1.15625 -1.1875 C 1.15625 -1.519531 1.265625 -1.785156 1.484375 -1.984375 C 1.703125 -2.179688 1.96875 -2.289062 2.28125 -2.3125 C 2.320312 -2.3125 2.351562 -2.320312 2.375 -2.34375 C 2.351562 -3.226562 2.304688 -4.113281 2.234375 -5 C 2.171875 -5.894531 2.097656 -6.789062 2.015625 -7.6875 C 1.703125 -7.78125 1.441406 -7.9375 1.234375 -8.15625 C 1.023438 -8.375 0.921875 -8.671875 0.921875 -9.046875 C 0.921875 -9.335938 1 -9.59375 1.15625 -9.8125 C 1.3125 -10.03125 1.519531 -10.203125 1.78125 -10.328125 C 1.78125 -10.335938 1.773438 -10.347656 1.765625 -10.359375 C 1.753906 -10.367188 1.75 -10.375 1.75 -10.375 C 1.6875 -11.125 1.625 -11.867188 1.5625 -12.609375 C 1.507812 -13.359375 1.441406 -14.097656 1.359375 -14.828125 C 1.222656 -14.910156 1.085938 -15 0.953125 -15.09375 C 0.828125 -15.195312 0.707031 -15.285156 0.59375 -15.359375 C 0.394531 -15.554688 0.195312 -15.78125 0 -16.03125 C -0.195312 -16.289062 -0.320312 -16.566406 -0.375 -16.859375 C -0.4375 -17.160156 -0.367188 -17.453125 -0.171875 -17.734375 C 0.117188 -18.128906 0.492188 -18.382812 0.953125 -18.5 C 1.421875 -18.625 1.882812 -18.695312 2.34375 -18.71875 C 3.269531 -18.71875 4.148438 -18.566406 4.984375 -18.265625 C 5.867188 -17.972656 6.738281 -17.597656 7.59375 -17.140625 C 7.851562 -17.003906 8.269531 -16.753906 8.84375 -16.390625 C 9.414062 -16.035156 10.050781 -15.601562 10.75 -15.09375 C 11.445312 -14.582031 12.128906 -14.035156 12.796875 -13.453125 C 13.460938 -12.867188 14.015625 -12.285156 14.453125 -11.703125 C 14.898438 -11.117188 15.15625 -10.5625 15.21875 -10.03125 C 15.289062 -9.507812 15.082031 -9.0625 14.59375 -8.6875 C 14.394531 -8.53125 14.1875 -8.394531 13.96875 -8.28125 C 13.75 -8.175781 13.507812 -8.132812 13.25 -8.15625 C 12.914062 -8.195312 12.585938 -8.234375 12.265625 -8.265625 C 11.953125 -8.304688 11.597656 -8.347656 11.203125 -8.390625 L 9.78125 -8.484375 C 9.882812 -8.441406 9.96875 -8.394531 10.03125 -8.34375 C 10.101562 -8.300781 10.179688 -8.257812 10.265625 -8.21875 C 10.617188 -8 10.960938 -7.773438 11.296875 -7.546875 C 11.628906 -7.316406 11.957031 -7.078125 12.28125 -6.828125 C 13.644531 -5.753906 14.859375 -4.585938 15.921875 -3.328125 C 16.203125 -3.066406 16.425781 -2.785156 16.59375 -2.484375 C 16.757812 -2.191406 16.796875 -1.859375 16.703125 -1.484375 Z M 10.375 -11.453125 C 10.195312 -11.648438 10.015625 -11.835938 9.828125 -12.015625 C 9.640625 -12.191406 9.445312 -12.367188 9.25 -12.546875 C 9.050781 -12.703125 8.878906 -12.847656 8.734375 -12.984375 C 8.585938 -13.128906 8.4375 -13.25 8.28125 -13.34375 C 7.863281 -13.625 7.429688 -13.882812 6.984375 -14.125 C 6.535156 -14.375 6.113281 -14.566406 5.71875 -14.703125 C 5.582031 -14.742188 5.445312 -14.789062 5.3125 -14.84375 C 5.1875 -14.894531 5.054688 -14.929688 4.921875 -14.953125 L 4.453125 -15.03125 C 4.429688 -15.03125 4.414062 -15.03125 4.40625 -15.03125 C 4.394531 -15.03125 4.378906 -15.03125 4.359375 -15.03125 C 4.492188 -14.40625 4.601562 -13.769531 4.6875 -13.125 C 4.78125 -12.476562 4.867188 -11.832031 4.953125 -11.1875 C 5.921875 -11.320312 6.890625 -11.410156 7.859375 -11.453125 C 8.710938 -11.472656 9.550781 -11.472656 10.375 -11.453125 Z M 11.984375 -3.640625 C 11.523438 -4.035156 11.046875 -4.410156 10.546875 -4.765625 C 10.054688 -5.128906 9.546875 -5.457031 9.015625 -5.75 C 8.503906 -6.03125 7.960938 -6.300781 7.390625 -6.5625 C 6.828125 -6.832031 6.257812 -7.046875 5.6875 -7.203125 C 5.613281 -7.242188 5.535156 -7.265625 5.453125 -7.265625 L 5.8125 -4.625 C 5.851562 -4.332031 5.890625 -4.035156 5.921875 -3.734375 C 5.960938 -3.441406 5.992188 -3.144531 6.015625 -2.84375 C 6.691406 -2.925781 7.363281 -2.988281 8.03125 -3.03125 C 8.625 -3.039062 9.21875 -3.03125 9.8125 -3 C 10.40625 -2.976562 11 -2.914062 11.59375 -2.8125 C 12.101562 -2.757812 12.617188 -2.671875 13.140625 -2.546875 C 12.960938 -2.742188 12.78125 -2.9375 12.59375 -3.125 C 12.40625 -3.3125 12.203125 -3.484375 11.984375 -3.640625 Z M 11.984375 -3.640625 "/></g></g></g><g fill="#b2d12e" fill-opacity="1"><g transform="translate(52.200141, 47.703287)"><g><path d="M 10.859375 -0.890625 C 10.734375 -0.929688 10.597656 -1.140625 10.453125 -1.515625 C 10.304688 -1.890625 10.148438 -2.351562 9.984375 -2.90625 C 9.816406 -3.457031 9.65625 -4.03125 9.5 -4.625 C 9.351562 -5.21875 9.21875 -5.75 9.09375 -6.21875 C 8.976562 -6.695312 8.90625 -7.046875 8.875 -7.265625 L 6.546875 -7.234375 C 6.335938 -6.347656 6.148438 -5.460938 5.984375 -4.578125 C 5.828125 -3.703125 5.710938 -2.804688 5.640625 -1.890625 C 5.640625 -1.710938 5.550781 -1.625 5.375 -1.625 C 5.207031 -1.625 5.132812 -1.710938 5.15625 -1.890625 C 5.238281 -2.785156 5.351562 -3.679688 5.5 -4.578125 C 5.644531 -5.484375 5.859375 -6.367188 6.140625 -7.234375 L 5.875 -7.234375 C 5.769531 -6.878906 5.664062 -6.445312 5.5625 -5.9375 C 5.46875 -5.4375 5.375 -4.941406 5.28125 -4.453125 C 5.195312 -3.972656 5.125 -3.570312 5.0625 -3.25 C 5.007812 -2.925781 4.984375 -2.765625 4.984375 -2.765625 L 4.796875 -1.421875 C 4.742188 -0.753906 4.519531 -0.273438 4.125 0.015625 C 3.726562 0.316406 3.289062 0.4375 2.8125 0.375 C 2.34375 0.320312 1.941406 0.0976562 1.609375 -0.296875 C 1.285156 -0.691406 1.175781 -1.234375 1.28125 -1.921875 C 1.394531 -2.796875 1.53125 -3.664062 1.6875 -4.53125 C 1.84375 -5.40625 2.03125 -6.269531 2.25 -7.125 C 2.113281 -7.101562 1.972656 -7.085938 1.828125 -7.078125 C 1.691406 -7.066406 1.566406 -7.0625 1.453125 -7.0625 C 1.492188 -7.15625 1.503906 -7.242188 1.484375 -7.328125 C 1.003906 -7.441406 0.65625 -7.695312 0.4375 -8.09375 C 0.226562 -8.488281 0.171875 -8.925781 0.265625 -9.40625 C 0.367188 -9.894531 0.644531 -10.34375 1.09375 -10.75 C 1.550781 -11.15625 2.222656 -11.425781 3.109375 -11.5625 C 3.328125 -12.550781 3.566406 -13.523438 3.828125 -14.484375 C 4.085938 -15.441406 4.40625 -16.378906 4.78125 -17.296875 C 4.957031 -17.679688 5.148438 -18.109375 5.359375 -18.578125 C 5.578125 -19.046875 5.847656 -19.453125 6.171875 -19.796875 C 6.503906 -20.140625 6.914062 -20.3125 7.40625 -20.3125 C 7.664062 -20.332031 7.925781 -20.265625 8.1875 -20.109375 C 8.445312 -19.953125 8.632812 -19.753906 8.75 -19.515625 C 9.1875 -19.492188 9.546875 -19.335938 9.828125 -19.046875 C 10.117188 -18.765625 10.285156 -18.382812 10.328125 -17.90625 C 10.359375 -17.3125 10.40625 -16.710938 10.46875 -16.109375 C 10.53125 -15.515625 10.585938 -14.929688 10.640625 -14.359375 C 10.660156 -14.335938 10.679688 -14.328125 10.703125 -14.328125 C 10.722656 -14.835938 10.75 -15.34375 10.78125 -15.84375 C 10.8125 -16.351562 10.851562 -16.851562 10.90625 -17.34375 C 10.90625 -17.425781 10.921875 -17.25 10.953125 -16.8125 C 10.984375 -16.375 11.019531 -15.8125 11.0625 -15.125 C 11.101562 -14.445312 11.140625 -13.765625 11.171875 -13.078125 C 11.210938 -12.398438 11.265625 -11.835938 11.328125 -11.390625 C 11.898438 -11.328125 12.34375 -11.132812 12.65625 -10.8125 C 12.976562 -10.488281 13.175781 -10.113281 13.25 -9.6875 C 13.332031 -9.257812 13.296875 -8.835938 13.140625 -8.421875 C 12.984375 -8.003906 12.695312 -7.664062 12.28125 -7.40625 C 12.476562 -6.539062 12.6875 -5.554688 12.90625 -4.453125 C 13.125 -3.359375 13.289062 -2.367188 13.40625 -1.484375 C 13.476562 -0.804688 13.421875 -0.296875 13.234375 0.046875 C 13.046875 0.390625 12.800781 0.582031 12.5 0.625 C 12.195312 0.664062 11.890625 0.554688 11.578125 0.296875 C 11.273438 0.0351562 11.035156 -0.359375 10.859375 -0.890625 Z M 6.46875 -11.09375 C 6.6875 -11.132812 6.96875 -11.160156 7.3125 -11.171875 C 7.65625 -11.179688 7.925781 -11.191406 8.125 -11.203125 C 8.082031 -11.460938 8.035156 -11.828125 7.984375 -12.296875 C 7.941406 -12.773438 7.882812 -13.285156 7.8125 -13.828125 C 7.738281 -14.378906 7.65625 -14.878906 7.5625 -15.328125 C 7.320312 -14.503906 7.113281 -13.765625 6.9375 -13.109375 C 6.757812 -12.453125 6.601562 -11.78125 6.46875 -11.09375 Z M 6.46875 -11.09375 "/></g></g></g><g fill="#b2d12e" fill-opacity="1"><g transform="translate(64.831847, 47.703287)"><g><path d="M 12.875 0.09375 C 12.695312 0.207031 12.5 0.207031 12.28125 0.09375 C 11.882812 -0.0820312 11.613281 -0.375 11.46875 -0.78125 C 11.332031 -1.1875 11.226562 -1.578125 11.15625 -1.953125 L 10.96875 -2.96875 L 5.8125 -12.1875 C 5.726562 -12.289062 5.644531 -12.398438 5.5625 -12.515625 C 5.488281 -12.628906 5.414062 -12.738281 5.34375 -12.84375 C 5.363281 -11.832031 5.367188 -10.820312 5.359375 -9.8125 C 5.347656 -8.800781 5.34375 -7.796875 5.34375 -6.796875 C 5.375 -6.203125 5.394531 -5.609375 5.40625 -5.015625 C 5.414062 -4.421875 5.429688 -3.828125 5.453125 -3.234375 C 5.472656 -2.929688 5.492188 -2.566406 5.515625 -2.140625 C 5.535156 -1.722656 5.488281 -1.34375 5.375 -1 C 5.269531 -0.664062 5.007812 -0.472656 4.59375 -0.421875 C 4.414062 -0.117188 4.171875 0.0820312 3.859375 0.1875 C 3.554688 0.300781 3.238281 0.304688 2.90625 0.203125 C 2.59375 0.128906 2.316406 -0.0546875 2.078125 -0.359375 C 1.992188 -1.597656 1.925781 -2.835938 1.875 -4.078125 C 1.832031 -5.328125 1.789062 -6.578125 1.75 -7.828125 C 1.707031 -8.835938 1.675781 -9.847656 1.65625 -10.859375 C 1.632812 -11.878906 1.609375 -12.894531 1.578125 -13.90625 C 1.554688 -14.5625 1.539062 -15.210938 1.53125 -15.859375 C 1.519531 -16.515625 1.535156 -17.160156 1.578125 -17.796875 C 1.773438 -17.953125 1.960938 -18.039062 2.140625 -18.0625 C 2.140625 -18.300781 2.21875 -18.53125 2.375 -18.75 C 2.613281 -19.039062 2.878906 -19.179688 3.171875 -19.171875 C 3.472656 -19.160156 3.78125 -19.050781 4.09375 -18.84375 C 4.40625 -18.632812 4.691406 -18.394531 4.953125 -18.125 C 5.210938 -17.863281 5.410156 -17.644531 5.546875 -17.46875 C 6.054688 -16.789062 6.523438 -16.101562 6.953125 -15.40625 C 7.378906 -14.707031 7.789062 -13.988281 8.1875 -13.25 C 8.519531 -12.675781 8.84375 -12.09375 9.15625 -11.5 C 9.476562 -10.90625 9.785156 -10.304688 10.078125 -9.703125 C 10.117188 -9.617188 10.140625 -9.519531 10.140625 -9.40625 L 10.609375 -8.484375 C 10.535156 -9.234375 10.425781 -9.992188 10.28125 -10.765625 C 10.144531 -11.535156 10.007812 -12.296875 9.875 -13.046875 C 9.78125 -13.578125 9.679688 -14.109375 9.578125 -14.640625 C 9.484375 -15.179688 9.351562 -15.71875 9.1875 -16.25 C 9.113281 -16.53125 9.039062 -16.8125 8.96875 -17.09375 C 8.90625 -17.382812 8.953125 -17.675781 9.109375 -17.96875 C 9.242188 -18.207031 9.410156 -18.382812 9.609375 -18.5 C 9.609375 -18.519531 9.613281 -18.53125 9.625 -18.53125 C 9.632812 -18.53125 9.640625 -18.539062 9.640625 -18.5625 C 9.816406 -18.894531 10.085938 -19.0625 10.453125 -19.0625 C 10.816406 -19.0625 11.128906 -18.972656 11.390625 -18.796875 C 11.453125 -18.773438 11.519531 -18.726562 11.59375 -18.65625 C 11.65625 -18.375 11.722656 -18.085938 11.796875 -17.796875 C 11.878906 -17.515625 11.960938 -17.238281 12.046875 -16.96875 C 12.273438 -16.113281 12.46875 -15.234375 12.625 -14.328125 C 12.789062 -13.429688 12.941406 -12.539062 13.078125 -11.65625 C 13.367188 -9.851562 13.601562 -8.03125 13.78125 -6.1875 C 13.96875 -4.351562 14.117188 -2.53125 14.234375 -0.71875 C 14.078125 -0.5 13.878906 -0.304688 13.640625 -0.140625 C 13.398438 0.015625 13.144531 0.09375 12.875 0.09375 Z M 14.53125 -1.015625 C 14.488281 -1.015625 14.445312 -0.984375 14.40625 -0.921875 C 14.207031 -3.742188 13.9375 -6.5625 13.59375 -9.375 C 13.25 -12.195312 12.769531 -14.984375 12.15625 -17.734375 C 12.113281 -17.847656 12.144531 -17.957031 12.25 -18.0625 C 12.320312 -18.15625 12.425781 -18.195312 12.5625 -18.1875 C 12.707031 -18.175781 12.789062 -18.09375 12.8125 -17.9375 C 13.34375 -15.375 13.757812 -12.78125 14.0625 -10.15625 C 14.375 -7.539062 14.519531 -4.914062 14.5 -2.28125 C 14.519531 -2.1875 14.535156 -2.003906 14.546875 -1.734375 C 14.554688 -1.460938 14.550781 -1.222656 14.53125 -1.015625 Z M 1.546875 -3.171875 C 1.460938 -4.222656 1.398438 -5.316406 1.359375 -6.453125 C 1.328125 -7.585938 1.289062 -8.6875 1.25 -9.75 C 1.207031 -10.800781 1.175781 -11.859375 1.15625 -12.921875 C 1.132812 -13.992188 1.113281 -15.066406 1.09375 -16.140625 C 1.070312 -16.390625 1.082031 -16.644531 1.125 -16.90625 C 1.164062 -17.175781 1.234375 -17.429688 1.328125 -17.671875 C 1.316406 -17.203125 1.3125 -16.726562 1.3125 -16.25 C 1.320312 -15.78125 1.335938 -15.304688 1.359375 -14.828125 C 1.378906 -13.796875 1.40625 -12.765625 1.4375 -11.734375 C 1.46875 -10.710938 1.492188 -9.675781 1.515625 -8.625 L 1.78125 -1.953125 C 1.78125 -1.953125 1.753906 -1.992188 1.703125 -2.078125 C 1.648438 -2.171875 1.597656 -2.535156 1.546875 -3.171875 Z M 4.859375 -4.625 L 4.78125 -4.53125 C 4.78125 -4.53125 4.773438 -4.53125 4.765625 -4.53125 C 4.753906 -4.53125 4.738281 -4.519531 4.71875 -4.5 L 4.6875 -2.734375 C 4.6875 -2.492188 4.726562 -2.207031 4.8125 -1.875 C 4.90625 -1.550781 4.898438 -1.203125 4.796875 -0.828125 C 4.992188 -1.160156 5.078125 -1.5 5.046875 -1.84375 C 5.023438 -2.113281 5.007812 -2.394531 5 -2.6875 C 4.988281 -2.988281 4.960938 -3.289062 4.921875 -3.59375 C 4.921875 -3.769531 4.914062 -3.941406 4.90625 -4.109375 C 4.894531 -4.273438 4.878906 -4.445312 4.859375 -4.625 Z M 4.859375 -4.625 "/></g></g></g><g fill="#000000" fill-opacity="1"><g transform="translate(14.939036, 63.959463)"><g><path d="M 1.3125 0 L 1.3125 -14.796875 L 13.21875 -14.796875 L 13.21875 -11.328125 L 5.375 -11.328125 L 5.375 -9.0625 L 12.46875 -9.0625 L 12.46875 -5.828125 L 5.375 -5.828125 L 5.375 -3.484375 L 13.3125 -3.484375 L 13.3125 0 Z M 1.3125 0 "/></g></g></g><g fill="#000000" fill-opacity="1"><g transform="translate(29.0607, 63.959463)"><g><path d="M 1.3125 0 L 1.3125 -14.796875 L 7.046875 -14.796875 C 8.347656 -14.796875 9.515625 -14.613281 10.546875 -14.25 C 11.585938 -13.882812 12.460938 -13.378906 13.171875 -12.734375 C 13.890625 -12.097656 14.4375 -11.328125 14.8125 -10.421875 C 15.1875 -9.515625 15.375 -8.535156 15.375 -7.484375 L 15.375 -7.4375 C 15.375 -6.382812 15.179688 -5.398438 14.796875 -4.484375 C 14.421875 -3.566406 13.875 -2.773438 13.15625 -2.109375 C 12.4375 -1.453125 11.550781 -0.9375 10.5 -0.5625 C 9.457031 -0.1875 8.273438 0 6.953125 0 Z M 7.078125 -11.1875 L 5.40625 -11.1875 L 5.40625 -3.640625 L 7.078125 -3.640625 C 8.304688 -3.640625 9.296875 -3.96875 10.046875 -4.625 C 10.804688 -5.28125 11.1875 -6.195312 11.1875 -7.375 L 11.1875 -7.421875 C 11.1875 -8.609375 10.804688 -9.53125 10.046875 -10.1875 C 9.296875 -10.851562 8.304688 -11.1875 7.078125 -11.1875 Z M 7.078125 -11.1875 "/></g></g></g><g fill="#000000" fill-opacity="1"><g transform="translate(45.254106, 63.959463)"><g><path d="M 8.859375 0.296875 C 7.710938 0.296875 6.644531 0.109375 5.65625 -0.265625 C 4.675781 -0.648438 3.828125 -1.175781 3.109375 -1.84375 C 2.398438 -2.519531 1.84375 -3.328125 1.4375 -4.265625 C 1.03125 -5.210938 0.828125 -6.242188 0.828125 -7.359375 L 0.828125 -7.40625 C 0.828125 -8.46875 1.023438 -9.472656 1.421875 -10.421875 C 1.828125 -11.367188 2.378906 -12.179688 3.078125 -12.859375 C 3.785156 -13.546875 4.625 -14.085938 5.59375 -14.484375 C 6.570312 -14.890625 7.628906 -15.09375 8.765625 -15.09375 C 10.066406 -15.09375 11.195312 -14.90625 12.15625 -14.53125 C 13.125 -14.15625 14 -13.628906 14.78125 -12.953125 L 12.375 -10.046875 C 11.84375 -10.484375 11.296875 -10.820312 10.734375 -11.0625 C 10.171875 -11.3125 9.523438 -11.4375 8.796875 -11.4375 C 8.253906 -11.4375 7.753906 -11.328125 7.296875 -11.109375 C 6.835938 -10.898438 6.441406 -10.613281 6.109375 -10.25 C 5.773438 -9.894531 5.507812 -9.472656 5.3125 -8.984375 C 5.113281 -8.492188 5.015625 -7.96875 5.015625 -7.40625 L 5.015625 -7.359375 C 5.015625 -6.160156 5.390625 -5.171875 6.140625 -4.390625 C 6.890625 -3.617188 7.851562 -3.234375 9.03125 -3.234375 C 9.53125 -3.234375 9.972656 -3.285156 10.359375 -3.390625 C 10.753906 -3.492188 11.097656 -3.644531 11.390625 -3.84375 L 11.390625 -5.640625 L 8.5 -5.640625 L 8.5 -8.640625 L 15.28125 -8.640625 L 15.28125 -2.015625 C 14.507812 -1.359375 13.582031 -0.804688 12.5 -0.359375 C 11.425781 0.078125 10.210938 0.296875 8.859375 0.296875 Z M 8.859375 0.296875 "/></g></g></g><g fill="#000000" fill-opacity="1"><g transform="translate(61.510932, 63.959463)"><g><path d="M 1.3125 0 L 1.3125 -14.796875 L 13.21875 -14.796875 L 13.21875 -11.328125 L 5.375 -11.328125 L 5.375 -9.0625 L 12.46875 -9.0625 L 12.46875 -5.828125 L 5.375 -5.828125 L 5.375 -3.484375 L 13.3125 -3.484375 L 13.3125 0 Z M 1.3125 0 "/></g></g></g><g fill="#000000" fill-opacity="1"><g transform="translate(5.537209, 45.165101)"><g><path d="M -0.0625 -0.125 L -1.53125 0.65625 L -1.84375 0.078125 C -1.914062 -0.046875 -1.957031 -0.171875 -1.96875 -0.296875 C -1.988281 -0.421875 -1.984375 -0.53125 -1.953125 -0.625 C -1.929688 -0.726562 -1.882812 -0.820312 -1.8125 -0.90625 C -1.738281 -0.988281 -1.65625 -1.0625 -1.5625 -1.125 C -1.445312 -1.175781 -1.332031 -1.207031 -1.21875 -1.21875 C -1.101562 -1.238281 -0.992188 -1.226562 -0.890625 -1.1875 C -0.796875 -1.15625 -0.703125 -1.097656 -0.609375 -1.015625 C -0.515625 -0.929688 -0.429688 -0.820312 -0.359375 -0.6875 Z M -1.484375 -0.109375 L -1.390625 0.0625 L -0.640625 -0.34375 L -0.734375 -0.515625 C -0.796875 -0.640625 -0.878906 -0.71875 -0.984375 -0.75 C -1.085938 -0.789062 -1.203125 -0.78125 -1.328125 -0.71875 C -1.441406 -0.65625 -1.507812 -0.566406 -1.53125 -0.453125 C -1.5625 -0.347656 -1.546875 -0.234375 -1.484375 -0.109375 Z M -1.484375 -0.109375 "/></g></g></g><g fill="#000000" fill-opacity="1"><g transform="translate(4.627617, 43.419541)"><g><path d="M -0.046875 -0.125 L -1.59375 0.46875 L -2.078125 -0.796875 L -1.71875 -0.9375 L -1.40625 -0.109375 L -1.171875 -0.203125 L -1.453125 -0.953125 L -1.109375 -1.078125 L -0.828125 -0.328125 L -0.578125 -0.421875 L -0.90625 -1.265625 L -0.546875 -1.40625 Z M -0.046875 -0.125 "/></g></g></g><g fill="#000000" fill-opacity="1"><g transform="translate(4.009086, 41.790436)"><g><path d="M -0.03125 -0.140625 L -1.640625 0.28125 L -1.984375 -1.015625 L -1.59375 -1.109375 L -1.375 -0.265625 L -1.09375 -0.34375 L -1.296875 -1.09375 L -0.9375 -1.1875 L -0.734375 -0.4375 L -0.15625 -0.59375 Z M -0.03125 -0.140625 "/></g></g></g><g fill="#000000" fill-opacity="1"><g transform="translate(3.598003, 40.12606)"><g><path d="M -0.03125 -0.15625 L -1.65625 0.125 L -1.734375 -0.328125 L -0.109375 -0.609375 Z M -0.03125 -0.15625 "/></g></g></g><g fill="#000000" fill-opacity="1"><g transform="translate(3.419535, 39.198384)"><g><path d="M -0.015625 -0.140625 L -1.671875 -0.015625 L -1.703125 -0.453125 L -0.875 -1.203125 L -1.75 -1.140625 L -1.78125 -1.59375 L -0.125 -1.71875 L -0.09375 -1.3125 L -0.953125 -0.546875 L -0.046875 -0.609375 Z M -0.015625 -0.140625 "/></g></g></g><g fill="#000000" fill-opacity="1"><g transform="translate(3.291117, 37.190271)"><g><path d="M 0 -0.140625 L -1.65625 -0.21875 L -1.578125 -1.5625 L -1.1875 -1.546875 L -1.234375 -0.671875 L -0.984375 -0.65625 L -0.953125 -1.453125 L -0.59375 -1.4375 L -0.625 -0.640625 L -0.359375 -0.625 L -0.3125 -1.515625 L 0.078125 -1.5 Z M 0 -0.140625 "/></g></g></g><g fill="#000000" fill-opacity="1"><g transform="translate(3.403255, 35.432128)"><g/></g></g><g fill="#000000" fill-opacity="1"><g transform="translate(3.498324, 34.60674)"><g><path d="M 0.140625 -0.609375 L -0.46875 -0.75 L -1.609375 -0.359375 L -1.5 -0.859375 L -0.84375 -1.078125 L -1.34375 -1.53125 L -1.234375 -2.03125 L -0.375 -1.203125 L 0.234375 -1.0625 Z M 0.140625 -0.609375 "/></g></g></g><g fill="#000000" fill-opacity="1"><g transform="translate(3.908392, 32.791334)"><g><path d="M 0.375 -0.90625 C 0.332031 -0.789062 0.265625 -0.6875 0.171875 -0.59375 C 0.0859375 -0.507812 0 -0.441406 -0.09375 -0.390625 C -0.1875 -0.347656 -0.289062 -0.320312 -0.40625 -0.3125 C -0.519531 -0.3125 -0.632812 -0.332031 -0.75 -0.375 C -0.863281 -0.414062 -0.960938 -0.472656 -1.046875 -0.546875 C -1.128906 -0.628906 -1.191406 -0.71875 -1.234375 -0.8125 C -1.285156 -0.914062 -1.3125 -1.023438 -1.3125 -1.140625 C -1.3125 -1.265625 -1.289062 -1.382812 -1.25 -1.5 C -1.207031 -1.625 -1.144531 -1.726562 -1.0625 -1.8125 C -0.988281 -1.90625 -0.898438 -1.972656 -0.796875 -2.015625 C -0.691406 -2.066406 -0.582031 -2.097656 -0.46875 -2.109375 C -0.351562 -2.117188 -0.242188 -2.109375 -0.140625 -2.078125 L -0.125 -2.0625 C -0.0078125 -2.019531 0.0820312 -1.957031 0.15625 -1.875 C 0.238281 -1.800781 0.300781 -1.710938 0.34375 -1.609375 C 0.382812 -1.503906 0.410156 -1.390625 0.421875 -1.265625 C 0.429688 -1.140625 0.414062 -1.019531 0.375 -0.90625 Z M -0.015625 -1.046875 C 0.00390625 -1.109375 0.0078125 -1.164062 0 -1.21875 C 0 -1.28125 -0.0078125 -1.335938 -0.03125 -1.390625 C -0.0625 -1.441406 -0.0976562 -1.484375 -0.140625 -1.515625 C -0.179688 -1.554688 -0.234375 -1.585938 -0.296875 -1.609375 C -0.347656 -1.628906 -0.398438 -1.640625 -0.453125 -1.640625 C -0.515625 -1.640625 -0.570312 -1.625 -0.625 -1.59375 C -0.675781 -1.570312 -0.722656 -1.539062 -0.765625 -1.5 C -0.804688 -1.46875 -0.835938 -1.421875 -0.859375 -1.359375 C -0.878906 -1.304688 -0.882812 -1.25 -0.875 -1.1875 C -0.875 -1.125 -0.863281 -1.070312 -0.84375 -1.03125 C -0.820312 -0.988281 -0.785156 -0.945312 -0.734375 -0.90625 C -0.691406 -0.863281 -0.648438 -0.835938 -0.609375 -0.828125 L -0.59375 -0.8125 C -0.53125 -0.789062 -0.46875 -0.78125 -0.40625 -0.78125 C -0.351562 -0.789062 -0.300781 -0.800781 -0.25 -0.8125 C -0.195312 -0.832031 -0.148438 -0.863281 -0.109375 -0.90625 C -0.0664062 -0.945312 -0.0351562 -0.992188 -0.015625 -1.046875 Z M -0.015625 -1.046875 "/></g></g></g><g fill="#000000" fill-opacity="1"><g transform="translate(4.649564, 30.810278)"><g><path d="M 0.4375 -0.765625 C 0.332031 -0.566406 0.191406 -0.429688 0.015625 -0.359375 C -0.148438 -0.296875 -0.351562 -0.328125 -0.59375 -0.453125 L -1.40625 -0.875 L -1.1875 -1.296875 L -0.375 -0.875 C -0.269531 -0.820312 -0.175781 -0.804688 -0.09375 -0.828125 C -0.0195312 -0.847656 0.0351562 -0.898438 0.078125 -0.984375 C 0.117188 -1.066406 0.128906 -1.140625 0.109375 -1.203125 C 0.0859375 -1.273438 0.0195312 -1.34375 -0.09375 -1.40625 L -0.90625 -1.828125 L -0.6875 -2.25 L 0.125 -1.828125 C 0.238281 -1.765625 0.328125 -1.691406 0.390625 -1.609375 C 0.460938 -1.535156 0.507812 -1.453125 0.53125 -1.359375 C 0.550781 -1.273438 0.554688 -1.179688 0.546875 -1.078125 C 0.535156 -0.984375 0.5 -0.878906 0.4375 -0.765625 Z M 0.4375 -0.765625 "/></g></g></g><g fill="#000000" fill-opacity="1"><g transform="translate(5.564218, 29.090784)"><g><path d="M 0.078125 -0.109375 L -1.28125 -1.046875 L -0.828125 -1.703125 C -0.753906 -1.804688 -0.675781 -1.882812 -0.59375 -1.9375 C -0.519531 -2 -0.445312 -2.035156 -0.375 -2.046875 C -0.3125 -2.054688 -0.242188 -2.050781 -0.171875 -2.03125 C -0.109375 -2.019531 -0.046875 -1.992188 0.015625 -1.953125 C 0.117188 -1.878906 0.1875 -1.789062 0.21875 -1.6875 C 0.257812 -1.59375 0.273438 -1.488281 0.265625 -1.375 L 0.953125 -1.375 L 0.65625 -0.9375 L 0.0625 -0.953125 L -0.0625 -0.78125 L 0.34375 -0.5 Z M -0.359375 -0.984375 L -0.171875 -1.234375 C -0.128906 -1.296875 -0.113281 -1.351562 -0.125 -1.40625 C -0.132812 -1.46875 -0.164062 -1.519531 -0.21875 -1.5625 C -0.28125 -1.601562 -0.332031 -1.613281 -0.375 -1.59375 C -0.425781 -1.570312 -0.476562 -1.53125 -0.53125 -1.46875 L -0.703125 -1.21875 Z M -0.359375 -0.984375 "/></g></g></g><g fill="#000000" fill-opacity="1"><g transform="translate(6.660449, 27.563818)"><g/></g></g><g fill="#000000" fill-opacity="1"><g transform="translate(7.177155, 26.915111)"><g><path d="M 0.640625 -0.609375 C 0.484375 -0.453125 0.3125 -0.367188 0.125 -0.359375 C -0.0625 -0.347656 -0.242188 -0.429688 -0.421875 -0.609375 L -1.078125 -1.265625 L -0.75 -1.59375 L -0.09375 -0.9375 C -0.0078125 -0.851562 0.0664062 -0.8125 0.140625 -0.8125 C 0.222656 -0.820312 0.296875 -0.859375 0.359375 -0.921875 C 0.421875 -0.984375 0.453125 -1.050781 0.453125 -1.125 C 0.453125 -1.195312 0.410156 -1.273438 0.328125 -1.359375 L -0.328125 -2.015625 L 0.015625 -2.359375 L 0.671875 -1.703125 C 0.753906 -1.617188 0.816406 -1.523438 0.859375 -1.421875 C 0.910156 -1.328125 0.929688 -1.234375 0.921875 -1.140625 C 0.921875 -1.054688 0.894531 -0.96875 0.84375 -0.875 C 0.800781 -0.789062 0.734375 -0.703125 0.640625 -0.609375 Z M 0.640625 -0.609375 "/></g></g></g><g fill="#000000" fill-opacity="1"><g transform="translate(8.562926, 25.546581)"><g><path d="M 0.109375 -0.09375 L -0.90625 -1.40625 L -0.28125 -1.890625 C -0.175781 -1.960938 -0.0820312 -2.015625 0 -2.046875 C 0.09375 -2.078125 0.175781 -2.085938 0.25 -2.078125 C 0.320312 -2.066406 0.382812 -2.046875 0.4375 -2.015625 C 0.5 -1.984375 0.554688 -1.929688 0.609375 -1.859375 C 0.679688 -1.765625 0.722656 -1.660156 0.734375 -1.546875 C 0.742188 -1.441406 0.71875 -1.335938 0.65625 -1.234375 L 1.3125 -1.03125 L 0.90625 -0.703125 L 0.328125 -0.890625 L 0.171875 -0.765625 L 0.484375 -0.375 Z M -0.046875 -1.046875 L 0.203125 -1.234375 C 0.253906 -1.285156 0.285156 -1.335938 0.296875 -1.390625 C 0.304688 -1.441406 0.289062 -1.492188 0.25 -1.546875 C 0.207031 -1.597656 0.160156 -1.625 0.109375 -1.625 C 0.0546875 -1.632812 0 -1.613281 -0.0625 -1.5625 L -0.296875 -1.375 Z M -0.046875 -1.046875 "/></g></g></g><g fill="#000000" fill-opacity="1"><g transform="translate(10.033957, 24.412699)"><g><path d="M 0.125 -0.078125 L -0.734375 -1.5 L 0 -1.9375 C 0.0820312 -1.988281 0.160156 -2.019531 0.234375 -2.03125 C 0.304688 -2.050781 0.382812 -2.054688 0.46875 -2.046875 C 0.507812 -2.035156 0.550781 -2.015625 0.59375 -1.984375 C 0.632812 -1.960938 0.671875 -1.929688 0.703125 -1.890625 L 0.703125 -1.875 C 0.753906 -1.789062 0.769531 -1.707031 0.75 -1.625 C 0.738281 -1.550781 0.707031 -1.484375 0.65625 -1.421875 C 0.769531 -1.441406 0.867188 -1.4375 0.953125 -1.40625 C 1.035156 -1.382812 1.109375 -1.332031 1.171875 -1.25 L 1.171875 -1.234375 C 1.242188 -1.117188 1.25 -0.992188 1.1875 -0.859375 C 1.132812 -0.734375 1.023438 -0.617188 0.859375 -0.515625 Z M 0.359375 -1.5625 C 0.335938 -1.601562 0.300781 -1.625 0.25 -1.625 C 0.207031 -1.625 0.15625 -1.601562 0.09375 -1.5625 L -0.15625 -1.421875 L 0 -1.171875 L 0.25 -1.3125 C 0.300781 -1.34375 0.335938 -1.378906 0.359375 -1.421875 C 0.378906 -1.472656 0.378906 -1.519531 0.359375 -1.5625 Z M 0.71875 -1.0625 C 0.695312 -1.101562 0.664062 -1.125 0.625 -1.125 C 0.582031 -1.125 0.53125 -1.101562 0.46875 -1.0625 L 0.171875 -0.890625 L 0.328125 -0.640625 L 0.625 -0.8125 C 0.6875 -0.851562 0.722656 -0.894531 0.734375 -0.9375 C 0.753906 -0.976562 0.753906 -1.015625 0.734375 -1.046875 Z M 0.71875 -1.0625 "/></g></g></g><g fill="#000000" fill-opacity="1"><g transform="translate(11.616356, 23.465438)"><g><path d="M 0.015625 0 L -0.015625 -1.828125 L 0.40625 -2 L 1.71875 -0.75 L 1.265625 -0.546875 L 1.03125 -0.78125 L 0.453125 -0.515625 L 0.453125 -0.203125 Z M 0.421875 -0.890625 L 0.765625 -1.046875 L 0.40625 -1.40625 Z M 0.421875 -0.890625 "/></g></g></g><g fill="#000000" fill-opacity="1"><g transform="translate(13.478394, 22.655935)"><g><path d="M 0.140625 -0.046875 L -0.328125 -1.640625 L 0.09375 -1.75 L 1 -1.109375 L 0.75 -1.953125 L 1.1875 -2.078125 L 1.65625 -0.484375 L 1.265625 -0.375 L 0.328125 -1.046875 L 0.578125 -0.171875 Z M 0.140625 -0.046875 "/></g></g></g><g fill="#000000" fill-opacity="1"><g transform="translate(15.439488, 22.120928)"><g/></g></g><g fill="#000000" fill-opacity="1"><g transform="translate(16.27598, 21.962759)"><g><path d="M 0.15625 -0.015625 L -0.0625 -1.65625 L 0.40625 -1.71875 L 0.625 -0.078125 Z M 0.15625 -0.015625 "/></g></g></g><g fill="#000000" fill-opacity="1"><g transform="translate(17.210505, 21.822036)"><g><path d="M 0.140625 0 L 0.078125 -1.65625 L 0.734375 -1.6875 C 0.878906 -1.6875 1.007812 -1.664062 1.125 -1.625 C 1.238281 -1.59375 1.335938 -1.546875 1.421875 -1.484375 C 1.503906 -1.421875 1.566406 -1.335938 1.609375 -1.234375 C 1.660156 -1.128906 1.6875 -1.019531 1.6875 -0.90625 C 1.6875 -0.78125 1.664062 -0.664062 1.625 -0.5625 C 1.59375 -0.457031 1.539062 -0.363281 1.46875 -0.28125 C 1.394531 -0.207031 1.296875 -0.144531 1.171875 -0.09375 C 1.054688 -0.0507812 0.925781 -0.03125 0.78125 -0.03125 Z M 0.75 -1.28125 L 0.5625 -1.265625 L 0.59375 -0.421875 L 0.78125 -0.4375 C 0.914062 -0.4375 1.023438 -0.472656 1.109375 -0.546875 C 1.191406 -0.628906 1.226562 -0.738281 1.21875 -0.875 C 1.21875 -1.007812 1.171875 -1.109375 1.078125 -1.171875 C 0.992188 -1.242188 0.882812 -1.28125 0.75 -1.28125 Z M 0.75 -1.28125 "/></g></g></g><g fill="#000000" fill-opacity="1"><g transform="translate(19.178257, 21.766037)"><g><path d="M 0.140625 0.015625 L 0.28125 -1.640625 L 1.625 -1.53125 L 1.59375 -1.140625 L 0.71875 -1.21875 L 0.6875 -0.96875 L 1.484375 -0.890625 L 1.46875 -0.53125 L 0.671875 -0.609375 L 0.640625 -0.34375 L 1.53125 -0.265625 L 1.5 0.125 Z M 0.140625 0.015625 "/></g></g></g><g fill="#000000" fill-opacity="1"><g transform="translate(20.908034, 21.913354)"><g><path d="M 0.140625 0.03125 L 0.484375 -1.59375 L 0.90625 -1.5 L 1.390625 -0.5 L 1.578125 -1.359375 L 2.03125 -1.28125 L 1.6875 0.34375 L 1.28125 0.265625 L 0.78125 -0.765625 L 0.59375 0.125 Z M 0.140625 0.03125 "/></g></g></g><g fill="#000000" fill-opacity="1"><g transform="translate(22.874857, 22.342555)"><g><path d="M 0.515625 0.171875 L 0.921875 -1.03125 L 0.46875 -1.1875 L 0.59375 -1.546875 L 1.96875 -1.078125 L 1.84375 -0.71875 L 1.375 -0.875 L 0.96875 0.328125 Z M 0.515625 0.171875 "/></g></g></g><g fill="#000000" fill-opacity="1"><g transform="translate(24.514372, 22.92401)"><g><path d="M 0.140625 0.0625 L 0.8125 -1.453125 L 1.25 -1.265625 L 0.578125 0.25 Z M 0.140625 0.0625 "/></g></g></g><g fill="#000000" fill-opacity="1"><g transform="translate(25.388094, 23.299095)"><g><path d="M 0.484375 0.265625 L 1.09375 -0.84375 L 0.671875 -1.078125 L 0.859375 -1.421875 L 2.125 -0.71875 L 1.9375 -0.375 L 1.5 -0.625 L 0.890625 0.484375 Z M 0.484375 0.265625 "/></g></g></g><g fill="#000000" fill-opacity="1"><g transform="translate(26.893545, 24.129683)"><g><path d="M 0.515625 0.359375 L 0.875 -0.15625 L 0.953125 -1.34375 L 1.375 -1.046875 L 1.3125 -0.359375 L 1.9375 -0.640625 L 2.359375 -0.34375 L 1.25 0.125 L 0.890625 0.640625 Z M 0.515625 0.359375 "/></g></g></g></svg>