<svg xmlns="http://www.w3.org/2000/svg" xmlns:xlink="http://www.w3.org/1999/xlink" width="240" zoomAndPan="magnify" viewBox="0 0 180 96.749999" height="129" preserveAspectRatio="xMidYMid meet" version="1.0"><defs><g/><clipPath id="d7719af149"><path d="M 6 39 L 20 39 L 20 46.839844 L 6 46.839844 Z M 6 39 " clip-rule="nonzero"/></clipPath><clipPath id="24d601205a"><path d="M 5 38 L 20 38 L 20 46.839844 L 5 46.839844 Z M 5 38 " clip-rule="nonzero"/></clipPath><clipPath id="f74aa8025d"><path d="M 9 34.40625 L 10 34.40625 L 10 37 L 9 37 Z M 9 34.40625 " clip-rule="nonzero"/></clipPath><clipPath id="8674772061"><path d="M 15 34.40625 L 17 34.40625 L 17 37 L 15 37 Z M 15 34.40625 " clip-rule="nonzero"/></clipPath><clipPath id="a15210ff09"><path d="M 22 40 L 24.382812 40 L 24.382812 41 L 22 41 Z M 22 40 " clip-rule="nonzero"/></clipPath></defs><g fill="#000000" fill-opacity="1"><g transform="translate(3.253989, 80.317344)"><g><path d="M 0.59375 0 L 3.921875 -34.328125 L 15.546875 -34.328125 L 18.828125 0 L 12.3125 0 L 11.828125 -5.5625 L 7.671875 -5.5625 L 7.28125 0 Z M 8.1875 -11.03125 L 11.3125 -11.03125 L 9.796875 -28.5 L 9.46875 -28.5 Z M 8.1875 -11.03125 "/></g></g></g><g fill="#000000" fill-opacity="1"><g transform="translate(22.636258, 80.317344)"><g><path d="M 1.515625 0 L 1.515625 -34.328125 L 8.390625 -34.328125 L 8.390625 -5.828125 L 15.46875 -5.828125 L 15.46875 0 Z M 1.515625 0 "/></g></g></g><g fill="#000000" fill-opacity="1"><g transform="translate(38.501748, 80.317344)"><g><path d="M 1.515625 0 L 1.515625 -34.328125 L 8.390625 -34.328125 L 8.390625 -5.828125 L 15.46875 -5.828125 L 15.46875 0 Z M 1.515625 0 "/></g></g></g><g fill="#000000" fill-opacity="1"><g transform="translate(54.367238, 80.317344)"><g><path d="M 1.515625 0 L 1.515625 -34.328125 L 15.265625 -34.328125 L 15.265625 -27.703125 L 8.515625 -27.703125 L 8.515625 -21.03125 L 14.984375 -21.03125 L 14.984375 -14.546875 L 8.515625 -14.546875 L 8.515625 -6.671875 L 15.703125 -6.671875 L 15.703125 0 Z M 1.515625 0 "/></g></g></g><g fill="#000000" fill-opacity="1"><g transform="translate(70.832178, 80.317344)"><g><path d="M 1.515625 0 L 1.515625 -34.328125 L 8.59375 -34.328125 L 11.75 -17.90625 L 11.75 -34.328125 L 18.390625 -34.328125 L 18.390625 0 L 11.671875 0 L 8.234375 -17.1875 L 8.234375 0 Z M 1.515625 0 "/></g></g></g><g clip-path="url(#d7719af149)"><path fill="#fccb1e" d="M 18.625 46.359375 C 15.125 45.84375 10.476562 45.769531 7.011719 46.488281 C 6.992188 44.445312 6.566406 42.433594 6.144531 40.433594 C 7.503906 41.675781 9.03125 42.738281 10.667969 43.585938 C 11.882812 42.210938 12.910156 40.480469 13.574219 39.011719 C 14.238281 40.480469 15.269531 42.296875 16.101562 43.554688 C 17.425781 42.363281 18.492188 41.148438 19.636719 40.109375 C 18.890625 42.484375 18.625 44.488281 18.597656 46.414062 " fill-opacity="1" fill-rule="nonzero"/></g><g clip-path="url(#24d601205a)"><path fill="#100f0d" d="M 18.710938 46.050781 C 15.894531 45.671875 13.050781 45.527344 10.21875 45.738281 C 9.285156 45.808594 7.789062 46.375 7.289062 45.472656 C 7.363281 45.601562 7.015625 43.226562 7.039062 43.359375 C 6.878906 42.351562 6.660156 41.347656 6.449219 40.347656 C 6.273438 40.453125 6.09375 40.554688 5.917969 40.660156 C 7.347656 41.910156 8.835938 42.953125 10.507812 43.859375 C 10.621094 43.921875 10.800781 43.921875 10.894531 43.8125 C 11.386719 43.214844 11.648438 42.914062 12.089844 42.277344 C 12.226562 42.078125 13.304688 39.988281 13.488281 39.929688 C 13.707031 39.859375 15.566406 43.316406 15.824219 43.714844 C 15.9375 43.894531 16.167969 43.925781 16.324219 43.78125 C 17.53125 42.660156 18.660156 41.464844 19.859375 40.335938 C 19.683594 40.234375 19.503906 40.128906 19.328125 40.027344 C 18.710938 42.140625 18.351562 44.210938 18.28125 46.414062 C 18.265625 46.828125 18.90625 46.828125 18.917969 46.414062 C 18.984375 44.277344 19.34375 42.246094 19.941406 40.195312 C 20.035156 39.878906 19.636719 39.671875 19.410156 39.882812 C 18.769531 40.484375 17.058594 42.796875 16.230469 42.726562 C 15.320312 42.648438 14.222656 39.636719 13.851562 38.851562 C 13.75 38.640625 13.398438 38.640625 13.300781 38.851562 C 12.707031 40.082031 12.058594 41.816406 10.777344 42.410156 C 9.738281 42.890625 9.769531 42.761719 8.847656 42.136719 C 7.976562 41.550781 7.160156 40.898438 6.367188 40.207031 C 6.125 39.996094 5.769531 40.199219 5.835938 40.519531 C 6.253906 42.5 6.609375 44.460938 6.695312 46.488281 C 6.703125 46.710938 6.890625 46.839844 7.097656 46.800781 C 10.867188 46.09375 14.75 46.15625 18.539062 46.667969 C 18.941406 46.722656 19.113281 46.105469 18.710938 46.050781 " fill-opacity="1" fill-rule="nonzero"/></g><path fill="#faf783" d="M 13.46875 39.34375 C 13.847656 39.410156 14.265625 39.265625 14.484375 38.949219 C 14.699219 38.632812 14.664062 38.148438 14.367188 37.902344 C 14.230469 37.789062 14.050781 37.734375 13.875 37.722656 C 13.28125 37.675781 12.699219 38.144531 12.609375 38.734375 C 12.59375 38.828125 12.589844 38.925781 12.628906 39.015625 C 12.683594 39.140625 12.816406 39.21875 12.941406 39.277344 C 13.207031 39.394531 13.496094 39.460938 13.789062 39.464844 " fill-opacity="1" fill-rule="nonzero"/><path fill="#100f0d" d="M 13.46875 39.585938 C 14.109375 39.660156 14.789062 39.277344 14.855469 38.589844 C 14.917969 37.914062 14.367188 37.441406 13.71875 37.480469 C 13.074219 37.519531 12.488281 38.027344 12.378906 38.667969 C 12.238281 39.46875 13.179688 39.675781 13.789062 39.707031 C 14.09375 39.722656 14.09375 39.242188 13.789062 39.226562 C 13.457031 39.210938 12.726562 39.125 12.875 38.644531 C 12.988281 38.285156 13.328125 38.007812 13.699219 37.96875 C 14.09375 37.921875 14.46875 38.1875 14.367188 38.621094 C 14.273438 39.027344 13.832031 39.148438 13.46875 39.105469 C 13.164062 39.070312 13.167969 39.550781 13.46875 39.585938 " fill-opacity="1" fill-rule="nonzero"/><path fill="#faf783" d="M 19.40625 40.0625 C 19.550781 40.160156 19.707031 40.238281 19.871094 40.292969 C 20.183594 40.398438 20.542969 40.421875 20.824219 40.253906 C 21.105469 40.085938 21.261719 39.6875 21.082031 39.410156 C 21.019531 39.316406 20.933594 39.246094 20.84375 39.183594 C 20.597656 39.003906 20.316406 38.847656 20.015625 38.867188 C 19.875 38.875 19.738281 38.921875 19.609375 38.980469 C 19.460938 39.050781 19.3125 39.140625 19.238281 39.289062 C 19.148438 39.476562 19.207031 39.710938 19.34375 39.871094 C 19.476562 40.03125 19.667969 40.128906 19.859375 40.203125 " fill-opacity="1" fill-rule="nonzero"/><path fill="#100f0d" d="M 19.285156 40.269531 C 19.820312 40.605469 20.648438 40.832031 21.144531 40.300781 C 21.648438 39.765625 21.308594 39.164062 20.773438 38.847656 C 20.257812 38.542969 19.503906 38.546875 19.101562 39.0625 C 18.640625 39.65625 19.285156 40.222656 19.796875 40.433594 C 20.082031 40.550781 20.207031 40.085938 19.925781 39.972656 C 19.527344 39.808594 19.210938 39.386719 19.769531 39.171875 C 20.082031 39.050781 20.359375 39.140625 20.628906 39.324219 C 20.96875 39.554688 21.007812 39.976562 20.5625 40.109375 C 20.207031 40.214844 19.824219 40.039062 19.527344 39.855469 C 19.261719 39.695312 19.023438 40.109375 19.285156 40.269531 " fill-opacity="1" fill-rule="nonzero"/><path fill="#faf783" d="M 6.21875 40.5625 C 6.550781 40.371094 6.78125 40.007812 6.808594 39.621094 C 6.816406 39.535156 6.8125 39.441406 6.773438 39.363281 C 6.742188 39.300781 6.691406 39.246094 6.632812 39.207031 C 6.398438 39.042969 6.074219 39.050781 5.804688 39.144531 C 5.609375 39.214844 5.429688 39.324219 5.277344 39.464844 C 5.152344 39.578125 5.046875 39.714844 5 39.878906 C 4.953125 40.039062 4.972656 40.222656 5.074219 40.355469 C 5.179688 40.488281 5.351562 40.546875 5.515625 40.566406 C 5.890625 40.605469 6.277344 40.453125 6.523438 40.167969 " fill-opacity="1" fill-rule="nonzero"/><path fill="#100f0d" d="M 6.339844 40.773438 C 6.78125 40.488281 7.269531 39.792969 6.980469 39.242188 C 6.65625 38.625 5.753906 38.820312 5.300781 39.140625 C 4.855469 39.453125 4.46875 40.144531 4.976562 40.597656 C 5.476562 41.039062 6.289062 40.761719 6.695312 40.335938 C 6.90625 40.113281 6.570312 39.773438 6.355469 39.996094 C 6.136719 40.222656 5.804688 40.398438 5.480469 40.316406 C 4.925781 40.179688 5.378906 39.648438 5.644531 39.484375 C 5.871094 39.347656 6.503906 39.136719 6.570312 39.578125 C 6.617188 39.882812 6.328125 40.207031 6.097656 40.355469 C 5.839844 40.523438 6.078125 40.9375 6.339844 40.773438 " fill-opacity="1" fill-rule="nonzero"/><path fill="#100f0d" d="M 3.542969 41.710938 C 2.832031 41.578125 2.121094 41.445312 1.410156 41.3125 C 1.109375 41.253906 0.980469 41.71875 1.28125 41.777344 C 1.992188 41.910156 2.703125 42.042969 3.414062 42.175781 C 3.714844 42.230469 3.84375 41.765625 3.542969 41.710938 " fill-opacity="1" fill-rule="nonzero"/><path fill="#100f0d" d="M 4.667969 37.890625 C 4.304688 37.402344 3.84375 37.042969 3.28125 36.8125 C 2.996094 36.691406 2.875 37.15625 3.15625 37.273438 C 3.589844 37.453125 3.972656 37.753906 4.257812 38.132812 C 4.4375 38.378906 4.855469 38.140625 4.667969 37.890625 " fill-opacity="1" fill-rule="nonzero"/><g clip-path="url(#f74aa8025d)"><path fill="#100f0d" d="M 9.996094 36.738281 C 9.945312 36.15625 9.875 35.574219 9.785156 34.996094 C 9.738281 34.691406 9.277344 34.820312 9.324219 35.125 C 9.40625 35.660156 9.46875 36.199219 9.519531 36.738281 C 9.546875 37.042969 10.023438 37.046875 9.996094 36.738281 " fill-opacity="1" fill-rule="nonzero"/></g><g clip-path="url(#8674772061)"><path fill="#100f0d" d="M 16.132812 36.394531 C 16.175781 35.863281 16.265625 35.347656 16.402344 34.835938 C 16.480469 34.535156 16.019531 34.40625 15.941406 34.707031 C 15.792969 35.261719 15.703125 35.820312 15.65625 36.394531 C 15.628906 36.699219 16.109375 36.699219 16.132812 36.394531 " fill-opacity="1" fill-rule="nonzero"/></g><path fill="#100f0d" d="M 20.710938 36.992188 C 21.164062 36.765625 21.617188 36.539062 22.074219 36.3125 C 22.347656 36.171875 22.105469 35.757812 21.832031 35.894531 C 21.378906 36.121094 20.921875 36.347656 20.46875 36.578125 C 20.191406 36.714844 20.433594 37.128906 20.710938 36.992188 " fill-opacity="1" fill-rule="nonzero"/><g clip-path="url(#a15210ff09)"><path fill="#100f0d" d="M 22.800781 40.570312 C 23.222656 40.570312 23.652344 40.570312 24.074219 40.570312 C 24.382812 40.570312 24.382812 40.089844 24.074219 40.089844 C 23.652344 40.089844 23.222656 40.089844 22.800781 40.089844 C 22.492188 40.089844 22.492188 40.570312 22.800781 40.570312 " fill-opacity="1" fill-rule="nonzero"/></g><path fill="#100f0d" d="M 22.523438 43.601562 C 22.835938 43.558594 23.144531 43.511719 23.457031 43.46875 C 23.761719 43.425781 23.632812 42.960938 23.332031 43.003906 C 23.019531 43.050781 22.707031 43.09375 22.394531 43.136719 C 22.09375 43.183594 22.222656 43.644531 22.523438 43.601562 " fill-opacity="1" fill-rule="nonzero"/></svg>