<svg xmlns="http://www.w3.org/2000/svg" xmlns:xlink="http://www.w3.org/1999/xlink" width="112" zoomAndPan="magnify" viewBox="0 0 84 81.749997" height="109" preserveAspectRatio="xMidYMid meet" version="1.0"><defs><g/><clipPath id="cec9cdec01"><path d="M 13.800781 53.972656 L 29.027344 53.972656 L 29.027344 80 L 13.800781 80 Z M 13.800781 53.972656 " clip-rule="nonzero"/></clipPath><clipPath id="da757f60be"><path d="M 13.800781 1.082031 L 29.027344 1.082031 L 29.027344 16.308594 L 13.800781 16.308594 Z M 13.800781 1.082031 " clip-rule="nonzero"/></clipPath><clipPath id="33be1e3bbe"><path d="M 21.414062 1.082031 C 17.207031 1.082031 13.800781 4.492188 13.800781 8.695312 C 13.800781 12.902344 17.207031 16.308594 21.414062 16.308594 C 25.617188 16.308594 29.027344 12.902344 29.027344 8.695312 C 29.027344 4.492188 25.617188 1.082031 21.414062 1.082031 Z M 21.414062 1.082031 " clip-rule="nonzero"/></clipPath><clipPath id="928d5571f0"><path d="M 53.203125 47.929688 L 68.429688 47.929688 L 68.429688 63.792969 L 53.203125 63.792969 Z M 53.203125 47.929688 " clip-rule="nonzero"/></clipPath><clipPath id="ac9c424feb"><path d="M 40.375 13.742188 L 66.027344 13.742188 L 66.027344 27.195312 L 40.375 27.195312 Z M 40.375 13.742188 " clip-rule="nonzero"/></clipPath><clipPath id="fb9ce77f19"><path d="M 42.207031 19.167969 L 48.828125 19.167969 L 48.828125 25.789062 L 42.207031 25.789062 Z M 42.207031 19.167969 " clip-rule="nonzero"/></clipPath><clipPath id="1c24af7365"><path d="M 45.515625 19.167969 C 43.6875 19.167969 42.207031 20.652344 42.207031 22.476562 C 42.207031 24.304688 43.6875 25.789062 45.515625 25.789062 C 47.34375 25.789062 48.828125 24.304688 48.828125 22.476562 C 48.828125 20.652344 47.34375 19.167969 45.515625 19.167969 Z M 45.515625 19.167969 " clip-rule="nonzero"/></clipPath><clipPath id="13ca184aae"><path d="M 57.441406 19.167969 L 64.0625 19.167969 L 64.0625 25.789062 L 57.441406 25.789062 Z M 57.441406 19.167969 " clip-rule="nonzero"/></clipPath><clipPath id="7abb65550d"><path d="M 60.75 19.167969 C 58.921875 19.167969 57.441406 20.652344 57.441406 22.476562 C 57.441406 24.304688 58.921875 25.789062 60.75 25.789062 C 62.578125 25.789062 64.0625 24.304688 64.0625 22.476562 C 64.0625 20.652344 62.578125 19.167969 60.75 19.167969 Z M 60.75 19.167969 " clip-rule="nonzero"/></clipPath></defs><g clip-path="url(#cec9cdec01)"><path fill="#fbeb78" d="M 13.800781 53.972656 L 29.027344 53.972656 L 29.027344 80.027344 L 13.800781 80.027344 Z M 13.800781 53.972656 " fill-opacity="1" fill-rule="nonzero"/></g><g clip-path="url(#da757f60be)"><g clip-path="url(#33be1e3bbe)"><path fill="#df3821" d="M 13.800781 1.082031 L 29.027344 1.082031 L 29.027344 16.308594 L 13.800781 16.308594 Z M 13.800781 1.082031 " fill-opacity="1" fill-rule="nonzero"/></g></g><g clip-path="url(#928d5571f0)"><path fill="#b9e185" d="M 53.203125 47.929688 L 68.429688 47.929688 L 68.429688 63.8125 L 53.203125 63.8125 Z M 53.203125 47.929688 " fill-opacity="1" fill-rule="nonzero"/></g><g fill="#000000" fill-opacity="1"><g transform="translate(16.830567, 38.774663)"><g><path d="M 3.1875 0 L 3.1875 -30.921875 L 8.71875 -30.921875 L 8.71875 -19.1875 L 9.140625 -19.109375 C 9.878906 -20.179688 10.78125 -21.007812 11.84375 -21.59375 C 12.90625 -22.1875 14.191406 -22.484375 15.703125 -22.484375 C 20.566406 -22.484375 23 -19.722656 23 -14.203125 L 23 0 L 17.46875 0 L 17.46875 -13.5 C 17.46875 -15.007812 17.164062 -16.101562 16.5625 -16.78125 C 15.957031 -17.457031 15.023438 -17.796875 13.765625 -17.796875 C 12.210938 -17.796875 10.984375 -17.28125 10.078125 -16.25 C 9.171875 -15.21875 8.71875 -13.609375 8.71875 -11.421875 L 8.71875 0 Z M 3.1875 0 "/></g></g></g><g fill="#000000" fill-opacity="1"><g transform="translate(16.830567, 65.809006)"><g><path d="M 3.1875 8.9375 L 3.1875 -22.0625 L 8.71875 -22.0625 L 8.71875 -19.1875 L 9.140625 -19.109375 C 9.796875 -20.222656 10.671875 -21.0625 11.765625 -21.625 C 12.859375 -22.195312 14.140625 -22.484375 15.609375 -22.484375 C 17.378906 -22.484375 18.925781 -22.0625 20.25 -21.21875 C 21.582031 -20.382812 22.617188 -19.109375 23.359375 -17.390625 C 24.097656 -15.679688 24.46875 -13.554688 24.46875 -11.015625 C 24.46875 -8.492188 24.078125 -6.378906 23.296875 -4.671875 C 22.515625 -2.972656 21.429688 -1.695312 20.046875 -0.84375 C 18.660156 0 17.0625 0.421875 15.25 0.421875 C 13.875 0.421875 12.6875 0.191406 11.6875 -0.265625 C 10.6875 -0.722656 9.835938 -1.441406 9.140625 -2.421875 L 8.71875 -2.34375 L 8.71875 8.9375 Z M 13.703125 -4.28125 C 15.359375 -4.28125 16.613281 -4.816406 17.46875 -5.890625 C 18.320312 -6.972656 18.75 -8.679688 18.75 -11.015625 C 18.75 -13.347656 18.320312 -15.054688 17.46875 -16.140625 C 16.613281 -17.234375 15.359375 -17.78125 13.703125 -17.78125 C 12.148438 -17.78125 10.921875 -17.21875 10.015625 -16.09375 C 9.109375 -14.976562 8.65625 -13.285156 8.65625 -11.015625 C 8.65625 -8.765625 9.109375 -7.078125 10.015625 -5.953125 C 10.921875 -4.835938 12.148438 -4.28125 13.703125 -4.28125 Z M 13.703125 -4.28125 "/></g></g></g><g fill="#000000" fill-opacity="1"><g transform="translate(41.001628, 65.809006)"><g><path d="M 21.796875 -9.78125 L 7.625 -9.78125 C 7.78125 -7.863281 8.320312 -6.46875 9.25 -5.59375 C 10.1875 -4.71875 11.460938 -4.28125 13.078125 -4.28125 C 14.347656 -4.28125 15.375 -4.515625 16.15625 -4.984375 C 16.945312 -5.460938 17.582031 -6.179688 18.0625 -7.140625 L 18.484375 -7.140625 L 22.171875 -4.78125 C 21.441406 -3.226562 20.347656 -1.972656 18.890625 -1.015625 C 17.441406 -0.0546875 15.503906 0.421875 13.078125 0.421875 C 10.796875 0.421875 8.828125 -0.0078125 7.171875 -0.875 C 5.515625 -1.75 4.234375 -3.039062 3.328125 -4.75 C 2.429688 -6.46875 1.984375 -8.554688 1.984375 -11.015625 C 1.984375 -13.523438 2.457031 -15.640625 3.40625 -17.359375 C 4.351562 -19.078125 5.628906 -20.359375 7.234375 -21.203125 C 8.847656 -22.054688 10.664062 -22.484375 12.6875 -22.484375 C 15.800781 -22.484375 18.1875 -21.65625 19.84375 -20 C 21.507812 -18.351562 22.34375 -15.925781 22.34375 -12.71875 C 22.34375 -11.5625 22.300781 -10.660156 22.21875 -10.015625 Z M 17.046875 -13.359375 C 16.992188 -15.046875 16.601562 -16.269531 15.875 -17.03125 C 15.144531 -17.800781 14.082031 -18.1875 12.6875 -18.1875 C 9.882812 -18.1875 8.234375 -16.578125 7.734375 -13.359375 Z M 17.046875 -13.359375 "/></g></g></g><g fill="#000000" fill-opacity="1"><g transform="translate(40.37197, 39.047844)"><g><path d="M 12.828125 0.421875 C 10.660156 0.421875 8.757812 -0.0195312 7.125 -0.90625 C 5.5 -1.789062 4.234375 -3.085938 3.328125 -4.796875 C 2.429688 -6.515625 1.984375 -8.585938 1.984375 -11.015625 C 1.984375 -13.441406 2.429688 -15.515625 3.328125 -17.234375 C 4.234375 -18.960938 5.5 -20.269531 7.125 -21.15625 C 8.757812 -22.039062 10.660156 -22.484375 12.828125 -22.484375 C 14.984375 -22.484375 16.878906 -22.039062 18.515625 -21.15625 C 20.148438 -20.269531 21.421875 -18.960938 22.328125 -17.234375 C 23.234375 -15.515625 23.6875 -13.441406 23.6875 -11.015625 C 23.6875 -8.585938 23.234375 -6.515625 22.328125 -4.796875 C 21.421875 -3.085938 20.148438 -1.789062 18.515625 -0.90625 C 16.878906 -0.0195312 14.984375 0.421875 12.828125 0.421875 Z M 12.828125 -4.28125 C 16.253906 -4.28125 17.96875 -6.523438 17.96875 -11.015625 C 17.96875 -13.347656 17.523438 -15.054688 16.640625 -16.140625 C 15.765625 -17.234375 14.492188 -17.78125 12.828125 -17.78125 C 9.398438 -17.78125 7.6875 -15.523438 7.6875 -11.015625 C 7.6875 -6.523438 9.398438 -4.28125 12.828125 -4.28125 Z M 12.828125 -4.28125 "/></g></g></g><g clip-path="url(#ac9c424feb)"><path fill="#ffffff" d="M 40.375 13.742188 L 66.019531 13.742188 L 66.019531 27.195312 L 40.375 27.195312 Z M 40.375 13.742188 " fill-opacity="1" fill-rule="nonzero"/></g><g clip-path="url(#fb9ce77f19)"><g clip-path="url(#1c24af7365)"><path fill="#648dcb" d="M 42.207031 19.167969 L 48.828125 19.167969 L 48.828125 25.789062 L 42.207031 25.789062 Z M 42.207031 19.167969 " fill-opacity="1" fill-rule="nonzero"/></g></g><g clip-path="url(#13ca184aae)"><g clip-path="url(#7abb65550d)"><path fill="#648dcb" d="M 57.441406 19.167969 L 64.0625 19.167969 L 64.0625 25.789062 L 57.441406 25.789062 Z M 57.441406 19.167969 " fill-opacity="1" fill-rule="nonzero"/></g></g></svg>