<svg xmlns="http://www.w3.org/2000/svg" xmlns:xlink="http://www.w3.org/1999/xlink" width="112" zoomAndPan="magnify" viewBox="0 0 84 81.749997" height="109" preserveAspectRatio="xMidYMid meet" version="1.0"><defs><g/><clipPath id="f2593c1827"><path d="M 0.128906 30 L 40 30 L 40 56 L 0.128906 56 Z M 0.128906 30 " clip-rule="nonzero"/></clipPath><clipPath id="c528c32fe0"><path d="M 78 36 L 83.871094 36 L 83.871094 43 L 78 43 Z M 78 36 " clip-rule="nonzero"/></clipPath></defs><g clip-path="url(#f2593c1827)"><g fill="#171616" fill-opacity="1"><g transform="translate(0.481071, 55.36462)"><g><path d="M 24.765625 0 L 14.421875 0 L 14.421875 -12.296875 C 14.421875 -12.960938 14.253906 -13.457031 13.921875 -13.78125 C 13.585938 -14.113281 13.195312 -14.28125 12.75 -14.28125 C 12.300781 -14.28125 11.910156 -14.117188 11.578125 -13.796875 C 11.242188 -13.484375 11.078125 -13 11.078125 -12.34375 L 11.078125 0 L 0.4375 0 L 0.4375 -12.765625 C 0.4375 -15.046875 0.785156 -16.96875 1.484375 -18.53125 C 2.191406 -20.09375 3.144531 -21.347656 4.34375 -22.296875 C 5.539062 -23.253906 6.867188 -23.945312 8.328125 -24.375 C 9.785156 -24.8125 11.265625 -25.03125 12.765625 -25.03125 C 13.984375 -25.03125 15.179688 -24.816406 16.359375 -24.390625 C 17.546875 -23.972656 18.628906 -23.273438 19.609375 -22.296875 C 20.453125 -23.222656 21.484375 -23.898438 22.703125 -24.328125 C 23.929688 -24.765625 25.140625 -25 26.328125 -25.03125 C 27.859375 -25.03125 29.359375 -24.804688 30.828125 -24.359375 C 32.296875 -23.910156 33.628906 -23.203125 34.828125 -22.234375 C 36.023438 -21.265625 36.984375 -20 37.703125 -18.4375 C 38.429688 -16.882812 38.796875 -14.992188 38.796875 -12.765625 L 38.796875 0 L 28.140625 0 L 28.140625 -12.34375 C 28.140625 -13 27.96875 -13.484375 27.625 -13.796875 C 27.28125 -14.117188 26.890625 -14.28125 26.453125 -14.28125 C 26.023438 -14.28125 25.632812 -14.113281 25.28125 -13.78125 C 24.9375 -13.457031 24.765625 -12.960938 24.765625 -12.296875 Z M 24.765625 0 "/></g></g></g></g><path stroke-linecap="butt" transform="matrix(0.265603, 0, 0, 0.265603, 25.018137, 14.383342)" fill="none" stroke-linejoin="miter" d="M 55.436258 125.905378 C 50.597626 125.905378 46.053137 125.008246 41.788081 123.184567 C 37.523026 121.360888 33.758012 118.816562 30.522453 115.566296 C 27.272187 112.330737 24.742568 108.565723 22.933596 104.300667 C 21.109917 100.035612 20.212785 95.491122 20.212785 90.652491 C 20.212785 85.755031 21.109917 81.181127 22.933596 76.960193 C 24.742568 72.724552 27.272187 68.988952 30.522453 65.738686 C 33.758012 62.503127 37.523026 59.973508 41.788081 58.149829 C 46.053137 56.340857 50.597626 55.429018 55.436258 55.429018 C 60.333718 55.429018 64.907622 56.340857 69.128556 58.149829 C 73.378904 59.973508 77.129211 62.503127 80.350063 65.738686 C 83.585622 68.988952 86.115241 72.724552 87.93892 76.960193 C 89.777306 81.181127 90.689145 85.755031 90.689145 90.652491 C 90.689145 95.491122 89.777306 100.035612 87.93892 104.300667 C 86.115241 108.565723 83.585622 112.330737 80.350063 115.566296 C 77.129211 118.816562 73.378904 121.360888 69.128556 123.184567 C 64.907622 125.008246 60.333718 125.905378 55.436258 125.905378 Z M 55.436258 84.607878 C 53.774357 84.607878 52.34777 85.196162 51.141789 86.402143 C 49.965222 87.57871 49.376938 88.99059 49.376938 90.652491 C 49.376938 92.314392 49.965222 93.740979 51.141789 94.94696 C 52.34777 96.123527 53.774357 96.711811 55.436258 96.711811 C 57.098159 96.711811 58.510039 96.123527 59.686606 94.94696 C 60.892587 93.740979 61.480871 92.314392 61.480871 90.652491 C 61.480871 88.99059 60.892587 87.57871 59.686606 86.402143 C 58.510039 85.196162 57.098159 84.607878 55.436258 84.607878 Z M 55.436258 84.607878 " stroke="#fff9f9" stroke-width="8.900025" stroke-opacity="1" stroke-miterlimit="4"/><g fill="#171616" fill-opacity="1"><g transform="translate(30.131, 47.318144)"><g><path d="M 9.609375 0.5 C 8.328125 0.5 7.117188 0.257812 5.984375 -0.21875 C 4.847656 -0.707031 3.847656 -1.378906 2.984375 -2.234375 C 2.128906 -3.097656 1.457031 -4.097656 0.96875 -5.234375 C 0.488281 -6.367188 0.25 -7.578125 0.25 -8.859375 C 0.25 -10.160156 0.488281 -11.375 0.96875 -12.5 C 1.457031 -13.625 2.128906 -14.613281 2.984375 -15.46875 C 3.847656 -16.332031 4.847656 -17.003906 5.984375 -17.484375 C 7.117188 -17.972656 8.328125 -18.21875 9.609375 -18.21875 C 10.910156 -18.21875 12.125 -17.972656 13.25 -17.484375 C 14.375 -17.003906 15.363281 -16.332031 16.21875 -15.46875 C 17.082031 -14.613281 17.753906 -13.625 18.234375 -12.5 C 18.722656 -11.375 18.96875 -10.160156 18.96875 -8.859375 C 18.96875 -7.578125 18.722656 -6.367188 18.234375 -5.234375 C 17.753906 -4.097656 17.082031 -3.097656 16.21875 -2.234375 C 15.363281 -1.378906 14.375 -0.707031 13.25 -0.21875 C 12.125 0.257812 10.910156 0.5 9.609375 0.5 Z M 9.609375 -10.46875 C 9.171875 -10.46875 8.789062 -10.304688 8.46875 -9.984375 C 8.15625 -9.671875 8 -9.296875 8 -8.859375 C 8 -8.410156 8.15625 -8.03125 8.46875 -7.71875 C 8.789062 -7.40625 9.171875 -7.25 9.609375 -7.25 C 10.054688 -7.25 10.4375 -7.40625 10.75 -7.71875 C 11.0625 -8.03125 11.21875 -8.410156 11.21875 -8.859375 C 11.21875 -9.296875 11.0625 -9.671875 10.75 -9.984375 C 10.4375 -10.304688 10.054688 -10.46875 9.609375 -10.46875 Z M 9.609375 -10.46875 "/></g></g></g><path stroke-linecap="butt" transform="matrix(0.265603, 0, 0, 0.265603, 38.921851, 23.229122)" fill="none" stroke-linejoin="miter" d="M 51.871987 125.912442 C 47.048062 125.912442 42.488865 125.000602 38.22381 123.19163 C 33.958755 121.353245 30.208448 118.808919 26.958182 115.57336 C 23.707915 112.323093 21.178296 108.572786 19.369325 104.307731 C 17.545646 100.027969 16.648514 95.483479 16.648514 90.659555 C 16.648514 85.747388 17.545646 81.188191 19.369325 76.95255 C 21.178296 72.716909 23.707915 68.981309 26.958182 65.74575 C 30.208448 62.495483 33.958755 59.965864 38.22381 58.156893 C 42.488865 56.333214 47.048062 55.421375 51.871987 55.421375 C 56.769446 55.421375 61.34335 56.333214 65.578991 58.156893 C 69.82934 59.965864 73.56494 62.495483 76.785792 65.74575 C 80.036058 68.981309 82.565677 72.716909 84.374648 76.95255 C 86.213034 81.188191 87.124874 85.747388 87.124874 90.659555 C 87.124874 95.483479 86.213034 100.027969 84.374648 104.307731 C 82.565677 108.572786 80.036058 112.323093 76.785792 115.57336 C 73.56494 118.808919 69.82934 121.353245 65.578991 123.19163 C 61.34335 125.000602 56.769446 125.912442 51.871987 125.912442 Z M 51.871987 84.600235 C 50.210086 84.600235 48.783498 85.203225 47.577517 86.394499 C 46.40095 87.571066 45.812667 88.997654 45.812667 90.659555 C 45.812667 92.321455 46.40095 93.748043 47.577517 94.939317 C 48.783498 96.115884 50.210086 96.704167 51.871987 96.704167 C 53.533887 96.704167 54.945768 96.115884 56.122335 94.939317 C 57.328316 93.748043 57.931306 92.321455 57.931306 90.659555 C 57.931306 88.997654 57.328316 87.571066 56.122335 86.394499 C 54.945768 85.203225 53.533887 84.600235 51.871987 84.600235 Z M 51.871987 84.600235 " stroke="#fff9f9" stroke-width="8.900025" stroke-opacity="1" stroke-miterlimit="4"/><g fill="#171616" fill-opacity="1"><g transform="translate(43.088502, 56.163924)"><g><path d="M 9.609375 0.5 C 8.328125 0.5 7.117188 0.257812 5.984375 -0.21875 C 4.847656 -0.707031 3.847656 -1.378906 2.984375 -2.234375 C 2.128906 -3.097656 1.457031 -4.097656 0.96875 -5.234375 C 0.488281 -6.367188 0.25 -7.578125 0.25 -8.859375 C 0.25 -10.160156 0.488281 -11.375 0.96875 -12.5 C 1.457031 -13.625 2.128906 -14.613281 2.984375 -15.46875 C 3.847656 -16.332031 4.847656 -17.003906 5.984375 -17.484375 C 7.117188 -17.972656 8.328125 -18.21875 9.609375 -18.21875 C 10.910156 -18.21875 12.125 -17.972656 13.25 -17.484375 C 14.375 -17.003906 15.363281 -16.332031 16.21875 -15.46875 C 17.082031 -14.613281 17.753906 -13.625 18.234375 -12.5 C 18.722656 -11.375 18.96875 -10.160156 18.96875 -8.859375 C 18.96875 -7.578125 18.722656 -6.367188 18.234375 -5.234375 C 17.753906 -4.097656 17.082031 -3.097656 16.21875 -2.234375 C 15.363281 -1.378906 14.375 -0.707031 13.25 -0.21875 C 12.125 0.257812 10.910156 0.5 9.609375 0.5 Z M 9.609375 -10.46875 C 9.171875 -10.46875 8.789062 -10.304688 8.46875 -9.984375 C 8.15625 -9.671875 8 -9.296875 8 -8.859375 C 8 -8.410156 8.15625 -8.03125 8.46875 -7.71875 C 8.789062 -7.40625 9.171875 -7.25 9.609375 -7.25 C 10.054688 -7.25 10.4375 -7.40625 10.75 -7.71875 C 11.0625 -8.03125 11.21875 -8.410156 11.21875 -8.859375 C 11.21875 -9.296875 11.0625 -9.671875 10.75 -9.984375 C 10.4375 -10.304688 10.054688 -10.46875 9.609375 -10.46875 Z M 9.609375 -10.46875 "/></g></g></g><g fill="#171616" fill-opacity="1"><g transform="translate(60.229772, 56.163924)"><g><path d="M 8.03125 0 L 0.28125 0 L 0.28125 -9.078125 C 0.28125 -10.628906 0.535156 -11.984375 1.046875 -13.140625 C 1.566406 -14.296875 2.257812 -15.253906 3.125 -16.015625 C 4 -16.785156 4.976562 -17.359375 6.0625 -17.734375 C 7.144531 -18.117188 8.253906 -18.3125 9.390625 -18.3125 C 10.523438 -18.3125 11.640625 -18.117188 12.734375 -17.734375 C 13.828125 -17.359375 14.800781 -16.785156 15.65625 -16.015625 C 16.519531 -15.253906 17.207031 -14.296875 17.71875 -13.140625 C 18.238281 -11.984375 18.5 -10.628906 18.5 -9.078125 L 18.5 0 L 10.75 0 L 10.75 -9.078125 C 10.75 -9.535156 10.609375 -9.894531 10.328125 -10.15625 C 10.054688 -10.425781 9.742188 -10.5625 9.390625 -10.5625 C 9.054688 -10.5625 8.742188 -10.425781 8.453125 -10.15625 C 8.171875 -9.894531 8.03125 -9.535156 8.03125 -9.078125 Z M 8.03125 0 "/></g></g></g><g fill="#171616" fill-opacity="1"><g transform="translate(59.886561, 36.271609)"><g><path d="M 1.828125 -1.078125 C 1.648438 -0.960938 1.453125 -0.867188 1.234375 -0.796875 C 1.023438 -0.722656 0.816406 -0.679688 0.609375 -0.671875 C 0.398438 -0.671875 0.191406 -0.71875 -0.015625 -0.8125 C -0.222656 -0.90625 -0.410156 -1.066406 -0.578125 -1.296875 L 0.125 -1.75 C 0.28125 -1.601562 0.429688 -1.507812 0.578125 -1.46875 C 0.734375 -1.425781 0.882812 -1.425781 1.03125 -1.46875 C 1.175781 -1.519531 1.3125 -1.585938 1.4375 -1.671875 C 1.613281 -1.785156 1.742188 -1.921875 1.828125 -2.078125 C 1.910156 -2.242188 1.894531 -2.414062 1.78125 -2.59375 C 1.695312 -2.71875 1.59375 -2.785156 1.46875 -2.796875 C 1.351562 -2.816406 1.210938 -2.800781 1.046875 -2.75 C 0.890625 -2.707031 0.722656 -2.65625 0.546875 -2.59375 C 0.378906 -2.53125 0.207031 -2.472656 0.03125 -2.421875 C -0.144531 -2.367188 -0.316406 -2.335938 -0.484375 -2.328125 C -0.660156 -2.316406 -0.820312 -2.347656 -0.96875 -2.421875 C -1.125 -2.503906 -1.265625 -2.640625 -1.390625 -2.828125 C -1.546875 -3.066406 -1.617188 -3.300781 -1.609375 -3.53125 C -1.597656 -3.757812 -1.519531 -3.976562 -1.375 -4.1875 C -1.226562 -4.394531 -1.035156 -4.578125 -0.796875 -4.734375 C -0.554688 -4.878906 -0.304688 -4.972656 -0.046875 -5.015625 C 0.203125 -5.066406 0.453125 -5.054688 0.703125 -4.984375 C 0.960938 -4.910156 1.195312 -4.75 1.40625 -4.5 L 0.703125 -4.0625 C 0.523438 -4.226562 0.335938 -4.304688 0.140625 -4.296875 C -0.0546875 -4.296875 -0.25 -4.238281 -0.4375 -4.125 C -0.613281 -4.007812 -0.734375 -3.878906 -0.796875 -3.734375 C -0.859375 -3.597656 -0.84375 -3.460938 -0.75 -3.328125 C -0.675781 -3.210938 -0.582031 -3.144531 -0.46875 -3.125 C -0.351562 -3.113281 -0.21875 -3.128906 -0.0625 -3.171875 C 0.0820312 -3.222656 0.238281 -3.28125 0.40625 -3.34375 C 0.59375 -3.40625 0.773438 -3.457031 0.953125 -3.5 C 1.140625 -3.550781 1.320312 -3.582031 1.5 -3.59375 C 1.675781 -3.601562 1.847656 -3.566406 2.015625 -3.484375 C 2.179688 -3.410156 2.332031 -3.265625 2.46875 -3.046875 C 2.6875 -2.710938 2.738281 -2.367188 2.625 -2.015625 C 2.519531 -1.660156 2.253906 -1.347656 1.828125 -1.078125 Z M 1.828125 -1.078125 "/></g></g></g><g fill="#171616" fill-opacity="1"><g transform="translate(63.934126, 33.883691)"><g><path d="M 2.140625 -0.46875 L 1.34375 -0.296875 L 0.578125 -3.8125 L -0.703125 -3.53125 L -0.859375 -4.25 L 2.515625 -4.984375 L 2.671875 -4.265625 L 1.375 -3.984375 Z M 2.140625 -0.46875 "/></g></g></g><g fill="#171616" fill-opacity="1"><g transform="translate(68.180178, 33.047808)"><g><path d="M 2.0625 0.390625 C 1.644531 0.328125 1.316406 0.207031 1.078125 0.03125 C 0.847656 -0.132812 0.691406 -0.347656 0.609375 -0.609375 C 0.535156 -0.878906 0.523438 -1.179688 0.578125 -1.515625 L 0.984375 -4.234375 L 1.78125 -4.109375 L 1.375 -1.390625 C 1.34375 -1.203125 1.34375 -1.035156 1.375 -0.890625 C 1.414062 -0.742188 1.5 -0.625 1.625 -0.53125 C 1.75 -0.4375 1.929688 -0.375 2.171875 -0.34375 C 2.390625 -0.3125 2.570312 -0.320312 2.71875 -0.375 C 2.863281 -0.425781 2.972656 -0.515625 3.046875 -0.640625 C 3.128906 -0.765625 3.1875 -0.921875 3.21875 -1.109375 L 3.625 -3.828125 L 4.421875 -3.71875 L 4.015625 -1 C 3.960938 -0.664062 3.863281 -0.382812 3.71875 -0.15625 C 3.570312 0.0703125 3.359375 0.234375 3.078125 0.328125 C 2.796875 0.429688 2.457031 0.453125 2.0625 0.390625 Z M 2.0625 0.390625 "/></g></g></g><g fill="#171616" fill-opacity="1"><g transform="translate(73.001408, 33.918657)"><g><path d="M 1.421875 0.828125 L 0.34375 0.203125 L 2.53125 -3.53125 L 3.609375 -2.90625 C 4.242188 -2.53125 4.628906 -2.082031 4.765625 -1.5625 C 4.910156 -1.039062 4.804688 -0.476562 4.453125 0.125 C 4.097656 0.71875 3.660156 1.078125 3.140625 1.203125 C 2.617188 1.328125 2.046875 1.203125 1.421875 0.828125 Z M 2.859375 -2.484375 L 1.40625 -0.03125 L 1.796875 0.1875 C 2.035156 0.332031 2.269531 0.421875 2.5 0.453125 C 2.726562 0.492188 2.953125 0.453125 3.171875 0.328125 C 3.390625 0.210938 3.585938 0.00390625 3.765625 -0.296875 C 3.941406 -0.585938 4.03125 -0.851562 4.03125 -1.09375 C 4.03125 -1.332031 3.960938 -1.550781 3.828125 -1.75 C 3.691406 -1.945312 3.5 -2.117188 3.25 -2.265625 Z M 2.859375 -2.484375 "/></g></g></g><g fill="#171616" fill-opacity="1"><g transform="translate(77.108312, 36.68941)"><g><path d="M 0.8125 0.875 L 0.265625 0.28125 L 3.4375 -2.65625 L 3.984375 -2.0625 Z M 0.8125 0.875 "/></g></g></g><g clip-path="url(#c528c32fe0)"><g fill="#171616" fill-opacity="1"><g transform="translate(78.846502, 38.410369)"><g><path d="M 0.90625 2.125 C 0.75 1.800781 0.671875 1.492188 0.671875 1.203125 C 0.671875 0.921875 0.726562 0.65625 0.84375 0.40625 C 0.96875 0.15625 1.132812 -0.0625 1.34375 -0.25 C 1.550781 -0.4375 1.789062 -0.59375 2.0625 -0.71875 C 2.320312 -0.84375 2.59375 -0.925781 2.875 -0.96875 C 3.15625 -1.007812 3.425781 -0.992188 3.6875 -0.921875 C 3.957031 -0.847656 4.195312 -0.71875 4.40625 -0.53125 C 4.625 -0.34375 4.8125 -0.0859375 4.96875 0.234375 C 5.113281 0.566406 5.191406 0.875 5.203125 1.15625 C 5.210938 1.445312 5.15625 1.710938 5.03125 1.953125 C 4.914062 2.203125 4.753906 2.421875 4.546875 2.609375 C 4.335938 2.796875 4.101562 2.953125 3.84375 3.078125 C 3.570312 3.203125 3.296875 3.285156 3.015625 3.328125 C 2.734375 3.367188 2.457031 3.351562 2.1875 3.28125 C 1.925781 3.21875 1.679688 3.09375 1.453125 2.90625 C 1.234375 2.71875 1.050781 2.457031 0.90625 2.125 Z M 1.578125 1.8125 C 1.691406 2.0625 1.84375 2.242188 2.03125 2.359375 C 2.226562 2.472656 2.453125 2.523438 2.703125 2.515625 C 2.953125 2.503906 3.210938 2.4375 3.484375 2.3125 C 3.742188 2.1875 3.957031 2.03125 4.125 1.84375 C 4.289062 1.664062 4.390625 1.46875 4.421875 1.25 C 4.460938 1.03125 4.425781 0.796875 4.3125 0.546875 C 4.195312 0.304688 4.039062 0.128906 3.84375 0.015625 C 3.65625 -0.0976562 3.4375 -0.148438 3.1875 -0.140625 C 2.9375 -0.128906 2.679688 -0.0625 2.421875 0.0625 C 2.148438 0.1875 1.929688 0.335938 1.765625 0.515625 C 1.597656 0.703125 1.492188 0.90625 1.453125 1.125 C 1.421875 1.34375 1.460938 1.570312 1.578125 1.8125 Z M 1.578125 1.8125 "/></g></g></g></g></svg>