<svg xmlns="http://www.w3.org/2000/svg" xmlns:xlink="http://www.w3.org/1999/xlink" width="240" zoomAndPan="magnify" viewBox="0 0 180 96.749999" height="129" preserveAspectRatio="xMidYMid meet" version="1.0"><defs><g/><clipPath id="49831e4605"><path d="M 9 10 L 39 10 L 39 27.113281 L 9 27.113281 Z M 9 10 " clip-rule="nonzero"/></clipPath><clipPath id="e8c62c60b4"><path d="M 0.230469 16 L 6 16 L 6 18 L 0.230469 18 Z M 0.230469 16 " clip-rule="nonzero"/></clipPath><clipPath id="91fa6fd9de"><path d="M 29 2.246094 L 32 2.246094 L 32 7 L 29 7 Z M 29 2.246094 " clip-rule="nonzero"/></clipPath></defs><g fill="#000000" fill-opacity="1"><g transform="translate(4.779884, 94.064919)"><g><path d="M 1.203125 0 L 7.828125 -68.671875 L 31.09375 -68.671875 L 37.65625 0 L 24.625 0 L 23.65625 -11.109375 L 15.34375 -11.109375 L 14.546875 0 Z M 16.390625 -22.0625 L 22.625 -22.0625 L 19.578125 -57 L 18.9375 -57 Z M 16.390625 -22.0625 "/></g></g></g><g fill="#000000" fill-opacity="1"><g transform="translate(43.544421, 94.064919)"><g><path d="M 3.03125 0 L 3.03125 -68.671875 L 16.78125 -68.671875 L 16.78125 -11.671875 L 30.9375 -11.671875 L 30.9375 0 Z M 3.03125 0 "/></g></g></g><g fill="#000000" fill-opacity="1"><g transform="translate(75.2754, 94.064919)"><g><path d="M 3.03125 0 L 3.03125 -68.671875 L 16.78125 -68.671875 L 16.78125 -11.671875 L 30.9375 -11.671875 L 30.9375 0 Z M 3.03125 0 "/></g></g></g><g fill="#000000" fill-opacity="1"><g transform="translate(107.006379, 94.064919)"><g><path d="M 3.03125 0 L 3.03125 -68.671875 L 30.53125 -68.671875 L 30.53125 -55.390625 L 17.03125 -55.390625 L 17.03125 -42.046875 L 29.96875 -42.046875 L 29.96875 -29.09375 L 17.03125 -29.09375 L 17.03125 -13.34375 L 31.421875 -13.34375 L 31.421875 0 Z M 3.03125 0 "/></g></g></g><g fill="#000000" fill-opacity="1"><g transform="translate(139.936259, 94.064919)"><g><path d="M 3.03125 0 L 3.03125 -68.671875 L 17.1875 -68.671875 L 23.5 -35.8125 L 23.5 -68.671875 L 36.765625 -68.671875 L 36.765625 0 L 23.34375 0 L 16.46875 -34.375 L 16.46875 0 Z M 3.03125 0 "/></g></g></g><path fill="#fccb1e" d="M 35.519531 26.152344 C 28.519531 25.121094 19.226562 24.96875 12.296875 26.410156 C 12.257812 22.324219 11.40625 18.292969 10.558594 14.296875 C 13.28125 16.785156 16.332031 18.910156 19.605469 20.597656 C 22.039062 17.855469 24.09375 14.394531 25.421875 11.453125 C 26.75 14.394531 28.808594 18.027344 30.472656 20.539062 C 33.125 18.152344 35.253906 15.730469 37.542969 13.652344 C 36.054688 18.402344 35.519531 22.410156 35.46875 26.257812 " fill-opacity="1" fill-rule="nonzero"/><g clip-path="url(#49831e4605)"><path fill="#100f0d" d="M 35.691406 25.53125 C 30.0625 24.773438 24.375 24.480469 18.707031 24.90625 C 16.84375 25.046875 13.847656 26.179688 12.851562 24.371094 C 12.996094 24.632812 12.304688 19.878906 12.347656 20.148438 C 12.027344 18.128906 11.59375 16.128906 11.175781 14.128906 C 10.820312 14.335938 10.464844 14.542969 10.109375 14.75 C 12.96875 17.25 15.941406 19.332031 19.285156 21.152344 C 19.515625 21.277344 19.875 21.273438 20.058594 21.050781 C 21.042969 19.863281 21.566406 19.261719 22.449219 17.984375 C 22.726562 17.589844 24.882812 13.402344 25.25 13.285156 C 25.683594 13.144531 29.410156 20.0625 29.921875 20.863281 C 30.148438 21.21875 30.613281 21.28125 30.921875 20.992188 C 33.335938 18.753906 35.59375 16.359375 37.992188 14.105469 C 37.636719 13.898438 37.28125 13.6875 36.925781 13.480469 C 35.691406 17.714844 34.972656 21.851562 34.832031 26.257812 C 34.804688 27.085938 36.082031 27.082031 36.105469 26.257812 C 36.242188 21.984375 36.960938 17.921875 38.15625 13.820312 C 38.339844 13.1875 37.542969 12.773438 37.089844 13.199219 C 35.8125 14.402344 32.386719 19.023438 30.734375 18.882812 C 28.910156 18.726562 26.71875 12.707031 25.972656 11.132812 C 25.773438 10.710938 25.070312 10.714844 24.871094 11.132812 C 23.6875 13.59375 22.386719 17.066406 19.828125 18.25 C 17.75 19.214844 17.8125 18.953125 15.964844 17.703125 C 14.226562 16.53125 12.589844 15.226562 11.011719 13.84375 C 10.523438 13.421875 9.808594 13.828125 9.945312 14.46875 C 10.777344 18.433594 11.496094 22.351562 11.660156 26.410156 C 11.675781 26.851562 12.050781 27.105469 12.464844 27.027344 C 20.003906 25.617188 27.773438 25.746094 35.351562 26.769531 C 36.15625 26.878906 36.503906 25.640625 35.691406 25.53125 " fill-opacity="1" fill-rule="nonzero"/></g><path fill="#faf783" d="M 25.210938 12.121094 C 25.96875 12.25 26.804688 11.960938 27.238281 11.328125 C 27.671875 10.691406 27.597656 9.726562 27.007812 9.238281 C 26.730469 9.011719 26.375 8.898438 26.019531 8.875 C 24.839844 8.78125 23.667969 9.71875 23.488281 10.898438 C 23.460938 11.085938 23.457031 11.285156 23.53125 11.457031 C 23.640625 11.714844 23.902344 11.871094 24.15625 11.984375 C 24.6875 12.222656 25.265625 12.351562 25.847656 12.363281 " fill-opacity="1" fill-rule="nonzero"/><path fill="#100f0d" d="M 25.210938 12.601562 C 26.488281 12.75 27.851562 11.988281 27.980469 10.613281 C 28.105469 9.261719 27.007812 8.316406 25.707031 8.394531 C 24.425781 8.472656 23.25 9.488281 23.027344 10.769531 C 22.75 12.367188 24.636719 12.785156 25.847656 12.84375 C 26.460938 12.875 26.460938 11.914062 25.847656 11.882812 C 25.1875 11.851562 23.722656 11.683594 24.023438 10.71875 C 24.246094 10 24.929688 9.449219 25.671875 9.363281 C 26.460938 9.273438 27.210938 9.804688 27.007812 10.671875 C 26.816406 11.484375 25.9375 11.726562 25.210938 11.640625 C 24.601562 11.570312 24.605469 12.53125 25.210938 12.601562 " fill-opacity="1" fill-rule="nonzero"/><path fill="#faf783" d="M 37.082031 13.558594 C 37.371094 13.75 37.6875 13.90625 38.015625 14.015625 C 38.636719 14.230469 39.355469 14.277344 39.921875 13.941406 C 40.484375 13.605469 40.792969 12.800781 40.433594 12.25 C 40.3125 12.0625 40.136719 11.921875 39.957031 11.792969 C 39.46875 11.441406 38.902344 11.128906 38.304688 11.164062 C 38.019531 11.179688 37.746094 11.277344 37.488281 11.394531 C 37.191406 11.527344 36.894531 11.714844 36.75 12.007812 C 36.566406 12.382812 36.6875 12.851562 36.957031 13.171875 C 37.222656 13.492188 37.605469 13.683594 37.992188 13.835938 " fill-opacity="1" fill-rule="nonzero"/><path fill="#100f0d" d="M 36.839844 13.972656 C 37.917969 14.636719 39.566406 15.09375 40.5625 14.03125 C 41.566406 12.957031 40.890625 11.757812 39.820312 11.125 C 38.789062 10.515625 37.277344 10.519531 36.476562 11.550781 C 35.554688 12.742188 36.839844 13.878906 37.867188 14.300781 C 38.4375 14.535156 38.683594 13.601562 38.121094 13.371094 C 37.324219 13.042969 36.691406 12.203125 37.8125 11.773438 C 38.4375 11.535156 38.988281 11.710938 39.53125 12.078125 C 40.207031 12.539062 40.289062 13.382812 39.394531 13.648438 C 38.683594 13.859375 37.917969 13.511719 37.324219 13.140625 C 36.796875 12.816406 36.316406 13.648438 36.839844 13.972656 " fill-opacity="1" fill-rule="nonzero"/><path fill="#faf783" d="M 10.710938 14.558594 C 11.375 14.171875 11.832031 13.445312 11.890625 12.671875 C 11.90625 12.5 11.898438 12.316406 11.820312 12.160156 C 11.757812 12.03125 11.652344 11.925781 11.535156 11.84375 C 11.066406 11.511719 10.425781 11.53125 9.882812 11.71875 C 9.492188 11.855469 9.128906 12.078125 8.824219 12.359375 C 8.578125 12.585938 8.367188 12.863281 8.273438 13.183594 C 8.179688 13.507812 8.214844 13.878906 8.421875 14.140625 C 8.628906 14.40625 8.972656 14.523438 9.304688 14.558594 C 10.050781 14.640625 10.828125 14.332031 11.320312 13.761719 " fill-opacity="1" fill-rule="nonzero"/><path fill="#100f0d" d="M 10.953125 14.972656 C 11.835938 14.40625 12.808594 13.011719 12.234375 11.917969 C 11.585938 10.683594 9.78125 11.066406 8.871094 11.710938 C 7.984375 12.335938 7.210938 13.71875 8.226562 14.621094 C 9.222656 15.511719 10.847656 14.953125 11.660156 14.101562 C 12.085938 13.65625 11.410156 12.976562 10.984375 13.421875 C 10.546875 13.878906 9.882812 14.226562 9.234375 14.066406 C 8.125 13.789062 9.03125 12.726562 9.5625 12.402344 C 10.011719 12.128906 11.28125 11.703125 11.414062 12.585938 C 11.507812 13.199219 10.929688 13.847656 10.46875 14.144531 C 9.949219 14.476562 10.429688 15.308594 10.953125 14.972656 " fill-opacity="1" fill-rule="nonzero"/><g clip-path="url(#e8c62c60b4)"><path fill="#100f0d" d="M 5.355469 16.851562 C 3.933594 16.585938 2.511719 16.320312 1.089844 16.054688 C 0.488281 15.941406 0.230469 16.867188 0.835938 16.980469 C 2.257812 17.246094 3.679688 17.511719 5.101562 17.777344 C 5.703125 17.890625 5.960938 16.964844 5.355469 16.851562 " fill-opacity="1" fill-rule="nonzero"/></g><path fill="#100f0d" d="M 7.613281 9.214844 C 6.882812 8.230469 5.964844 7.515625 4.835938 7.050781 C 4.265625 6.816406 4.019531 7.746094 4.582031 7.980469 C 5.453125 8.339844 6.21875 8.9375 6.785156 9.699219 C 7.148438 10.1875 7.980469 9.710938 7.613281 9.214844 " fill-opacity="1" fill-rule="nonzero"/><path fill="#100f0d" d="M 18.265625 6.90625 C 18.160156 5.742188 18.019531 4.582031 17.84375 3.425781 C 17.75 2.816406 16.828125 3.074219 16.921875 3.679688 C 17.082031 4.753906 17.210938 5.824219 17.308594 6.90625 C 17.363281 7.515625 18.320312 7.523438 18.265625 6.90625 " fill-opacity="1" fill-rule="nonzero"/><g clip-path="url(#91fa6fd9de)"><path fill="#100f0d" d="M 30.539062 6.214844 C 30.625 5.160156 30.804688 4.125 31.074219 3.097656 C 31.230469 2.5 30.308594 2.246094 30.152344 2.84375 C 29.863281 3.949219 29.675781 5.074219 29.582031 6.214844 C 29.53125 6.832031 30.488281 6.828125 30.539062 6.214844 " fill-opacity="1" fill-rule="nonzero"/></g><path fill="#100f0d" d="M 39.691406 7.414062 C 40.601562 6.960938 41.507812 6.503906 42.417969 6.050781 C 42.96875 5.777344 42.484375 4.945312 41.933594 5.222656 C 41.027344 5.675781 40.117188 6.128906 39.207031 6.582031 C 38.65625 6.859375 39.140625 7.6875 39.691406 7.414062 " fill-opacity="1" fill-rule="nonzero"/><path fill="#100f0d" d="M 43.871094 14.570312 C 44.722656 14.570312 45.574219 14.570312 46.421875 14.570312 C 47.039062 14.570312 47.039062 13.609375 46.421875 13.609375 C 45.574219 13.609375 44.722656 13.609375 43.871094 13.609375 C 43.253906 13.609375 43.253906 14.570312 43.871094 14.570312 " fill-opacity="1" fill-rule="nonzero"/><path fill="#100f0d" d="M 43.316406 20.636719 C 43.941406 20.546875 44.566406 20.457031 45.1875 20.367188 C 45.796875 20.277344 45.539062 19.351562 44.933594 19.4375 C 44.308594 19.527344 43.6875 19.617188 43.0625 19.707031 C 42.457031 19.796875 42.714844 20.722656 43.316406 20.636719 " fill-opacity="1" fill-rule="nonzero"/></svg>