<svg xmlns="http://www.w3.org/2000/svg" xmlns:xlink="http://www.w3.org/1999/xlink" width="112" zoomAndPan="magnify" viewBox="0 0 84 81.749997" height="109" preserveAspectRatio="xMidYMid meet" version="1.0"><defs><g/><clipPath id="af847c472d"><path d="M 70 31 L 79 31 L 79 41 L 70 41 Z M 70 31 " clip-rule="nonzero"/></clipPath><clipPath id="6207bf2d2a"><path d="M 68.5 33.097656 L 74.667969 27.394531 L 83.21875 36.648438 L 77.050781 42.351562 Z M 68.5 33.097656 " clip-rule="nonzero"/></clipPath><clipPath id="277e21d7bb"><path d="M 68.5 33.097656 L 74.667969 27.394531 L 83.21875 36.648438 L 77.050781 42.351562 Z M 68.5 33.097656 " clip-rule="nonzero"/></clipPath><clipPath id="c6e8e8da3e"><path d="M 74 27 L 83 27 L 83 37 L 74 37 Z M 74 27 " clip-rule="nonzero"/></clipPath><clipPath id="9d6c40bc34"><path d="M 72.785156 29.136719 L 78.953125 23.433594 L 87.503906 32.6875 L 81.335938 38.386719 Z M 72.785156 29.136719 " clip-rule="nonzero"/></clipPath><clipPath id="0cadc3a798"><path d="M 72.785156 29.136719 L 78.953125 23.433594 L 87.503906 32.6875 L 81.335938 38.386719 Z M 72.785156 29.136719 " clip-rule="nonzero"/></clipPath></defs><g clip-path="url(#af847c472d)"><g clip-path="url(#6207bf2d2a)"><g clip-path="url(#277e21d7bb)"><path fill="#18cb96" d="M 78.617188 32.109375 L 71.382812 31.785156 C 69.984375 31.722656 69.75 34.445312 71.40625 34.492188 L 75.90625 34.613281 L 75.5625 39.140625 C 75.457031 40.519531 78.148438 40.667969 78.222656 39.265625 Z M 78.617188 32.109375 " fill-opacity="1" fill-rule="nonzero"/></g></g></g><g clip-path="url(#c6e8e8da3e)"><g clip-path="url(#9d6c40bc34)"><g clip-path="url(#0cadc3a798)"><path fill="#18cb96" d="M 82.902344 28.144531 L 75.667969 27.824219 C 74.269531 27.761719 74.035156 30.484375 75.691406 30.527344 L 80.191406 30.652344 L 79.847656 35.179688 C 79.742188 36.558594 82.433594 36.707031 82.511719 35.304688 Z M 82.902344 28.144531 " fill-opacity="1" fill-rule="nonzero"/></g></g></g><g fill="#373643" fill-opacity="1"><g transform="translate(1.461243, 47.717617)"><g><path d="M 6.15625 -1.921875 C 6.570312 -1.921875 6.984375 -1.976562 7.390625 -2.09375 C 7.796875 -2.207031 8.171875 -2.398438 8.515625 -2.671875 C 8.835938 -2.972656 9.15625 -3.113281 9.46875 -3.09375 C 9.789062 -3.070312 10.054688 -2.957031 10.265625 -2.75 C 10.472656 -2.539062 10.578125 -2.28125 10.578125 -1.96875 C 10.578125 -1.664062 10.425781 -1.367188 10.125 -1.078125 C 9.625 -0.585938 9.023438 -0.242188 8.328125 -0.046875 C 7.640625 0.140625 6.941406 0.226562 6.234375 0.21875 C 5.109375 0.21875 4.117188 -0.0078125 3.265625 -0.46875 C 2.410156 -0.925781 1.738281 -1.566406 1.25 -2.390625 C 0.769531 -3.210938 0.53125 -4.160156 0.53125 -5.234375 C 0.53125 -6.410156 0.757812 -7.441406 1.21875 -8.328125 C 1.6875 -9.222656 2.335938 -9.921875 3.171875 -10.421875 C 4.015625 -10.929688 5.007812 -11.1875 6.15625 -11.1875 C 7.3125 -11.1875 8.289062 -10.953125 9.09375 -10.484375 C 9.894531 -10.015625 10.507812 -9.359375 10.9375 -8.515625 C 11.363281 -7.679688 11.578125 -6.703125 11.578125 -5.578125 C 11.578125 -5.222656 11.503906 -4.914062 11.359375 -4.65625 C 11.210938 -4.40625 10.832031 -4.28125 10.21875 -4.28125 L 3.03125 -4.28125 C 3.238281 -3.582031 3.617188 -3.015625 4.171875 -2.578125 C 4.734375 -2.140625 5.394531 -1.921875 6.15625 -1.921875 Z M 6.1875 -9.046875 C 5.351562 -9.046875 4.65625 -8.785156 4.09375 -8.265625 C 3.53125 -7.742188 3.171875 -7.054688 3.015625 -6.203125 L 9.28125 -6.203125 C 9.207031 -7.054688 8.925781 -7.742188 8.4375 -8.265625 C 7.957031 -8.785156 7.207031 -9.046875 6.1875 -9.046875 Z M 6.1875 -9.046875 "/></g></g></g><g fill="#373643" fill-opacity="1"><g transform="translate(13.981586, 47.717617)"><g><path d="M 3.203125 -1.078125 C 3.203125 -0.785156 3.082031 -0.53125 2.84375 -0.3125 C 2.613281 -0.101562 2.328125 0 1.984375 0 C 1.617188 0 1.320312 -0.101562 1.09375 -0.3125 C 0.863281 -0.53125 0.75 -0.785156 0.75 -1.078125 L 0.75 -12.859375 C 0.75 -13.148438 0.863281 -13.398438 1.09375 -13.609375 C 1.320312 -13.828125 1.617188 -13.9375 1.984375 -13.9375 C 2.328125 -13.9375 2.613281 -13.828125 2.84375 -13.609375 C 3.082031 -13.398438 3.203125 -13.148438 3.203125 -12.859375 Z M 3.203125 -1.078125 "/></g></g></g><g fill="#373643" fill-opacity="1"><g transform="translate(17.515589, 47.717617)"><g><path d="M 6.15625 -1.921875 C 6.570312 -1.921875 6.984375 -1.976562 7.390625 -2.09375 C 7.796875 -2.207031 8.171875 -2.398438 8.515625 -2.671875 C 8.835938 -2.972656 9.15625 -3.113281 9.46875 -3.09375 C 9.789062 -3.070312 10.054688 -2.957031 10.265625 -2.75 C 10.472656 -2.539062 10.578125 -2.28125 10.578125 -1.96875 C 10.578125 -1.664062 10.425781 -1.367188 10.125 -1.078125 C 9.625 -0.585938 9.023438 -0.242188 8.328125 -0.046875 C 7.640625 0.140625 6.941406 0.226562 6.234375 0.21875 C 5.109375 0.21875 4.117188 -0.0078125 3.265625 -0.46875 C 2.410156 -0.925781 1.738281 -1.566406 1.25 -2.390625 C 0.769531 -3.210938 0.53125 -4.160156 0.53125 -5.234375 C 0.53125 -6.410156 0.757812 -7.441406 1.21875 -8.328125 C 1.6875 -9.222656 2.335938 -9.921875 3.171875 -10.421875 C 4.015625 -10.929688 5.007812 -11.1875 6.15625 -11.1875 C 7.3125 -11.1875 8.289062 -10.953125 9.09375 -10.484375 C 9.894531 -10.015625 10.507812 -9.359375 10.9375 -8.515625 C 11.363281 -7.679688 11.578125 -6.703125 11.578125 -5.578125 C 11.578125 -5.222656 11.503906 -4.914062 11.359375 -4.65625 C 11.210938 -4.40625 10.832031 -4.28125 10.21875 -4.28125 L 3.03125 -4.28125 C 3.238281 -3.582031 3.617188 -3.015625 4.171875 -2.578125 C 4.734375 -2.140625 5.394531 -1.921875 6.15625 -1.921875 Z M 6.1875 -9.046875 C 5.351562 -9.046875 4.65625 -8.785156 4.09375 -8.265625 C 3.53125 -7.742188 3.171875 -7.054688 3.015625 -6.203125 L 9.28125 -6.203125 C 9.207031 -7.054688 8.925781 -7.742188 8.4375 -8.265625 C 7.957031 -8.785156 7.207031 -9.046875 6.1875 -9.046875 Z M 6.1875 -9.046875 "/></g></g></g><g fill="#373643" fill-opacity="1"><g transform="translate(30.035931, 47.717617)"><g><path d="M 0.015625 -9.34375 C -0.078125 -9.632812 -0.078125 -9.898438 0.015625 -10.140625 C 0.109375 -10.390625 0.265625 -10.585938 0.484375 -10.734375 C 0.703125 -10.890625 0.9375 -10.96875 1.1875 -10.96875 C 1.445312 -10.96875 1.671875 -10.898438 1.859375 -10.765625 C 2.054688 -10.628906 2.207031 -10.445312 2.3125 -10.21875 L 5.609375 -3.53125 L 8.90625 -10.234375 C 9.03125 -10.492188 9.195312 -10.679688 9.40625 -10.796875 C 9.613281 -10.910156 9.832031 -10.96875 10.0625 -10.96875 C 10.320312 -10.96875 10.554688 -10.898438 10.765625 -10.765625 C 10.972656 -10.628906 11.113281 -10.441406 11.1875 -10.203125 C 11.269531 -9.960938 11.234375 -9.6875 11.078125 -9.375 L 6.671875 -0.453125 C 6.578125 -0.265625 6.425781 -0.109375 6.21875 0.015625 C 6.019531 0.148438 5.800781 0.21875 5.5625 0.21875 C 5.082031 0.21875 4.722656 0.0078125 4.484375 -0.40625 Z M 0.015625 -9.34375 "/></g></g></g><g fill="#373643" fill-opacity="1"><g transform="translate(41.177076, 47.717617)"><g><path d="M 10.015625 -10.96875 C 10.390625 -10.96875 10.6875 -10.863281 10.90625 -10.65625 C 11.132812 -10.445312 11.25 -10.175781 11.25 -9.84375 L 11.25 -1.125 C 11.25 -0.789062 11.132812 -0.519531 10.90625 -0.3125 C 10.6875 -0.101562 10.390625 0 10.015625 0 C 9.660156 0 9.378906 -0.0820312 9.171875 -0.25 C 8.972656 -0.414062 8.851562 -0.632812 8.8125 -0.90625 C 8.320312 -0.519531 7.773438 -0.234375 7.171875 -0.046875 C 6.566406 0.128906 5.992188 0.21875 5.453125 0.21875 C 4.421875 0.21875 3.523438 -0.015625 2.765625 -0.484375 C 2.015625 -0.960938 1.4375 -1.632812 1.03125 -2.5 C 0.632812 -3.363281 0.4375 -4.367188 0.4375 -5.515625 C 0.4375 -6.640625 0.65625 -7.625 1.09375 -8.46875 C 1.539062 -9.3125 2.160156 -9.972656 2.953125 -10.453125 C 3.753906 -10.941406 4.679688 -11.1875 5.734375 -11.1875 C 6.191406 -11.1875 6.703125 -11.097656 7.265625 -10.921875 C 7.828125 -10.753906 8.34375 -10.484375 8.8125 -10.109375 C 8.875 -10.367188 9.003906 -10.578125 9.203125 -10.734375 C 9.398438 -10.890625 9.671875 -10.96875 10.015625 -10.96875 Z M 5.703125 -1.953125 C 6.335938 -1.953125 6.945312 -2.09375 7.53125 -2.375 C 8.125 -2.65625 8.546875 -3.070312 8.796875 -3.625 L 8.796875 -7.34375 C 8.515625 -7.875 8.101562 -8.28125 7.5625 -8.5625 C 7.019531 -8.851562 6.46875 -9 5.90625 -9 C 5 -9 4.269531 -8.671875 3.71875 -8.015625 C 3.164062 -7.359375 2.890625 -6.519531 2.890625 -5.5 C 2.890625 -4.4375 3.144531 -3.578125 3.65625 -2.921875 C 4.175781 -2.273438 4.859375 -1.953125 5.703125 -1.953125 Z M 5.703125 -1.953125 "/></g></g></g><g fill="#373643" fill-opacity="1"><g transform="translate(53.632768, 47.717617)"><g><path d="M 5.921875 -2.046875 C 6.253906 -2.234375 6.550781 -2.296875 6.8125 -2.234375 C 7.082031 -2.179688 7.300781 -2.054688 7.46875 -1.859375 C 7.632812 -1.671875 7.71875 -1.445312 7.71875 -1.1875 C 7.71875 -1 7.660156 -0.8125 7.546875 -0.625 C 7.429688 -0.4375 7.25 -0.28125 7 -0.15625 C 6.6875 0.0195312 6.398438 0.125 6.140625 0.15625 C 5.878906 0.195312 5.578125 0.21875 5.234375 0.21875 C 4.296875 0.21875 3.578125 0.0234375 3.078125 -0.359375 C 2.578125 -0.753906 2.234375 -1.257812 2.046875 -1.875 C 1.859375 -2.488281 1.765625 -3.140625 1.765625 -3.828125 L 1.765625 -8.921875 L 0.953125 -8.921875 C 0.546875 -8.921875 0.242188 -9.023438 0.046875 -9.234375 C -0.140625 -9.453125 -0.234375 -9.6875 -0.234375 -9.9375 C -0.234375 -10.195312 -0.132812 -10.429688 0.0625 -10.640625 C 0.257812 -10.859375 0.554688 -10.96875 0.953125 -10.96875 L 1.765625 -10.96875 L 1.765625 -12.828125 C 1.765625 -13.191406 1.882812 -13.46875 2.125 -13.65625 C 2.375 -13.84375 2.65625 -13.9375 2.96875 -13.9375 C 3.269531 -13.9375 3.550781 -13.84375 3.8125 -13.65625 C 4.070312 -13.46875 4.203125 -13.191406 4.203125 -12.828125 L 4.203125 -10.96875 L 5.875 -10.96875 C 6.25 -10.96875 6.535156 -10.859375 6.734375 -10.640625 C 6.941406 -10.429688 7.046875 -10.195312 7.046875 -9.9375 C 7.046875 -9.675781 6.941406 -9.441406 6.734375 -9.234375 C 6.535156 -9.023438 6.25 -8.921875 5.875 -8.921875 L 4.203125 -8.921875 L 4.203125 -3.828125 C 4.203125 -3.515625 4.222656 -3.210938 4.265625 -2.921875 C 4.304688 -2.628906 4.398438 -2.382812 4.546875 -2.1875 C 4.703125 -1.988281 4.929688 -1.890625 5.234375 -1.890625 C 5.347656 -1.890625 5.472656 -1.90625 5.609375 -1.9375 C 5.742188 -1.976562 5.847656 -2.015625 5.921875 -2.046875 Z M 5.921875 -2.046875 "/></g></g></g><g fill="#373643" fill-opacity="1"><g transform="translate(61.110417, 47.717617)"><g><path d="M 6.15625 -1.921875 C 6.570312 -1.921875 6.984375 -1.976562 7.390625 -2.09375 C 7.796875 -2.207031 8.171875 -2.398438 8.515625 -2.671875 C 8.835938 -2.972656 9.15625 -3.113281 9.46875 -3.09375 C 9.789062 -3.070312 10.054688 -2.957031 10.265625 -2.75 C 10.472656 -2.539062 10.578125 -2.28125 10.578125 -1.96875 C 10.578125 -1.664062 10.425781 -1.367188 10.125 -1.078125 C 9.625 -0.585938 9.023438 -0.242188 8.328125 -0.046875 C 7.640625 0.140625 6.941406 0.226562 6.234375 0.21875 C 5.109375 0.21875 4.117188 -0.0078125 3.265625 -0.46875 C 2.410156 -0.925781 1.738281 -1.566406 1.25 -2.390625 C 0.769531 -3.210938 0.53125 -4.160156 0.53125 -5.234375 C 0.53125 -6.410156 0.757812 -7.441406 1.21875 -8.328125 C 1.6875 -9.222656 2.335938 -9.921875 3.171875 -10.421875 C 4.015625 -10.929688 5.007812 -11.1875 6.15625 -11.1875 C 7.3125 -11.1875 8.289062 -10.953125 9.09375 -10.484375 C 9.894531 -10.015625 10.507812 -9.359375 10.9375 -8.515625 C 11.363281 -7.679688 11.578125 -6.703125 11.578125 -5.578125 C 11.578125 -5.222656 11.503906 -4.914062 11.359375 -4.65625 C 11.210938 -4.40625 10.832031 -4.28125 10.21875 -4.28125 L 3.03125 -4.28125 C 3.238281 -3.582031 3.617188 -3.015625 4.171875 -2.578125 C 4.734375 -2.140625 5.394531 -1.921875 6.15625 -1.921875 Z M 6.1875 -9.046875 C 5.351562 -9.046875 4.65625 -8.785156 4.09375 -8.265625 C 3.53125 -7.742188 3.171875 -7.054688 3.015625 -6.203125 L 9.28125 -6.203125 C 9.207031 -7.054688 8.925781 -7.742188 8.4375 -8.265625 C 7.957031 -8.785156 7.207031 -9.046875 6.1875 -9.046875 Z M 6.1875 -9.046875 "/></g></g></g><g fill="#373643" fill-opacity="1"><g transform="translate(2.162024, 56.12203)"><g><path d="M 4.90625 -3.75 C 5.332031 -3.75 5.675781 -3.613281 5.9375 -3.34375 C 6.207031 -3.082031 6.34375 -2.6875 6.34375 -2.15625 L 6.34375 0 L 6.046875 0 L 6.046875 -2.140625 C 6.046875 -2.578125 5.9375 -2.910156 5.71875 -3.140625 C 5.507812 -3.378906 5.222656 -3.5 4.859375 -3.5 C 4.484375 -3.5 4.175781 -3.363281 3.9375 -3.09375 C 3.707031 -2.832031 3.59375 -2.453125 3.59375 -1.953125 L 3.59375 0 L 3.296875 0 L 3.296875 -2.140625 C 3.296875 -2.578125 3.191406 -2.910156 2.984375 -3.140625 C 2.773438 -3.378906 2.488281 -3.5 2.125 -3.5 C 1.738281 -3.5 1.429688 -3.363281 1.203125 -3.09375 C 0.972656 -2.832031 0.859375 -2.453125 0.859375 -1.953125 L 0.859375 0 L 0.5625 0 L 0.5625 -3.6875 L 0.859375 -3.6875 L 0.859375 -2.875 C 0.960938 -3.164062 1.128906 -3.382812 1.359375 -3.53125 C 1.597656 -3.675781 1.867188 -3.75 2.171875 -3.75 C 2.503906 -3.75 2.789062 -3.660156 3.03125 -3.484375 C 3.269531 -3.316406 3.4375 -3.0625 3.53125 -2.71875 C 3.613281 -3.0625 3.78125 -3.316406 4.03125 -3.484375 C 4.28125 -3.660156 4.570312 -3.75 4.90625 -3.75 Z M 4.90625 -3.75 "/></g></g></g><g fill="#373643" fill-opacity="1"><g transform="translate(8.77184, 56.12203)"><g><path d="M 0.359375 -1.84375 C 0.359375 -2.226562 0.4375 -2.5625 0.59375 -2.84375 C 0.75 -3.125 0.957031 -3.34375 1.21875 -3.5 C 1.488281 -3.65625 1.796875 -3.734375 2.140625 -3.734375 C 2.523438 -3.734375 2.851562 -3.632812 3.125 -3.4375 C 3.40625 -3.25 3.597656 -3.007812 3.703125 -2.71875 L 3.703125 -3.6875 L 4 -3.6875 L 4 0 L 3.703125 0 L 3.703125 -0.96875 C 3.597656 -0.664062 3.40625 -0.421875 3.125 -0.234375 C 2.851562 -0.046875 2.523438 0.046875 2.140625 0.046875 C 1.796875 0.046875 1.488281 -0.0234375 1.21875 -0.171875 C 0.957031 -0.328125 0.75 -0.550781 0.59375 -0.84375 C 0.4375 -1.132812 0.359375 -1.46875 0.359375 -1.84375 Z M 3.703125 -1.84375 C 3.703125 -2.164062 3.632812 -2.445312 3.5 -2.6875 C 3.363281 -2.9375 3.179688 -3.128906 2.953125 -3.265625 C 2.722656 -3.398438 2.46875 -3.46875 2.1875 -3.46875 C 1.882812 -3.46875 1.617188 -3.398438 1.390625 -3.265625 C 1.171875 -3.140625 0.992188 -2.953125 0.859375 -2.703125 C 0.734375 -2.460938 0.671875 -2.175781 0.671875 -1.84375 C 0.671875 -1.507812 0.734375 -1.21875 0.859375 -0.96875 C 0.992188 -0.726562 1.175781 -0.539062 1.40625 -0.40625 C 1.632812 -0.28125 1.894531 -0.21875 2.1875 -0.21875 C 2.46875 -0.21875 2.722656 -0.28125 2.953125 -0.40625 C 3.191406 -0.539062 3.375 -0.734375 3.5 -0.984375 C 3.632812 -1.234375 3.703125 -1.519531 3.703125 -1.84375 Z M 3.703125 -1.84375 "/></g></g></g><g fill="#373643" fill-opacity="1"><g transform="translate(13.076674, 56.12203)"><g><path d="M 0.859375 -2.921875 C 0.953125 -3.191406 1.113281 -3.394531 1.34375 -3.53125 C 1.570312 -3.675781 1.863281 -3.75 2.21875 -3.75 L 2.21875 -3.4375 L 2.125 -3.4375 C 1.757812 -3.4375 1.457031 -3.332031 1.21875 -3.125 C 0.976562 -2.925781 0.859375 -2.59375 0.859375 -2.125 L 0.859375 0 L 0.5625 0 L 0.5625 -3.6875 L 0.859375 -3.6875 Z M 0.859375 -2.921875 "/></g></g></g><g fill="#373643" fill-opacity="1"><g transform="translate(15.191768, 56.12203)"><g><path d="M 2.46875 0 L 0.859375 -1.6875 L 0.859375 0 L 0.5625 0 L 0.5625 -5.015625 L 0.859375 -5.015625 L 0.859375 -2.015625 L 2.4375 -3.6875 L 2.875 -3.6875 L 1.078125 -1.84375 L 2.890625 0 Z M 2.46875 0 "/></g></g></g><g fill="#373643" fill-opacity="1"><g transform="translate(17.896667, 56.12203)"><g><path d="M 3.875 -2.09375 C 3.875 -1.925781 3.867188 -1.800781 3.859375 -1.71875 L 0.671875 -1.71875 C 0.679688 -1.394531 0.753906 -1.117188 0.890625 -0.890625 C 1.023438 -0.660156 1.203125 -0.488281 1.421875 -0.375 C 1.648438 -0.257812 1.894531 -0.203125 2.15625 -0.203125 C 2.519531 -0.203125 2.820312 -0.289062 3.0625 -0.46875 C 3.3125 -0.65625 3.46875 -0.898438 3.53125 -1.203125 L 3.84375 -1.203125 C 3.769531 -0.828125 3.582031 -0.523438 3.28125 -0.296875 C 2.988281 -0.0664062 2.613281 0.046875 2.15625 0.046875 C 1.8125 0.046875 1.503906 -0.0234375 1.234375 -0.171875 C 0.960938 -0.328125 0.75 -0.546875 0.59375 -0.828125 C 0.4375 -1.117188 0.359375 -1.457031 0.359375 -1.84375 C 0.359375 -2.226562 0.4375 -2.5625 0.59375 -2.84375 C 0.75 -3.132812 0.960938 -3.351562 1.234375 -3.5 C 1.503906 -3.65625 1.8125 -3.734375 2.15625 -3.734375 C 2.507812 -3.734375 2.816406 -3.65625 3.078125 -3.5 C 3.335938 -3.351562 3.535156 -3.148438 3.671875 -2.890625 C 3.804688 -2.640625 3.875 -2.375 3.875 -2.09375 Z M 3.5625 -1.96875 C 3.582031 -2.300781 3.523438 -2.578125 3.390625 -2.796875 C 3.265625 -3.023438 3.085938 -3.191406 2.859375 -3.296875 C 2.640625 -3.410156 2.40625 -3.46875 2.15625 -3.46875 C 1.894531 -3.46875 1.65625 -3.410156 1.4375 -3.296875 C 1.21875 -3.191406 1.035156 -3.023438 0.890625 -2.796875 C 0.753906 -2.578125 0.679688 -2.300781 0.671875 -1.96875 Z M 3.5625 -1.96875 "/></g></g></g><g fill="#373643" fill-opacity="1"><g transform="translate(21.876089, 56.12203)"><g><path d="M 1.015625 -3.421875 L 1.015625 -0.984375 C 1.015625 -0.710938 1.0625 -0.523438 1.15625 -0.421875 C 1.257812 -0.316406 1.4375 -0.265625 1.6875 -0.265625 L 2.109375 -0.265625 L 2.109375 0 L 1.640625 0 C 1.316406 0 1.078125 -0.0703125 0.921875 -0.21875 C 0.773438 -0.375 0.703125 -0.628906 0.703125 -0.984375 L 0.703125 -3.421875 L 0.15625 -3.421875 L 0.15625 -3.6875 L 0.703125 -3.6875 L 0.703125 -4.625 L 1.015625 -4.625 L 1.015625 -3.6875 L 2.109375 -3.6875 L 2.109375 -3.421875 Z M 1.015625 -3.421875 "/></g></g></g><g fill="#373643" fill-opacity="1"><g transform="translate(23.970845, 56.12203)"><g><path d="M 0.71875 -4.5 C 0.644531 -4.5 0.582031 -4.519531 0.53125 -4.5625 C 0.476562 -4.613281 0.453125 -4.679688 0.453125 -4.765625 C 0.453125 -4.835938 0.476562 -4.898438 0.53125 -4.953125 C 0.582031 -5.003906 0.644531 -5.03125 0.71875 -5.03125 C 0.789062 -5.03125 0.847656 -5.003906 0.890625 -4.953125 C 0.941406 -4.898438 0.96875 -4.835938 0.96875 -4.765625 C 0.96875 -4.679688 0.941406 -4.613281 0.890625 -4.5625 C 0.847656 -4.519531 0.789062 -4.5 0.71875 -4.5 Z M 0.859375 -3.6875 L 0.859375 0 L 0.5625 0 L 0.5625 -3.6875 Z M 0.859375 -3.6875 "/></g></g></g><g fill="#373643" fill-opacity="1"><g transform="translate(25.136826, 56.12203)"><g><path d="M 2.21875 -3.75 C 2.65625 -3.75 3.007812 -3.613281 3.28125 -3.34375 C 3.5625 -3.082031 3.703125 -2.6875 3.703125 -2.15625 L 3.703125 0 L 3.40625 0 L 3.40625 -2.140625 C 3.40625 -2.578125 3.289062 -2.910156 3.0625 -3.140625 C 2.84375 -3.378906 2.546875 -3.5 2.171875 -3.5 C 1.773438 -3.5 1.457031 -3.367188 1.21875 -3.109375 C 0.976562 -2.859375 0.859375 -2.484375 0.859375 -1.984375 L 0.859375 0 L 0.5625 0 L 0.5625 -3.6875 L 0.859375 -3.6875 L 0.859375 -2.90625 C 0.960938 -3.175781 1.132812 -3.382812 1.375 -3.53125 C 1.625 -3.675781 1.90625 -3.75 2.21875 -3.75 Z M 2.21875 -3.75 "/></g></g></g><g fill="#373643" fill-opacity="1"><g transform="translate(29.10269, 56.12203)"><g><path d="M 2.140625 -3.734375 C 2.523438 -3.734375 2.851562 -3.640625 3.125 -3.453125 C 3.40625 -3.265625 3.597656 -3.019531 3.703125 -2.71875 L 3.703125 -3.6875 L 4 -3.6875 L 4 0.109375 C 4 0.453125 3.925781 0.75 3.78125 1 C 3.632812 1.257812 3.429688 1.457031 3.171875 1.59375 C 2.921875 1.726562 2.640625 1.796875 2.328125 1.796875 C 1.867188 1.796875 1.488281 1.6875 1.1875 1.46875 C 0.882812 1.25 0.6875 0.953125 0.59375 0.578125 L 0.890625 0.578125 C 0.984375 0.867188 1.15625 1.101562 1.40625 1.28125 C 1.65625 1.457031 1.960938 1.546875 2.328125 1.546875 C 2.585938 1.546875 2.820312 1.484375 3.03125 1.359375 C 3.238281 1.242188 3.398438 1.078125 3.515625 0.859375 C 3.640625 0.648438 3.703125 0.398438 3.703125 0.109375 L 3.703125 -0.96875 C 3.597656 -0.664062 3.40625 -0.421875 3.125 -0.234375 C 2.851562 -0.046875 2.523438 0.046875 2.140625 0.046875 C 1.796875 0.046875 1.488281 -0.0234375 1.21875 -0.171875 C 0.957031 -0.328125 0.75 -0.550781 0.59375 -0.84375 C 0.4375 -1.132812 0.359375 -1.46875 0.359375 -1.84375 C 0.359375 -2.226562 0.4375 -2.5625 0.59375 -2.84375 C 0.75 -3.125 0.957031 -3.34375 1.21875 -3.5 C 1.488281 -3.65625 1.796875 -3.734375 2.140625 -3.734375 Z M 3.703125 -1.84375 C 3.703125 -2.164062 3.632812 -2.445312 3.5 -2.6875 C 3.363281 -2.9375 3.179688 -3.128906 2.953125 -3.265625 C 2.722656 -3.398438 2.46875 -3.46875 2.1875 -3.46875 C 1.882812 -3.46875 1.617188 -3.398438 1.390625 -3.265625 C 1.171875 -3.140625 0.992188 -2.953125 0.859375 -2.703125 C 0.734375 -2.460938 0.671875 -2.175781 0.671875 -1.84375 C 0.671875 -1.507812 0.734375 -1.21875 0.859375 -0.96875 C 0.992188 -0.726562 1.175781 -0.539062 1.40625 -0.40625 C 1.632812 -0.28125 1.894531 -0.21875 2.1875 -0.21875 C 2.46875 -0.21875 2.722656 -0.28125 2.953125 -0.40625 C 3.191406 -0.539062 3.375 -0.734375 3.5 -0.984375 C 3.632812 -1.234375 3.703125 -1.519531 3.703125 -1.84375 Z M 3.703125 -1.84375 "/></g></g></g><g fill="#373643" fill-opacity="1"><g transform="translate(33.407523, 56.12203)"><g/></g></g><g fill="#373643" fill-opacity="1"><g transform="translate(35.061621, 56.12203)"><g><path d="M 1.015625 -3.421875 L 1.015625 -0.984375 C 1.015625 -0.710938 1.0625 -0.523438 1.15625 -0.421875 C 1.257812 -0.316406 1.4375 -0.265625 1.6875 -0.265625 L 2.109375 -0.265625 L 2.109375 0 L 1.640625 0 C 1.316406 0 1.078125 -0.0703125 0.921875 -0.21875 C 0.773438 -0.375 0.703125 -0.628906 0.703125 -0.984375 L 0.703125 -3.421875 L 0.15625 -3.421875 L 0.15625 -3.6875 L 0.703125 -3.6875 L 0.703125 -4.625 L 1.015625 -4.625 L 1.015625 -3.6875 L 2.109375 -3.6875 L 2.109375 -3.421875 Z M 1.015625 -3.421875 "/></g></g></g><g fill="#373643" fill-opacity="1"><g transform="translate(37.156376, 56.12203)"><g><path d="M 2.21875 -3.75 C 2.65625 -3.75 3.007812 -3.613281 3.28125 -3.34375 C 3.5625 -3.082031 3.703125 -2.6875 3.703125 -2.15625 L 3.703125 0 L 3.40625 0 L 3.40625 -2.140625 C 3.40625 -2.578125 3.289062 -2.910156 3.0625 -3.140625 C 2.84375 -3.378906 2.546875 -3.5 2.171875 -3.5 C 1.773438 -3.5 1.457031 -3.367188 1.21875 -3.109375 C 0.976562 -2.859375 0.859375 -2.484375 0.859375 -1.984375 L 0.859375 0 L 0.5625 0 L 0.5625 -5.015625 L 0.859375 -5.015625 L 0.859375 -2.90625 C 0.960938 -3.175781 1.132812 -3.382812 1.375 -3.53125 C 1.625 -3.675781 1.90625 -3.75 2.21875 -3.75 Z M 2.21875 -3.75 "/></g></g></g><g fill="#373643" fill-opacity="1"><g transform="translate(41.122241, 56.12203)"><g><path d="M 0.359375 -1.84375 C 0.359375 -2.226562 0.4375 -2.5625 0.59375 -2.84375 C 0.75 -3.125 0.957031 -3.34375 1.21875 -3.5 C 1.488281 -3.65625 1.796875 -3.734375 2.140625 -3.734375 C 2.523438 -3.734375 2.851562 -3.632812 3.125 -3.4375 C 3.40625 -3.25 3.597656 -3.007812 3.703125 -2.71875 L 3.703125 -3.6875 L 4 -3.6875 L 4 0 L 3.703125 0 L 3.703125 -0.96875 C 3.597656 -0.664062 3.40625 -0.421875 3.125 -0.234375 C 2.851562 -0.046875 2.523438 0.046875 2.140625 0.046875 C 1.796875 0.046875 1.488281 -0.0234375 1.21875 -0.171875 C 0.957031 -0.328125 0.75 -0.550781 0.59375 -0.84375 C 0.4375 -1.132812 0.359375 -1.46875 0.359375 -1.84375 Z M 3.703125 -1.84375 C 3.703125 -2.164062 3.632812 -2.445312 3.5 -2.6875 C 3.363281 -2.9375 3.179688 -3.128906 2.953125 -3.265625 C 2.722656 -3.398438 2.46875 -3.46875 2.1875 -3.46875 C 1.882812 -3.46875 1.617188 -3.398438 1.390625 -3.265625 C 1.171875 -3.140625 0.992188 -2.953125 0.859375 -2.703125 C 0.734375 -2.460938 0.671875 -2.175781 0.671875 -1.84375 C 0.671875 -1.507812 0.734375 -1.21875 0.859375 -0.96875 C 0.992188 -0.726562 1.175781 -0.539062 1.40625 -0.40625 C 1.632812 -0.28125 1.894531 -0.21875 2.1875 -0.21875 C 2.46875 -0.21875 2.722656 -0.28125 2.953125 -0.40625 C 3.191406 -0.539062 3.375 -0.734375 3.5 -0.984375 C 3.632812 -1.234375 3.703125 -1.519531 3.703125 -1.84375 Z M 3.703125 -1.84375 "/></g></g></g><g fill="#373643" fill-opacity="1"><g transform="translate(45.427074, 56.12203)"><g><path d="M 1.015625 -3.421875 L 1.015625 -0.984375 C 1.015625 -0.710938 1.0625 -0.523438 1.15625 -0.421875 C 1.257812 -0.316406 1.4375 -0.265625 1.6875 -0.265625 L 2.109375 -0.265625 L 2.109375 0 L 1.640625 0 C 1.316406 0 1.078125 -0.0703125 0.921875 -0.21875 C 0.773438 -0.375 0.703125 -0.628906 0.703125 -0.984375 L 0.703125 -3.421875 L 0.15625 -3.421875 L 0.15625 -3.6875 L 0.703125 -3.6875 L 0.703125 -4.625 L 1.015625 -4.625 L 1.015625 -3.6875 L 2.109375 -3.6875 L 2.109375 -3.421875 Z M 1.015625 -3.421875 "/></g></g></g><g fill="#373643" fill-opacity="1"><g transform="translate(47.521832, 56.12203)"><g/></g></g><g fill="#373643" fill-opacity="1"><g transform="translate(49.17593, 56.12203)"><g><path d="M 4.90625 -3.75 C 5.332031 -3.75 5.675781 -3.613281 5.9375 -3.34375 C 6.207031 -3.082031 6.34375 -2.6875 6.34375 -2.15625 L 6.34375 0 L 6.046875 0 L 6.046875 -2.140625 C 6.046875 -2.578125 5.9375 -2.910156 5.71875 -3.140625 C 5.507812 -3.378906 5.222656 -3.5 4.859375 -3.5 C 4.484375 -3.5 4.175781 -3.363281 3.9375 -3.09375 C 3.707031 -2.832031 3.59375 -2.453125 3.59375 -1.953125 L 3.59375 0 L 3.296875 0 L 3.296875 -2.140625 C 3.296875 -2.578125 3.191406 -2.910156 2.984375 -3.140625 C 2.773438 -3.378906 2.488281 -3.5 2.125 -3.5 C 1.738281 -3.5 1.429688 -3.363281 1.203125 -3.09375 C 0.972656 -2.832031 0.859375 -2.453125 0.859375 -1.953125 L 0.859375 0 L 0.5625 0 L 0.5625 -3.6875 L 0.859375 -3.6875 L 0.859375 -2.875 C 0.960938 -3.164062 1.128906 -3.382812 1.359375 -3.53125 C 1.597656 -3.675781 1.867188 -3.75 2.171875 -3.75 C 2.503906 -3.75 2.789062 -3.660156 3.03125 -3.484375 C 3.269531 -3.316406 3.4375 -3.0625 3.53125 -2.71875 C 3.613281 -3.0625 3.78125 -3.316406 4.03125 -3.484375 C 4.28125 -3.660156 4.570312 -3.75 4.90625 -3.75 Z M 4.90625 -3.75 "/></g></g></g><g fill="#373643" fill-opacity="1"><g transform="translate(55.785746, 56.12203)"><g><path d="M 0.359375 -1.84375 C 0.359375 -2.226562 0.4375 -2.5625 0.59375 -2.84375 C 0.75 -3.125 0.957031 -3.34375 1.21875 -3.5 C 1.488281 -3.65625 1.796875 -3.734375 2.140625 -3.734375 C 2.523438 -3.734375 2.851562 -3.632812 3.125 -3.4375 C 3.40625 -3.25 3.597656 -3.007812 3.703125 -2.71875 L 3.703125 -3.6875 L 4 -3.6875 L 4 0 L 3.703125 0 L 3.703125 -0.96875 C 3.597656 -0.664062 3.40625 -0.421875 3.125 -0.234375 C 2.851562 -0.046875 2.523438 0.046875 2.140625 0.046875 C 1.796875 0.046875 1.488281 -0.0234375 1.21875 -0.171875 C 0.957031 -0.328125 0.75 -0.550781 0.59375 -0.84375 C 0.4375 -1.132812 0.359375 -1.46875 0.359375 -1.84375 Z M 3.703125 -1.84375 C 3.703125 -2.164062 3.632812 -2.445312 3.5 -2.6875 C 3.363281 -2.9375 3.179688 -3.128906 2.953125 -3.265625 C 2.722656 -3.398438 2.46875 -3.46875 2.1875 -3.46875 C 1.882812 -3.46875 1.617188 -3.398438 1.390625 -3.265625 C 1.171875 -3.140625 0.992188 -2.953125 0.859375 -2.703125 C 0.734375 -2.460938 0.671875 -2.175781 0.671875 -1.84375 C 0.671875 -1.507812 0.734375 -1.21875 0.859375 -0.96875 C 0.992188 -0.726562 1.175781 -0.539062 1.40625 -0.40625 C 1.632812 -0.28125 1.894531 -0.21875 2.1875 -0.21875 C 2.46875 -0.21875 2.722656 -0.28125 2.953125 -0.40625 C 3.191406 -0.539062 3.375 -0.734375 3.5 -0.984375 C 3.632812 -1.234375 3.703125 -1.519531 3.703125 -1.84375 Z M 3.703125 -1.84375 "/></g></g></g><g fill="#373643" fill-opacity="1"><g transform="translate(60.090579, 56.12203)"><g><path d="M 1.015625 -3.421875 L 1.015625 -0.984375 C 1.015625 -0.710938 1.0625 -0.523438 1.15625 -0.421875 C 1.257812 -0.316406 1.4375 -0.265625 1.6875 -0.265625 L 2.109375 -0.265625 L 2.109375 0 L 1.640625 0 C 1.316406 0 1.078125 -0.0703125 0.921875 -0.21875 C 0.773438 -0.375 0.703125 -0.628906 0.703125 -0.984375 L 0.703125 -3.421875 L 0.15625 -3.421875 L 0.15625 -3.6875 L 0.703125 -3.6875 L 0.703125 -4.625 L 1.015625 -4.625 L 1.015625 -3.6875 L 2.109375 -3.6875 L 2.109375 -3.421875 Z M 1.015625 -3.421875 "/></g></g></g><g fill="#373643" fill-opacity="1"><g transform="translate(62.185335, 56.12203)"><g><path d="M 1.015625 -3.421875 L 1.015625 -0.984375 C 1.015625 -0.710938 1.0625 -0.523438 1.15625 -0.421875 C 1.257812 -0.316406 1.4375 -0.265625 1.6875 -0.265625 L 2.109375 -0.265625 L 2.109375 0 L 1.640625 0 C 1.316406 0 1.078125 -0.0703125 0.921875 -0.21875 C 0.773438 -0.375 0.703125 -0.628906 0.703125 -0.984375 L 0.703125 -3.421875 L 0.15625 -3.421875 L 0.15625 -3.6875 L 0.703125 -3.6875 L 0.703125 -4.625 L 1.015625 -4.625 L 1.015625 -3.6875 L 2.109375 -3.6875 L 2.109375 -3.421875 Z M 1.015625 -3.421875 "/></g></g></g><g fill="#373643" fill-opacity="1"><g transform="translate(64.28009, 56.12203)"><g><path d="M 3.875 -2.09375 C 3.875 -1.925781 3.867188 -1.800781 3.859375 -1.71875 L 0.671875 -1.71875 C 0.679688 -1.394531 0.753906 -1.117188 0.890625 -0.890625 C 1.023438 -0.660156 1.203125 -0.488281 1.421875 -0.375 C 1.648438 -0.257812 1.894531 -0.203125 2.15625 -0.203125 C 2.519531 -0.203125 2.820312 -0.289062 3.0625 -0.46875 C 3.3125 -0.65625 3.46875 -0.898438 3.53125 -1.203125 L 3.84375 -1.203125 C 3.769531 -0.828125 3.582031 -0.523438 3.28125 -0.296875 C 2.988281 -0.0664062 2.613281 0.046875 2.15625 0.046875 C 1.8125 0.046875 1.503906 -0.0234375 1.234375 -0.171875 C 0.960938 -0.328125 0.75 -0.546875 0.59375 -0.828125 C 0.4375 -1.117188 0.359375 -1.457031 0.359375 -1.84375 C 0.359375 -2.226562 0.4375 -2.5625 0.59375 -2.84375 C 0.75 -3.132812 0.960938 -3.351562 1.234375 -3.5 C 1.503906 -3.65625 1.8125 -3.734375 2.15625 -3.734375 C 2.507812 -3.734375 2.816406 -3.65625 3.078125 -3.5 C 3.335938 -3.351562 3.535156 -3.148438 3.671875 -2.890625 C 3.804688 -2.640625 3.875 -2.375 3.875 -2.09375 Z M 3.5625 -1.96875 C 3.582031 -2.300781 3.523438 -2.578125 3.390625 -2.796875 C 3.265625 -3.023438 3.085938 -3.191406 2.859375 -3.296875 C 2.640625 -3.410156 2.40625 -3.46875 2.15625 -3.46875 C 1.894531 -3.46875 1.65625 -3.410156 1.4375 -3.296875 C 1.21875 -3.191406 1.035156 -3.023438 0.890625 -2.796875 C 0.753906 -2.578125 0.679688 -2.300781 0.671875 -1.96875 Z M 3.5625 -1.96875 "/></g></g></g><g fill="#373643" fill-opacity="1"><g transform="translate(68.259513, 56.12203)"><g><path d="M 0.859375 -2.921875 C 0.953125 -3.191406 1.113281 -3.394531 1.34375 -3.53125 C 1.570312 -3.675781 1.863281 -3.75 2.21875 -3.75 L 2.21875 -3.4375 L 2.125 -3.4375 C 1.757812 -3.4375 1.457031 -3.332031 1.21875 -3.125 C 0.976562 -2.925781 0.859375 -2.59375 0.859375 -2.125 L 0.859375 0 L 0.5625 0 L 0.5625 -3.6875 L 0.859375 -3.6875 Z M 0.859375 -2.921875 "/></g></g></g><g fill="#373643" fill-opacity="1"><g transform="translate(70.374605, 56.12203)"><g><path d="M 1.78125 0.046875 C 1.375 0.046875 1.039062 -0.0390625 0.78125 -0.21875 C 0.519531 -0.394531 0.375 -0.648438 0.34375 -0.984375 L 0.65625 -0.984375 C 0.675781 -0.742188 0.785156 -0.550781 0.984375 -0.40625 C 1.179688 -0.269531 1.445312 -0.203125 1.78125 -0.203125 C 2.0625 -0.203125 2.285156 -0.273438 2.453125 -0.421875 C 2.617188 -0.566406 2.703125 -0.742188 2.703125 -0.953125 C 2.703125 -1.097656 2.65625 -1.210938 2.5625 -1.296875 C 2.476562 -1.390625 2.367188 -1.460938 2.234375 -1.515625 C 2.109375 -1.566406 1.929688 -1.625 1.703125 -1.6875 C 1.429688 -1.757812 1.210938 -1.828125 1.046875 -1.890625 C 0.878906 -1.960938 0.734375 -2.066406 0.609375 -2.203125 C 0.492188 -2.347656 0.4375 -2.539062 0.4375 -2.78125 C 0.4375 -2.945312 0.488281 -3.101562 0.59375 -3.25 C 0.695312 -3.394531 0.84375 -3.507812 1.03125 -3.59375 C 1.21875 -3.6875 1.425781 -3.734375 1.65625 -3.734375 C 2.039062 -3.734375 2.351562 -3.632812 2.59375 -3.4375 C 2.832031 -3.25 2.960938 -2.984375 2.984375 -2.640625 L 2.671875 -2.640625 C 2.660156 -2.890625 2.566406 -3.085938 2.390625 -3.234375 C 2.210938 -3.390625 1.96875 -3.46875 1.65625 -3.46875 C 1.394531 -3.46875 1.175781 -3.398438 1 -3.265625 C 0.832031 -3.128906 0.75 -2.96875 0.75 -2.78125 C 0.75 -2.601562 0.796875 -2.460938 0.890625 -2.359375 C 0.984375 -2.253906 1.101562 -2.171875 1.25 -2.109375 C 1.394531 -2.054688 1.582031 -2 1.8125 -1.9375 C 2.070312 -1.863281 2.28125 -1.796875 2.4375 -1.734375 C 2.59375 -1.671875 2.722656 -1.578125 2.828125 -1.453125 C 2.941406 -1.328125 3 -1.160156 3 -0.953125 C 3 -0.765625 2.945312 -0.59375 2.84375 -0.4375 C 2.738281 -0.28125 2.59375 -0.160156 2.40625 -0.078125 C 2.21875 0.00390625 2.007812 0.046875 1.78125 0.046875 Z M 1.78125 0.046875 "/></g></g></g></svg>