<svg xmlns="http://www.w3.org/2000/svg" xmlns:xlink="http://www.w3.org/1999/xlink" width="50" zoomAndPan="magnify" viewBox="0 0 37.5 30.000001" height="40" preserveAspectRatio="xMidYMid meet" version="1.0"><defs><clipPath id="178a1089a8"><path d="M 0.363281 0.777344 L 36.652344 0.777344 L 36.652344 28.359375 L 0.363281 28.359375 Z M 0.363281 0.777344 " clip-rule="nonzero"/></clipPath></defs><g clip-path="url(#178a1089a8)"><path fill="#000000" d="M 7.972656 9.558594 C 7.589844 9.328125 7.25 8.601562 7.304688 8.167969 C 7.332031 7.953125 7.46875 7.828125 7.660156 7.761719 C 7.867188 7.6875 8.078125 7.625 8.285156 7.550781 C 8.476562 7.484375 8.679688 7.457031 8.777344 7.214844 C 8.832031 7.078125 9.035156 7.066406 9.179688 7.027344 C 9.488281 6.949219 9.789062 6.722656 10.132812 6.949219 C 10.175781 6.980469 10.277344 6.933594 10.351562 6.914062 C 10.609375 6.84375 10.863281 6.757812 11.121094 6.691406 C 11.535156 6.582031 11.757812 6.695312 11.898438 7.097656 C 11.976562 7.3125 12.039062 7.535156 12.109375 7.753906 C 12.171875 7.949219 12.179688 8.128906 11.921875 8.300781 C 12.230469 8.28125 12.441406 8.179688 12.65625 8.117188 C 12.738281 8.09375 12.738281 8.015625 12.746094 7.953125 C 12.867188 6.992188 13.109375 6.039062 13.058594 5.074219 C 13.023438 4.40625 13.289062 3.898438 13.566406 3.359375 C 13.660156 3.179688 13.792969 3.058594 13.996094 3.011719 C 14.199219 2.960938 14.394531 2.867188 14.597656 2.828125 C 15.246094 2.71875 15.730469 2.214844 16.375 2.101562 C 16.578125 2.0625 16.777344 1.976562 16.980469 2.101562 C 17.058594 2.144531 17.128906 2.097656 17.203125 2.074219 C 17.367188 2.027344 17.539062 1.988281 17.691406 1.917969 C 18.167969 1.691406 18.558594 1.820312 19 2.078125 C 19.515625 2.378906 19.789062 2.863281 20.140625 3.292969 C 20.273438 3.453125 20.371094 3.511719 20.582031 3.445312 C 22.785156 2.769531 24.988281 2.101562 27.195312 1.445312 C 27.960938 1.21875 28.726562 0.976562 29.515625 0.824219 C 29.753906 0.78125 29.992188 0.78125 30.226562 0.808594 C 30.882812 0.882812 31.3125 1.292969 31.433594 2.003906 C 31.589844 2.921875 31.855469 3.808594 32.121094 4.699219 C 32.175781 4.894531 32.246094 4.949219 32.457031 4.921875 C 33.074219 4.828125 33.652344 4.960938 34.171875 5.320312 C 34.902344 5.828125 35.023438 6.664062 34.476562 7.371094 C 34.253906 7.65625 33.988281 7.882812 33.652344 8.015625 C 33.402344 8.117188 33.332031 8.261719 33.414062 8.53125 C 34.234375 11.226562 35.042969 13.925781 35.859375 16.621094 C 35.894531 16.738281 35.902344 16.847656 36.09375 16.816406 C 36.328125 16.777344 36.429688 16.960938 36.472656 17.164062 C 36.652344 18.003906 36.410156 18.425781 35.574219 18.761719 C 33.347656 19.660156 31.074219 20.421875 28.800781 21.183594 C 27.6875 21.558594 26.574219 21.933594 25.460938 22.3125 C 25.347656 22.351562 25.226562 22.394531 25.128906 22.46875 C 23.332031 23.789062 21.3125 24.339844 19.105469 24.242188 C 18.871094 24.234375 18.710938 24.355469 18.519531 24.425781 C 18.054688 24.59375 17.585938 24.765625 17.113281 24.921875 C 14.007812 25.929688 10.882812 26.886719 7.796875 27.953125 C 6.617188 28.359375 6.027344 27.636719 5.792969 26.777344 C 5.765625 26.679688 5.726562 26.550781 5.804688 26.476562 C 6.003906 26.285156 5.90625 26.09375 5.84375 25.902344 C 4.984375 23.238281 4.121094 20.574219 3.269531 17.910156 C 3.195312 17.679688 3.074219 17.636719 2.871094 17.6875 C 2.523438 17.765625 2.171875 17.796875 1.820312 17.75 C 0.886719 17.628906 0.363281 16.839844 0.640625 15.9375 C 0.875 15.175781 1.429688 14.6875 2.101562 14.320312 C 2.261719 14.234375 2.296875 14.164062 2.238281 13.992188 C 2.117188 13.617188 2.058594 13.226562 1.898438 12.851562 C 1.691406 12.355469 1.898438 11.859375 2.152344 11.40625 C 2.203125 11.3125 2.304688 11.296875 2.394531 11.265625 C 2.90625 11.105469 3.414062 10.941406 3.925781 10.785156 C 4.058594 10.746094 4.121094 10.707031 4.058594 10.554688 C 4.007812 10.421875 3.992188 10.273438 3.972656 10.132812 C 3.945312 9.945312 3.992188 9.765625 4.175781 9.699219 C 4.519531 9.582031 4.796875 9.335938 5.15625 9.25 C 5.515625 9.160156 5.878906 9.183594 6.238281 9.105469 C 6.515625 9.042969 6.640625 9.300781 6.722656 9.539062 C 6.808594 9.792969 6.980469 9.882812 7.238281 9.804688 C 7.449219 9.742188 7.65625 9.675781 7.867188 9.609375 C 7.894531 9.601562 7.917969 9.585938 7.972656 9.558594 Z M 26.910156 13.699219 C 25.675781 9.695312 21.535156 7.5 17.558594 8.703125 C 13.566406 9.90625 11.40625 13.925781 12.609375 17.898438 C 13.703125 21.507812 17.636719 24.269531 22.074219 22.910156 C 26.160156 21.65625 28.003906 17.230469 26.910156 13.699219 Z M 2.613281 13.128906 C 2.875 13.796875 3.128906 14.460938 3.292969 15.160156 C 3.363281 15.449219 3.445312 15.734375 3.609375 15.992188 C 3.695312 16.128906 3.792969 16.179688 3.964844 16.125 C 6.453125 15.347656 8.941406 14.574219 11.429688 13.800781 C 11.535156 13.769531 11.617188 13.738281 11.652344 13.609375 C 11.757812 13.191406 11.902344 12.777344 12.117188 12.40625 C 12.363281 11.984375 12.304688 11.527344 12.363281 11.0625 C 12.207031 11.101562 12.074219 11.136719 11.898438 11.179688 C 12.050781 11.050781 12.253906 11.082031 12.332031 10.875 C 12.167969 10.925781 12.03125 10.96875 11.878906 11.015625 C 11.902344 10.910156 12.03125 10.957031 12.046875 10.859375 C 11.914062 10.894531 11.785156 10.925781 11.660156 10.960938 C 11.910156 10.800781 12.234375 10.761719 12.398438 10.46875 C 11.476562 10.699219 10.621094 11.125 9.679688 11.285156 C 9.988281 11.191406 10.292969 11.09375 10.601562 11 C 10.59375 10.976562 10.589844 10.957031 10.582031 10.9375 C 10.097656 11.085938 9.617188 11.238281 9.136719 11.386719 C 9.125 11.363281 9.117188 11.339844 9.109375 11.3125 C 9.898438 11.046875 10.695312 10.804688 11.449219 10.445312 C 10.539062 10.671875 9.675781 11.054688 8.765625 11.289062 C 9.117188 11.144531 9.46875 11.003906 9.820312 10.859375 C 9.816406 10.847656 9.8125 10.832031 9.808594 10.820312 C 9.5625 10.898438 9.316406 10.976562 9.070312 11.050781 C 10.132812 10.695312 11.144531 10.207031 12.210938 9.863281 C 10.535156 10.316406 8.9375 11.015625 7.25 11.441406 C 7.667969 11.3125 8.082031 11.183594 8.496094 11.054688 C 8.492188 11.035156 8.484375 11.015625 8.480469 11 C 7.9375 11.167969 7.390625 11.335938 6.847656 11.507812 C 6.84375 11.496094 6.84375 11.484375 6.839844 11.476562 C 7.496094 11.234375 8.148438 10.996094 8.824219 10.746094 C 6.84375 11.195312 4.972656 11.929688 3.042969 12.484375 C 2.898438 12.527344 2.800781 12.613281 2.722656 12.746094 C 2.4375 13.230469 2.429688 13.519531 2.710938 14.082031 C 2.644531 13.753906 2.546875 13.449219 2.613281 13.128906 Z M 21.46875 4.910156 C 21.484375 4.949219 21.492188 4.976562 21.511719 4.996094 C 22.421875 6.175781 23.320312 7.363281 24.097656 8.640625 C 24.140625 8.710938 24.210938 8.769531 24.285156 8.8125 C 24.582031 8.988281 24.855469 9.199219 25.109375 9.429688 C 25.195312 9.507812 25.269531 9.527344 25.386719 9.492188 C 27.578125 8.785156 29.78125 8.113281 31.945312 7.316406 C 32.179688 7.226562 32.242188 7.09375 32.171875 6.882812 C 32.070312 6.582031 31.949219 6.292969 31.835938 5.996094 C 31.773438 5.824219 31.683594 5.632812 31.765625 5.464844 C 31.917969 5.160156 31.792969 4.894531 31.710938 4.617188 C 31.578125 4.164062 31.441406 3.714844 31.308594 3.265625 C 31.21875 2.949219 30.992188 2.710938 30.851562 2.421875 C 30.777344 2.277344 30.609375 2.25 30.445312 2.265625 C 30.148438 2.292969 29.863281 2.363281 29.574219 2.433594 C 26.898438 3.082031 24.308594 4.015625 21.679688 4.824219 C 21.609375 4.847656 21.539062 4.878906 21.46875 4.910156 Z M 23.394531 8.289062 C 23.339844 8.191406 23.3125 8.144531 23.28125 8.097656 C 22.183594 6.453125 20.9375 4.921875 19.71875 3.367188 C 19.625 3.25 19.542969 3.257812 19.425781 3.292969 C 17.492188 3.859375 15.566406 4.445312 13.644531 5.054688 C 13.527344 5.089844 13.472656 5.140625 13.464844 5.269531 C 13.375 6.625 13.125 7.960938 12.972656 9.3125 C 12.898438 9.980469 12.816406 10.644531 12.726562 11.386719 C 14.960938 7.8125 19.378906 6.535156 23.398438 8.289062 Z M 6.054688 22.460938 C 6.921875 22.078125 7.722656 21.546875 8.644531 21.285156 C 7.867188 21.472656 7.09375 21.65625 6.320312 21.839844 C 7.765625 20.992188 9.410156 20.675781 10.949219 20.078125 C 9.308594 20.433594 7.734375 21.023438 6.113281 21.457031 C 7.460938 20.777344 8.886719 20.300781 10.296875 19.785156 C 8.851562 20.296875 7.355469 20.632812 5.867188 20.992188 C 7.308594 20.265625 8.867188 19.855469 10.363281 19.269531 C 8.78125 19.859375 7.105469 20.121094 5.5 20.636719 C 6.957031 19.941406 8.453125 19.335938 9.964844 18.777344 C 8.441406 19.199219 6.960938 19.761719 5.414062 20.097656 C 6.078125 19.828125 6.742188 19.558594 7.40625 19.292969 C 7.398438 19.269531 7.390625 19.25 7.382812 19.226562 C 6.722656 19.433594 6.0625 19.636719 5.402344 19.84375 L 5.394531 19.816406 C 5.855469 19.617188 6.320312 19.414062 6.78125 19.214844 L 6.761719 19.15625 C 6.214844 19.328125 5.671875 19.496094 5.125 19.667969 C 6.699219 18.929688 8.40625 18.597656 10.011719 17.972656 C 8.363281 18.335938 6.769531 18.902344 5.132812 19.300781 C 5.648438 19.066406 6.117188 18.726562 6.660156 18.550781 C 6.175781 18.703125 5.6875 18.855469 5.199219 19.007812 C 6.132812 18.46875 7.175781 18.214844 8.160156 17.808594 C 7.183594 18.089844 6.191406 18.320312 5.238281 18.675781 C 5.984375 18.25 6.777344 17.9375 7.582031 17.648438 C 6.597656 17.816406 5.761719 18.410156 4.726562 18.652344 C 5.054688 18.480469 5.320312 18.339844 5.585938 18.203125 C 5.296875 18.242188 5.023438 18.3125 4.75 18.386719 C 4.601562 18.425781 4.566406 18.488281 4.621094 18.65625 C 4.839844 19.269531 5.027344 19.890625 5.230469 20.511719 C 5.660156 21.8125 6.085938 23.113281 6.519531 24.414062 C 6.550781 24.503906 6.511719 24.683594 6.738281 24.59375 C 7.757812 24.195312 8.785156 23.816406 9.808594 23.429688 C 8.722656 23.601562 7.722656 24.144531 6.609375 24.230469 C 7.144531 23.816406 7.820312 23.726562 8.449219 23.386719 C 7.945312 23.410156 7.535156 23.609375 7.097656 23.671875 C 7.261719 23.53125 7.5 23.5625 7.636719 23.371094 C 7.265625 23.488281 6.898438 23.601562 6.527344 23.71875 C 8.289062 22.929688 10.148438 22.429688 11.96875 21.816406 C 10.078125 22.269531 8.230469 22.875 6.347656 23.367188 C 6.746094 23.109375 7.195312 22.957031 7.640625 22.796875 C 7.179688 22.910156 6.742188 23.089844 6.265625 23.136719 C 7.972656 22.355469 9.785156 21.894531 11.539062 21.265625 C 9.757812 21.773438 8.003906 22.382812 6.121094 22.796875 C 7.964844 22.011719 9.777344 21.351562 11.609375 20.746094 C 9.714844 21.183594 7.902344 21.882812 6.054688 22.460938 Z M 16.730469 23.730469 C 16.628906 23.753906 16.527344 23.773438 16.425781 23.804688 C 14.90625 24.257812 13.394531 24.738281 11.867188 25.164062 C 10.019531 25.679688 8.242188 26.492188 6.285156 26.59375 C 6.183594 26.597656 6.183594 26.644531 6.195312 26.722656 C 6.285156 27.410156 6.890625 27.816406 7.546875 27.605469 C 8.09375 27.433594 8.632812 27.230469 9.175781 27.054688 C 11.6875 26.246094 14.199219 25.445312 16.707031 24.636719 C 17.132812 24.5 17.5625 24.371094 17.945312 24.125 C 17.660156 24.214844 17.375 24.304688 17.089844 24.390625 C 17.085938 24.375 17.078125 24.359375 17.074219 24.34375 C 17.300781 24.273438 17.527344 24.203125 17.75 24.132812 C 17.742188 24.101562 17.734375 24.074219 17.726562 24.046875 C 16.578125 24.367188 15.429688 24.691406 14.28125 25.011719 C 15.265625 24.710938 16.214844 24.292969 17.210938 24.023438 C 16.019531 24.191406 14.894531 24.625 13.738281 24.929688 C 14.730469 24.519531 15.757812 24.1875 16.730469 23.730469 Z M 26.027344 21.683594 C 26.347656 21.585938 26.621094 21.503906 26.894531 21.414062 C 29.304688 20.617188 31.707031 19.796875 34.089844 18.914062 C 34.652344 18.703125 35.222656 18.511719 35.753906 18.21875 C 36.0625 18.046875 36.183594 17.734375 36.101562 17.390625 C 36.070312 17.257812 36.027344 17.242188 35.910156 17.3125 C 35.703125 17.433594 35.476562 17.503906 35.25 17.578125 C 32.730469 18.386719 30.214844 19.203125 27.691406 20 C 27.308594 20.121094 27.011719 20.273438 26.824219 20.65625 C 26.632812 21.035156 26.3125 21.335938 26.027344 21.683594 Z M 21.679688 8.164062 C 23.0625 8.5625 24.273438 9.242188 25.285156 10.273438 C 26.304688 11.316406 27.019531 12.53125 27.382812 13.941406 C 27.742188 15.347656 27.699219 16.75 27.273438 18.136719 C 26 22.308594 22.148438 24.058594 18.691406 23.578125 C 16.199219 23.230469 14.296875 21.890625 13 19.738281 C 11.699219 17.570312 11.558594 15.257812 12.363281 12.871094 C 12.167969 13.234375 12.046875 13.617188 11.949219 14.007812 C 11.507812 15.835938 11.734375 17.605469 12.496094 19.304688 C 13.324219 21.152344 14.699219 22.46875 16.550781 23.246094 C 18.941406 24.25 21.320312 24.035156 23.617188 22.945312 C 26.921875 21.375 28.421875 17.574219 27.679688 14.292969 C 27.09375 11.703125 25.523438 9.859375 23.183594 8.65625 C 22.714844 8.414062 22.210938 8.25 21.679688 8.164062 Z M 31.023438 2.023438 C 30.898438 1.488281 30.660156 1.273438 30.175781 1.210938 C 29.769531 1.160156 29.382812 1.246094 28.992188 1.347656 C 27.113281 1.847656 25.261719 2.460938 23.390625 3.003906 C 22.539062 3.25 21.695312 3.519531 20.84375 3.769531 C 20.625 3.832031 20.605469 3.902344 20.757812 4.0625 C 20.859375 4.171875 20.953125 4.292969 21.039062 4.417969 C 21.121094 4.539062 21.203125 4.574219 21.347656 4.527344 C 23.425781 3.847656 25.535156 3.265625 27.585938 2.507812 C 28.070312 2.332031 28.550781 2.144531 29.0625 2.054688 C 29.398438 1.996094 29.742188 1.972656 30.078125 1.910156 C 30.394531 1.847656 30.699219 1.824219 31.023438 2.023438 Z M 12.628906 8.554688 C 12.132812 8.707031 11.640625 8.863281 11.148438 9.015625 C 8.371094 9.859375 5.589844 10.699219 2.8125 11.546875 C 2.355469 11.6875 2.09375 12.257812 2.277344 12.761719 C 2.425781 12.433594 2.625 12.210938 2.964844 12.109375 C 5.992188 11.1875 8.984375 10.160156 12.042969 9.355469 C 12.476562 9.238281 12.671875 9.042969 12.660156 8.613281 C 12.660156 8.605469 12.652344 8.59375 12.628906 8.554688 Z M 1.679688 17.296875 C 2.035156 17.425781 2.378906 17.378906 2.722656 17.316406 C 3.300781 17.210938 3.476562 17.316406 3.65625 17.871094 C 4.519531 20.542969 5.378906 23.214844 6.246094 25.886719 C 6.289062 26.019531 6.273438 26.273438 6.527344 26.179688 C 6.757812 26.09375 6.574219 25.917969 6.539062 25.804688 C 5.570312 22.722656 4.503906 19.675781 3.558594 16.585938 C 3.53125 16.5 3.5 16.425781 3.433594 16.363281 C 3.238281 16.183594 3.121094 15.953125 3.046875 15.703125 C 2.949219 15.375 2.863281 15.039062 2.777344 14.707031 C 2.753906 14.617188 2.746094 14.511719 2.621094 14.578125 C 2.363281 14.710938 2.085938 14.816406 1.886719 15.054688 C 2.5625 15.261719 2.820312 15.539062 2.800781 16.023438 C 2.785156 16.414062 2.488281 16.75 2.078125 16.84375 C 1.636719 16.945312 1.347656 16.761719 1.0625 16.199219 C 0.839844 16.675781 1.1875 17.070312 2.015625 17.207031 C 1.929688 17.308594 1.792969 17.195312 1.679688 17.296875 Z M 15.996094 2.933594 C 16.023438 2.9375 16.105469 2.855469 16.199219 2.90625 C 15.945312 3.113281 14.671875 3.460938 14.394531 3.378906 C 14.757812 3.265625 15.09375 3.160156 15.425781 3.058594 C 15.195312 3.0625 14.984375 3.152344 14.765625 3.1875 C 14.179688 3.285156 13.78125 3.582031 13.597656 4.164062 C 13.542969 4.332031 13.414062 4.476562 13.46875 4.695312 C 13.582031 4.660156 13.683594 4.628906 13.78125 4.597656 C 15.003906 4.21875 16.226562 3.839844 17.449219 3.464844 C 18.007812 3.296875 18.570312 3.140625 19.125 2.972656 C 19.1875 2.953125 19.273438 2.957031 19.292969 2.882812 C 19.320312 2.792969 19.238281 2.746094 19.179688 2.707031 C 18.949219 2.550781 18.714844 2.402344 18.484375 2.25 C 18.417969 2.210938 18.34375 2.199219 18.265625 2.222656 C 17.492188 2.46875 16.714844 2.707031 15.996094 2.933594 Z M 32.929688 5.335938 C 32.761719 5.339844 32.628906 5.335938 32.5 5.34375 C 32.125 5.367188 32.054688 5.492188 32.1875 5.847656 C 32.300781 6.15625 32.414062 6.460938 32.519531 6.765625 C 32.585938 6.953125 32.617188 7.148438 32.539062 7.328125 C 32.476562 7.46875 32.503906 7.585938 32.539062 7.714844 C 33.449219 10.773438 34.355469 13.832031 35.269531 16.886719 C 35.292969 16.972656 35.269531 17.132812 35.4375 17.09375 C 35.621094 17.050781 35.539062 16.921875 35.507812 16.816406 C 35.308594 16.128906 35.105469 15.4375 34.898438 14.75 C 34.289062 12.742188 33.679688 10.738281 33.070312 8.726562 C 32.878906 8.09375 32.941406 7.925781 33.527344 7.628906 C 33.894531 7.441406 34.160156 7.171875 34.324219 6.800781 C 34.46875 6.488281 34.414062 6.179688 34.203125 5.992188 C 34.253906 6.542969 34.105469 6.863281 33.730469 7.023438 C 33.386719 7.164062 33 7.050781 32.761719 6.742188 C 32.453125 6.332031 32.492188 5.949219 32.929688 5.335938 Z M 7.824219 25.71875 C 7.816406 25.695312 7.808594 25.671875 7.800781 25.648438 C 9.675781 25.175781 11.480469 24.507812 12.863281 23.992188 C 12.246094 24.183594 11.191406 24.496094 10.152344 24.84375 C 9.550781 25.042969 7.160156 25.726562 6.996094 25.683594 C 9.203125 24.8125 11.382812 23.957031 13.621094 23.25 C 11.476562 23.898438 9.367188 24.640625 7.199219 25.234375 C 8.449219 24.652344 9.753906 24.242188 11.03125 23.753906 C 9.691406 24.171875 8.351562 24.589844 7.015625 25.007812 C 8.84375 24.160156 10.734375 23.484375 12.671875 22.929688 C 12.574219 22.921875 12.480469 22.9375 12.390625 22.957031 C 11.535156 23.167969 10.703125 23.453125 9.871094 23.726562 C 8.863281 24.054688 7.847656 24.367188 6.828125 24.648438 C 6.722656 24.675781 6.59375 24.679688 6.65625 24.863281 C 6.785156 25.226562 6.894531 25.589844 7.007812 25.957031 C 7.039062 26.054688 7.089844 26.097656 7.195312 26.082031 C 7.851562 25.96875 8.476562 25.765625 9.085938 25.5 C 8.6875 25.625 8.292969 25.746094 7.894531 25.871094 L 7.878906 25.8125 C 8.09375 25.746094 8.308594 25.679688 8.527344 25.613281 C 8.523438 25.601562 8.519531 25.589844 8.515625 25.578125 C 8.285156 25.625 8.054688 25.671875 7.824219 25.71875 Z M 26.175781 10.34375 C 26.222656 10.347656 26.242188 10.355469 26.257812 10.347656 C 27.492188 10 28.640625 9.414062 29.910156 9.167969 C 30.644531 9.023438 31.332031 8.675781 32.066406 8.5 C 32.171875 8.476562 32.324219 8.472656 32.300781 8.316406 C 32.269531 8.125 32.125 8.207031 32.007812 8.234375 C 31.582031 8.335938 31.203125 8.574219 30.785156 8.699219 C 29.339844 9.128906 27.921875 9.632812 26.503906 10.140625 C 26.394531 10.183594 26.261719 10.199219 26.175781 10.34375 Z M 30.78125 14.433594 C 30.917969 14.480469 31.023438 14.410156 31.140625 14.375 C 31.839844 14.15625 32.539062 13.925781 33.242188 13.71875 C 33.902344 13.527344 33.898438 13.539062 33.675781 12.886719 C 33.621094 12.730469 33.558594 12.722656 33.429688 12.777344 C 33.050781 12.9375 32.671875 13.09375 32.273438 13.257812 C 32.722656 13.144531 33.132812 12.9375 33.589844 12.953125 C 32.90625 13.242188 32.222656 13.53125 31.542969 13.820312 C 31.785156 13.785156 32.011719 13.710938 32.238281 13.640625 C 32.46875 13.574219 32.695312 13.503906 32.925781 13.445312 C 33.144531 13.390625 33.367188 13.347656 33.585938 13.300781 L 33.601562 13.382812 C 32.683594 13.785156 31.707031 14.039062 30.78125 14.433594 Z M 5.9375 16.652344 C 5.921875 16.621094 5.90625 16.589844 5.894531 16.558594 C 5.386719 16.714844 4.878906 16.878906 4.367188 17.027344 C 4.179688 17.082031 4.128906 17.152344 4.199219 17.351562 C 4.410156 17.945312 4.402344 17.945312 4.984375 17.699219 C 5.019531 17.683594 5.054688 17.671875 5.089844 17.65625 C 5.476562 17.484375 5.867188 17.316406 6.257812 17.144531 C 5.597656 17.140625 4.980469 17.316406 4.355469 17.480469 C 4.816406 17.070312 5.410156 16.921875 5.933594 16.652344 Z M 29.703125 17.324219 C 29.742188 17.3125 29.777344 17.308594 29.8125 17.296875 C 31.324219 16.789062 32.835938 16.28125 34.347656 15.773438 C 34.4375 15.742188 34.503906 15.71875 34.464844 15.597656 C 34.421875 15.460938 34.347656 15.476562 34.246094 15.519531 C 33.929688 15.65625 33.617188 15.796875 33.296875 15.917969 C 32.09375 16.371094 30.867188 16.761719 29.703125 17.324219 Z M 33.472656 12.464844 C 31.695312 13.058594 29.921875 13.601562 28.199219 14.296875 C 28.453125 14.25 28.699219 14.183594 28.941406 14.097656 C 30.402344 13.59375 31.871094 13.121094 33.359375 12.703125 C 33.4375 12.683594 33.566406 12.703125 33.574219 12.605469 C 33.582031 12.523438 33.535156 12.40625 33.476562 12.347656 C 33.394531 12.269531 33.300781 12.34375 33.222656 12.398438 C 33.289062 12.460938 33.371094 12.363281 33.472656 12.464844 Z M 27.351562 10.882812 C 28.902344 10.285156 30.445312 9.667969 32.035156 9.183594 C 31.742188 9.332031 31.449219 9.476562 31.15625 9.625 C 31.5625 9.550781 31.957031 9.449219 32.351562 9.34375 C 32.488281 9.308594 32.632812 9.300781 32.546875 9.070312 C 32.46875 8.851562 32.375 8.808594 32.183594 8.914062 C 31.582031 9.253906 30.917969 9.441406 30.277344 9.683594 C 29.289062 10.050781 28.316406 10.457031 27.351562 10.882812 Z M 32.105469 7.679688 C 30.363281 8.476562 28.578125 8.945312 26.851562 9.574219 C 26.890625 9.574219 26.925781 9.566406 26.960938 9.554688 C 28.539062 9.105469 30.113281 8.636719 31.679688 8.136719 C 31.796875 8.097656 31.917969 8.074219 32.035156 8.035156 C 32.101562 8.011719 32.207031 7.996094 32.171875 7.890625 C 32.140625 7.800781 32.054688 7.859375 32 7.875 C 31.859375 7.914062 31.71875 7.960938 31.578125 8.003906 C 31.71875 7.878906 31.921875 7.886719 32.105469 7.679688 Z M 32.230469 9.691406 C 32.320312 9.664062 32.414062 9.636719 32.503906 9.605469 C 32.570312 9.578125 32.679688 9.566406 32.632812 9.460938 C 32.589844 9.367188 32.515625 9.453125 32.464844 9.472656 C 32.09375 9.628906 31.734375 9.808594 31.355469 9.941406 C 30.4375 10.261719 29.511719 10.558594 28.589844 10.882812 C 28.28125 10.988281 27.980469 11.125 27.636719 11.332031 C 29.378906 10.789062 31 10.125 32.6875 9.652344 C 32.519531 9.585938 32.382812 9.707031 32.230469 9.691406 Z M 2.328125 15.835938 C 2.25 15.605469 1.96875 15.476562 1.722656 15.558594 C 1.480469 15.640625 1.363281 15.902344 1.453125 16.160156 C 1.535156 16.390625 1.785156 16.492188 2.042969 16.410156 C 2.253906 16.339844 2.398438 16.046875 2.328125 15.835938 Z M 7.402344 17.296875 C 7.394531 17.273438 7.386719 17.25 7.378906 17.226562 C 6.4375 17.484375 5.492188 17.746094 4.550781 18.003906 C 4.398438 18.042969 4.460938 18.140625 4.484375 18.226562 C 4.507812 18.324219 4.546875 18.386719 4.664062 18.339844 C 4.9375 18.230469 5.214844 18.128906 5.488281 18.015625 C 6.117188 17.753906 6.746094 17.492188 7.402344 17.296875 Z M 29.628906 13.25 C 30.023438 13.125 30.367188 13.007812 30.714844 12.914062 C 31.539062 12.691406 32.320312 12.292969 33.195312 12.277344 C 33.511719 12.273438 33.453125 12.101562 33.378906 11.910156 C 33.367188 11.875 33.34375 11.847656 33.339844 11.839844 C 32.109375 12.308594 30.890625 12.769531 29.628906 13.25 Z M 33.5 6.347656 C 33.515625 6.519531 33.355469 6.535156 33.28125 6.617188 C 33.386719 6.703125 33.488281 6.652344 33.582031 6.609375 C 33.789062 6.519531 33.875 6.25 33.773438 6.027344 C 33.652344 5.757812 33.378906 5.605469 33.1875 5.710938 C 32.992188 5.824219 32.917969 6 32.992188 6.222656 C 33.089844 6.515625 33.304688 6.402344 33.5 6.347656 Z M 30.058594 11.335938 C 30.128906 11.3125 30.199219 11.289062 30.273438 11.265625 C 31.117188 11.003906 31.964844 10.734375 32.8125 10.484375 C 32.976562 10.4375 32.902344 10.359375 32.886719 10.273438 C 32.863281 10.144531 32.808594 10.105469 32.671875 10.160156 C 31.792969 10.53125 30.945312 10.964844 30.054688 11.332031 Z M 31.113281 12.191406 C 31.140625 12.195312 31.171875 12.207031 31.195312 12.199219 C 31.847656 12.023438 32.488281 11.796875 33.15625 11.679688 C 33.269531 11.660156 33.300781 11.609375 33.261719 11.503906 C 33.226562 11.414062 33.226562 11.332031 33.074219 11.375 C 32.394531 11.574219 31.792969 11.964844 31.117188 12.191406 Z M 34.625 16.214844 C 34.554688 15.820312 34.554688 15.816406 34.191406 15.949219 C 33.921875 16.046875 33.65625 16.152344 33.390625 16.253906 C 33.273438 16.296875 33.171875 16.347656 33.167969 16.515625 C 33.671875 16.4375 34.121094 16.195312 34.625 16.214844 Z M 31.789062 18.097656 C 30.441406 18.503906 29.117188 18.980469 27.761719 19.359375 C 29.128906 19.015625 30.476562 18.621094 31.789062 18.097656 Z M 30.777344 10.628906 C 30.78125 10.644531 30.789062 10.660156 30.792969 10.671875 C 31.4375 10.472656 32.078125 10.273438 32.71875 10.074219 C 32.824219 10.039062 32.8125 9.96875 32.78125 9.890625 C 32.753906 9.816406 32.71875 9.789062 32.632812 9.828125 C 32.015625 10.097656 31.398438 10.363281 30.777344 10.628906 Z M 33.605469 13.894531 C 33.164062 14.039062 32.769531 14.328125 32.3125 14.445312 C 32.824219 14.292969 33.335938 14.140625 33.871094 14.085938 C 34.03125 14.070312 34.003906 13.980469 33.960938 13.886719 C 33.917969 13.796875 33.953125 13.597656 33.742188 13.707031 C 33.421875 13.875 33.085938 13.996094 32.761719 14.15625 C 33.042969 14.066406 33.324219 13.980469 33.605469 13.894531 Z M 5.703125 16.332031 C 5.164062 16.40625 4.660156 16.617188 4.121094 16.675781 C 3.921875 16.699219 4.0625 16.828125 4.070312 16.90625 C 4.082031 17.011719 4.128906 17.054688 4.242188 16.992188 C 4.714844 16.746094 5.207031 16.535156 5.703125 16.332031 Z M 14.027344 23.992188 C 13.054688 24.253906 12.09375 24.566406 11.152344 24.945312 C 12.117188 24.65625 13.097656 24.410156 14.027344 23.992188 Z M 30.683594 9.394531 C 31.214844 9.195312 31.75 9 32.285156 8.800781 C 32.378906 8.761719 32.457031 8.714844 32.386719 8.589844 C 32.324219 8.476562 32.25 8.511719 32.171875 8.5625 C 31.699219 8.878906 31.15625 9.070312 30.683594 9.394531 Z M 19.207031 7.941406 C 17.929688 8.023438 16.726562 8.351562 15.640625 9.054688 C 16.761719 8.457031 17.953125 8.105469 19.207031 7.941406 Z M 32.113281 17.136719 C 32.121094 17.171875 32.125 17.207031 32.132812 17.238281 C 32.332031 17.179688 32.527344 17.113281 32.726562 17.054688 C 33.328125 16.886719 33.933594 16.71875 34.535156 16.546875 C 34.605469 16.527344 34.742188 16.542969 34.695312 16.40625 C 34.65625 16.289062 34.566406 16.371094 34.503906 16.390625 C 33.707031 16.636719 32.910156 16.886719 32.113281 17.136719 Z M 31.558594 11.601562 C 30.65625 11.871094 29.738281 12.097656 28.886719 12.507812 C 29.792969 12.261719 30.679688 11.945312 31.558594 11.601562 Z M 11.15625 22.613281 C 10.4375 22.734375 9.730469 22.933594 9.0625 23.265625 C 9.761719 23.046875 10.460938 22.832031 11.15625 22.613281 Z M 31.761719 11.074219 C 32.199219 11.003906 32.550781 10.9375 32.910156 10.894531 C 33.054688 10.878906 33.046875 10.816406 33.019531 10.707031 C 32.984375 10.59375 32.953125 10.570312 32.828125 10.621094 C 32.496094 10.753906 32.144531 10.847656 31.761719 11.074219 Z M 32.4375 15.46875 C 32.449219 15.492188 32.460938 15.515625 32.472656 15.539062 C 32.996094 15.375 33.523438 15.214844 34.050781 15.046875 C 34.128906 15.019531 34.296875 15.089844 34.253906 14.902344 C 34.210938 14.726562 34.085938 14.820312 34 14.851562 C 33.480469 15.054688 32.996094 15.347656 32.4375 15.46875 Z M 31.257812 15.921875 C 30.488281 16.121094 29.726562 16.378906 28.988281 16.691406 C 29.773438 16.519531 30.488281 16.148438 31.257812 15.921875 Z M 29.488281 15.75 C 30.121094 15.570312 30.738281 15.359375 31.367188 15.105469 C 30.699219 15.25 30.089844 15.5 29.488281 15.75 Z M 9.066406 17.1875 C 9.480469 17.148438 9.867188 17.003906 10.253906 16.855469 C 9.835938 16.878906 9.449219 17.03125 9.066406 17.1875 Z M 33.328125 14.832031 C 33.632812 14.886719 33.867188 14.761719 34.109375 14.707031 C 34.179688 14.6875 34.179688 14.628906 34.164062 14.570312 C 34.148438 14.523438 34.121094 14.460938 34.070312 14.492188 C 33.847656 14.625 33.5625 14.628906 33.328125 14.832031 Z M 32.238281 11.40625 C 32.558594 11.339844 32.796875 11.289062 33.035156 11.238281 C 33.101562 11.222656 33.171875 11.199219 33.132812 11.105469 C 33.117188 11.066406 33.109375 10.996094 33.042969 11.03125 C 32.804688 11.148438 32.515625 11.152344 32.238281 11.40625 Z M 9.605469 8.109375 C 9.589844 8.222656 9.578125 8.304688 9.566406 8.386719 C 9.554688 8.472656 9.550781 8.578125 9.425781 8.476562 C 9.441406 8.519531 9.445312 8.570312 9.472656 8.605469 C 9.578125 8.726562 9.675781 8.570312 9.785156 8.585938 C 9.832031 8.597656 9.890625 8.535156 9.847656 8.496094 C 9.738281 8.394531 9.765625 8.214844 9.605469 8.109375 Z M 30.457031 12.710938 C 30.445312 12.6875 30.433594 12.667969 30.421875 12.644531 C 29.921875 12.828125 29.390625 12.933594 28.863281 13.207031 C 29.433594 13.03125 29.945312 12.871094 30.457031 12.710938 Z M 33.914062 16.851562 L 33.945312 16.9375 C 34.191406 16.863281 34.433594 16.785156 34.679688 16.710938 C 34.714844 16.699219 34.757812 16.691406 34.757812 16.648438 C 34.757812 16.609375 34.734375 16.5625 34.6875 16.578125 C 34.425781 16.660156 34.148438 16.707031 33.914062 16.851562 Z M 34.125 17.144531 C 34.363281 17.105469 34.539062 17.078125 34.714844 17.042969 C 34.785156 17.027344 34.875 17.019531 34.835938 16.90625 C 34.804688 16.808594 34.734375 16.847656 34.675781 16.867188 C 34.5 16.933594 34.316406 16.976562 34.125 17.144531 Z M 5.105469 10.144531 C 5.164062 10.222656 5.105469 10.390625 5.25 10.367188 C 5.390625 10.34375 5.566406 10.34375 5.65625 10.210938 C 5.679688 10.175781 5.648438 10.011719 5.472656 9.976562 C 5.609375 10.171875 5.425781 10.214844 5.355469 10.265625 C 5.234375 10.355469 5.285156 10.078125 5.105469 10.144531 Z M 9.839844 7.519531 C 9.75 7.582031 9.542969 7.480469 9.578125 7.722656 C 9.597656 7.855469 9.714844 7.925781 9.765625 7.898438 C 9.914062 7.828125 9.820312 7.660156 9.839844 7.519531 Z M 9.308594 8.070312 C 9.425781 7.9375 9.464844 7.800781 9.386719 7.660156 C 9.375 7.640625 9.222656 7.660156 9.183594 7.707031 C 9.050781 7.871094 9.292969 7.933594 9.308594 8.070312 Z M 29.644531 11.832031 C 29.644531 11.835938 29.648438 11.84375 29.648438 11.851562 L 30.871094 11.46875 C 30.867188 11.464844 30.867188 11.457031 30.863281 11.449219 C 30.457031 11.578125 30.050781 11.703125 29.644531 11.832031 Z M 29.589844 14.304688 C 29.265625 14.429688 28.941406 14.550781 28.621094 14.671875 C 28.964844 14.609375 29.304688 14.535156 29.589844 14.304688 Z M 33.390625 14.46875 C 33.644531 14.480469 33.8125 14.417969 33.980469 14.375 C 34.042969 14.355469 34.074219 14.316406 34.050781 14.25 C 34.023438 14.171875 33.96875 14.191406 33.917969 14.214844 C 33.765625 14.289062 33.613281 14.363281 33.390625 14.46875 Z M 10.023438 7.980469 C 9.980469 8.136719 9.976562 8.269531 10.027344 8.40625 C 10.0625 8.511719 10.136719 8.488281 10.210938 8.460938 C 10.257812 8.445312 10.308594 8.375 10.285156 8.371094 C 10.078125 8.324219 10.160156 8.097656 10.023438 7.980469 Z M 29.484375 14.902344 C 29.824219 14.773438 30.167969 14.648438 30.507812 14.519531 C 30.164062 14.644531 29.796875 14.691406 29.484375 14.902344 Z M 8.984375 8.261719 C 9 8.445312 9 8.585938 9.019531 8.726562 C 9.03125 8.816406 9.101562 8.816406 9.171875 8.789062 C 9.222656 8.769531 9.269531 8.703125 9.230469 8.6875 C 9.035156 8.621094 9.136719 8.410156 8.984375 8.261719 Z M 27.800781 10.230469 C 27.511719 10.339844 27.222656 10.453125 26.933594 10.5625 C 27.242188 10.527344 27.527344 10.433594 27.800781 10.230469 Z M 8.058594 22.617188 C 8.363281 22.523438 8.667969 22.429688 8.972656 22.332031 C 8.660156 22.398438 8.34375 22.460938 8.058594 22.617188 Z M 34.910156 17.164062 C 34.671875 17.144531 34.492188 17.28125 34.296875 17.382812 C 34.511719 17.34375 34.734375 17.320312 34.910156 17.164062 Z M 34.910156 17.164062 " fill-opacity="1" fill-rule="nonzero"/></g><path fill="#000000" d="M 17.929688 10.035156 C 21.101562 9.046875 24.578125 10.828125 25.542969 13.933594 C 26.511719 17.054688 24.714844 20.507812 21.621094 21.46875 C 18.460938 22.453125 14.949219 20.625 13.984375 17.496094 C 13.011719 14.351562 14.777344 11.019531 17.929688 10.035156 Z M 18.042969 10.421875 C 15.105469 11.339844 13.457031 14.433594 14.355469 17.347656 C 15.261719 20.285156 18.519531 22.015625 21.433594 21.101562 C 24.382812 20.175781 26.078125 17.023438 25.183594 14.128906 C 24.265625 11.164062 21.039062 9.484375 18.042969 10.421875 Z M 18.042969 10.421875 " fill-opacity="1" fill-rule="nonzero"/><path fill="#000000" d="M 25.804688 13.5625 C 25.046875 11.710938 23.5 10.746094 21.804688 9.933594 C 22.183594 9.953125 22.542969 10.082031 22.910156 10.15625 C 21.933594 9.5 20.859375 9.15625 19.683594 9.191406 C 15.21875 9.316406 12.832031 13.164062 13.347656 16.742188 C 13.527344 17.996094 14.078125 19.09375 14.90625 20.046875 C 14.992188 20.148438 15.085938 20.242188 15.175781 20.34375 C 15.25 20.433594 15.378906 20.507812 15.246094 20.652344 C 15.105469 20.804688 15.027344 20.675781 14.945312 20.59375 C 14.429688 20.101562 13.984375 19.554688 13.65625 18.921875 C 12.164062 16.0625 12.902344 12.421875 15.378906 10.34375 C 15.925781 9.882812 16.539062 9.539062 17.210938 9.300781 C 17.4375 9.21875 17.640625 9.09375 17.84375 8.976562 C 18.265625 8.738281 18.722656 8.617188 19.191406 8.671875 C 20.070312 8.769531 20.957031 8.835938 21.800781 9.148438 C 23.667969 9.832031 24.898438 11.179688 25.707031 12.960938 C 25.792969 13.140625 25.835938 13.339844 25.804688 13.5625 Z M 25.804688 13.5625 " fill-opacity="1" fill-rule="nonzero"/><path fill="#000000" d="M 25.480469 13.261719 C 25.667969 13.5625 25.789062 13.792969 25.734375 14.082031 C 25.65625 13.832031 25.578125 13.578125 25.480469 13.261719 Z M 25.480469 13.261719 " fill-opacity="1" fill-rule="nonzero"/><path fill="#000000" d="M 7.300781 13.148438 C 7.082031 12.441406 7.46875 11.722656 8.1875 11.492188 C 8.828125 11.289062 9.570312 11.679688 9.769531 12.320312 C 9.988281 13.027344 9.59375 13.71875 8.84375 13.945312 C 8.15625 14.15625 7.507812 13.820312 7.300781 13.148438 Z M 7.855469 13.085938 C 7.714844 12.734375 7.796875 12.449219 8.101562 12.191406 C 8.425781 11.917969 8.730469 11.933594 9.230469 12.246094 C 9.058594 11.9375 8.738281 11.8125 8.332031 11.890625 C 7.984375 11.960938 7.71875 12.242188 7.671875 12.59375 C 7.628906 12.933594 7.816406 13.386719 8.054688 13.496094 C 8.085938 13.511719 8.125 13.519531 8.160156 13.523438 C 8.410156 13.542969 8.652344 13.515625 8.886719 13.40625 C 9.164062 13.277344 9.277344 13.0625 9.207031 12.785156 C 9.128906 12.460938 8.84375 12.265625 8.476562 12.277344 C 8.15625 12.285156 8 12.421875 7.953125 12.730469 C 7.933594 12.847656 7.9375 12.972656 7.855469 13.089844 Z M 7.855469 13.085938 " fill-opacity="1" fill-rule="nonzero"/><path fill="#000000" d="M 27.390625 3.402344 C 27.921875 3.238281 28.445312 3.058594 28.980469 2.910156 C 29.328125 2.816406 29.492188 2.910156 29.582031 3.253906 C 29.71875 3.785156 29.972656 4.269531 30.179688 4.773438 C 30.421875 5.359375 30.574219 5.972656 30.65625 6.601562 C 30.695312 6.929688 30.554688 7.179688 30.265625 7.339844 C 30.132812 7.410156 29.992188 7.480469 29.847656 7.519531 C 28.90625 7.777344 27.96875 8.039062 27.023438 8.273438 C 26.320312 8.449219 25.890625 8.230469 25.664062 7.539062 C 25.414062 6.773438 25.203125 5.996094 25.019531 5.210938 C 24.878906 4.605469 25.183594 4.105469 25.765625 3.855469 C 26.285156 3.632812 26.839844 3.527344 27.390625 3.402344 Z M 27.378906 3.761719 C 26.898438 3.847656 26.425781 3.972656 25.972656 4.148438 C 25.507812 4.332031 25.285156 4.648438 25.394531 5.132812 C 25.5625 5.894531 25.789062 6.648438 25.996094 7.40625 C 26.019531 7.496094 26.078125 7.578125 26.128906 7.660156 C 26.320312 7.941406 26.503906 8.003906 26.84375 7.929688 C 27.636719 7.761719 28.417969 7.546875 29.199219 7.328125 C 29.429688 7.265625 29.660156 7.195312 29.882812 7.113281 C 30.234375 6.976562 30.3125 6.8125 30.257812 6.445312 C 30.21875 6.167969 30.128906 5.90625 30.066406 5.636719 C 29.878906 4.847656 29.421875 4.160156 29.238281 3.371094 C 29.199219 3.207031 29.078125 3.234375 28.964844 3.265625 C 28.4375 3.429688 27.910156 3.59375 27.382812 3.761719 Z M 27.378906 3.761719 " fill-opacity="1" fill-rule="nonzero"/><path fill="#000000" d="M 30.953125 7.28125 C 31.222656 7.125 31.449219 6.984375 31.679688 6.859375 C 31.746094 6.824219 31.839844 6.730469 31.898438 6.832031 C 31.949219 6.917969 31.929688 7.035156 31.820312 7.105469 C 31.5625 7.261719 31.277344 7.261719 30.953125 7.28125 Z M 30.953125 7.28125 " fill-opacity="1" fill-rule="nonzero"/><path fill="#000000" d="M 17.761719 7.5 C 16.789062 7.800781 15.816406 8.109375 14.839844 8.40625 C 14.246094 8.585938 13.964844 8.359375 14.03125 7.75 C 14.113281 7.003906 14.339844 6.292969 14.578125 5.585938 C 14.679688 5.285156 14.941406 5.160156 15.226562 5.082031 C 16.121094 4.839844 17.011719 4.597656 17.90625 4.355469 C 18.183594 4.277344 18.457031 4.203125 18.734375 4.128906 C 19.039062 4.046875 19.308594 4.097656 19.566406 4.296875 C 20.175781 4.777344 20.652344 5.363281 21.015625 6.046875 C 21.222656 6.4375 21.136719 6.65625 20.710938 6.773438 C 19.738281 7.046875 18.757812 7.300781 17.78125 7.5625 C 17.777344 7.542969 17.769531 7.519531 17.761719 7.496094 Z M 17.597656 7.191406 C 17.605469 7.214844 17.613281 7.238281 17.621094 7.265625 C 18.585938 6.996094 19.554688 6.730469 20.519531 6.46875 C 20.707031 6.417969 20.78125 6.351562 20.671875 6.15625 C 20.34375 5.578125 19.9375 5.066406 19.429688 4.636719 C 19.21875 4.457031 19.003906 4.410156 18.738281 4.484375 C 18.03125 4.675781 17.316406 4.851562 16.609375 5.042969 C 16.136719 5.171875 15.671875 5.3125 15.203125 5.445312 C 15.046875 5.492188 14.945312 5.582031 14.890625 5.746094 C 14.679688 6.394531 14.480469 7.042969 14.386719 7.71875 C 14.332031 8.097656 14.417969 8.179688 14.78125 8.070312 C 15.722656 7.78125 16.660156 7.484375 17.597656 7.191406 Z M 17.597656 7.191406 " fill-opacity="1" fill-rule="nonzero"/><path fill="#000000" d="M 29.792969 1.863281 C 28.753906 1.9375 27.769531 2.230469 26.792969 2.550781 C 27.753906 2.175781 28.699219 1.71875 29.757812 1.714844 Z M 29.792969 1.863281 " fill-opacity="1" fill-rule="nonzero"/><path fill="#000000" d="M 24.980469 14.148438 C 25.800781 16.808594 24.359375 20.078125 21.210938 20.941406 C 18.285156 21.746094 15.285156 20.101562 14.496094 17.15625 C 13.777344 14.496094 15.253906 11.457031 18.460938 10.589844 C 21.15625 9.863281 24.230469 11.511719 24.980469 14.148438 Z M 15.355469 17.15625 C 16.109375 19.5625 18.648438 20.894531 21.015625 20.183594 C 23.734375 19.367188 24.878906 16.621094 24.175781 14.375 C 23.433594 12 20.816406 10.679688 18.378906 11.449219 C 15.917969 12.226562 14.59375 14.726562 15.355469 17.15625 Z M 21.578125 11.152344 C 23.582031 12.050781 24.78125 13.550781 24.730469 15.800781 C 24.6875 17.996094 23.5 19.496094 21.539062 20.390625 C 23.347656 19.980469 24.867188 17.785156 24.84375 15.597656 C 24.816406 13.339844 23.203125 11.605469 21.578125 11.152344 Z M 16.734375 19.761719 C 14.625 17.835938 14.222656 15.652344 15.511719 13.164062 C 14.121094 14.921875 14.515625 18.289062 16.734375 19.761719 Z M 16.734375 19.761719 " fill-opacity="1" fill-rule="nonzero"/><path fill="#000000" d="M 27.335938 3.972656 C 27.765625 3.859375 28.160156 3.753906 28.558594 3.652344 C 28.988281 3.542969 29.101562 3.597656 29.308594 4.003906 C 29.59375 4.554688 29.710938 5.160156 29.828125 5.761719 C 29.863281 5.929688 29.871094 6.101562 29.90625 6.269531 C 29.972656 6.570312 29.847656 6.742188 29.574219 6.847656 C 28.714844 7.175781 27.820312 7.378906 26.925781 7.582031 C 26.558594 7.664062 26.488281 7.585938 26.386719 7.222656 C 26.199219 6.53125 25.9375 5.859375 25.871094 5.132812 C 25.851562 4.917969 25.925781 4.71875 25.929688 4.507812 C 25.929688 4.386719 26.035156 4.382812 26.109375 4.355469 C 26.527344 4.222656 26.949219 4.09375 27.335938 3.972656 Z M 27.976562 6.136719 C 28.289062 6.039062 28.445312 5.703125 28.335938 5.375 C 28.246094 5.113281 27.957031 4.972656 27.6875 5.058594 C 27.414062 5.148438 27.214844 5.511719 27.300781 5.769531 C 27.398438 6.0625 27.703125 6.226562 27.976562 6.136719 Z M 27.257812 4.894531 C 26.765625 5.238281 26.71875 5.460938 26.992188 5.894531 C 26.964844 5.554688 26.964844 5.226562 27.257812 4.894531 Z M 28.675781 6.066406 C 28.835938 5.667969 28.792969 5.425781 28.558594 5.253906 C 28.703125 5.503906 28.6875 5.757812 28.675781 6.066406 Z M 28.675781 6.066406 " fill-opacity="1" fill-rule="nonzero"/><path fill="#000000" d="M 17.566406 7.132812 C 16.757812 7.351562 15.945312 7.574219 15.132812 7.785156 C 14.75 7.886719 14.566406 7.71875 14.621094 7.324219 C 14.648438 7.125 14.703125 6.929688 14.75 6.734375 C 14.90625 6.074219 15.285156 5.652344 15.960938 5.46875 C 16.808594 5.238281 17.636719 4.9375 18.492188 4.734375 C 18.855469 4.652344 19.171875 4.699219 19.464844 4.910156 C 19.738281 5.105469 19.984375 5.335938 20.191406 5.597656 C 20.527344 6.023438 20.441406 6.277344 19.929688 6.4375 C 19.144531 6.683594 18.363281 6.929688 17.578125 7.171875 C 17.574219 7.160156 17.570312 7.144531 17.566406 7.132812 Z M 17.542969 6.6875 C 17.558594 6.726562 17.570312 6.765625 17.582031 6.808594 C 18.320312 6.578125 19.054688 6.34375 19.792969 6.125 C 20.023438 6.054688 20.074219 5.972656 19.902344 5.785156 C 19.714844 5.582031 19.515625 5.390625 19.300781 5.214844 C 19.09375 5.046875 18.871094 5.003906 18.609375 5.058594 C 17.792969 5.226562 17.015625 5.511719 16.21875 5.75 C 16.066406 5.796875 15.910156 5.84375 15.761719 5.90625 C 15.191406 6.144531 15.128906 6.695312 14.992188 7.199219 C 14.929688 7.417969 15.015625 7.476562 15.226562 7.410156 C 16 7.164062 16.769531 6.925781 17.542969 6.6875 Z M 17.542969 6.6875 " fill-opacity="1" fill-rule="nonzero"/><path fill="#000000" d="M 15.523438 17.101562 C 14.8125 14.855469 16.089844 12.382812 18.34375 11.660156 C 20.730469 10.894531 23.265625 12.117188 23.988281 14.417969 C 24.675781 16.609375 23.507812 19.203125 21.03125 19.980469 C 18.679688 20.714844 16.277344 19.46875 15.523438 17.101562 Z M 15.972656 16.195312 C 16.054688 17.265625 16.570312 18.078125 17.425781 18.683594 C 18.257812 19.273438 19.160156 19.640625 20.207031 19.496094 C 21.984375 19.25 23.3125 17.707031 23.390625 15.859375 C 23.472656 13.871094 21.949219 12.390625 20.417969 12.089844 C 19.519531 11.914062 18.640625 12.054688 17.890625 12.550781 C 16.78125 13.277344 16.054688 14.300781 15.953125 15.765625 C 15.785156 15.46875 15.871094 15.230469 15.820312 15.007812 C 15.601562 15.863281 15.742188 16.664062 16.164062 17.429688 C 16.0625 17.027344 15.945312 16.628906 15.972656 16.195312 Z M 16.070312 14.269531 C 16.417969 13.5 17.109375 13.042969 17.6875 12.488281 C 16.886719 12.839844 16.394531 13.480469 16.070312 14.269531 Z M 23.71875 14.988281 C 23.730469 14.988281 23.738281 14.988281 23.75 14.984375 C 23.65625 14.679688 23.5625 14.371094 23.464844 14.0625 C 23.457031 14.066406 23.445312 14.070312 23.433594 14.074219 C 23.527344 14.378906 23.625 14.683594 23.71875 14.988281 Z M 23.71875 14.988281 " fill-opacity="1" fill-rule="nonzero"/><path fill="#000000" d="M 18.257812 13.070312 C 18 13.296875 17.804688 13.472656 17.574219 13.671875 C 17.75 13.683594 17.808594 13.570312 17.886719 13.507812 C 19.003906 12.652344 20.5625 12.664062 21.59375 13.539062 C 22.75 14.527344 23.042969 15.976562 22.339844 17.289062 C 21.929688 18.058594 21.21875 18.433594 20.4375 18.699219 C 18.859375 19.242188 17.378906 18.632812 16.71875 17.101562 C 16.265625 16.050781 16.28125 14.179688 17.675781 13.292969 C 17.832031 13.195312 18 13.136719 18.257812 13.070312 Z M 20.9375 15.878906 C 21.238281 15.773438 21.511719 15.605469 21.84375 15.480469 C 21.386719 15.5625 21.007812 15.8125 20.554688 15.726562 C 21.027344 15.578125 21.503906 15.433594 21.980469 15.285156 C 21.253906 15.515625 20.492188 15.574219 19.765625 15.800781 C 19.761719 15.777344 19.753906 15.753906 19.746094 15.730469 C 20.4375 15.414062 21.128906 15.101562 21.824219 14.789062 C 21.105469 14.847656 20.453125 15.125 19.765625 15.269531 C 20.320312 14.957031 20.921875 14.765625 21.558594 14.550781 C 20.835938 14.582031 20.1875 14.824219 19.5 14.851562 C 20.046875 14.636719 20.597656 14.421875 21.148438 14.207031 C 20.128906 14.464844 19.105469 14.691406 18.109375 15.027344 C 18.953125 14.644531 19.761719 14.203125 20.621094 13.949219 C 19.628906 14.105469 18.660156 14.476562 17.652344 14.683594 C 17.960938 14.480469 18.324219 14.390625 18.644531 14.210938 C 18.269531 14.253906 17.921875 14.378906 17.574219 14.503906 C 17.457031 14.546875 17.402344 14.65625 17.355469 14.761719 C 17.050781 15.496094 17.066406 16.230469 17.441406 16.925781 C 18.042969 18.027344 19.304688 18.5 20.488281 18.085938 C 21.269531 17.8125 21.804688 17.277344 22.105469 16.464844 C 21.957031 16.5 21.839844 16.527344 21.722656 16.558594 C 21.71875 16.542969 21.710938 16.527344 21.707031 16.515625 C 21.847656 16.449219 21.988281 16.382812 22.125 16.316406 C 21.707031 16.300781 21.355469 16.558594 20.878906 16.582031 C 21.285156 16.207031 21.800781 16.199219 22.164062 15.890625 C 21.785156 15.902344 21.441406 16.121094 21.042969 16.003906 C 21.386719 15.894531 21.730469 15.789062 22.074219 15.683594 C 21.683594 15.707031 21.332031 15.898438 20.9375 15.875 Z M 17.59375 14.398438 C 18.054688 14.160156 18.515625 13.917969 18.976562 13.675781 C 18.441406 13.773438 17.929688 13.917969 17.59375 14.398438 Z M 17.59375 14.398438 " fill-opacity="1" fill-rule="nonzero"/><path fill="#000000" d="M 22.132812 17.949219 C 23.109375 16.675781 23.039062 15.394531 22.40625 14.070312 C 23.351562 14.90625 23.347656 16.929688 22.132812 17.949219 Z M 22.132812 17.949219 " fill-opacity="1" fill-rule="nonzero"/><path fill="#000000" d="M 21.273438 13.019531 C 20.792969 12.90625 20.328125 12.75 19.835938 12.703125 C 20.367188 12.566406 20.851562 12.648438 21.273438 13.019531 Z M 21.273438 13.019531 " fill-opacity="1" fill-rule="nonzero"/><path fill="#000000" d="M 20.058594 19.355469 C 19.546875 19.5 19.054688 19.390625 18.570312 19.214844 C 19.066406 19.234375 19.558594 19.332031 20.058594 19.355469 Z M 20.058594 19.355469 " fill-opacity="1" fill-rule="nonzero"/></svg>