<svg xmlns="http://www.w3.org/2000/svg" xmlns:xlink="http://www.w3.org/1999/xlink" width="240" zoomAndPan="magnify" viewBox="0 0 180 96.749999" height="129" preserveAspectRatio="xMidYMid meet" version="1.0"><defs><g/></defs><g fill="#000000" fill-opacity="1"><g transform="translate(9.882024, 71.404078)"><g><path d="M 0.875 0 L 5.734375 -50.28125 L 22.765625 -50.28125 L 27.5625 0 L 18.03125 0 L 17.328125 -8.140625 L 11.234375 -8.140625 L 10.65625 0 Z M 12 -16.15625 L 16.5625 -16.15625 L 14.34375 -41.734375 L 13.875 -41.734375 Z M 12 -16.15625 "/></g></g></g><g fill="#000000" fill-opacity="1"><g transform="translate(38.262418, 71.404078)"><g><path d="M 2.21875 0 L 2.21875 -50.28125 L 12.296875 -50.28125 L 12.296875 -8.546875 L 22.65625 -8.546875 L 22.65625 0 Z M 2.21875 0 "/></g></g></g><g fill="#000000" fill-opacity="1"><g transform="translate(61.493385, 71.404078)"><g><path d="M 2.21875 0 L 2.21875 -50.28125 L 12.296875 -50.28125 L 12.296875 -8.546875 L 22.65625 -8.546875 L 22.65625 0 Z M 2.21875 0 "/></g></g></g><g fill="#000000" fill-opacity="1"><g transform="translate(84.724351, 71.404078)"><g><path d="M 2.21875 0 L 2.21875 -50.28125 L 22.359375 -50.28125 L 22.359375 -40.5625 L 12.46875 -40.5625 L 12.46875 -30.78125 L 21.953125 -30.78125 L 21.953125 -21.3125 L 12.46875 -21.3125 L 12.46875 -9.78125 L 23 -9.78125 L 23 0 Z M 2.21875 0 "/></g></g></g><g fill="#000000" fill-opacity="1"><g transform="translate(108.83306, 71.404078)"><g><path d="M 2.21875 0 L 2.21875 -50.28125 L 12.578125 -50.28125 L 17.203125 -26.21875 L 17.203125 -50.28125 L 26.921875 -50.28125 L 26.921875 0 L 17.09375 0 L 12.0625 -25.171875 L 12.0625 0 Z M 2.21875 0 "/></g></g></g></svg>