<svg xmlns="http://www.w3.org/2000/svg" xmlns:xlink="http://www.w3.org/1999/xlink" width="240" zoomAndPan="magnify" viewBox="0 0 180 96.749999" height="129" preserveAspectRatio="xMidYMid meet" version="1.0"><defs><g/><clipPath id="0f565e94cc"><path d="M 5 29 L 20 29 L 20 37.378906 L 5 37.378906 Z M 5 29 " clip-rule="nonzero"/></clipPath><clipPath id="644c4e89ad"><path d="M 5 28 L 20 28 L 20 37.378906 L 5 37.378906 Z M 5 28 " clip-rule="nonzero"/></clipPath><clipPath id="2ca75f9efd"><path d="M 0.230469 31 L 4 31 L 4 33 L 0.230469 33 Z M 0.230469 31 " clip-rule="nonzero"/></clipPath><clipPath id="428e536d30"><path d="M 8 24.53125 L 10 24.53125 L 10 28 L 8 28 Z M 8 24.53125 " clip-rule="nonzero"/></clipPath><clipPath id="228c0dd53f"><path d="M 15 24.53125 L 17 24.53125 L 17 27 L 15 27 Z M 15 24.53125 " clip-rule="nonzero"/></clipPath><clipPath id="db7387207d"><path d="M 22 30 L 24.417969 30 L 24.417969 31 L 22 31 Z M 22 30 " clip-rule="nonzero"/></clipPath></defs><g fill="#000000" fill-opacity="1"><g transform="translate(2.581721, 71.971894)"><g><path d="M 0.625 0 L 4.046875 -35.46875 L 16.0625 -35.46875 L 19.453125 0 L 12.71875 0 L 12.21875 -5.734375 L 7.921875 -5.734375 L 7.515625 0 Z M 8.46875 -11.390625 L 11.6875 -11.390625 L 10.125 -29.4375 L 9.78125 -29.4375 Z M 8.46875 -11.390625 "/></g></g></g><g fill="#000000" fill-opacity="1"><g transform="translate(22.610067, 71.971894)"><g><path d="M 1.5625 0 L 1.5625 -35.46875 L 8.671875 -35.46875 L 8.671875 -6.03125 L 15.984375 -6.03125 L 15.984375 0 Z M 1.5625 0 "/></g></g></g><g fill="#000000" fill-opacity="1"><g transform="translate(39.004408, 71.971894)"><g><path d="M 1.5625 0 L 1.5625 -35.46875 L 8.671875 -35.46875 L 8.671875 -6.03125 L 15.984375 -6.03125 L 15.984375 0 Z M 1.5625 0 "/></g></g></g><g fill="#000000" fill-opacity="1"><g transform="translate(55.39875, 71.971894)"><g><path d="M 1.5625 0 L 1.5625 -35.46875 L 15.78125 -35.46875 L 15.78125 -28.625 L 8.796875 -28.625 L 8.796875 -21.71875 L 15.484375 -21.71875 L 15.484375 -15.03125 L 8.796875 -15.03125 L 8.796875 -6.890625 L 16.234375 -6.890625 L 16.234375 0 Z M 1.5625 0 "/></g></g></g><g fill="#000000" fill-opacity="1"><g transform="translate(72.412523, 71.971894)"><g><path d="M 1.5625 0 L 1.5625 -35.46875 L 8.875 -35.46875 L 12.140625 -18.5 L 12.140625 -35.46875 L 19 -35.46875 L 19 0 L 12.0625 0 L 8.5 -17.75 L 8.5 0 Z M 1.5625 0 "/></g></g></g><g clip-path="url(#0f565e94cc)"><path fill="#fccb1e" d="M 18.464844 36.882812 C 14.847656 36.351562 10.046875 36.273438 6.464844 37.015625 C 6.445312 34.90625 6.007812 32.824219 5.566406 30.757812 C 6.972656 32.042969 8.550781 33.140625 10.242188 34.015625 C 11.5 32.597656 12.558594 30.808594 13.246094 29.289062 C 13.933594 30.808594 14.996094 32.6875 15.855469 33.984375 C 17.226562 32.75 18.328125 31.5 19.507812 30.425781 C 18.738281 32.878906 18.464844 34.949219 18.4375 36.9375 " fill-opacity="1" fill-rule="nonzero"/></g><g clip-path="url(#644c4e89ad)"><path fill="#100f0d" d="M 18.550781 36.5625 C 15.644531 36.171875 12.707031 36.019531 9.777344 36.242188 C 8.816406 36.3125 7.265625 36.898438 6.753906 35.964844 C 6.828125 36.097656 6.46875 33.644531 6.492188 33.78125 C 6.328125 32.738281 6.101562 31.703125 5.886719 30.671875 C 5.703125 30.777344 5.519531 30.886719 5.335938 30.992188 C 6.8125 32.285156 8.347656 33.359375 10.074219 34.300781 C 10.195312 34.363281 10.378906 34.363281 10.476562 34.25 C 10.984375 33.632812 11.253906 33.324219 11.710938 32.664062 C 11.855469 32.457031 12.96875 30.296875 13.15625 30.234375 C 13.382812 30.164062 15.304688 33.738281 15.570312 34.152344 C 15.6875 34.335938 15.929688 34.367188 16.089844 34.21875 C 17.335938 33.0625 18.503906 31.824219 19.742188 30.660156 C 19.558594 30.550781 19.375 30.445312 19.191406 30.335938 C 18.554688 32.523438 18.179688 34.664062 18.109375 36.9375 C 18.09375 37.367188 18.753906 37.363281 18.769531 36.9375 C 18.839844 34.730469 19.207031 32.628906 19.828125 30.511719 C 19.921875 30.1875 19.507812 29.96875 19.277344 30.191406 C 18.613281 30.8125 16.84375 33.199219 15.992188 33.128906 C 15.050781 33.046875 13.917969 29.9375 13.53125 29.121094 C 13.429688 28.90625 13.066406 28.90625 12.960938 29.121094 C 12.351562 30.394531 11.679688 32.1875 10.359375 32.800781 C 9.28125 33.300781 9.316406 33.164062 8.359375 32.519531 C 7.460938 31.910156 6.617188 31.238281 5.800781 30.523438 C 5.550781 30.304688 5.179688 30.515625 5.25 30.847656 C 5.679688 32.894531 6.050781 34.917969 6.136719 37.015625 C 6.144531 37.246094 6.339844 37.375 6.554688 37.335938 C 10.445312 36.605469 14.460938 36.671875 18.378906 37.203125 C 18.792969 37.257812 18.972656 36.621094 18.550781 36.5625 " fill-opacity="1" fill-rule="nonzero"/></g><path fill="#faf783" d="M 13.136719 29.632812 C 13.527344 29.699219 13.960938 29.550781 14.183594 29.222656 C 14.410156 28.894531 14.371094 28.398438 14.066406 28.144531 C 13.921875 28.027344 13.738281 27.96875 13.554688 27.957031 C 12.945312 27.910156 12.339844 28.394531 12.246094 29 C 12.234375 29.097656 12.230469 29.203125 12.269531 29.292969 C 12.328125 29.425781 12.460938 29.503906 12.59375 29.5625 C 12.867188 29.6875 13.164062 29.753906 13.464844 29.757812 " fill-opacity="1" fill-rule="nonzero"/><path fill="#100f0d" d="M 13.136719 29.882812 C 13.796875 29.960938 14.503906 29.566406 14.570312 28.855469 C 14.632812 28.15625 14.066406 27.667969 13.394531 27.707031 C 12.730469 27.75 12.125 28.273438 12.007812 28.9375 C 11.867188 29.761719 12.839844 29.976562 13.464844 30.007812 C 13.785156 30.023438 13.785156 29.527344 13.464844 29.511719 C 13.125 29.492188 12.367188 29.410156 12.523438 28.910156 C 12.640625 28.539062 12.992188 28.253906 13.375 28.210938 C 13.785156 28.164062 14.171875 28.4375 14.066406 28.886719 C 13.96875 29.304688 13.511719 29.429688 13.136719 29.386719 C 12.824219 29.347656 12.824219 29.847656 13.136719 29.882812 " fill-opacity="1" fill-rule="nonzero"/><path fill="#faf783" d="M 19.269531 30.375 C 19.421875 30.476562 19.582031 30.554688 19.753906 30.613281 C 20.074219 30.722656 20.445312 30.746094 20.738281 30.574219 C 21.03125 30.402344 21.1875 29.984375 21.003906 29.699219 C 20.941406 29.605469 20.851562 29.53125 20.757812 29.464844 C 20.503906 29.28125 20.210938 29.121094 19.902344 29.140625 C 19.757812 29.148438 19.613281 29.199219 19.480469 29.257812 C 19.328125 29.328125 19.175781 29.421875 19.101562 29.574219 C 19.003906 29.769531 19.066406 30.011719 19.207031 30.175781 C 19.34375 30.34375 19.542969 30.441406 19.742188 30.519531 " fill-opacity="1" fill-rule="nonzero"/><path fill="#100f0d" d="M 19.144531 30.589844 C 19.703125 30.933594 20.554688 31.171875 21.070312 30.621094 C 21.589844 30.066406 21.238281 29.449219 20.6875 29.121094 C 20.152344 28.804688 19.371094 28.808594 18.960938 29.339844 C 18.484375 29.957031 19.144531 30.542969 19.675781 30.757812 C 19.972656 30.878906 20.097656 30.398438 19.808594 30.28125 C 19.398438 30.113281 19.070312 29.675781 19.648438 29.453125 C 19.972656 29.332031 20.257812 29.421875 20.535156 29.613281 C 20.886719 29.847656 20.929688 30.285156 20.46875 30.421875 C 20.097656 30.53125 19.703125 30.351562 19.394531 30.160156 C 19.125 29.992188 18.875 30.421875 19.144531 30.589844 " fill-opacity="1" fill-rule="nonzero"/><path fill="#faf783" d="M 5.644531 30.894531 C 5.988281 30.695312 6.226562 30.316406 6.257812 29.917969 C 6.261719 29.828125 6.257812 29.734375 6.21875 29.652344 C 6.1875 29.585938 6.132812 29.535156 6.074219 29.492188 C 5.828125 29.320312 5.496094 29.328125 5.21875 29.425781 C 5.015625 29.496094 4.828125 29.609375 4.671875 29.757812 C 4.542969 29.875 4.433594 30.015625 4.386719 30.183594 C 4.339844 30.351562 4.359375 30.542969 4.464844 30.679688 C 4.570312 30.8125 4.746094 30.875 4.917969 30.894531 C 5.304688 30.9375 5.707031 30.777344 5.960938 30.480469 " fill-opacity="1" fill-rule="nonzero"/><path fill="#100f0d" d="M 5.769531 31.109375 C 6.226562 30.8125 6.730469 30.09375 6.433594 29.527344 C 6.097656 28.890625 5.164062 29.089844 4.695312 29.421875 C 4.238281 29.746094 3.835938 30.460938 4.363281 30.925781 C 4.878906 31.386719 5.71875 31.097656 6.136719 30.65625 C 6.355469 30.425781 6.007812 30.074219 5.785156 30.304688 C 5.5625 30.542969 5.21875 30.722656 4.882812 30.636719 C 4.308594 30.496094 4.777344 29.945312 5.054688 29.78125 C 5.285156 29.636719 5.941406 29.417969 6.011719 29.875 C 6.058594 30.191406 5.757812 30.527344 5.519531 30.679688 C 5.253906 30.851562 5.5 31.28125 5.769531 31.109375 " fill-opacity="1" fill-rule="nonzero"/><g clip-path="url(#2ca75f9efd)"><path fill="#100f0d" d="M 2.878906 32.078125 C 2.144531 31.941406 1.410156 31.804688 0.675781 31.667969 C 0.363281 31.609375 0.230469 32.085938 0.542969 32.144531 C 1.277344 32.28125 2.011719 32.421875 2.746094 32.558594 C 3.058594 32.613281 3.191406 32.136719 2.878906 32.078125 " fill-opacity="1" fill-rule="nonzero"/></g><path fill="#100f0d" d="M 4.042969 28.132812 C 3.667969 27.625 3.191406 27.253906 2.609375 27.015625 C 2.316406 26.894531 2.1875 27.375 2.480469 27.492188 C 2.929688 27.679688 3.324219 27.988281 3.617188 28.382812 C 3.804688 28.636719 4.234375 28.390625 4.042969 28.132812 " fill-opacity="1" fill-rule="nonzero"/><g clip-path="url(#428e536d30)"><path fill="#100f0d" d="M 9.550781 26.9375 C 9.496094 26.335938 9.421875 25.738281 9.332031 25.140625 C 9.28125 24.828125 8.808594 24.960938 8.855469 25.273438 C 8.9375 25.828125 9.003906 26.382812 9.054688 26.9375 C 9.082031 27.253906 9.578125 27.257812 9.550781 26.9375 " fill-opacity="1" fill-rule="nonzero"/></g><g clip-path="url(#228c0dd53f)"><path fill="#100f0d" d="M 15.890625 26.582031 C 15.933594 26.039062 16.027344 25.503906 16.167969 24.972656 C 16.25 24.664062 15.769531 24.53125 15.691406 24.839844 C 15.539062 25.414062 15.445312 25.992188 15.394531 26.582031 C 15.371094 26.902344 15.863281 26.898438 15.890625 26.582031 " fill-opacity="1" fill-rule="nonzero"/></g><path fill="#100f0d" d="M 20.617188 27.203125 C 21.089844 26.96875 21.558594 26.734375 22.027344 26.5 C 22.3125 26.355469 22.0625 25.925781 21.777344 26.070312 C 21.308594 26.304688 20.839844 26.539062 20.371094 26.773438 C 20.085938 26.914062 20.335938 27.34375 20.617188 27.203125 " fill-opacity="1" fill-rule="nonzero"/><g clip-path="url(#db7387207d)"><path fill="#100f0d" d="M 22.777344 30.898438 C 23.21875 30.898438 23.65625 30.898438 24.097656 30.898438 C 24.414062 30.898438 24.417969 30.402344 24.097656 30.402344 C 23.65625 30.402344 23.21875 30.402344 22.777344 30.402344 C 22.460938 30.402344 22.460938 30.898438 22.777344 30.898438 " fill-opacity="1" fill-rule="nonzero"/></g><path fill="#100f0d" d="M 22.492188 34.03125 C 22.816406 33.988281 23.136719 33.941406 23.460938 33.894531 C 23.773438 33.847656 23.640625 33.371094 23.328125 33.414062 C 23.003906 33.460938 22.683594 33.507812 22.363281 33.554688 C 22.046875 33.597656 22.179688 34.078125 22.492188 34.03125 " fill-opacity="1" fill-rule="nonzero"/></svg>