<svg xmlns="http://www.w3.org/2000/svg" xmlns:xlink="http://www.w3.org/1999/xlink" width="112" zoomAndPan="magnify" viewBox="0 0 84 81.749997" height="109" preserveAspectRatio="xMidYMid meet" version="1.0"><defs><g/><clipPath id="c3e4a0eebb"><path d="M 23 34.707031 L 31.53125 34.707031 L 31.53125 43 L 23 43 Z M 23 34.707031 " clip-rule="nonzero"/></clipPath><clipPath id="0dafd6c7f2"><path d="M 0.128906 35 L 10 35 L 10 46.667969 L 0.128906 46.667969 Z M 0.128906 35 " clip-rule="nonzero"/></clipPath><clipPath id="27229727f7"><path d="M 10 35 L 19 35 L 19 46.667969 L 10 46.667969 Z M 10 35 " clip-rule="nonzero"/></clipPath><clipPath id="ec216868ce"><path d="M 19 35 L 31 35 L 31 46.667969 L 19 46.667969 Z M 19 35 " clip-rule="nonzero"/></clipPath><clipPath id="8c9b711ca7"><path d="M 74 35 L 83.871094 35 L 83.871094 47 L 74 47 Z M 74 35 " clip-rule="nonzero"/></clipPath></defs><g clip-path="url(#c3e4a0eebb)"><path fill="#0071bc" d="M 31.257812 34.910156 C 26.75 34.707031 26.421875 36.167969 25.53125 38.511719 L 23.785156 38.714844 L 23.375 40.332031 C 23.375 40.332031 24.296875 39.6875 24.554688 39.886719 C 24.691406 39.992188 24.433594 40.488281 24.433594 40.488281 L 24.964844 41.09375 L 24.957031 41.101562 L 25.039062 41.183594 L 25.046875 41.175781 L 25.652344 41.707031 C 25.652344 41.707031 26.15625 41.449219 26.257812 41.585938 C 26.457031 41.835938 25.808594 42.761719 25.808594 42.761719 L 27.433594 42.351562 L 27.636719 40.613281 C 29.996094 39.730469 31.460938 39.402344 31.257812 34.910156 Z M 29.792969 37.527344 C 29.558594 38.851562 27.839844 38.851562 27.609375 37.527344 C 27.601562 37.484375 27.601562 37.4375 27.609375 37.398438 C 27.839844 36.070312 29.558594 36.070312 29.792969 37.398438 C 29.796875 37.4375 29.796875 37.480469 29.792969 37.527344 Z M 29.792969 37.527344 " fill-opacity="1" fill-rule="nonzero"/></g><path fill="#f15a24" d="M 24.003906 41.222656 C 24.253906 40.972656 24.671875 40.972656 24.921875 41.222656 C 25.175781 41.476562 25.175781 41.890625 24.921875 42.140625 C 24.671875 42.394531 23.546875 42.597656 23.546875 42.597656 C 23.546875 42.597656 23.75 41.476562 24.003906 41.222656 Z M 24.003906 41.222656 " fill-opacity="1" fill-rule="nonzero"/><g clip-path="url(#0dafd6c7f2)"><path fill="#009245" d="M 9.464844 43.175781 C 9.464844 45.328125 7.738281 46.667969 4.957031 46.667969 C 2.5625 46.667969 1.042969 45.804688 0.320312 44.023438 L 0.199219 43.730469 L 2.375 42.609375 L 2.515625 42.964844 C 2.855469 43.8125 3.785156 44.316406 4.984375 44.316406 C 5.441406 44.316406 6.921875 44.234375 6.921875 43.175781 C 6.921875 42.949219 6.921875 42.277344 4.9375 42.058594 C 2.855469 41.816406 0.738281 41.222656 0.738281 38.730469 C 0.738281 36.527344 2.835938 35.519531 4.917969 35.507812 C 6.976562 35.507812 8.429688 36.253906 9.125 37.664062 L 9.273438 37.960938 L 7.199219 39.023438 L 7.039062 38.742188 C 6.75 38.292969 5.9375 37.8125 4.972656 37.8125 C 3.902344 37.8125 3.257812 38.171875 3.257812 38.785156 C 3.257812 39.273438 3.792969 39.523438 5.160156 39.6875 C 6.558594 39.859375 9.464844 40.210938 9.464844 43.175781 Z M 9.464844 43.175781 " fill-opacity="1" fill-rule="nonzero"/></g><g clip-path="url(#27229727f7)"><path fill="#fbb03b" d="M 10.707031 35.839844 L 18.8125 35.839844 L 18.8125 38.335938 L 13.25 38.335938 L 13.25 39.917969 L 18.617188 39.917969 L 18.617188 42.339844 L 13.25 42.339844 L 13.25 43.882812 L 18.8125 43.882812 L 18.8125 46.402344 L 10.707031 46.402344 Z M 10.707031 35.839844 " fill-opacity="1" fill-rule="nonzero"/></g><g clip-path="url(#ec216868ce)"><path fill="#ed1c24" d="M 30.351562 39.679688 C 30.464844 40.164062 30.527344 40.671875 30.527344 41.191406 C 30.5 43.902344 28.808594 46.640625 25.101562 46.640625 C 23.390625 46.640625 21.964844 46.058594 20.988281 44.949219 C 20.128906 43.976562 19.660156 42.644531 19.660156 41.195312 C 19.660156 39.75 20.136719 38.394531 21.007812 37.398438 C 21.996094 36.253906 23.414062 35.648438 25.105469 35.648438 C 25.597656 35.648438 26.070312 35.703125 26.503906 35.804688 C 25.972656 36.398438 25.679688 37.164062 25.351562 38.042969 C 25.269531 38.035156 25.1875 38.035156 25.105469 38.035156 C 24.253906 38.035156 23.566406 38.300781 23.054688 38.824219 C 22.480469 39.410156 22.167969 40.285156 22.195312 41.222656 C 22.214844 41.929688 22.480469 44.25 25.105469 44.25 C 27.207031 44.25 27.976562 42.679688 28.003906 41.210938 C 28.003906 41.09375 28.003906 40.972656 28 40.855469 L 28.101562 40.816406 C 28.980469 40.484375 29.75 40.191406 30.351562 39.679688 Z M 30.351562 39.679688 " fill-opacity="1" fill-rule="nonzero"/></g><g fill="#000000" fill-opacity="1"><g transform="translate(34.044463, 46.237161)"><g><path d="M 3.15625 -4.203125 L 3.15625 0 L 0.765625 0 L 0.765625 -10.484375 L 3.15625 -10.484375 L 3.15625 -6.296875 L 6.53125 -6.296875 L 6.53125 -10.484375 L 8.921875 -10.484375 L 8.921875 0 L 6.53125 0 L 6.53125 -4.203125 Z M 3.15625 -4.203125 "/></g></g></g><g fill="#000000" fill-opacity="1"><g transform="translate(43.718666, 46.237161)"><g><path d="M 6.765625 -10.484375 L 6.765625 -8.390625 L 3.15625 -8.390625 L 3.15625 -6.296875 L 6.609375 -6.296875 L 6.609375 -4.203125 L 3.15625 -4.203125 L 3.15625 -2.09375 L 6.765625 -2.09375 L 6.765625 0 L 0.765625 0 L 0.765625 -10.484375 Z M 6.765625 -10.484375 "/></g></g></g><g fill="#000000" fill-opacity="1"><g transform="translate(51.08223, 46.237161)"><g><path d="M 3.15625 -10.484375 L 3.15625 -2.09375 L 6.765625 -2.09375 L 6.765625 0 L 0.765625 0 L 0.765625 -10.484375 Z M 3.15625 -10.484375 "/></g></g></g><g fill="#000000" fill-opacity="1"><g transform="translate(58.255359, 46.237161)"><g><path d="M 0.765625 -10.484375 L 4.578125 -10.484375 C 5.648438 -10.484375 6.515625 -10.207031 7.171875 -9.65625 C 7.835938 -9.101562 8.171875 -8.300781 8.171875 -7.25 C 8.171875 -6.195312 7.832031 -5.375 7.15625 -4.78125 C 6.488281 -4.1875 5.628906 -3.890625 4.578125 -3.890625 L 3.15625 -3.890625 L 3.15625 0 L 0.765625 0 Z M 3.15625 -5.796875 L 3.828125 -5.796875 C 4.359375 -5.796875 4.796875 -5.898438 5.140625 -6.109375 C 5.484375 -6.328125 5.65625 -6.679688 5.65625 -7.171875 C 5.65625 -7.671875 5.484375 -8.03125 5.140625 -8.25 C 4.796875 -8.46875 4.359375 -8.578125 3.828125 -8.578125 L 3.15625 -8.578125 Z M 3.15625 -5.796875 "/></g></g></g><g fill="#000000" fill-opacity="1"><g transform="translate(66.710764, 46.237161)"><g><path d="M 6.765625 -10.484375 L 6.765625 -8.390625 L 3.15625 -8.390625 L 3.15625 -6.296875 L 6.609375 -6.296875 L 6.609375 -4.203125 L 3.15625 -4.203125 L 3.15625 -2.09375 L 6.765625 -2.09375 L 6.765625 0 L 0.765625 0 L 0.765625 -10.484375 Z M 6.765625 -10.484375 "/></g></g></g><g clip-path="url(#8c9b711ca7)"><g fill="#000000" fill-opacity="1"><g transform="translate(74.074328, 46.237161)"><g><path d="M 0.765625 -10.484375 L 4.515625 -10.484375 C 5.515625 -10.484375 6.332031 -10.210938 6.96875 -9.671875 C 7.601562 -9.128906 7.921875 -8.363281 7.921875 -7.375 C 7.921875 -6.601562 7.726562 -5.957031 7.34375 -5.4375 C 6.957031 -4.914062 6.4375 -4.546875 5.78125 -4.328125 L 9.390625 0 L 6.359375 0 L 3.15625 -4.140625 L 3.15625 0 L 0.765625 0 Z M 3.15625 -5.828125 L 3.4375 -5.828125 C 3.65625 -5.828125 3.835938 -5.832031 3.984375 -5.84375 C 4.140625 -5.851562 4.3125 -5.882812 4.5 -5.9375 C 4.695312 -5.988281 4.851562 -6.054688 4.96875 -6.140625 C 5.09375 -6.234375 5.195312 -6.367188 5.28125 -6.546875 C 5.363281 -6.734375 5.40625 -6.953125 5.40625 -7.203125 C 5.40625 -7.453125 5.363281 -7.664062 5.28125 -7.84375 C 5.195312 -8.03125 5.09375 -8.164062 4.96875 -8.25 C 4.851562 -8.34375 4.695312 -8.414062 4.5 -8.46875 C 4.3125 -8.519531 4.140625 -8.550781 3.984375 -8.5625 C 3.835938 -8.570312 3.65625 -8.578125 3.4375 -8.578125 L 3.15625 -8.578125 Z M 3.15625 -5.828125 "/></g></g></g></g><g fill="#000000" fill-opacity="1"><g transform="translate(7.648338, 52.684877)"><g><path d="M 0.25 -3.546875 L 1.546875 -3.546875 C 1.910156 -3.546875 2.203125 -3.453125 2.421875 -3.265625 C 2.648438 -3.078125 2.765625 -2.804688 2.765625 -2.453125 C 2.765625 -2.097656 2.648438 -1.816406 2.421875 -1.609375 C 2.191406 -1.410156 1.898438 -1.3125 1.546875 -1.3125 L 1.0625 -1.3125 L 1.0625 0 L 0.25 0 Z M 1.0625 -1.953125 L 1.296875 -1.953125 C 1.472656 -1.953125 1.617188 -1.988281 1.734375 -2.0625 C 1.847656 -2.132812 1.90625 -2.253906 1.90625 -2.421875 C 1.90625 -2.597656 1.847656 -2.722656 1.734375 -2.796875 C 1.617188 -2.867188 1.472656 -2.90625 1.296875 -2.90625 L 1.0625 -2.90625 Z M 1.0625 -1.953125 "/></g></g></g><g fill="#000000" fill-opacity="1"><g transform="translate(10.50574, 52.684877)"><g><path d="M 0.25 -3.546875 L 1.53125 -3.546875 C 1.863281 -3.546875 2.140625 -3.453125 2.359375 -3.265625 C 2.578125 -3.085938 2.6875 -2.828125 2.6875 -2.484375 C 2.6875 -2.222656 2.617188 -2.003906 2.484375 -1.828125 C 2.359375 -1.660156 2.179688 -1.539062 1.953125 -1.46875 L 3.171875 0 L 2.140625 0 L 1.0625 -1.40625 L 1.0625 0 L 0.25 0 Z M 1.0625 -1.96875 L 1.15625 -1.96875 C 1.226562 -1.96875 1.289062 -1.96875 1.34375 -1.96875 C 1.394531 -1.976562 1.453125 -1.988281 1.515625 -2 C 1.585938 -2.019531 1.644531 -2.046875 1.6875 -2.078125 C 1.726562 -2.109375 1.757812 -2.15625 1.78125 -2.21875 C 1.8125 -2.28125 1.828125 -2.351562 1.828125 -2.4375 C 1.828125 -2.519531 1.8125 -2.59375 1.78125 -2.65625 C 1.757812 -2.71875 1.726562 -2.765625 1.6875 -2.796875 C 1.644531 -2.828125 1.585938 -2.847656 1.515625 -2.859375 C 1.453125 -2.878906 1.394531 -2.890625 1.34375 -2.890625 C 1.289062 -2.898438 1.226562 -2.90625 1.15625 -2.90625 L 1.0625 -2.90625 Z M 1.0625 -1.96875 "/></g></g></g><g fill="#000000" fill-opacity="1"><g transform="translate(13.577661, 52.684877)"><g><path d="M 0.09375 -1.78125 C 0.09375 -2.289062 0.265625 -2.722656 0.609375 -3.078125 C 0.960938 -3.429688 1.390625 -3.609375 1.890625 -3.609375 C 2.378906 -3.609375 2.796875 -3.429688 3.140625 -3.078125 C 3.492188 -2.722656 3.671875 -2.289062 3.671875 -1.78125 C 3.671875 -1.257812 3.5 -0.820312 3.15625 -0.46875 C 2.8125 -0.113281 2.390625 0.0625 1.890625 0.0625 C 1.367188 0.0625 0.9375 -0.109375 0.59375 -0.453125 C 0.257812 -0.804688 0.09375 -1.25 0.09375 -1.78125 Z M 0.96875 -1.78125 C 0.96875 -1.59375 0.992188 -1.421875 1.046875 -1.265625 C 1.109375 -1.109375 1.210938 -0.976562 1.359375 -0.875 C 1.503906 -0.769531 1.679688 -0.71875 1.890625 -0.71875 C 2.191406 -0.71875 2.414062 -0.820312 2.5625 -1.03125 C 2.71875 -1.238281 2.796875 -1.488281 2.796875 -1.78125 C 2.796875 -2.0625 2.71875 -2.304688 2.5625 -2.515625 C 2.40625 -2.722656 2.179688 -2.828125 1.890625 -2.828125 C 1.597656 -2.828125 1.367188 -2.722656 1.203125 -2.515625 C 1.046875 -2.304688 0.96875 -2.0625 0.96875 -1.78125 Z M 0.96875 -1.78125 "/></g></g></g><g fill="#000000" fill-opacity="1"><g transform="translate(17.340336, 52.684877)"><g><path d="M 2.3125 -3.546875 L 2.3125 -2.828125 L 1.0625 -2.828125 L 1.0625 -2.125 L 2.21875 -2.125 L 2.21875 -1.421875 L 1.0625 -1.421875 L 1.0625 0 L 0.25 0 L 0.25 -3.546875 Z M 2.3125 -3.546875 "/></g></g></g><g fill="#000000" fill-opacity="1"><g transform="translate(19.77299, 52.684877)"><g><path d="M 2.28125 -3.546875 L 2.28125 -2.828125 L 1.0625 -2.828125 L 1.0625 -2.125 L 2.234375 -2.125 L 2.234375 -1.421875 L 1.0625 -1.421875 L 1.0625 -0.703125 L 2.28125 -0.703125 L 2.28125 0 L 0.25 0 L 0.25 -3.546875 Z M 2.28125 -3.546875 "/></g></g></g><g fill="#000000" fill-opacity="1"><g transform="translate(22.261417, 52.684877)"><g><path d="M 1.5625 -3.609375 C 1.757812 -3.609375 1.945312 -3.578125 2.125 -3.515625 C 2.3125 -3.460938 2.445312 -3.410156 2.53125 -3.359375 L 2.65625 -3.28125 L 2.34375 -2.625 C 2.3125 -2.644531 2.269531 -2.664062 2.21875 -2.6875 C 2.175781 -2.71875 2.09375 -2.753906 1.96875 -2.796875 C 1.84375 -2.847656 1.726562 -2.875 1.625 -2.875 C 1.488281 -2.875 1.382812 -2.84375 1.3125 -2.78125 C 1.238281 -2.726562 1.203125 -2.65625 1.203125 -2.5625 C 1.203125 -2.507812 1.21875 -2.460938 1.25 -2.421875 C 1.28125 -2.378906 1.335938 -2.332031 1.421875 -2.28125 C 1.503906 -2.238281 1.578125 -2.203125 1.640625 -2.171875 C 1.703125 -2.140625 1.800781 -2.097656 1.9375 -2.046875 C 2.164062 -1.953125 2.359375 -1.816406 2.515625 -1.640625 C 2.679688 -1.472656 2.765625 -1.285156 2.765625 -1.078125 C 2.765625 -0.867188 2.726562 -0.6875 2.65625 -0.53125 C 2.582031 -0.382812 2.484375 -0.269531 2.359375 -0.1875 C 2.234375 -0.101562 2.09375 -0.0390625 1.9375 0 C 1.78125 0.0390625 1.613281 0.0625 1.4375 0.0625 C 1.28125 0.0625 1.125 0.046875 0.96875 0.015625 C 0.820312 -0.015625 0.695312 -0.0507812 0.59375 -0.09375 C 0.5 -0.144531 0.410156 -0.191406 0.328125 -0.234375 C 0.242188 -0.285156 0.1875 -0.328125 0.15625 -0.359375 L 0.09375 -0.40625 L 0.5 -1.078125 C 0.53125 -1.054688 0.578125 -1.019531 0.640625 -0.96875 C 0.703125 -0.925781 0.804688 -0.867188 0.953125 -0.796875 C 1.109375 -0.722656 1.25 -0.6875 1.375 -0.6875 C 1.707031 -0.6875 1.875 -0.800781 1.875 -1.03125 C 1.875 -1.082031 1.863281 -1.128906 1.84375 -1.171875 C 1.820312 -1.210938 1.78125 -1.253906 1.71875 -1.296875 C 1.65625 -1.335938 1.597656 -1.367188 1.546875 -1.390625 C 1.503906 -1.410156 1.425781 -1.445312 1.3125 -1.5 C 1.207031 -1.550781 1.128906 -1.585938 1.078125 -1.609375 C 0.867188 -1.722656 0.703125 -1.859375 0.578125 -2.015625 C 0.460938 -2.171875 0.40625 -2.34375 0.40625 -2.53125 C 0.40625 -2.84375 0.519531 -3.097656 0.75 -3.296875 C 0.988281 -3.503906 1.257812 -3.609375 1.5625 -3.609375 Z M 1.5625 -3.609375 "/></g></g></g><g fill="#000000" fill-opacity="1"><g transform="translate(25.144563, 52.684877)"><g><path d="M 1.5625 -3.609375 C 1.757812 -3.609375 1.945312 -3.578125 2.125 -3.515625 C 2.3125 -3.460938 2.445312 -3.410156 2.53125 -3.359375 L 2.65625 -3.28125 L 2.34375 -2.625 C 2.3125 -2.644531 2.269531 -2.664062 2.21875 -2.6875 C 2.175781 -2.71875 2.09375 -2.753906 1.96875 -2.796875 C 1.84375 -2.847656 1.726562 -2.875 1.625 -2.875 C 1.488281 -2.875 1.382812 -2.84375 1.3125 -2.78125 C 1.238281 -2.726562 1.203125 -2.65625 1.203125 -2.5625 C 1.203125 -2.507812 1.21875 -2.460938 1.25 -2.421875 C 1.28125 -2.378906 1.335938 -2.332031 1.421875 -2.28125 C 1.503906 -2.238281 1.578125 -2.203125 1.640625 -2.171875 C 1.703125 -2.140625 1.800781 -2.097656 1.9375 -2.046875 C 2.164062 -1.953125 2.359375 -1.816406 2.515625 -1.640625 C 2.679688 -1.472656 2.765625 -1.285156 2.765625 -1.078125 C 2.765625 -0.867188 2.726562 -0.6875 2.65625 -0.53125 C 2.582031 -0.382812 2.484375 -0.269531 2.359375 -0.1875 C 2.234375 -0.101562 2.09375 -0.0390625 1.9375 0 C 1.78125 0.0390625 1.613281 0.0625 1.4375 0.0625 C 1.28125 0.0625 1.125 0.046875 0.96875 0.015625 C 0.820312 -0.015625 0.695312 -0.0507812 0.59375 -0.09375 C 0.5 -0.144531 0.410156 -0.191406 0.328125 -0.234375 C 0.242188 -0.285156 0.1875 -0.328125 0.15625 -0.359375 L 0.09375 -0.40625 L 0.5 -1.078125 C 0.53125 -1.054688 0.578125 -1.019531 0.640625 -0.96875 C 0.703125 -0.925781 0.804688 -0.867188 0.953125 -0.796875 C 1.109375 -0.722656 1.25 -0.6875 1.375 -0.6875 C 1.707031 -0.6875 1.875 -0.800781 1.875 -1.03125 C 1.875 -1.082031 1.863281 -1.128906 1.84375 -1.171875 C 1.820312 -1.210938 1.78125 -1.253906 1.71875 -1.296875 C 1.65625 -1.335938 1.597656 -1.367188 1.546875 -1.390625 C 1.503906 -1.410156 1.425781 -1.445312 1.3125 -1.5 C 1.207031 -1.550781 1.128906 -1.585938 1.078125 -1.609375 C 0.867188 -1.722656 0.703125 -1.859375 0.578125 -2.015625 C 0.460938 -2.171875 0.40625 -2.34375 0.40625 -2.53125 C 0.40625 -2.84375 0.519531 -3.097656 0.75 -3.296875 C 0.988281 -3.503906 1.257812 -3.609375 1.5625 -3.609375 Z M 1.5625 -3.609375 "/></g></g></g><g fill="#000000" fill-opacity="1"><g transform="translate(28.02771, 52.684877)"><g><path d="M 1.0625 -3.546875 L 1.0625 0 L 0.25 0 L 0.25 -3.546875 Z M 1.0625 -3.546875 "/></g></g></g><g fill="#000000" fill-opacity="1"><g transform="translate(29.34915, 52.684877)"><g><path d="M 0.09375 -1.78125 C 0.09375 -2.289062 0.265625 -2.722656 0.609375 -3.078125 C 0.960938 -3.429688 1.390625 -3.609375 1.890625 -3.609375 C 2.378906 -3.609375 2.796875 -3.429688 3.140625 -3.078125 C 3.492188 -2.722656 3.671875 -2.289062 3.671875 -1.78125 C 3.671875 -1.257812 3.5 -0.820312 3.15625 -0.46875 C 2.8125 -0.113281 2.390625 0.0625 1.890625 0.0625 C 1.367188 0.0625 0.9375 -0.109375 0.59375 -0.453125 C 0.257812 -0.804688 0.09375 -1.25 0.09375 -1.78125 Z M 0.96875 -1.78125 C 0.96875 -1.59375 0.992188 -1.421875 1.046875 -1.265625 C 1.109375 -1.109375 1.210938 -0.976562 1.359375 -0.875 C 1.503906 -0.769531 1.679688 -0.71875 1.890625 -0.71875 C 2.191406 -0.71875 2.414062 -0.820312 2.5625 -1.03125 C 2.71875 -1.238281 2.796875 -1.488281 2.796875 -1.78125 C 2.796875 -2.0625 2.71875 -2.304688 2.5625 -2.515625 C 2.40625 -2.722656 2.179688 -2.828125 1.890625 -2.828125 C 1.597656 -2.828125 1.367188 -2.722656 1.203125 -2.515625 C 1.046875 -2.304688 0.96875 -2.0625 0.96875 -1.78125 Z M 0.96875 -1.78125 "/></g></g></g><g fill="#000000" fill-opacity="1"><g transform="translate(33.111825, 52.684877)"><g><path d="M 1.0625 -2.203125 L 1.0625 0 L 0.25 0 L 0.25 -3.546875 L 1.0625 -3.546875 L 2.46875 -1.34375 L 2.484375 -1.34375 L 2.484375 -3.546875 L 3.296875 -3.546875 L 3.296875 0 L 2.484375 0 L 1.078125 -2.203125 Z M 1.0625 -2.203125 "/></g></g></g><g fill="#000000" fill-opacity="1"><g transform="translate(36.655692, 52.684877)"><g><path d="M 2.0625 -3.546875 L 3.484375 0 L 2.625 0 L 2.359375 -0.703125 L 1.015625 -0.703125 L 0.75 0 L -0.125 0 L 1.3125 -3.546875 Z M 2.078125 -1.421875 L 1.6875 -2.453125 L 1.28125 -1.421875 Z M 2.078125 -1.421875 "/></g></g></g><g fill="#000000" fill-opacity="1"><g transform="translate(40.019359, 52.684877)"><g><path d="M 1.0625 -3.546875 L 1.0625 -0.703125 L 2.28125 -0.703125 L 2.28125 0 L 0.25 0 L 0.25 -3.546875 Z M 1.0625 -3.546875 "/></g></g></g><g fill="#000000" fill-opacity="1"><g transform="translate(42.443433, 52.684877)"><g/></g></g><g fill="#000000" fill-opacity="1"><g transform="translate(43.614711, 52.684877)"><g><path d="M 1.5625 -3.609375 C 1.757812 -3.609375 1.945312 -3.578125 2.125 -3.515625 C 2.3125 -3.460938 2.445312 -3.410156 2.53125 -3.359375 L 2.65625 -3.28125 L 2.34375 -2.625 C 2.3125 -2.644531 2.269531 -2.664062 2.21875 -2.6875 C 2.175781 -2.71875 2.09375 -2.753906 1.96875 -2.796875 C 1.84375 -2.847656 1.726562 -2.875 1.625 -2.875 C 1.488281 -2.875 1.382812 -2.84375 1.3125 -2.78125 C 1.238281 -2.726562 1.203125 -2.65625 1.203125 -2.5625 C 1.203125 -2.507812 1.21875 -2.460938 1.25 -2.421875 C 1.28125 -2.378906 1.335938 -2.332031 1.421875 -2.28125 C 1.503906 -2.238281 1.578125 -2.203125 1.640625 -2.171875 C 1.703125 -2.140625 1.800781 -2.097656 1.9375 -2.046875 C 2.164062 -1.953125 2.359375 -1.816406 2.515625 -1.640625 C 2.679688 -1.472656 2.765625 -1.285156 2.765625 -1.078125 C 2.765625 -0.867188 2.726562 -0.6875 2.65625 -0.53125 C 2.582031 -0.382812 2.484375 -0.269531 2.359375 -0.1875 C 2.234375 -0.101562 2.09375 -0.0390625 1.9375 0 C 1.78125 0.0390625 1.613281 0.0625 1.4375 0.0625 C 1.28125 0.0625 1.125 0.046875 0.96875 0.015625 C 0.820312 -0.015625 0.695312 -0.0507812 0.59375 -0.09375 C 0.5 -0.144531 0.410156 -0.191406 0.328125 -0.234375 C 0.242188 -0.285156 0.1875 -0.328125 0.15625 -0.359375 L 0.09375 -0.40625 L 0.5 -1.078125 C 0.53125 -1.054688 0.578125 -1.019531 0.640625 -0.96875 C 0.703125 -0.925781 0.804688 -0.867188 0.953125 -0.796875 C 1.109375 -0.722656 1.25 -0.6875 1.375 -0.6875 C 1.707031 -0.6875 1.875 -0.800781 1.875 -1.03125 C 1.875 -1.082031 1.863281 -1.128906 1.84375 -1.171875 C 1.820312 -1.210938 1.78125 -1.253906 1.71875 -1.296875 C 1.65625 -1.335938 1.597656 -1.367188 1.546875 -1.390625 C 1.503906 -1.410156 1.425781 -1.445312 1.3125 -1.5 C 1.207031 -1.550781 1.128906 -1.585938 1.078125 -1.609375 C 0.867188 -1.722656 0.703125 -1.859375 0.578125 -2.015625 C 0.460938 -2.171875 0.40625 -2.34375 0.40625 -2.53125 C 0.40625 -2.84375 0.519531 -3.097656 0.75 -3.296875 C 0.988281 -3.503906 1.257812 -3.609375 1.5625 -3.609375 Z M 1.5625 -3.609375 "/></g></g></g><g fill="#000000" fill-opacity="1"><g transform="translate(46.497858, 52.684877)"><g><path d="M 2.28125 -3.546875 L 2.28125 -2.828125 L 1.0625 -2.828125 L 1.0625 -2.125 L 2.234375 -2.125 L 2.234375 -1.421875 L 1.0625 -1.421875 L 1.0625 -0.703125 L 2.28125 -0.703125 L 2.28125 0 L 0.25 0 L 0.25 -3.546875 Z M 2.28125 -3.546875 "/></g></g></g><g fill="#000000" fill-opacity="1"><g transform="translate(48.986284, 52.684877)"><g><path d="M 0.09375 -1.78125 C 0.09375 -2.289062 0.265625 -2.722656 0.609375 -3.078125 C 0.960938 -3.429688 1.390625 -3.609375 1.890625 -3.609375 C 2.378906 -3.609375 2.796875 -3.429688 3.140625 -3.078125 C 3.492188 -2.722656 3.671875 -2.289062 3.671875 -1.78125 C 3.671875 -1.257812 3.5 -0.820312 3.15625 -0.46875 C 2.8125 -0.113281 2.390625 0.0625 1.890625 0.0625 C 1.367188 0.0625 0.9375 -0.109375 0.59375 -0.453125 C 0.257812 -0.804688 0.09375 -1.25 0.09375 -1.78125 Z M 0.96875 -1.78125 C 0.96875 -1.59375 0.992188 -1.421875 1.046875 -1.265625 C 1.109375 -1.109375 1.210938 -0.976562 1.359375 -0.875 C 1.503906 -0.769531 1.679688 -0.71875 1.890625 -0.71875 C 2.191406 -0.71875 2.414062 -0.820312 2.5625 -1.03125 C 2.71875 -1.238281 2.796875 -1.488281 2.796875 -1.78125 C 2.796875 -2.0625 2.71875 -2.304688 2.5625 -2.515625 C 2.40625 -2.722656 2.179688 -2.828125 1.890625 -2.828125 C 1.597656 -2.828125 1.367188 -2.722656 1.203125 -2.515625 C 1.046875 -2.304688 0.96875 -2.0625 0.96875 -1.78125 Z M 0.96875 -1.78125 "/></g></g></g><g fill="#000000" fill-opacity="1"><g transform="translate(52.748959, 52.684877)"><g/></g></g><g fill="#000000" fill-opacity="1"><g transform="translate(53.920237, 52.684877)"><g><path d="M 1.5625 -3.609375 C 1.757812 -3.609375 1.945312 -3.578125 2.125 -3.515625 C 2.3125 -3.460938 2.445312 -3.410156 2.53125 -3.359375 L 2.65625 -3.28125 L 2.34375 -2.625 C 2.3125 -2.644531 2.269531 -2.664062 2.21875 -2.6875 C 2.175781 -2.71875 2.09375 -2.753906 1.96875 -2.796875 C 1.84375 -2.847656 1.726562 -2.875 1.625 -2.875 C 1.488281 -2.875 1.382812 -2.84375 1.3125 -2.78125 C 1.238281 -2.726562 1.203125 -2.65625 1.203125 -2.5625 C 1.203125 -2.507812 1.21875 -2.460938 1.25 -2.421875 C 1.28125 -2.378906 1.335938 -2.332031 1.421875 -2.28125 C 1.503906 -2.238281 1.578125 -2.203125 1.640625 -2.171875 C 1.703125 -2.140625 1.800781 -2.097656 1.9375 -2.046875 C 2.164062 -1.953125 2.359375 -1.816406 2.515625 -1.640625 C 2.679688 -1.472656 2.765625 -1.285156 2.765625 -1.078125 C 2.765625 -0.867188 2.726562 -0.6875 2.65625 -0.53125 C 2.582031 -0.382812 2.484375 -0.269531 2.359375 -0.1875 C 2.234375 -0.101562 2.09375 -0.0390625 1.9375 0 C 1.78125 0.0390625 1.613281 0.0625 1.4375 0.0625 C 1.28125 0.0625 1.125 0.046875 0.96875 0.015625 C 0.820312 -0.015625 0.695312 -0.0507812 0.59375 -0.09375 C 0.5 -0.144531 0.410156 -0.191406 0.328125 -0.234375 C 0.242188 -0.285156 0.1875 -0.328125 0.15625 -0.359375 L 0.09375 -0.40625 L 0.5 -1.078125 C 0.53125 -1.054688 0.578125 -1.019531 0.640625 -0.96875 C 0.703125 -0.925781 0.804688 -0.867188 0.953125 -0.796875 C 1.109375 -0.722656 1.25 -0.6875 1.375 -0.6875 C 1.707031 -0.6875 1.875 -0.800781 1.875 -1.03125 C 1.875 -1.082031 1.863281 -1.128906 1.84375 -1.171875 C 1.820312 -1.210938 1.78125 -1.253906 1.71875 -1.296875 C 1.65625 -1.335938 1.597656 -1.367188 1.546875 -1.390625 C 1.503906 -1.410156 1.425781 -1.445312 1.3125 -1.5 C 1.207031 -1.550781 1.128906 -1.585938 1.078125 -1.609375 C 0.867188 -1.722656 0.703125 -1.859375 0.578125 -2.015625 C 0.460938 -2.171875 0.40625 -2.34375 0.40625 -2.53125 C 0.40625 -2.84375 0.519531 -3.097656 0.75 -3.296875 C 0.988281 -3.503906 1.257812 -3.609375 1.5625 -3.609375 Z M 1.5625 -3.609375 "/></g></g></g><g fill="#000000" fill-opacity="1"><g transform="translate(56.803384, 52.684877)"><g><path d="M 2.28125 -3.546875 L 2.28125 -2.828125 L 1.0625 -2.828125 L 1.0625 -2.125 L 2.234375 -2.125 L 2.234375 -1.421875 L 1.0625 -1.421875 L 1.0625 -0.703125 L 2.28125 -0.703125 L 2.28125 0 L 0.25 0 L 0.25 -3.546875 Z M 2.28125 -3.546875 "/></g></g></g><g fill="#000000" fill-opacity="1"><g transform="translate(59.29181, 52.684877)"><g><path d="M 0.25 -3.546875 L 1.53125 -3.546875 C 1.863281 -3.546875 2.140625 -3.453125 2.359375 -3.265625 C 2.578125 -3.085938 2.6875 -2.828125 2.6875 -2.484375 C 2.6875 -2.222656 2.617188 -2.003906 2.484375 -1.828125 C 2.359375 -1.660156 2.179688 -1.539062 1.953125 -1.46875 L 3.171875 0 L 2.140625 0 L 1.0625 -1.40625 L 1.0625 0 L 0.25 0 Z M 1.0625 -1.96875 L 1.15625 -1.96875 C 1.226562 -1.96875 1.289062 -1.96875 1.34375 -1.96875 C 1.394531 -1.976562 1.453125 -1.988281 1.515625 -2 C 1.585938 -2.019531 1.644531 -2.046875 1.6875 -2.078125 C 1.726562 -2.109375 1.757812 -2.15625 1.78125 -2.21875 C 1.8125 -2.28125 1.828125 -2.351562 1.828125 -2.4375 C 1.828125 -2.519531 1.8125 -2.59375 1.78125 -2.65625 C 1.757812 -2.71875 1.726562 -2.765625 1.6875 -2.796875 C 1.644531 -2.828125 1.585938 -2.847656 1.515625 -2.859375 C 1.453125 -2.878906 1.394531 -2.890625 1.34375 -2.890625 C 1.289062 -2.898438 1.226562 -2.90625 1.15625 -2.90625 L 1.0625 -2.90625 Z M 1.0625 -1.96875 "/></g></g></g><g fill="#000000" fill-opacity="1"><g transform="translate(62.363732, 52.684877)"><g><path d="M 1.359375 0 L -0.125 -3.546875 L 0.796875 -3.546875 L 1.6875 -1.21875 L 2.578125 -3.546875 L 3.484375 -3.546875 L 2 0 Z M 1.359375 0 "/></g></g></g><g fill="#000000" fill-opacity="1"><g transform="translate(65.7274, 52.684877)"><g><path d="M 1.0625 -3.546875 L 1.0625 0 L 0.25 0 L 0.25 -3.546875 Z M 1.0625 -3.546875 "/></g></g></g><g fill="#000000" fill-opacity="1"><g transform="translate(67.048841, 52.684877)"><g><path d="M 2.140625 -0.734375 C 2.265625 -0.734375 2.382812 -0.75 2.5 -0.78125 C 2.613281 -0.820312 2.703125 -0.859375 2.765625 -0.890625 L 2.84375 -0.953125 L 3.1875 -0.265625 C 3.175781 -0.253906 3.160156 -0.238281 3.140625 -0.21875 C 3.117188 -0.207031 3.070312 -0.179688 3 -0.140625 C 2.925781 -0.109375 2.847656 -0.078125 2.765625 -0.046875 C 2.679688 -0.015625 2.570312 0.0078125 2.4375 0.03125 C 2.300781 0.0507812 2.160156 0.0625 2.015625 0.0625 C 1.691406 0.0625 1.378906 -0.015625 1.078125 -0.171875 C 0.785156 -0.335938 0.546875 -0.5625 0.359375 -0.84375 C 0.179688 -1.125 0.09375 -1.429688 0.09375 -1.765625 C 0.09375 -2.015625 0.144531 -2.253906 0.25 -2.484375 C 0.363281 -2.710938 0.503906 -2.90625 0.671875 -3.0625 C 0.847656 -3.226562 1.054688 -3.359375 1.296875 -3.453125 C 1.535156 -3.554688 1.773438 -3.609375 2.015625 -3.609375 C 2.242188 -3.609375 2.453125 -3.582031 2.640625 -3.53125 C 2.835938 -3.476562 2.976562 -3.421875 3.0625 -3.359375 L 3.1875 -3.28125 L 2.84375 -2.59375 C 2.820312 -2.613281 2.789062 -2.632812 2.75 -2.65625 C 2.707031 -2.675781 2.625 -2.707031 2.5 -2.75 C 2.382812 -2.789062 2.265625 -2.8125 2.140625 -2.8125 C 1.953125 -2.8125 1.78125 -2.78125 1.625 -2.71875 C 1.46875 -2.65625 1.34375 -2.570312 1.25 -2.46875 C 1.15625 -2.363281 1.082031 -2.25 1.03125 -2.125 C 0.988281 -2.007812 0.96875 -1.894531 0.96875 -1.78125 C 0.96875 -1.507812 1.066406 -1.265625 1.265625 -1.046875 C 1.472656 -0.835938 1.765625 -0.734375 2.140625 -0.734375 Z M 2.140625 -0.734375 "/></g></g></g><g fill="#000000" fill-opacity="1"><g transform="translate(70.279505, 52.684877)"><g><path d="M 2.28125 -3.546875 L 2.28125 -2.828125 L 1.0625 -2.828125 L 1.0625 -2.125 L 2.234375 -2.125 L 2.234375 -1.421875 L 1.0625 -1.421875 L 1.0625 -0.703125 L 2.28125 -0.703125 L 2.28125 0 L 0.25 0 L 0.25 -3.546875 Z M 2.28125 -3.546875 "/></g></g></g><g fill="#000000" fill-opacity="1"><g transform="translate(72.767932, 52.684877)"><g><path d="M 1.5625 -3.609375 C 1.757812 -3.609375 1.945312 -3.578125 2.125 -3.515625 C 2.3125 -3.460938 2.445312 -3.410156 2.53125 -3.359375 L 2.65625 -3.28125 L 2.34375 -2.625 C 2.3125 -2.644531 2.269531 -2.664062 2.21875 -2.6875 C 2.175781 -2.71875 2.09375 -2.753906 1.96875 -2.796875 C 1.84375 -2.847656 1.726562 -2.875 1.625 -2.875 C 1.488281 -2.875 1.382812 -2.84375 1.3125 -2.78125 C 1.238281 -2.726562 1.203125 -2.65625 1.203125 -2.5625 C 1.203125 -2.507812 1.21875 -2.460938 1.25 -2.421875 C 1.28125 -2.378906 1.335938 -2.332031 1.421875 -2.28125 C 1.503906 -2.238281 1.578125 -2.203125 1.640625 -2.171875 C 1.703125 -2.140625 1.800781 -2.097656 1.9375 -2.046875 C 2.164062 -1.953125 2.359375 -1.816406 2.515625 -1.640625 C 2.679688 -1.472656 2.765625 -1.285156 2.765625 -1.078125 C 2.765625 -0.867188 2.726562 -0.6875 2.65625 -0.53125 C 2.582031 -0.382812 2.484375 -0.269531 2.359375 -0.1875 C 2.234375 -0.101562 2.09375 -0.0390625 1.9375 0 C 1.78125 0.0390625 1.613281 0.0625 1.4375 0.0625 C 1.28125 0.0625 1.125 0.046875 0.96875 0.015625 C 0.820312 -0.015625 0.695312 -0.0507812 0.59375 -0.09375 C 0.5 -0.144531 0.410156 -0.191406 0.328125 -0.234375 C 0.242188 -0.285156 0.1875 -0.328125 0.15625 -0.359375 L 0.09375 -0.40625 L 0.5 -1.078125 C 0.53125 -1.054688 0.578125 -1.019531 0.640625 -0.96875 C 0.703125 -0.925781 0.804688 -0.867188 0.953125 -0.796875 C 1.109375 -0.722656 1.25 -0.6875 1.375 -0.6875 C 1.707031 -0.6875 1.875 -0.800781 1.875 -1.03125 C 1.875 -1.082031 1.863281 -1.128906 1.84375 -1.171875 C 1.820312 -1.210938 1.78125 -1.253906 1.71875 -1.296875 C 1.65625 -1.335938 1.597656 -1.367188 1.546875 -1.390625 C 1.503906 -1.410156 1.425781 -1.445312 1.3125 -1.5 C 1.207031 -1.550781 1.128906 -1.585938 1.078125 -1.609375 C 0.867188 -1.722656 0.703125 -1.859375 0.578125 -2.015625 C 0.460938 -2.171875 0.40625 -2.34375 0.40625 -2.53125 C 0.40625 -2.84375 0.519531 -3.097656 0.75 -3.296875 C 0.988281 -3.503906 1.257812 -3.609375 1.5625 -3.609375 Z M 1.5625 -3.609375 "/></g></g></g></svg>