<svg xmlns="http://www.w3.org/2000/svg" xmlns:xlink="http://www.w3.org/1999/xlink" width="64" zoomAndPan="magnify" viewBox="0 0 48 48" height="64" preserveAspectRatio="xMidYMid meet" version="1.0"><defs><g/><clipPath id="2177ec27a0"><path d="M 0.488281 0 L 47.507812 0 L 47.507812 47.019531 L 0.488281 47.019531 Z M 0.488281 0 " clip-rule="nonzero"/></clipPath></defs><g clip-path="url(#2177ec27a0)"><path fill="#ffffff" d="M 0.488281 0 L 47.511719 0 L 47.511719 47.019531 L 0.488281 47.019531 Z M 0.488281 0 " fill-opacity="1" fill-rule="nonzero"/><path fill="#f8f7f2" d="M 0.488281 0 L 47.511719 0 L 47.511719 47.019531 L 0.488281 47.019531 Z M 0.488281 0 " fill-opacity="1" fill-rule="nonzero"/></g><g fill="#000000" fill-opacity="1"><g transform="translate(10.134936, 37.114016)"><g><path d="M 16.921875 -29.15625 L 28.703125 0 L 21.5625 0 L 19.40625 -5.828125 L 8.3125 -5.828125 L 6.15625 0 L -0.984375 0 L 10.78125 -29.15625 Z M 17.140625 -11.65625 L 13.890625 -20.140625 L 13.8125 -20.140625 L 10.5625 -11.65625 Z M 17.140625 -11.65625 "/></g></g></g></svg>